<?xml version="1.0" standalone="no"?>
<!DOCTYPE svg PUBLIC "-//W3C//DTD SVG 20010904//EN"
 "http://www.w3.org/TR/2001/REC-SVG-20010904/DTD/svg10.dtd">
<svg version="1.0" xmlns="http://www.w3.org/2000/svg"
 width="412.000000pt" height="47.000000pt" viewBox="0 0 412.000000 47.000000"
 preserveAspectRatio="xMidYMid meet">

<g transform="translate(0.000000,47.000000) scale(0.100000,-0.100000)"
fill="#000000" stroke="none">
<path d="M0 235 l0 -235 2060 0 2060 0 0 235 0 235 -2060 0 -2060 0 0 -235z
m700 130 c0 -61 -1 -65 -23 -65 -29 0 -47 18 -47 45 0 26 18 45 42 45 11 0 18
7 18 20 0 11 2 20 5 20 3 0 5 -29 5 -65z m70 55 c0 -5 -4 -10 -10 -10 -5 0
-10 5 -10 10 0 6 5 10 10 10 6 0 10 -4 10 -10z m423 0 c-27 -11 -30 -30 -5
-31 16 -1 16 -2 0 -6 -13 -3 -18 -15 -18 -44 0 -21 -4 -39 -10 -39 -5 0 -10
18 -10 40 0 22 -4 40 -10 40 -5 0 0 11 12 25 12 14 31 25 42 24 20 0 20 -1 -1
-9z m-1110 -7 c-25 -3 -33 -9 -33 -24 0 -14 7 -19 28 -20 l27 -2 -27 -4 c-22
-3 -28 -10 -31 -36 -2 -18 -5 -4 -5 31 l-2 62 38 -2 c36 -1 36 -1 5 -5z m1610
-105 c7 -4 -4 -7 -23 -7 -19 1 -27 3 -17 6 13 3 17 15 17 48 0 38 -3 43 -17
38 -15 -5 -14 -3 2 10 19 15 20 14 23 -36 2 -28 9 -55 15 -59z m105 90 c2 -10
-8 -33 -23 -52 l-26 -35 33 -4 c29 -3 27 -4 -11 -5 -43 -2 -43 -2 -27 21 9 12
23 32 32 44 20 28 9 46 -23 38 -17 -4 -22 -2 -18 5 11 17 59 7 63 -12z m112
19 c0 -1 -9 -20 -20 -42 -11 -22 -20 -47 -20 -57 0 -10 -5 -18 -11 -18 -11 0
-7 21 16 77 13 32 13 32 -18 36 -27 3 -25 4 11 5 23 1 42 1 42 -1z m194 -29
c20 -57 -29 -115 -61 -72 -16 22 -17 58 -2 85 15 29 51 21 63 -13z m200 0 c20
-57 -29 -115 -61 -72 -16 22 -17 58 -2 85 15 29 51 21 63 -13z m189 -80 c7 -4
-4 -7 -23 -7 -19 1 -27 3 -17 6 13 3 17 15 17 48 0 38 -3 43 -17 38 -15 -5
-14 -3 2 10 19 15 20 14 23 -36 2 -28 9 -55 15 -59z m204 77 c1 -16 3 -38 5
-49 2 -10 -5 -23 -14 -30 -29 -18 -53 4 -53 50 -1 47 11 66 39 62 15 -2 22
-11 23 -33z m107 3 c20 -57 -29 -115 -61 -72 -16 22 -17 58 -2 85 15 29 51 21
63 -13z m93 -3 c1 -16 3 -38 5 -49 2 -10 -5 -23 -14 -30 -29 -18 -53 4 -53 50
-1 47 11 66 39 62 15 -2 22 -11 23 -33z m107 3 c20 -57 -29 -115 -61 -72 -16
22 -17 58 -2 85 15 29 51 21 63 -13z m493 -3 c1 -16 3 -38 5 -49 2 -10 -5 -23
-14 -30 -29 -18 -53 4 -53 50 -1 47 11 66 39 62 15 -2 22 -11 23 -33z m107 3
c20 -57 -29 -115 -61 -72 -16 22 -17 58 -2 85 15 29 51 21 63 -13z m93 -3 c1
-16 3 -38 5 -49 2 -10 -5 -23 -14 -30 -29 -18 -53 4 -53 50 -1 47 11 66 39 62
15 -2 22 -11 23 -33z m107 3 c20 -57 -29 -115 -61 -72 -16 22 -17 58 -2 85 15
29 51 21 63 -13z m-3604 -12 c28 -35 -11 -93 -47 -70 -36 22 -23 84 17 84 10
0 23 -7 30 -14z m83 7 c-19 -4 -23 -11 -23 -44 0 -21 -4 -39 -10 -39 -11 0
-14 73 -3 83 3 4 18 6 32 6 24 -2 24 -2 4 -6z m69 -44 c6 -4 8 -15 4 -25 -11
-28 -26 2 -24 46 0 27 2 30 5 10 3 -14 10 -28 15 -31z m53 -7 l-7 -36 -19 24
c-10 14 -19 32 -18 40 0 12 2 12 13 -2 15 -20 26 -14 27 16 0 12 3 15 6 8 3
-7 2 -30 -2 -50z m93 11 c3 -40 1 -43 -21 -43 -34 0 -54 25 -37 45 7 8 22 15
33 15 24 0 12 15 -18 23 -12 3 -8 5 10 4 28 -2 30 -5 33 -44z m85 40 c-19 -4
-23 -11 -23 -44 0 -21 -4 -39 -10 -39 -11 0 -14 73 -3 83 3 4 18 6 32 6 24 -2
24 -2 4 -6z m187 -28 c0 -22 6 -38 18 -45 15 -10 15 -10 -3 -8 -15 2 -21 12
-23 40 -2 24 -9 38 -20 41 -12 3 -11 5 6 6 19 1 22 -4 22 -34z m126 -15 l2
-45 -7 40 c-4 27 -12 41 -23 43 -15 3 -18 -4 -18 -37 0 -23 -4 -41 -10 -41
-11 0 -14 73 -3 84 4 4 19 6 33 4 22 -3 25 -8 26 -48z m102 -7 c-3 -57 -4 -58
-33 -60 -18 -1 -22 1 -10 4 30 8 43 23 19 23 -26 0 -44 19 -44 45 0 28 18 45
47 45 23 0 24 -3 21 -57z m285 50 c-19 -4 -23 -11 -23 -44 0 -21 -4 -39 -10
-39 -11 0 -14 73 -3 83 3 4 18 6 32 6 24 -2 24 -2 4 -6z m117 -7 c28 -35 -11
-93 -47 -70 -36 22 -23 84 17 84 10 0 23 -7 30 -14z m106 -36 c1 -35 0 -37 -3
-10 -5 41 -23 66 -23 32 0 -12 -4 -22 -10 -22 -5 0 -10 9 -10 20 0 38 -19 20
-23 -22 l-4 -43 -1 48 -2 48 38 -3 c37 -3 37 -3 38 -48z m1074 35 c0 -8 -4
-15 -10 -15 -5 0 -10 7 -10 15 0 8 5 15 10 15 6 0 10 -7 10 -15z m697 -7 c18
-7 33 -16 33 -20 0 -4 -2 -8 -4 -8 -2 0 -20 -7 -40 -15 -20 -8 -36 -13 -36
-10 0 3 15 12 32 20 l33 13 -35 15 c-42 18 -30 22 17 5z m-94 -25 c-7 -2 -19
-2 -25 0 -7 3 -2 5 12 5 14 0 19 -2 13 -5z m-1203 -28 c0 -8 -4 -15 -10 -15
-5 0 -10 7 -10 15 0 8 5 15 10 15 6 0 10 -7 10 -15z m200 0 c0 -8 -4 -15 -10
-15 -5 0 -10 7 -10 15 0 8 5 15 10 15 6 0 10 -7 10 -15z m200 0 c0 -8 -4 -15
-10 -15 -5 0 -10 7 -10 15 0 8 5 15 10 15 6 0 10 -7 10 -15z m200 0 c0 -8 -4
-15 -10 -15 -5 0 -10 7 -10 15 0 8 5 15 10 15 6 0 10 -7 10 -15z m-1880 -170
c0 -61 -1 -65 -23 -65 -29 0 -47 18 -47 45 0 26 18 45 42 45 11 0 18 7 18 20
0 11 2 20 5 20 3 0 5 -29 5 -65z m70 55 c0 -5 -4 -10 -10 -10 -5 0 -10 5 -10
10 0 6 5 10 10 10 6 0 10 -4 10 -10z m423 0 c-27 -11 -30 -30 -5 -31 16 -1 16
-2 0 -6 -13 -3 -18 -15 -18 -44 0 -21 -4 -39 -10 -39 -5 0 -10 18 -10 40 0 22
-4 40 -10 40 -5 0 0 11 12 25 12 14 31 25 42 24 20 0 20 -1 -1 -9z m485 3
c-15 -4 -18 -16 -18 -73 0 -57 3 -69 18 -73 13 -4 11 -5 -5 -6 -22 -1 -23 2
-23 79 0 77 1 80 23 79 16 -1 18 -2 5 -6z m412 -73 l0 -80 -27 1 c-27 0 -27 1
-5 9 19 8 22 16 22 70 0 54 -3 62 -22 70 -22 8 -22 9 5 9 l27 1 0 -80z m-2007
63 c-25 -3 -33 -9 -33 -24 0 -14 7 -19 28 -20 l27 -2 -27 -4 c-22 -3 -28 -10
-31 -36 -2 -18 -5 -4 -5 31 l-2 62 38 -2 c36 -1 36 -1 5 -5z m1910 -105 c7 -4
-4 -7 -23 -7 -19 1 -27 3 -17 6 13 3 17 15 17 48 0 38 -3 43 -17 38 -15 -5
-14 -3 2 10 19 15 20 14 23 -36 2 -28 9 -55 15 -59z m304 77 c1 -16 3 -38 5
-49 2 -10 -5 -23 -14 -30 -29 -18 -53 4 -53 50 -1 47 11 66 39 62 15 -2 22
-11 23 -33z m107 3 c20 -57 -29 -115 -61 -72 -16 22 -17 58 -2 85 15 29 51 21
63 -13z m93 -3 c1 -16 3 -38 5 -49 2 -10 -5 -23 -14 -30 -29 -18 -53 4 -53 50
-1 47 11 66 39 62 15 -2 22 -11 23 -33z m107 3 c20 -57 -29 -115 -61 -72 -16
22 -17 58 -2 85 15 29 51 21 63 -13z m493 -3 c1 -16 3 -38 5 -49 2 -10 -5 -23
-14 -30 -29 -18 -53 4 -53 50 -1 47 11 66 39 62 15 -2 22 -11 23 -33z m107 3
c20 -57 -29 -115 -61 -72 -16 22 -17 58 -2 85 15 29 51 21 63 -13z m93 -3 c1
-16 3 -38 5 -49 2 -10 -5 -23 -14 -30 -29 -18 -53 4 -53 50 -1 47 11 66 39 62
15 -2 22 -11 23 -33z m107 3 c20 -57 -29 -115 -61 -72 -16 22 -17 58 -2 85 15
29 51 21 63 -13z m-3204 -12 c28 -35 -11 -93 -47 -70 -36 22 -23 84 17 84 10
0 23 -7 30 -14z m83 7 c-19 -4 -23 -11 -23 -44 0 -21 -4 -39 -10 -39 -11 0
-14 73 -3 83 3 4 18 6 32 6 24 -2 24 -2 4 -6z m69 -44 c6 -4 8 -15 4 -25 -11
-28 -26 2 -24 46 0 27 2 30 5 10 3 -14 10 -28 15 -31z m53 -7 l-7 -36 -19 24
c-10 14 -19 32 -18 40 0 12 2 12 13 -2 15 -20 26 -14 27 16 0 12 3 15 6 8 3
-7 2 -30 -2 -50z m93 11 c3 -40 1 -43 -21 -43 -34 0 -54 25 -37 45 7 8 22 15
33 15 24 0 12 15 -18 23 -12 3 -8 5 10 4 28 -2 30 -5 33 -44z m85 40 c-19 -4
-23 -11 -23 -44 0 -21 -4 -39 -10 -39 -11 0 -14 73 -3 83 3 4 18 6 32 6 24 -2
24 -2 4 -6z m187 -28 c0 -22 6 -38 18 -45 15 -10 15 -10 -3 -8 -15 2 -21 12
-23 40 -2 24 -9 38 -20 41 -12 3 -11 5 6 6 19 1 22 -4 22 -34z m126 -15 l2
-45 -7 40 c-4 27 -12 41 -23 43 -15 3 -18 -4 -18 -37 0 -23 -4 -41 -10 -41
-11 0 -14 73 -3 84 4 4 19 6 33 4 22 -3 25 -8 26 -48z m102 -7 c-3 -57 -4 -58
-33 -60 -18 -1 -22 1 -10 4 30 8 43 23 19 23 -26 0 -44 19 -44 45 0 28 18 45
47 45 23 0 24 -3 21 -57z m285 50 c-19 -4 -23 -11 -23 -44 0 -21 -4 -39 -10
-39 -11 0 -14 73 -3 83 3 4 18 6 32 6 24 -2 24 -2 4 -6z m117 -7 c28 -35 -11
-93 -47 -70 -36 22 -23 84 17 84 10 0 23 -7 30 -14z m106 -36 c1 -35 0 -37 -3
-10 -5 41 -23 66 -23 32 0 -12 -4 -22 -10 -22 -5 0 -10 9 -10 20 0 38 -19 20
-23 -22 l-4 -43 -1 48 -2 48 38 -3 c37 -3 37 -3 38 -48z m274 35 c0 -8 -4 -15
-10 -15 -5 0 -10 7 -10 15 0 8 5 15 10 15 6 0 10 -7 10 -15z m100 0 c0 -8 -4
-15 -10 -15 -5 0 -10 7 -10 15 0 8 5 15 10 15 6 0 10 -7 10 -15z m300 0 c0 -8
-4 -15 -10 -15 -5 0 -10 7 -10 15 0 8 5 15 10 15 6 0 10 -7 10 -15z m697 -7
c18 -7 33 -16 33 -20 0 -4 -2 -8 -4 -8 -2 0 -20 -7 -40 -15 -20 -8 -36 -13
-36 -10 0 3 15 12 32 20 l33 13 -35 15 c-42 18 -30 22 17 5z m-94 -25 c-7 -2
-19 -2 -25 0 -7 3 -2 5 12 5 14 0 19 -2 13 -5z m-1003 -28 c0 -8 -4 -15 -10
-15 -5 0 -10 7 -10 15 0 8 5 15 10 15 6 0 10 -7 10 -15z m100 0 c0 -8 -4 -15
-10 -15 -5 0 -10 7 -10 15 0 8 5 15 10 15 6 0 10 -7 10 -15z m300 0 c0 -8 -4
-15 -10 -15 -5 0 -10 7 -10 15 0 8 5 15 10 15 6 0 10 -7 10 -15z"/>
<path d="M650 364 c-16 -19 -3 -47 24 -52 14 -3 17 3 14 29 -3 37 -19 47 -38
23z"/>
<path d="M2050 386 c-6 -17 -6 -35 0 -52 15 -39 35 -24 35 26 0 50 -20 65 -35
26z m30 -26 c0 -5 -4 -10 -10 -10 -5 0 -10 5 -10 10 0 6 5 10 10 10 6 0 10 -4
10 -10z"/>
<path d="M2250 386 c-6 -17 -6 -35 0 -52 15 -39 35 -24 35 26 0 50 -20 65 -35
26z m30 -26 c0 -5 -4 -10 -10 -10 -5 0 -10 5 -10 10 0 6 5 10 10 10 6 0 10 -4
10 -10z"/>
<path d="M2657 404 c-14 -15 -6 -34 14 -34 14 0 19 5 17 17 -3 18 -20 27 -31
17z"/>
<path d="M2656 353 c-3 -4 -6 -15 -6 -25 0 -24 33 -21 38 3 3 17 -21 33 -32
22z"/>
<path d="M2750 386 c-6 -17 -6 -35 0 -52 15 -39 35 -24 35 26 0 50 -20 65 -35
26z m30 -26 c0 -5 -4 -10 -10 -10 -5 0 -10 5 -10 10 0 6 5 10 10 10 6 0 10 -4
10 -10z"/>
<path d="M2857 404 c-14 -15 -6 -34 14 -34 14 0 19 5 17 17 -3 18 -20 27 -31
17z"/>
<path d="M2856 353 c-3 -4 -6 -15 -6 -25 0 -24 33 -21 38 3 3 17 -21 33 -32
22z"/>
<path d="M2950 386 c-6 -17 -6 -35 0 -52 15 -39 35 -24 35 26 0 50 -20 65 -35
26z m30 -26 c0 -5 -4 -10 -10 -10 -5 0 -10 5 -10 10 0 6 5 10 10 10 6 0 10 -4
10 -10z"/>
<path d="M3457 404 c-14 -15 -6 -34 14 -34 14 0 19 5 17 17 -3 18 -20 27 -31
17z"/>
<path d="M3456 353 c-3 -4 -6 -15 -6 -25 0 -24 33 -21 38 3 3 17 -21 33 -32
22z"/>
<path d="M3550 386 c-6 -17 -6 -35 0 -52 15 -39 35 -24 35 26 0 50 -20 65 -35
26z m30 -26 c0 -5 -4 -10 -10 -10 -5 0 -10 5 -10 10 0 6 5 10 10 10 6 0 10 -4
10 -10z"/>
<path d="M3657 404 c-14 -15 -6 -34 14 -34 14 0 19 5 17 17 -3 18 -20 27 -31
17z"/>
<path d="M3656 353 c-3 -4 -6 -15 -6 -25 0 -24 33 -21 38 3 3 17 -21 33 -32
22z"/>
<path d="M3750 386 c-6 -17 -6 -35 0 -52 15 -39 35 -24 35 26 0 50 -20 65 -35
26z m30 -26 c0 -5 -4 -10 -10 -10 -5 0 -10 5 -10 10 0 6 5 10 10 10 6 0 10 -4
10 -10z"/>
<path d="M150 364 c-10 -11 -11 -20 -3 -32 17 -27 38 -20 38 12 0 34 -16 44
-35 20z"/>
<path d="M457 343 c-14 -13 -6 -33 13 -33 13 0 20 7 20 20 0 19 -20 27 -33 13z"/>
<path d="M949 364 c-9 -11 -10 -20 -2 -32 17 -28 38 -20 41 16 4 36 -16 44
-39 16z"/>
<path d="M1350 364 c-10 -11 -11 -20 -3 -32 17 -27 38 -20 38 12 0 34 -16 44
-35 20z"/>
<path d="M650 144 c-16 -19 -3 -47 24 -52 14 -3 17 3 14 29 -3 37 -19 47 -38
23z"/>
<path d="M2257 184 c-14 -15 -6 -34 14 -34 14 0 19 5 17 17 -3 18 -20 27 -31
17z"/>
<path d="M2256 133 c-3 -4 -6 -15 -6 -25 0 -24 33 -21 38 3 3 17 -21 33 -32
22z"/>
<path d="M2350 166 c-6 -17 -6 -35 0 -52 15 -39 35 -24 35 26 0 50 -20 65 -35
26z m30 -26 c0 -5 -4 -10 -10 -10 -5 0 -10 5 -10 10 0 6 5 10 10 10 6 0 10 -4
10 -10z"/>
<path d="M2457 184 c-14 -15 -6 -34 14 -34 14 0 19 5 17 17 -3 18 -20 27 -31
17z"/>
<path d="M2456 133 c-3 -4 -6 -15 -6 -25 0 -24 33 -21 38 3 3 17 -21 33 -32
22z"/>
<path d="M2550 166 c-6 -17 -6 -35 0 -52 15 -39 35 -24 35 26 0 50 -20 65 -35
26z m30 -26 c0 -5 -4 -10 -10 -10 -5 0 -10 5 -10 10 0 6 5 10 10 10 6 0 10 -4
10 -10z"/>
<path d="M3057 184 c-14 -15 -6 -34 14 -34 14 0 19 5 17 17 -3 18 -20 27 -31
17z"/>
<path d="M3056 133 c-3 -4 -6 -15 -6 -25 0 -24 33 -21 38 3 3 17 -21 33 -32
22z"/>
<path d="M3150 166 c-6 -17 -6 -35 0 -52 15 -39 35 -24 35 26 0 50 -20 65 -35
26z m30 -26 c0 -5 -4 -10 -10 -10 -5 0 -10 5 -10 10 0 6 5 10 10 10 6 0 10 -4
10 -10z"/>
<path d="M3257 184 c-14 -15 -6 -34 14 -34 14 0 19 5 17 17 -3 18 -20 27 -31
17z"/>
<path d="M3256 133 c-3 -4 -6 -15 -6 -25 0 -24 33 -21 38 3 3 17 -21 33 -32
22z"/>
<path d="M3350 166 c-6 -17 -6 -35 0 -52 15 -39 35 -24 35 26 0 50 -20 65 -35
26z m30 -26 c0 -5 -4 -10 -10 -10 -5 0 -10 5 -10 10 0 6 5 10 10 10 6 0 10 -4
10 -10z"/>
<path d="M150 144 c-10 -11 -11 -20 -3 -32 17 -27 38 -20 38 12 0 34 -16 44
-35 20z"/>
<path d="M457 123 c-14 -13 -6 -33 13 -33 13 0 20 7 20 20 0 19 -20 27 -33 13z"/>
<path d="M949 144 c-9 -11 -10 -20 -2 -32 17 -28 38 -20 41 16 4 36 -16 44
-39 16z"/>
<path d="M1350 144 c-10 -11 -11 -20 -3 -32 17 -27 38 -20 38 12 0 34 -16 44
-35 20z"/>
</g>
</svg>
