<?xml version="1.0" standalone="no"?>
<!DOCTYPE svg PUBLIC "-//W3C//DTD SVG 20010904//EN"
 "http://www.w3.org/TR/2001/REC-SVG-20010904/DTD/svg10.dtd">
<svg version="1.0" xmlns="http://www.w3.org/2000/svg"
 width="1499.000000pt" height="68.000000pt" viewBox="0 0 1499.000000 68.000000"
 preserveAspectRatio="xMidYMid meet">

<g transform="translate(0.000000,68.000000) scale(0.100000,-0.100000)"
fill="#000000" stroke="none">
<path d="M0 340 l0 -340 7495 0 7495 0 0 340 0 340 -7495 0 -7495 0 0 -340z
m2090 280 c0 -5 -4 -10 -10 -10 -5 0 -10 5 -10 10 0 6 5 10 10 10 6 0 10 -4
10 -10z m123 0 c-27 -11 -30 -30 -5 -31 16 -1 16 -2 0 -6 -13 -3 -18 -15 -18
-44 0 -21 -4 -39 -10 -39 -5 0 -10 18 -10 40 0 22 -4 40 -10 40 -5 0 0 11 12
25 12 14 31 25 42 24 20 0 20 -1 -1 -9z m77 0 c0 -5 -4 -10 -10 -10 -5 0 -10
5 -10 10 0 6 5 10 10 10 6 0 10 -4 10 -10z m580 -9 c0 -13 8 -21 23 -23 19 -3
22 -9 23 -48 l2 -45 -7 40 c-4 27 -12 41 -23 43 -15 3 -18 -4 -18 -37 0 -23
-4 -41 -10 -41 -6 0 -10 28 -10 65 0 37 4 65 10 65 6 0 10 -9 10 -19z m250
-46 c0 -61 -1 -65 -23 -65 -29 0 -47 18 -47 45 0 26 18 45 42 45 11 0 18 7 18
20 0 11 2 20 5 20 3 0 5 -29 5 -65z m970 10 c0 -41 4 -57 18 -65 15 -10 15
-10 -3 -8 -17 3 -20 12 -23 60 -2 43 -7 58 -20 61 -12 3 -11 5 6 6 20 1 22 -3
22 -54z m423 45 c-27 -11 -30 -30 -5 -31 16 -1 16 -2 0 -6 -13 -3 -18 -15 -18
-44 0 -21 -4 -39 -10 -39 -5 0 -10 18 -10 40 0 22 -4 40 -10 40 -5 0 0 11 12
25 12 14 31 25 42 24 20 0 20 -1 -1 -9z m177 0 c0 -5 -4 -10 -10 -10 -5 0 -10
5 -10 10 0 6 5 10 10 10 6 0 10 -4 10 -10z m100 -45 c0 -41 4 -57 18 -65 15
-10 15 -10 -3 -8 -17 3 -20 12 -23 60 -2 43 -7 58 -20 61 -12 3 -11 5 6 6 20
1 22 -3 22 -54z m230 -10 c0 -61 -1 -65 -23 -65 -29 0 -47 18 -47 45 0 26 18
45 42 45 11 0 18 7 18 20 0 11 2 20 5 20 3 0 5 -29 5 -65z m770 55 c0 -5 -4
-10 -10 -10 -5 0 -10 5 -10 10 0 6 5 10 10 10 6 0 10 -4 10 -10z m123 0 c-27
-11 -30 -30 -5 -31 16 -1 16 -2 0 -6 -13 -3 -18 -15 -18 -44 0 -21 -4 -39 -10
-39 -5 0 -10 18 -10 40 0 22 -4 40 -10 40 -5 0 0 11 12 25 12 14 31 25 42 24
20 0 20 -1 -1 -9z m677 0 c0 -5 -4 -10 -10 -10 -5 0 -10 5 -10 10 0 6 5 10 10
10 6 0 10 -4 10 -10z m123 0 c-27 -11 -30 -30 -5 -31 16 -1 16 -2 0 -6 -13 -3
-18 -15 -18 -44 0 -21 -4 -39 -10 -39 -5 0 -10 18 -10 40 0 22 -4 40 -10 40
-5 0 0 11 12 25 12 14 31 25 42 24 20 0 20 -1 -1 -9z m77 0 c0 -5 -4 -10 -10
-10 -5 0 -10 5 -10 10 0 6 5 10 10 10 6 0 10 -4 10 -10z m1700 0 c0 -5 -4 -10
-10 -10 -5 0 -10 5 -10 10 0 6 5 10 10 10 6 0 10 -4 10 -10z m123 0 c-27 -11
-30 -30 -5 -31 16 -1 16 -2 0 -6 -13 -3 -18 -15 -18 -44 0 -21 -4 -39 -10 -39
-5 0 -10 18 -10 40 0 22 -4 40 -10 40 -5 0 0 11 12 25 12 14 31 25 42 24 20 0
20 -1 -1 -9z m77 0 c0 -5 -4 -10 -10 -10 -5 0 -10 5 -10 10 0 6 5 10 10 10 6
0 10 -4 10 -10z m700 0 c0 -5 -4 -10 -10 -10 -5 0 -10 5 -10 10 0 6 5 10 10
10 6 0 10 -4 10 -10z m430 -55 c0 -61 -1 -65 -23 -65 -29 0 -47 18 -47 45 0
26 18 45 42 45 11 0 18 7 18 20 0 11 2 20 5 20 3 0 5 -29 5 -65z m150 45 c0
-13 7 -20 18 -20 24 0 42 -19 42 -46 0 -28 -23 -46 -52 -42 -21 3 -23 9 -26
66 -2 38 1 62 8 62 5 0 10 -9 10 -20z m500 -15 c0 -40 5 -42 34 -17 21 17 21
17 2 -6 -19 -22 -19 -22 4 -47 29 -31 15 -33 -17 -3 l-23 21 0 -21 c0 -12 -4
-22 -10 -22 -6 0 -10 28 -10 65 0 37 4 65 10 65 6 0 10 -16 10 -35z m900 16
c0 -13 8 -21 23 -23 19 -3 22 -9 23 -48 l2 -45 -7 40 c-4 27 -12 41 -23 43
-15 3 -18 -4 -18 -37 0 -23 -4 -41 -10 -41 -6 0 -10 28 -10 65 0 37 4 65 10
65 6 0 10 -9 10 -19z m320 9 c0 -5 -4 -10 -10 -10 -5 0 -10 5 -10 10 0 6 5 10
10 10 6 0 10 -4 10 -10z m1130 -55 c0 -61 -1 -65 -23 -65 -29 0 -47 18 -47 45
0 26 18 45 42 45 11 0 18 7 18 20 0 11 2 20 5 20 3 0 5 -29 5 -65z m170 55 c0
-5 -4 -10 -10 -10 -5 0 -10 5 -10 10 0 6 5 10 10 10 6 0 10 -4 10 -10z m800
-45 c0 -41 4 -57 18 -65 15 -10 15 -10 -3 -8 -17 3 -20 12 -23 60 -2 43 -7 58
-20 61 -12 3 -11 5 6 6 20 1 22 -3 22 -54z m307 27 c-21 -23 -22 -71 -1 -100
9 -13 14 -26 11 -29 -11 -10 -41 51 -41 83 0 30 31 81 42 69 3 -3 -2 -13 -11
-23z m197 -56 c-14 -42 -28 -75 -31 -72 -3 3 5 35 17 73 25 74 30 86 36 80 2
-2 -8 -38 -22 -81z m216 4 c0 -23 -8 -47 -20 -61 -22 -28 -27 -14 -5 15 8 11
15 32 15 46 0 14 -7 35 -15 46 -22 29 -17 43 5 15 12 -14 20 -38 20 -61z
m-14437 -2 c9 25 27 30 27 6 0 -8 -4 -13 -9 -10 -5 3 -12 -6 -15 -19 -11 -44
-26 -17 -24 43 l1 57 6 -50 c5 -41 8 -46 14 -27z m52 -16 c-5 -26 -9 -32 -18
-23 -9 9 -9 16 1 31 6 11 13 34 13 52 2 33 2 33 6 4 3 -16 2 -45 -2 -64z m89
41 c19 -55 22 -89 5 -60 -12 21 -59 23 -59 2 0 -8 -4 -15 -9 -15 -9 0 12 91
26 113 10 17 22 4 37 -40z m90 41 c18 -7 22 -49 6 -59 -6 -4 -4 -16 6 -31 9
-13 12 -24 7 -24 -5 0 -15 12 -22 26 -13 30 -33 27 -42 -7 -5 -15 -7 -2 -8 39
-1 65 7 74 53 56z m81 -24 c21 -40 18 -62 -3 -25 l-17 30 -6 -50 -6 -50 -1 63
c-2 68 9 79 33 32z m45 -31 c0 -44 -3 -60 -12 -56 -7 2 -13 11 -12 20 0 10 1
35 2 57 3 64 22 46 22 -21z m83 54 c-8 -3 -13 -24 -13 -53 0 -29 5 -50 13 -53
6 -3 -4 -5 -23 -5 -19 0 -29 2 -22 5 16 6 16 100 0 106 -7 3 3 5 22 5 19 0 29
-2 23 -5z m72 -23 c21 -40 18 -62 -3 -25 l-17 30 -6 -50 -6 -50 -1 63 c-2 68
9 79 33 32z m45 -31 c0 -44 -3 -60 -12 -56 -7 2 -13 11 -12 20 0 10 1 35 2 57
3 64 22 46 22 -21z m90 51 c0 -5 -6 -7 -12 -5 -23 8 -41 -12 -41 -45 0 -51 41
-66 55 -19 6 22 7 21 5 -6 -1 -22 -8 -31 -23 -33 -47 -7 -72 62 -37 100 17 19
53 25 53 8z m6883 3 c-22 -4 -34 -43 -14 -43 5 0 17 -7 25 -16 23 -22 4 -54
-32 -53 l-27 1 25 7 c35 10 38 39 6 47 -28 7 -29 8 -20 42 5 16 13 22 33 21
23 -2 24 -2 4 -6z m121 -25 c20 -57 -29 -115 -61 -72 -16 22 -17 58 -2 85 15
29 51 21 63 -13z m96 11 c22 -41 -9 -100 -52 -99 -7 1 -1 8 15 16 34 18 35 34
3 34 -16 0 -27 7 -31 20 -14 44 44 69 65 29z m4401 5 c16 -20 1 -48 -29 -52
-14 -2 -22 -12 -25 -30 -2 -15 -5 1 -6 36 -1 59 0 62 23 62 13 0 29 -7 37 -16z
m2395 1 c3 -8 -4 -26 -15 -41 -12 -15 -21 -22 -21 -16 0 6 5 14 10 17 19 12
11 43 -12 48 -20 4 -19 4 5 6 16 0 30 -5 33 -14z m-12626 -5 c0 -5 8 -11 18
-11 16 -1 16 -2 0 -6 -13 -3 -18 -14 -18 -38 0 -24 5 -35 18 -38 13 -4 12 -5
-4 -6 -23 -1 -34 16 -34 55 0 13 -5 24 -10 24 -6 0 -5 6 2 15 15 17 28 19 28
5z m600 0 c0 -5 8 -11 18 -11 16 -1 16 -2 0 -6 -13 -3 -18 -14 -18 -38 0 -24
5 -35 18 -38 13 -4 12 -5 -4 -6 -23 -1 -34 16 -34 55 0 13 -5 24 -10 24 -6 0
-5 6 2 15 15 17 28 19 28 5z m1400 0 c0 -5 8 -11 18 -11 16 -1 16 -2 0 -6 -13
-3 -18 -14 -18 -38 0 -24 5 -35 18 -38 13 -4 12 -5 -4 -6 -23 -1 -34 16 -34
55 0 13 -5 24 -10 24 -6 0 -5 6 2 15 15 17 28 19 28 5z m1200 0 c0 -5 8 -11
18 -11 16 -1 16 -2 0 -6 -13 -3 -18 -14 -18 -38 0 -24 5 -35 18 -38 13 -4 12
-5 -4 -6 -23 -1 -34 16 -34 55 0 13 -5 24 -10 24 -6 0 -5 6 2 15 15 17 28 19
28 5z m1300 0 c0 -5 8 -11 18 -11 16 -1 16 -2 0 -6 -13 -3 -18 -14 -18 -38 0
-24 5 -35 18 -38 13 -4 12 -5 -4 -6 -23 -1 -34 16 -34 55 0 13 -5 24 -10 24
-6 0 -5 6 2 15 15 17 28 19 28 5z m600 0 c0 -5 8 -11 18 -11 16 -1 16 -2 0 -6
-13 -3 -18 -14 -18 -38 0 -24 5 -35 18 -38 13 -4 12 -5 -4 -6 -23 -1 -34 16
-34 55 0 13 -5 24 -10 24 -6 0 -5 6 2 15 15 17 28 19 28 5z m1300 0 c0 -5 8
-11 18 -11 16 -1 16 -2 0 -6 -13 -3 -18 -14 -18 -38 0 -24 5 -35 18 -38 13 -4
12 -5 -4 -6 -23 -1 -34 16 -34 55 0 13 -5 24 -10 24 -6 0 -5 6 2 15 15 17 28
19 28 5z m600 0 c0 -5 8 -11 18 -11 16 -1 16 -2 0 -6 -13 -3 -18 -14 -18 -38
0 -24 5 -35 18 -38 13 -4 12 -5 -4 -6 -23 -1 -34 16 -34 55 0 13 -5 24 -10 24
-6 0 -5 6 2 15 15 17 28 19 28 5z m2300 0 c0 -5 8 -11 18 -11 16 -1 16 -2 0
-6 -13 -3 -18 -14 -18 -38 0 -24 5 -35 18 -38 13 -4 12 -5 -4 -6 -23 -1 -34
16 -34 55 0 13 -5 24 -10 24 -6 0 -5 6 2 15 15 17 28 19 28 5z m500 0 c0 -5 8
-11 18 -11 16 -1 16 -2 0 -6 -13 -3 -18 -14 -18 -38 0 -24 5 -35 18 -38 13 -4
12 -5 -4 -6 -23 -1 -34 16 -34 55 0 13 -5 24 -10 24 -6 0 -5 6 2 15 15 17 28
19 28 5z m-10990 -25 c0 -8 -4 -15 -10 -15 -5 0 -10 7 -10 15 0 8 5 15 10 15
6 0 10 -7 10 -15z m198 8 c-35 -5 -36 -21 -2 -33 34 -13 29 -44 -9 -48 -15 -2
-27 1 -27 6 0 6 8 8 19 5 30 -8 35 16 7 27 -43 16 -33 51 13 49 l26 -2 -27 -4z
m120 -5 c23 -23 13 -38 -24 -38 -31 0 -35 -2 -24 -14 6 -8 21 -17 33 -19 19
-4 19 -4 -3 -6 -31 -1 -50 15 -50 44 0 25 18 45 40 45 9 0 21 -5 28 -12z m85
5 c-19 -4 -23 -11 -23 -44 0 -21 -4 -39 -10 -39 -11 0 -14 73 -3 83 3 4 18 6
32 6 24 -2 24 -2 4 -6z m68 -23 c6 -16 15 -30 19 -30 5 0 11 14 15 30 4 17 11
30 16 30 12 0 12 -3 -7 -50 -9 -22 -20 -40 -24 -40 -7 0 -40 71 -40 85 0 15
13 1 21 -25z m147 18 c23 -23 13 -38 -24 -38 -31 0 -35 -2 -24 -14 6 -8 21
-17 33 -19 19 -4 19 -4 -3 -6 -31 -1 -50 15 -50 44 0 25 18 45 40 45 9 0 21
-5 28 -12z m85 5 c-19 -4 -23 -11 -23 -44 0 -21 -4 -39 -10 -39 -11 0 -14 73
-3 83 3 4 18 6 32 6 24 -2 24 -2 4 -6z m202 0 c-49 -11 -51 -67 -3 -76 21 -4
21 -4 -2 -6 -32 -1 -50 15 -50 46 0 24 24 43 55 42 l20 -1 -20 -5z m113 -5
c23 -23 13 -38 -24 -38 -31 0 -35 -2 -24 -14 6 -8 21 -17 33 -19 19 -4 19 -4
-3 -6 -31 -1 -50 15 -50 44 0 25 18 45 40 45 9 0 21 -5 28 -12z m85 5 c-19 -4
-23 -11 -23 -44 0 -21 -4 -39 -10 -39 -11 0 -14 73 -3 83 3 4 18 6 32 6 24 -2
24 -2 4 -6z m187 -28 c0 -22 6 -38 18 -45 15 -10 15 -10 -3 -8 -15 2 -21 12
-23 40 -2 24 -9 38 -20 41 -12 3 -11 5 6 6 19 1 22 -4 22 -34z m200 0 c0 -22
6 -38 18 -45 15 -10 15 -10 -3 -8 -15 2 -21 12 -23 40 -2 24 -9 38 -20 41 -12
3 -11 5 6 6 19 1 22 -4 22 -34z m115 28 c-49 -11 -51 -67 -3 -76 21 -4 21 -4
-2 -6 -32 -1 -50 15 -50 46 0 24 24 43 55 42 l20 -1 -20 -5z m113 -40 c3 -40
1 -43 -21 -43 -34 0 -54 25 -37 45 7 8 22 15 33 15 24 0 12 15 -18 23 -12 3
-8 5 10 4 28 -2 30 -5 33 -44z m200 35 c23 -23 13 -38 -24 -38 -31 0 -35 -2
-24 -14 6 -8 21 -17 33 -19 19 -4 19 -4 -3 -6 -31 -1 -50 15 -50 44 0 25 18
45 40 45 9 0 21 -5 28 -12z m300 -35 c3 -40 1 -43 -21 -43 -34 0 -54 25 -37
45 7 8 22 15 33 15 24 0 12 15 -18 23 -12 3 -8 5 10 4 28 -2 30 -5 33 -44z
m300 35 c23 -23 13 -38 -24 -38 -31 0 -35 -2 -24 -14 6 -8 21 -17 33 -19 19
-4 19 -4 -3 -6 -31 -1 -50 15 -50 44 0 25 18 45 40 45 9 0 21 -5 28 -12z m85
5 c-19 -4 -23 -11 -23 -44 0 -21 -4 -39 -10 -39 -11 0 -14 73 -3 83 3 4 18 6
32 6 24 -2 24 -2 4 -6z m100 0 c-19 -4 -23 -11 -23 -44 0 -21 -4 -39 -10 -39
-11 0 -14 73 -3 83 3 4 18 6 32 6 24 -2 24 -2 4 -6z m117 -7 c28 -35 -11 -93
-47 -70 -36 22 -23 84 17 84 10 0 23 -7 30 -14z m83 7 c-19 -4 -23 -11 -23
-44 0 -21 -4 -39 -10 -39 -11 0 -14 73 -3 83 3 4 18 6 32 6 24 -2 24 -2 4 -6z
m97 -8 c0 -8 -4 -15 -10 -15 -5 0 -10 7 -10 15 0 8 5 15 10 15 6 0 10 -7 10
-15z m398 8 c-35 -5 -36 -21 -2 -33 34 -13 29 -44 -9 -48 -15 -2 -27 1 -27 6
0 6 8 8 19 5 30 -8 35 16 7 27 -43 16 -33 51 13 49 l26 -2 -27 -4z m102 -8 c0
-8 -4 -15 -10 -15 -5 0 -10 7 -10 15 0 8 5 15 10 15 6 0 10 -7 10 -15z m318
-32 c3 -40 1 -43 -21 -43 -34 0 -54 25 -37 45 7 8 22 15 33 15 24 0 12 15 -18
23 -12 3 -8 5 10 4 28 -2 30 -5 33 -44z m72 12 c0 -22 6 -38 18 -45 15 -10 15
-10 -3 -8 -15 2 -21 12 -23 40 -2 24 -9 38 -20 41 -12 3 -11 5 6 6 19 1 22 -4
22 -34z m228 23 c23 -23 13 -38 -24 -38 -31 0 -35 -2 -24 -14 6 -8 21 -17 33
-19 19 -4 19 -4 -3 -6 -31 -1 -50 15 -50 44 0 25 18 45 40 45 9 0 21 -5 28
-12z m402 -2 c28 -35 -11 -93 -47 -70 -36 22 -23 84 17 84 10 0 23 -7 30 -14z
m151 -16 c6 -16 15 -30 19 -30 5 0 11 14 15 30 4 17 11 30 16 30 12 0 12 -3
-7 -50 -9 -22 -20 -40 -24 -40 -7 0 -40 71 -40 85 0 15 13 1 21 -25z m147 18
c23 -23 13 -38 -24 -38 -31 0 -35 -2 -24 -14 6 -8 21 -17 33 -19 19 -4 19 -4
-3 -6 -31 -1 -50 15 -50 44 0 25 18 45 40 45 9 0 21 -5 28 -12z m85 5 c-19 -4
-23 -11 -23 -44 0 -21 -4 -39 -10 -39 -11 0 -14 73 -3 83 3 4 18 6 32 6 24 -2
24 -2 4 -6z m87 -28 c0 -22 6 -38 18 -45 15 -10 15 -10 -3 -8 -15 2 -21 12
-23 40 -2 24 -9 38 -20 41 -12 3 -11 5 6 6 19 1 22 -4 22 -34z m185 5 c10 -43
23 -46 31 -5 3 19 11 35 16 35 25 0 -31 -114 -57 -117 -16 -1 -16 -1 -2 3 21
7 22 24 2 71 -18 42 -18 43 -6 43 5 0 12 -13 16 -30z m230 23 c-49 -11 -51
-67 -3 -76 21 -4 21 -4 -2 -6 -32 -1 -50 15 -50 46 0 24 24 43 55 42 l20 -1
-20 -5z m113 -5 c23 -23 13 -38 -24 -38 -31 0 -35 -2 -24 -14 6 -8 21 -17 33
-19 19 -4 19 -4 -3 -6 -31 -1 -50 15 -50 44 0 25 18 45 40 45 9 0 21 -5 28
-12z m85 5 c-19 -4 -23 -11 -23 -44 0 -21 -4 -39 -10 -39 -11 0 -14 73 -3 83
3 4 18 6 32 6 24 -2 24 -2 4 -6z m187 -28 c0 -22 6 -38 18 -45 15 -10 15 -10
-3 -8 -15 2 -21 12 -23 40 -2 24 -9 38 -20 41 -12 3 -11 5 6 6 19 1 22 -4 22
-34z m200 0 c0 -22 6 -38 18 -45 15 -10 15 -10 -3 -8 -15 2 -21 12 -23 40 -2
24 -9 38 -20 41 -12 3 -11 5 6 6 19 1 22 -4 22 -34z m115 28 c-49 -11 -51 -67
-3 -76 21 -4 21 -4 -2 -6 -32 -1 -50 15 -50 46 0 24 24 43 55 42 l20 -1 -20
-5z m113 -40 c3 -40 1 -43 -21 -43 -34 0 -54 25 -37 45 7 8 22 15 33 15 24 0
12 15 -18 23 -12 3 -8 5 10 4 28 -2 30 -5 33 -44z m200 35 c23 -23 13 -38 -24
-38 -31 0 -35 -2 -24 -14 6 -8 21 -17 33 -19 19 -4 19 -4 -3 -6 -31 -1 -50 15
-50 44 0 25 18 45 40 45 9 0 21 -5 28 -12z m82 -3 c0 -8 -4 -15 -10 -15 -5 0
-10 7 -10 15 0 8 5 15 10 15 6 0 10 -7 10 -15z m179 -2 c9 -17 11 -17 25 2 8
11 16 15 16 10 0 -6 -5 -16 -11 -22 -8 -8 -6 -18 6 -37 19 -29 10 -36 -10 -9
-12 17 -15 17 -36 -2 l-23 -20 18 28 c17 27 17 30 0 48 -9 10 -12 19 -6 19 6
0 15 -8 21 -17z m421 2 c0 -8 -4 -15 -10 -15 -5 0 -10 7 -10 15 0 8 5 15 10
15 6 0 10 -7 10 -15z m205 8 c-49 -11 -51 -67 -3 -76 21 -4 21 -4 -2 -6 -32
-1 -50 15 -50 46 0 24 24 43 55 42 l20 -1 -20 -5z m113 -5 c23 -23 13 -38 -24
-38 -31 0 -35 -2 -24 -14 6 -8 21 -17 33 -19 19 -4 19 -4 -3 -6 -31 -1 -50 15
-50 44 0 25 18 45 40 45 9 0 21 -5 28 -12z m85 5 c-19 -4 -23 -11 -23 -44 0
-21 -4 -39 -10 -39 -11 0 -14 73 -3 83 3 4 18 6 32 6 24 -2 24 -2 4 -6z m187
-28 c0 -22 6 -38 18 -45 15 -10 15 -10 -3 -8 -15 2 -21 12 -23 40 -2 24 -9 38
-20 41 -12 3 -11 5 6 6 19 1 22 -4 22 -34z m200 0 c0 -22 6 -38 18 -45 15 -10
15 -10 -3 -8 -15 2 -21 12 -23 40 -2 24 -9 38 -20 41 -12 3 -11 5 6 6 19 1 22
-4 22 -34z m115 28 c-49 -11 -51 -67 -3 -76 21 -4 21 -4 -2 -6 -32 -1 -50 15
-50 46 0 24 24 43 55 42 l20 -1 -20 -5z m113 -40 c3 -40 1 -43 -21 -43 -34 0
-54 25 -37 45 7 8 22 15 33 15 24 0 12 15 -18 23 -12 3 -8 5 10 4 28 -2 30 -5
33 -44z m200 35 c23 -23 13 -38 -24 -38 -31 0 -35 -2 -24 -14 6 -8 21 -17 33
-19 19 -4 19 -4 -3 -6 -31 -1 -50 15 -50 44 0 25 18 45 40 45 9 0 21 -5 28
-12z m180 5 c-35 -5 -36 -21 -2 -33 34 -13 29 -44 -9 -48 -15 -2 -27 1 -27 6
0 6 8 8 19 5 30 -8 35 16 7 27 -43 16 -33 51 13 49 l26 -2 -27 -4z m92 -28 c0
-22 6 -38 18 -45 15 -10 15 -10 -3 -8 -15 2 -21 12 -23 40 -2 24 -9 38 -20 41
-12 3 -11 5 6 6 19 1 22 -4 22 -34z m128 -22 c-3 -57 -4 -58 -33 -60 -18 -1
-22 1 -10 4 30 8 43 23 19 23 -26 0 -44 19 -44 45 0 28 18 45 47 45 23 0 24
-3 21 -57z m98 7 l2 -45 -7 40 c-4 27 -12 41 -23 43 -15 3 -18 -4 -18 -37 0
-23 -4 -41 -10 -41 -11 0 -14 73 -3 84 4 4 19 6 33 4 22 -3 25 -8 26 -48z
m102 38 c23 -23 13 -38 -24 -38 -31 0 -35 -2 -24 -14 6 -8 21 -17 33 -19 19
-4 19 -4 -3 -6 -31 -1 -50 15 -50 44 0 25 18 45 40 45 9 0 21 -5 28 -12z m357
-18 c10 -43 23 -46 31 -5 3 19 11 35 16 35 25 0 -31 -114 -57 -117 -16 -1 -16
-1 -2 3 21 7 22 24 2 71 -18 42 -18 43 -6 43 5 0 12 -13 16 -30z m197 -7 c2
-26 8 -39 20 -41 13 -3 18 6 21 40 l4 43 1 -47 c2 -45 0 -48 -23 -48 -27 0
-45 25 -45 64 0 40 18 30 22 -11z m144 -13 l2 -45 -7 40 c-4 27 -12 41 -23 43
-15 3 -18 -4 -18 -37 0 -23 -4 -41 -10 -41 -11 0 -14 73 -3 84 4 4 19 6 33 4
22 -3 25 -8 26 -48z m200 0 l2 -45 -7 40 c-4 27 -12 41 -23 43 -15 3 -18 -4
-18 -37 0 -23 -4 -41 -10 -41 -11 0 -14 73 -3 84 4 4 19 6 33 4 22 -3 25 -8
26 -48z m104 36 c28 -35 -11 -93 -47 -70 -36 22 -23 84 17 84 10 0 23 -7 30
-14z m52 -37 c6 -4 8 -15 4 -25 -11 -28 -26 2 -24 46 0 27 2 30 5 10 3 -14 10
-28 15 -31z m53 -7 l-7 -36 -19 24 c-10 14 -19 32 -18 40 0 12 2 12 13 -2 15
-20 26 -14 27 16 0 12 3 15 6 8 3 -7 2 -30 -2 -50z m91 8 l2 -45 -7 40 c-4 27
-12 41 -23 43 -15 3 -18 -4 -18 -37 0 -23 -4 -41 -10 -41 -11 0 -14 73 -3 84
4 4 19 6 33 4 22 -3 25 -8 26 -48z m202 3 c3 -40 1 -43 -21 -43 -34 0 -54 25
-37 45 7 8 22 15 33 15 24 0 12 15 -18 23 -12 3 -8 5 10 4 28 -2 30 -5 33 -44z
m54 10 c2 -26 8 -39 20 -41 13 -3 18 6 21 40 l4 43 1 -47 c2 -45 0 -48 -23
-48 -27 0 -45 25 -45 64 0 40 18 30 22 -11z m348 23 c28 -35 -11 -93 -47 -70
-36 22 -23 84 17 84 10 0 23 -7 30 -14z m83 7 c-19 -4 -23 -11 -23 -44 0 -21
-4 -39 -10 -39 -11 0 -14 73 -3 83 3 4 18 6 32 6 24 -2 24 -2 4 -6z m87 -28
c0 -22 6 -38 18 -45 15 -10 15 -10 -3 -8 -15 2 -21 12 -23 40 -2 24 -9 38 -20
41 -12 3 -11 5 6 6 19 1 22 -4 22 -34z m185 5 c10 -43 23 -46 31 -5 3 19 11
35 16 35 25 0 -31 -114 -57 -117 -16 -1 -16 -1 -2 3 21 7 22 24 2 71 -18 42
-18 43 -6 43 5 0 12 -13 16 -30z m428 23 c-19 -4 -23 -11 -23 -44 0 -21 -4
-39 -10 -39 -11 0 -14 73 -3 83 3 4 18 6 32 6 24 -2 24 -2 4 -6z m117 -7 c28
-35 -11 -93 -47 -70 -36 22 -23 84 17 84 10 0 23 -7 30 -14z m85 7 c-49 -11
-51 -67 -3 -76 21 -4 21 -4 -2 -6 -32 -1 -50 15 -50 46 0 24 24 43 55 42 l20
-1 -20 -5z m113 -5 c23 -23 13 -38 -24 -38 -31 0 -35 -2 -24 -14 6 -8 21 -17
33 -19 19 -4 19 -4 -3 -6 -31 -1 -50 15 -50 44 0 25 18 45 40 45 9 0 21 -5 28
-12z m100 0 c23 -23 13 -38 -24 -38 -31 0 -35 -2 -24 -14 6 -8 21 -17 33 -19
19 -4 19 -4 -3 -6 -31 -1 -50 15 -50 44 0 25 18 45 40 45 9 0 21 -5 28 -12z
m272 -23 c0 -22 6 -38 18 -45 15 -10 15 -10 -3 -8 -15 2 -21 12 -23 40 -2 24
-9 38 -20 41 -12 3 -11 5 6 6 19 1 22 -4 22 -34z m126 -15 l2 -45 -7 40 c-4
27 -12 41 -23 43 -15 3 -18 -4 -18 -37 0 -23 -4 -41 -10 -41 -11 0 -14 73 -3
84 4 4 19 6 33 4 22 -3 25 -8 26 -48z m82 43 c-35 -5 -36 -21 -2 -33 34 -13
29 -44 -9 -48 -15 -2 -27 1 -27 6 0 6 8 8 19 5 30 -8 35 16 7 27 -43 16 -33
51 13 49 l26 -2 -27 -4z m120 -5 c23 -23 13 -38 -24 -38 -31 0 -35 -2 -24 -14
6 -8 21 -17 33 -19 19 -4 19 -4 -3 -6 -31 -1 -50 15 -50 44 0 25 18 45 40 45
9 0 21 -5 28 -12z m87 5 c-49 -11 -51 -67 -3 -76 21 -4 21 -4 -2 -6 -32 -1
-50 15 -50 46 0 24 24 43 55 42 l20 -1 -20 -5z m67 -30 c2 -26 8 -39 20 -41
13 -3 18 6 21 40 l4 43 1 -47 c2 -45 0 -48 -23 -48 -27 0 -45 25 -45 64 0 40
18 30 22 -11z m131 30 c-19 -4 -23 -11 -23 -44 0 -21 -4 -39 -10 -39 -11 0
-14 73 -3 83 3 4 18 6 32 6 24 -2 24 -2 4 -6z m115 -5 c23 -23 13 -38 -24 -38
-31 0 -35 -2 -24 -14 6 -8 21 -17 33 -19 19 -4 19 -4 -3 -6 -31 -1 -50 15 -50
44 0 25 18 45 40 45 9 0 21 -5 28 -12z m157 -18 c10 -43 23 -46 31 -5 3 19 11
35 16 35 25 0 -31 -114 -57 -117 -16 -1 -16 -1 -2 3 21 7 22 24 2 71 -18 42
-18 43 -6 43 5 0 12 -13 16 -30z m300 0 c10 -43 23 -46 31 -5 3 19 11 35 16
35 25 0 -31 -114 -57 -117 -16 -1 -16 -1 -2 3 21 7 22 24 2 71 -18 42 -18 43
-6 43 5 0 12 -13 16 -30z m241 -20 l2 -45 -7 40 c-4 27 -12 41 -23 43 -15 3
-18 -4 -18 -37 0 -23 -4 -41 -10 -41 -11 0 -14 73 -3 84 4 4 19 6 33 4 22 -3
25 -8 26 -48z m359 20 c10 -43 23 -46 31 -5 3 19 11 35 16 35 25 0 -31 -114
-57 -117 -16 -1 -16 -1 -2 3 21 7 22 24 2 71 -18 42 -18 43 -6 43 5 0 12 -13
16 -30z m-13975 -45 c0 -8 -4 -15 -10 -15 -5 0 -10 7 -10 15 0 8 5 15 10 15 6
0 10 -7 10 -15z m3000 0 c0 -8 -4 -15 -10 -15 -5 0 -10 7 -10 15 0 8 5 15 10
15 6 0 10 -7 10 -15z m500 0 c0 -8 -4 -15 -10 -15 -5 0 -10 7 -10 15 0 8 5 15
10 15 6 0 10 -7 10 -15z m3000 0 c0 -8 -4 -15 -10 -15 -5 0 -10 7 -10 15 0 8
5 15 10 15 6 0 10 -7 10 -15z m600 0 c0 -8 -4 -15 -10 -15 -5 0 -10 7 -10 15
0 8 5 15 10 15 6 0 10 -7 10 -15z m4100 0 c0 -8 -4 -15 -10 -15 -5 0 -10 7
-10 15 0 8 5 15 10 15 6 0 10 -7 10 -15z m2600 1 c0 -11 -19 -15 -25 -6 -3 5
1 10 9 10 9 0 16 -2 16 -4z m-14500 -118 c0 -7 -5 -20 -10 -28 -8 -12 -10 -9
-10 13 0 15 5 27 10 27 6 0 10 -6 10 -12z m220 -53 c0 -61 -1 -65 -23 -65 -29
0 -47 18 -47 45 0 26 18 45 42 45 11 0 18 7 18 20 0 11 2 20 5 20 3 0 5 -29 5
-65z m170 55 c0 -5 -4 -10 -10 -10 -5 0 -10 5 -10 10 0 6 5 10 10 10 6 0 10
-4 10 -10z m300 -45 c0 -41 4 -57 18 -65 15 -10 15 -10 -3 -8 -17 3 -20 12
-23 60 -2 43 -7 58 -20 61 -12 3 -11 5 6 6 20 1 22 -3 22 -54z m300 45 c0 -5
-4 -10 -10 -10 -5 0 -10 5 -10 10 0 6 5 10 10 10 6 0 10 -4 10 -10z m210 -2
c0 -7 -5 -20 -10 -28 -8 -12 -10 -9 -10 13 0 15 5 27 10 27 6 0 10 -6 10 -12z
m190 -43 c0 -41 4 -57 18 -65 15 -10 15 -10 -3 -8 -17 3 -20 12 -23 60 -2 43
-7 58 -20 61 -12 3 -11 5 6 6 20 1 22 -3 22 -54z m530 -10 c0 -61 -1 -65 -23
-65 -29 0 -47 18 -47 45 0 26 18 45 42 45 11 0 18 7 18 20 0 11 2 20 5 20 3 0
5 -29 5 -65z m170 55 c0 -5 -4 -10 -10 -10 -5 0 -10 5 -10 10 0 6 5 10 10 10
6 0 10 -4 10 -10z m1023 0 c-27 -11 -30 -30 -5 -31 16 -1 16 -2 0 -6 -13 -3
-18 -15 -18 -44 0 -21 -4 -39 -10 -39 -5 0 -10 18 -10 40 0 22 -4 40 -10 40
-5 0 0 11 12 25 12 14 31 25 42 24 20 0 20 -1 -1 -9z m177 -45 c0 -41 4 -57
18 -65 15 -10 15 -10 -3 -8 -17 3 -20 12 -23 60 -2 43 -7 58 -20 61 -12 3 -11
5 6 6 20 1 22 -3 22 -54z m100 0 c0 -41 4 -57 18 -65 15 -10 15 -10 -3 -8 -17
3 -20 12 -23 60 -2 43 -7 58 -20 61 -12 3 -11 5 6 6 20 1 22 -3 22 -54z
m-3272 -32 c3 -40 1 -43 -21 -43 -34 0 -54 25 -37 45 7 8 22 15 33 15 24 0 12
15 -18 23 -12 3 -8 5 10 4 28 -2 30 -5 33 -44z m208 -3 c1 -35 0 -37 -3 -10
-5 41 -23 66 -23 32 0 -12 -4 -22 -10 -22 -5 0 -10 9 -10 20 0 38 -19 20 -23
-22 l-4 -43 -1 48 -2 48 38 -3 c37 -3 37 -3 38 -48z m64 15 c0 -22 6 -38 18
-45 15 -10 15 -10 -3 -8 -15 2 -21 12 -23 40 -2 24 -9 38 -20 41 -12 3 -11 5
6 6 19 1 22 -4 22 -34z m126 -15 l2 -45 -7 40 c-4 27 -12 41 -23 43 -15 3 -18
-4 -18 -37 0 -23 -4 -41 -10 -41 -11 0 -14 73 -3 84 4 4 19 6 33 4 22 -3 25
-8 26 -48z m84 35 c0 -8 -4 -15 -10 -15 -5 0 -10 7 -10 15 0 8 5 15 10 15 6 0
10 -7 10 -15z m220 1 c28 -35 -11 -93 -47 -70 -36 22 -23 84 17 84 10 0 23 -7
30 -14z m98 -43 c-3 -57 -4 -58 -33 -60 -18 -1 -22 1 -10 4 30 8 43 23 19 23
-26 0 -44 19 -44 45 0 28 18 45 47 45 23 0 24 -3 21 -57z m72 22 c0 -22 6 -38
18 -45 15 -10 15 -10 -3 -8 -15 2 -21 12 -23 40 -2 24 -9 38 -20 41 -12 3 -11
5 6 6 19 1 22 -4 22 -34z m126 -15 l2 -45 -7 40 c-4 27 -12 41 -23 43 -15 3
-18 -4 -18 -37 0 -23 -4 -41 -10 -41 -11 0 -14 73 -3 84 4 4 19 6 33 4 22 -3
25 -8 26 -48z m404 36 c28 -35 -11 -93 -47 -70 -36 22 -23 84 17 84 10 0 23
-7 30 -14z m98 -43 c-3 -57 -4 -58 -33 -60 -18 -1 -22 1 -10 4 30 8 43 23 19
23 -26 0 -44 19 -44 45 0 28 18 45 47 45 23 0 24 -3 21 -57z m100 0 c-3 -57
-4 -58 -33 -60 -18 -1 -22 1 -10 4 30 8 43 23 19 23 -26 0 -44 19 -44 45 0 28
18 45 47 45 23 0 24 -3 21 -57z m100 45 c23 -23 13 -38 -24 -38 -31 0 -35 -2
-24 -14 6 -8 21 -17 33 -19 19 -4 19 -4 -3 -6 -31 -1 -50 15 -50 44 0 25 18
45 40 45 9 0 21 -5 28 -12z m272 -23 c0 -22 6 -38 18 -45 15 -10 15 -10 -3 -8
-15 2 -21 12 -23 40 -2 24 -9 38 -20 41 -12 3 -11 5 6 6 19 1 22 -4 22 -34z
m126 -15 l2 -45 -7 40 c-4 27 -12 41 -23 43 -15 3 -18 -4 -18 -37 0 -23 -4
-41 -10 -41 -11 0 -14 73 -3 84 4 4 19 6 33 4 22 -3 25 -8 26 -48z m182 43
c-35 -5 -36 -21 -2 -33 34 -13 29 -44 -9 -48 -15 -2 -27 1 -27 6 0 6 8 8 19 5
30 -8 35 16 7 27 -43 16 -33 51 13 49 l26 -2 -27 -4z m74 -30 c2 -26 8 -39 20
-41 13 -3 18 6 21 40 l4 43 1 -47 c2 -45 0 -48 -23 -48 -27 0 -45 25 -45 64 0
40 18 30 22 -11z m133 30 c-49 -11 -51 -67 -3 -76 21 -4 21 -4 -2 -6 -32 -1
-50 15 -50 46 0 24 24 43 55 42 l20 -1 -20 -5z m100 0 c-49 -11 -51 -67 -3
-76 21 -4 21 -4 -2 -6 -32 -1 -50 15 -50 46 0 24 24 43 55 42 l20 -1 -20 -5z
m113 -5 c23 -23 13 -38 -24 -38 -31 0 -35 -2 -24 -14 6 -8 21 -17 33 -19 19
-4 19 -4 -3 -6 -31 -1 -50 15 -50 44 0 25 18 45 40 45 9 0 21 -5 28 -12z m80
5 c-35 -5 -36 -21 -2 -33 34 -13 29 -44 -9 -48 -15 -2 -27 1 -27 6 0 6 8 8 19
5 30 -8 35 16 7 27 -43 16 -33 51 13 49 l26 -2 -27 -4z m100 0 c-35 -5 -36
-21 -2 -33 34 -13 29 -44 -9 -48 -15 -2 -27 1 -27 6 0 6 8 8 19 5 30 -8 35 16
7 27 -43 16 -33 51 13 49 l26 -2 -27 -4z m174 -30 c2 -26 8 -39 20 -41 13 -3
18 6 21 40 l4 43 1 -47 c2 -45 0 -48 -23 -48 -27 0 -45 25 -45 64 0 40 18 30
22 -11z m303 7 c10 -43 23 -46 31 -5 3 19 11 35 16 35 25 0 -31 -114 -57 -117
-16 -1 -16 -1 -2 3 21 7 22 24 2 71 -18 42 -18 43 -6 43 5 0 12 -13 16 -30z
m-2875 -45 c0 -8 -4 -15 -10 -15 -5 0 -10 7 -10 15 0 8 5 15 10 15 6 0 10 -7
10 -15z m200 -117 c0 -7 -5 -20 -10 -28 -8 -12 -10 -9 -10 13 0 15 5 27 10 27
6 0 10 -6 10 -12z m90 -43 c0 -41 4 -57 18 -65 15 -10 15 -10 -3 -8 -17 3 -20
12 -23 60 -2 43 -7 58 -20 61 -12 3 -11 5 6 6 20 1 22 -3 22 -54z m400 0 c0
-41 4 -57 18 -65 15 -10 15 -10 -3 -8 -17 3 -20 12 -23 60 -2 43 -7 58 -20 61
-12 3 -11 5 6 6 20 1 22 -3 22 -54z m80 36 c0 -13 8 -21 23 -23 19 -3 22 -9
23 -48 l2 -45 -7 40 c-4 27 -12 41 -23 43 -15 3 -18 -4 -18 -37 0 -23 -4 -41
-10 -41 -6 0 -10 28 -10 65 0 37 4 65 10 65 6 0 10 -9 10 -19z m930 7 c0 -7
-5 -20 -10 -28 -8 -12 -10 -9 -10 13 0 15 5 27 10 27 6 0 10 -6 10 -12z m420
-53 c0 -61 -1 -65 -23 -65 -29 0 -47 18 -47 45 0 26 18 45 42 45 11 0 18 7 18
20 0 11 2 20 5 20 3 0 5 -29 5 -65z m400 0 c0 -61 -1 -65 -23 -65 -29 0 -47
18 -47 45 0 26 18 45 42 45 11 0 18 7 18 20 0 11 2 20 5 20 3 0 5 -29 5 -65z
m-3100 44 c0 -5 -4 -8 -9 -5 -15 10 -39 -4 -44 -25 -8 -32 4 -57 32 -68 23 -8
24 -10 4 -10 -47 -2 -71 63 -36 101 17 20 53 25 53 7z m1897 -24 c1 -16 3 -38
5 -49 2 -10 -5 -23 -14 -30 -29 -18 -53 4 -53 50 -1 47 11 66 39 62 15 -2 22
-11 23 -33z m107 3 c20 -57 -29 -115 -61 -72 -16 22 -17 58 -2 85 15 29 51 21
63 -13z m93 -3 c1 -16 3 -38 5 -49 2 -10 -5 -23 -14 -30 -29 -18 -53 4 -53 50
-1 47 11 66 39 62 15 -2 22 -11 23 -33z m107 3 c20 -57 -29 -115 -61 -72 -16
22 -17 58 -2 85 15 29 51 21 63 -13z m-1934 12 c0 -5 8 -11 18 -11 16 -1 16
-2 0 -6 -13 -3 -18 -14 -18 -38 0 -24 5 -35 18 -38 13 -4 12 -5 -4 -6 -23 -1
-34 16 -34 55 0 13 -5 24 -10 24 -6 0 -5 6 2 15 15 17 28 19 28 5z m300 0 c0
-5 8 -11 18 -11 16 -1 16 -2 0 -6 -13 -3 -18 -14 -18 -38 0 -24 5 -35 18 -38
13 -4 12 -5 -4 -6 -23 -1 -34 16 -34 55 0 13 -5 24 -10 24 -6 0 -5 6 2 15 15
17 28 19 28 5z m1100 0 c0 -5 8 -11 18 -11 16 -1 16 -2 0 -6 -13 -3 -18 -14
-18 -38 0 -24 5 -35 18 -38 13 -4 12 -5 -4 -6 -23 -1 -34 16 -34 55 0 13 -5
24 -10 24 -6 0 -5 6 2 15 15 17 28 19 28 5z m1200 0 c0 -5 8 -11 18 -11 16 -1
16 -2 0 -6 -13 -3 -18 -14 -18 -38 0 -24 5 -35 18 -38 13 -4 12 -5 -4 -6 -23
-1 -34 16 -34 55 0 13 -5 24 -10 24 -6 0 -5 6 2 15 15 17 28 19 28 5z m-2770
-24 c28 -35 -11 -93 -47 -70 -36 22 -23 84 17 84 10 0 23 -7 30 -14z m96 -36
l2 -45 -7 40 c-4 27 -12 41 -23 43 -15 3 -18 -4 -18 -37 0 -23 -4 -41 -10 -41
-11 0 -14 73 -3 84 4 4 19 6 33 4 22 -3 25 -8 26 -48z m202 38 c23 -23 13 -38
-24 -38 -31 0 -35 -2 -24 -14 6 -8 21 -17 33 -19 19 -4 19 -4 -4 -6 -30 -1
-49 15 -49 44 0 25 18 45 40 45 9 0 21 -5 28 -12z m61 -5 c9 -17 11 -17 25 2
8 11 16 15 16 10 0 -6 -5 -16 -11 -22 -8 -8 -6 -18 6 -37 19 -29 10 -36 -10
-9 -12 17 -15 17 -36 -2 l-23 -20 18 28 c17 27 17 30 0 48 -9 10 -12 19 -6 19
6 0 15 -8 21 -17z m541 3 c28 -35 -11 -93 -47 -70 -36 22 -23 84 17 84 10 0
23 -7 30 -14z m85 7 c-49 -11 -51 -67 -3 -76 21 -4 21 -4 -2 -6 -32 -1 -50 15
-50 46 0 24 24 43 55 42 l20 -1 -20 -5z m113 -40 c3 -40 1 -43 -21 -43 -34 0
-54 25 -37 45 7 8 22 15 33 15 24 0 12 15 -18 23 -12 3 -8 5 10 4 28 -2 30 -5
33 -44z m302 33 c28 -35 -11 -93 -47 -70 -36 22 -23 84 17 84 10 0 23 -7 30
-14z m78 7 c-35 -5 -36 -21 -2 -33 34 -13 29 -44 -9 -48 -15 -2 -27 1 -27 6 0
6 8 8 19 5 30 -8 35 16 7 27 -43 16 -33 51 13 49 l26 -2 -27 -4z m202 -8 c0
-8 -4 -15 -10 -15 -5 0 -10 7 -10 15 0 8 5 15 10 15 6 0 10 -7 10 -15z m672
-22 c2 -26 8 -39 20 -41 13 -3 18 6 21 40 l4 43 1 -47 c2 -45 0 -48 -23 -48
-27 0 -45 25 -45 64 0 40 18 30 22 -11z m146 25 c27 -27 7 -78 -30 -78 -10 0
-18 -7 -18 -15 0 -8 -4 -15 -10 -15 -11 0 -14 103 -3 113 11 11 48 8 61 -5z
m200 -35 c3 -40 1 -43 -21 -43 -34 0 -54 25 -37 45 7 8 22 15 33 15 24 0 12
15 -18 23 -12 3 -8 5 10 4 28 -2 30 -5 33 -44z m200 35 c23 -23 13 -38 -24
-38 -31 0 -35 -2 -24 -14 6 -8 21 -17 33 -19 19 -4 19 -4 -3 -6 -31 -1 -50 15
-50 44 0 39 42 59 68 33z m-1218 -63 c0 -8 -4 -15 -10 -15 -5 0 -10 7 -10 15
0 8 5 15 10 15 6 0 10 -7 10 -15z"/>
<path d="M3070 564 c-16 -19 -3 -47 24 -52 14 -3 17 3 14 29 -3 37 -19 47 -38
23z"/>
<path d="M4970 564 c-16 -19 -3 -47 24 -52 14 -3 17 3 14 29 -3 37 -19 47 -38
23z"/>
<path d="M9770 564 c-16 -19 -3 -47 24 -52 14 -3 17 3 14 29 -3 37 -19 47 -38
23z"/>
<path d="M9977 574 c-4 -4 -7 -20 -7 -36 0 -23 4 -29 18 -26 11 2 17 13 17 32
0 29 -14 43 -28 30z"/>
<path d="M12770 564 c-16 -19 -3 -47 24 -52 14 -3 17 3 14 29 -3 37 -19 47
-38 23z"/>
<path d="M176 578 c-9 -35 -8 -38 15 -38 16 0 19 4 14 23 -11 35 -22 41 -29
15z"/>
<path d="M267 604 c-4 -4 -7 -16 -7 -26 0 -14 6 -19 23 -16 14 2 22 10 22 23
0 20 -25 32 -38 19z"/>
<path d="M7670 586 c-6 -17 -6 -35 0 -52 15 -39 35 -24 35 26 0 50 -20 65 -35
26z m30 -26 c0 -5 -4 -10 -10 -10 -5 0 -10 5 -10 10 0 6 5 10 10 10 6 0 10 -4
10 -10z"/>
<path d="M7777 604 c-16 -16 -7 -44 14 -44 15 0 20 5 17 22 -3 22 -19 33 -31
22z"/>
<path d="M12170 586 c0 -20 5 -26 21 -26 15 0 20 5 17 22 -5 34 -38 37 -38 4z"/>
<path d="M1070 565 c-11 -13 -9 -15 15 -15 16 0 25 5 23 12 -7 19 -24 20 -38
3z"/>
<path d="M1370 565 c-11 -13 -9 -15 15 -15 16 0 25 5 23 12 -7 19 -24 20 -38
3z"/>
<path d="M1770 565 c-11 -13 -9 -15 15 -15 16 0 25 5 23 12 -7 19 -24 20 -38
3z"/>
<path d="M2477 543 c-14 -13 -6 -33 13 -33 13 0 20 7 20 20 0 19 -20 27 -33
13z"/>
<path d="M2670 565 c-11 -13 -9 -15 15 -15 16 0 25 5 23 12 -7 19 -24 20 -38
3z"/>
<path d="M2977 543 c-14 -13 -6 -33 13 -33 13 0 20 7 20 20 0 19 -20 27 -33
13z"/>
<path d="M3270 565 c-11 -13 -9 -15 15 -15 16 0 25 5 23 12 -7 19 -24 20 -38
3z"/>
<path d="M3570 564 c-10 -11 -11 -20 -3 -32 17 -27 38 -20 38 12 0 34 -16 44
-35 20z"/>
<path d="M4577 543 c-14 -13 -6 -33 13 -33 13 0 20 7 20 20 0 19 -20 27 -33
13z"/>
<path d="M4870 565 c-11 -13 -9 -15 15 -15 16 0 25 5 23 12 -7 19 -24 20 -38
3z"/>
<path d="M5270 564 c-10 -11 -11 -20 -3 -32 17 -27 38 -20 38 12 0 34 -16 44
-35 20z"/>
<path d="M5570 565 c-11 -13 -9 -15 15 -15 16 0 25 5 23 12 -7 19 -24 20 -38
3z"/>
<path d="M6270 565 c-11 -13 -9 -15 15 -15 16 0 25 5 23 12 -7 19 -24 20 -38
3z"/>
<path d="M6977 543 c-14 -13 -6 -33 13 -33 13 0 20 7 20 20 0 19 -20 27 -33
13z"/>
<path d="M7170 565 c-11 -13 -9 -15 15 -15 16 0 25 5 23 12 -7 19 -24 20 -38
3z"/>
<path d="M8170 565 c-11 -13 -9 -15 15 -15 16 0 25 5 23 12 -7 19 -24 20 -38
3z"/>
<path d="M8877 543 c-14 -13 -6 -33 13 -33 13 0 20 7 20 20 0 19 -20 27 -33
13z"/>
<path d="M9070 565 c-11 -13 -9 -15 15 -15 16 0 25 5 23 12 -7 19 -24 20 -38
3z"/>
<path d="M9469 564 c-9 -11 -10 -20 -2 -32 17 -28 38 -20 41 16 4 36 -16 44
-39 16z"/>
<path d="M9670 565 c-11 -13 -9 -15 15 -15 16 0 25 5 23 12 -7 19 -24 20 -38
3z"/>
<path d="M10670 564 c-10 -11 -11 -20 -3 -32 17 -27 38 -20 38 12 0 34 -16 44
-35 20z"/>
<path d="M11077 543 c-14 -13 -6 -33 13 -33 13 0 20 7 20 20 0 19 -20 27 -33
13z"/>
<path d="M11470 564 c-10 -11 -11 -20 -3 -32 17 -27 38 -20 38 12 0 34 -16 44
-35 20z"/>
<path d="M12370 564 c-10 -11 -11 -20 -3 -32 17 -27 38 -20 38 12 0 34 -16 44
-35 20z"/>
<path d="M12570 565 c-11 -13 -9 -15 15 -15 16 0 25 5 23 12 -7 19 -24 20 -38
3z"/>
<path d="M12670 565 c-11 -13 -9 -15 15 -15 16 0 25 5 23 12 -7 19 -24 20 -38
3z"/>
<path d="M13270 565 c-11 -13 -9 -15 15 -15 16 0 25 5 23 12 -7 19 -24 20 -38
3z"/>
<path d="M13670 565 c-11 -13 -9 -15 15 -15 16 0 25 5 23 12 -7 19 -24 20 -38
3z"/>
<path d="M270 344 c-16 -19 -3 -47 24 -52 14 -3 17 3 14 29 -3 37 -19 47 -38
23z"/>
<path d="M1970 344 c-16 -19 -3 -47 24 -52 14 -3 17 3 14 29 -3 37 -19 47 -38
23z"/>
<path d="M177 323 c-14 -13 -6 -33 13 -33 13 0 20 7 20 20 0 19 -20 27 -33 13z"/>
<path d="M870 344 c-10 -11 -11 -20 -3 -32 17 -27 38 -20 38 12 0 34 -16 44
-35 20z"/>
<path d="M969 344 c-9 -11 -10 -20 -2 -32 17 -28 38 -20 41 16 4 36 -16 44
-39 16z"/>
<path d="M1570 344 c-10 -11 -11 -20 -3 -32 17 -27 38 -20 38 12 0 34 -16 44
-35 20z"/>
<path d="M1669 344 c-9 -11 -10 -20 -2 -32 17 -28 38 -20 41 16 4 36 -16 44
-39 16z"/>
<path d="M1769 344 c-9 -11 -10 -20 -2 -32 17 -28 38 -20 41 16 4 36 -16 44
-39 16z"/>
<path d="M1870 345 c-11 -13 -9 -15 15 -15 16 0 25 5 23 12 -7 19 -24 20 -38
3z"/>
<path d="M2870 345 c-11 -13 -9 -15 15 -15 16 0 25 5 23 12 -7 19 -24 20 -38
3z"/>
<path d="M2770 124 c-16 -19 -3 -47 24 -52 14 -3 17 3 14 29 -3 37 -19 47 -38
23z"/>
<path d="M3170 124 c-16 -19 -3 -47 24 -52 14 -3 17 3 14 29 -3 37 -19 47 -38
23z"/>
<path d="M1977 164 c-14 -15 -6 -34 14 -34 14 0 19 5 17 17 -3 18 -20 27 -31
17z"/>
<path d="M1976 113 c-3 -4 -6 -15 -6 -25 0 -24 33 -21 38 3 3 17 -21 33 -32
22z"/>
<path d="M2070 146 c-6 -17 -6 -35 0 -52 15 -39 35 -24 35 26 0 50 -20 65 -35
26z m30 -26 c0 -5 -4 -10 -10 -10 -5 0 -10 5 -10 10 0 6 5 10 10 10 6 0 10 -4
10 -10z"/>
<path d="M2177 164 c-14 -15 -6 -34 14 -34 14 0 19 5 17 17 -3 18 -20 27 -31
17z"/>
<path d="M2176 113 c-3 -4 -6 -15 -6 -25 0 -24 33 -21 38 3 3 17 -21 33 -32
22z"/>
<path d="M2270 146 c-6 -17 -6 -35 0 -52 15 -39 35 -24 35 26 0 50 -20 65 -35
26z m30 -26 c0 -5 -4 -10 -10 -10 -5 0 -10 5 -10 10 0 6 5 10 10 10 6 0 10 -4
10 -10z"/>
<path d="M170 124 c-10 -11 -11 -20 -3 -32 17 -27 38 -20 38 12 0 34 -16 44
-35 20z"/>
<path d="M470 125 c-11 -13 -9 -15 15 -15 16 0 25 5 23 12 -7 19 -24 20 -38 3z"/>
<path d="M1070 124 c-10 -11 -11 -20 -3 -32 17 -27 38 -20 38 12 0 34 -16 44
-35 20z"/>
<path d="M1277 103 c-14 -13 -6 -33 13 -33 13 0 20 7 20 20 0 19 -20 27 -33
13z"/>
<path d="M1570 124 c-10 -11 -11 -20 -3 -32 17 -27 38 -20 38 12 0 34 -16 44
-35 20z"/>
<path d="M2672 108 c4 -43 33 -46 33 -3 0 21 -5 31 -18 33 -15 3 -18 -2 -15
-30z"/>
<path d="M2877 103 c-14 -13 -6 -33 13 -33 13 0 20 7 20 20 0 19 -20 27 -33
13z"/>
<path d="M3070 125 c-11 -13 -9 -15 15 -15 16 0 25 5 23 12 -7 19 -24 20 -38
3z"/>
</g>
</svg>
