<?xml version="1.0" standalone="no"?>
<!DOCTYPE svg PUBLIC "-//W3C//DTD SVG 20010904//EN"
 "http://www.w3.org/TR/2001/REC-SVG-20010904/DTD/svg10.dtd">
<svg version="1.0" xmlns="http://www.w3.org/2000/svg"
 width="1499.000000pt" height="964.000000pt" viewBox="0 0 1499.000000 964.000000"
 preserveAspectRatio="xMidYMid meet">

<g transform="translate(0.000000,964.000000) scale(0.100000,-0.100000)"
fill="#000000" stroke="none">
<path d="M0 5261 c0 -2909 3 -4382 10 -4386 13 -8 13 -45 0 -45 -7 0 -10 -145
-10 -415 l0 -415 5679 0 5680 0 1 394 0 395 -22 3 c-32 4 -32 49 0 63 l22 10
0 720 c0 396 0 2366 0 4378 l0 3657 1815 0 c1203 0 1815 3 1815 10 0 7 -2505
10 -7495 10 l-7495 0 0 -4379z m2410 3054 c0 -25 -4 -45 -10 -45 -5 0 -10 20
-10 45 0 25 5 45 10 45 6 0 10 -20 10 -45z m1650 36 c0 -5 -13 -11 -30 -14
-25 -6 -30 -11 -30 -37 0 -25 4 -30 25 -30 14 0 25 -4 25 -10 0 -5 -11 -10
-25 -10 l-25 0 0 -100 c0 -82 -3 -100 -15 -100 -12 0 -15 18 -15 100 0 93 -1
100 -20 100 -11 0 -20 5 -20 10 0 6 9 10 20 10 15 0 20 7 20 27 0 14 7 35 17
45 16 18 73 26 73 9z m130 -1 c0 -5 -8 -10 -18 -10 -25 0 -42 -19 -42 -47 0
-18 6 -23 25 -23 14 0 25 -4 25 -10 0 -5 -11 -10 -25 -10 l-25 0 0 -100 c0
-82 -3 -100 -15 -100 -12 0 -15 18 -15 100 0 82 -3 100 -15 100 -8 0 -15 5
-15 10 0 6 7 10 15 10 9 0 15 9 15 23 0 37 27 67 61 67 16 0 29 -4 29 -10z
m290 -145 c0 -131 -2 -155 -15 -155 -8 0 -15 5 -15 10 0 7 -6 7 -19 0 -33 -17
-71 -11 -96 15 -21 20 -25 34 -25 85 0 51 4 65 25 85 25 26 63 32 96 15 18
-10 19 -7 19 45 0 42 3 55 15 55 13 0 15 -24 15 -155z m510 0 c0 -97 -4 -155
-10 -155 -6 0 -10 58 -10 155 0 97 4 155 10 155 6 0 10 -58 10 -155z m850 0
c0 -87 -4 -155 -9 -155 -5 0 -11 6 -14 13 -4 10 -7 10 -18 0 -14 -14 -57 -17
-84 -7 -24 10 -45 58 -45 104 0 82 48 126 112 102 l28 -10 0 54 c0 41 4 54 15
54 13 0 15 -24 15 -155z m-3960 0 l0 -135 70 0 c40 0 70 -4 70 -10 0 -6 -35
-10 -85 -10 l-85 0 0 145 c0 122 2 145 15 145 13 0 15 -22 15 -135z m4050 30
c0 -87 -3 -105 -15 -105 -12 0 -15 18 -15 105 0 87 3 105 15 105 12 0 15 -18
15 -105z m-3622 62 c2 -19 9 -27 23 -27 10 0 19 -4 19 -10 0 -5 -9 -10 -20
-10 -18 0 -20 -7 -20 -86 0 -77 2 -86 20 -91 28 -7 25 -23 -5 -23 -35 0 -45
27 -45 119 0 74 -2 81 -20 81 -11 0 -20 5 -20 10 0 6 9 10 20 10 16 0 20 7 20
31 0 38 24 35 28 -4z m902 3 c0 -25 4 -30 25 -30 14 0 25 -4 25 -10 0 -5 -11
-10 -25 -10 -26 0 -26 0 -23 -82 3 -75 5 -84 26 -93 29 -13 28 -25 -1 -25 -39
0 -47 18 -47 112 0 81 -2 88 -20 88 -11 0 -20 5 -20 10 0 6 9 10 20 10 16 0
20 7 20 30 0 17 5 30 10 30 6 0 10 -13 10 -30z m430 0 c0 -25 4 -30 25 -30 14
0 25 -4 25 -10 0 -5 -11 -10 -25 -10 -26 0 -26 0 -23 -82 3 -75 5 -84 26 -93
29 -13 28 -25 -1 -25 -39 0 -47 18 -47 112 0 81 -2 88 -20 88 -11 0 -20 5 -20
10 0 6 9 10 20 10 16 0 20 7 20 30 0 17 5 30 10 30 6 0 10 -13 10 -30z m-1445
-55 c16 -15 25 -36 25 -55 l0 -30 -75 0 c-81 0 -84 -3 -60 -50 19 -38 59 -49
97 -27 34 19 47 5 16 -17 -36 -26 -85 -20 -119 13 -25 25 -29 37 -29 81 0 44
4 56 29 81 38 37 82 39 116 4z m383 5 c12 -12 22 -25 22 -30 0 -16 -19 -11
-40 10 -24 24 -49 25 -76 6 -28 -21 -9 -46 50 -66 68 -22 85 -61 46 -100 -39
-39 -140 -17 -140 31 0 25 4 24 34 -6 28 -28 53 -32 80 -12 31 23 15 49 -39
69 -45 16 -75 40 -75 59 0 3 9 18 21 33 26 33 84 36 117 6z m285 9 c16 -9 22
-9 25 0 2 6 8 11 13 11 5 0 9 -56 9 -125 0 -120 -1 -127 -25 -150 -16 -17 -35
-25 -57 -25 -36 0 -82 26 -73 41 4 5 15 3 28 -6 42 -29 97 -6 97 41 0 20 -2
21 -28 12 -64 -24 -112 20 -112 102 0 89 56 134 123 99z m242 -14 c16 -15 25
-36 25 -55 l0 -30 -75 0 c-69 0 -75 -2 -75 -20 0 -26 43 -70 68 -70 10 0 27 7
38 15 23 18 34 19 34 4 0 -19 -33 -38 -67 -39 -22 0 -43 9 -65 29 -28 25 -32
35 -32 80 0 42 5 56 29 81 37 39 85 41 120 5z m423 9 c21 -15 30 -44 14 -44
-5 0 -17 9 -27 20 -32 35 -89 21 -83 -21 2 -18 13 -26 47 -36 56 -16 71 -29
71 -64 0 -57 -85 -80 -136 -36 -16 14 -24 29 -20 36 6 9 15 5 31 -14 26 -27
61 -32 89 -12 30 22 12 55 -37 68 -23 6 -50 18 -59 26 -41 37 -6 93 57 93 17
0 41 -7 53 -16z m232 -74 c0 -78 2 -91 19 -100 29 -15 49 -12 71 10 17 17 20
33 20 100 0 47 4 80 10 80 6 0 10 -43 10 -110 0 -67 -4 -110 -10 -110 -5 0
-10 5 -10 10 0 7 -6 7 -19 0 -23 -12 -71 -13 -87 -2 -24 16 -34 54 -34 131 0
65 3 81 15 81 12 0 15 -17 15 -90z m915 65 c16 -15 25 -36 25 -55 l0 -30 -76
0 -76 0 6 -27 c8 -32 40 -63 65 -63 10 0 26 7 37 15 23 18 34 19 34 4 0 -18
-32 -38 -62 -39 -66 0 -104 43 -102 117 2 88 92 136 149 78z m95 15 c0 -7 6
-7 19 0 34 18 76 12 102 -16 19 -21 24 -36 24 -84 0 -48 -5 -63 -24 -84 -26
-28 -68 -34 -102 -16 -18 10 -19 7 -19 -40 0 -38 -4 -50 -15 -50 -13 0 -15 23
-15 150 0 127 2 150 15 150 8 0 15 -5 15 -10z m431 -19 c25 -25 29 -37 29 -81
0 -44 -4 -56 -29 -81 -53 -52 -128 -34 -151 37 -38 113 72 204 151 125z m114
-56 c18 -50 32 -79 37 -72 4 7 17 41 29 77 22 68 34 88 45 77 7 -7 -57 -197
-84 -252 -17 -34 -30 -45 -54 -45 -24 0 -23 16 2 23 11 3 25 17 32 32 11 24 8
39 -21 119 -45 125 -45 126 -29 126 8 0 25 -32 43 -85z m290 60 c16 -15 25
-36 25 -55 l0 -30 -75 0 c-41 0 -75 -2 -75 -5 0 -3 6 -21 14 -40 18 -43 57
-56 98 -32 34 19 47 5 16 -17 -36 -26 -85 -20 -119 13 -25 25 -29 37 -29 81 0
44 4 56 29 81 38 37 82 39 116 4z m325 -180 c0 -8 -7 -15 -15 -15 -8 0 -15 7
-15 15 0 8 7 15 15 15 8 0 15 -7 15 -15z m-2400 -1465 c11 -11 20 -26 20 -33
0 -24 -31 -57 -55 -57 -49 0 -72 55 -38 92 21 24 48 23 73 -2z m514 -245 c242
-63 424 -281 443 -529 5 -74 8 -83 37 -109 17 -16 7 -11 -22 11 -129 98 -329
77 -446 -48 -54 -58 -80 -107 -96 -184 -32 -155 50 -315 198 -388 60 -30 75
-33 152 -32 53 0 102 7 129 17 l43 17 -6 -73 c-3 -39 -13 -192 -22 -338 -15
-250 -15 -268 1 -300 10 -19 24 -42 33 -52 8 -9 13 -20 10 -23 -4 -3 -18 14
-32 38 l-26 43 2 -75 3 -75 75 -6 75 -5 -70 -2 c-44 -1 -76 3 -83 10 -7 7 -12
10 -13 7 -4 -32 -26 -405 -23 -408 2 -2 34 5 71 16 38 12 114 35 170 52 l102
31 83 -36 c46 -20 98 -42 117 -50 l35 -14 -115 -71 c-63 -40 -115 -72 -116
-73 0 0 25 -29 57 -63 l59 -63 138 -10 c76 -5 166 -13 201 -16 l62 -6 0 -68 0
-68 -42 -5 c-24 -4 -113 -11 -198 -18 l-155 -12 -62 -62 -62 -63 114 -68 c62
-37 112 -71 110 -75 -3 -3 -54 -28 -114 -54 l-110 -47 -172 51 -172 52 -66
-15 c-36 -8 -98 -19 -137 -26 l-72 -11 -33 -77 c-18 -42 -35 -80 -38 -84 -3
-4 -82 -8 -175 -8 l-169 -2 -33 83 c-19 45 -35 84 -38 86 -2 2 -47 11 -101 19
-53 8 -115 19 -138 24 -37 8 -62 3 -210 -42 l-168 -50 -110 47 c-60 26 -111
51 -114 54 -2 4 47 37 109 75 l113 68 -63 64 -63 63 -143 11 c-79 5 -167 13
-195 16 l-53 5 0 69 0 68 63 6 c34 3 125 11 202 16 115 9 141 14 149 28 5 9
30 37 56 62 l48 46 -113 69 c-62 39 -111 72 -109 74 2 3 55 26 116 53 l112 48
168 -52 c93 -28 170 -49 172 -47 2 3 -18 365 -23 408 -1 3 -6 0 -13 -7 -7 -7
-39 -11 -83 -10 l-70 2 75 5 75 6 2 75 3 75 -19 -36 c-11 -19 -28 -42 -38 -50
-17 -13 -17 -13 -2 6 9 11 27 40 39 64 l21 43 -20 336 c-12 184 -19 337 -18
339 2 2 24 -4 48 -13 67 -25 181 -22 254 6 160 62 254 249 211 420 -56 222
-286 328 -508 235 -22 -9 -23 18 -3 128 40 226 209 410 435 473 65 18 234 17
304 -1z m-517 -621 c-3 -3 -12 -4 -19 -1 -8 3 -5 6 6 6 11 1 17 -2 13 -5z
m801 -1 c-10 -2 -26 -2 -35 0 -10 3 -2 5 17 5 19 0 27 -2 18 -5z m-1058 -7 c0
-2 -8 -10 -17 -17 -16 -13 -17 -12 -4 4 13 16 21 21 21 13z m309 -26 c23 -11
48 -17 54 -13 6 3 7 1 3 -5 -6 -10 32 -39 43 -33 3 1 6 -4 7 -11 1 -8 13 -31
28 -52 47 -70 59 -166 31 -246 -8 -23 -12 -46 -9 -51 3 -5 0 -8 -8 -7 -7 2
-12 -5 -12 -14 1 -10 -2 -16 -6 -13 -8 5 -69 -55 -70 -70 -1 -5 -8 -9 -17 -7
-10 2 -12 -1 -7 -9 4 -7 3 -10 -4 -6 -12 8 -44 -2 -38 -12 3 -4 -39 -6 -92 -5
-124 4 -151 7 -144 18 3 5 -2 7 -11 3 -10 -4 -16 -2 -14 6 1 7 -7 12 -18 12
-11 1 -19 6 -18 12 3 13 -36 50 -46 43 -3 -3 -6 4 -6 15 0 11 -5 19 -11 18 -7
-1 -11 3 -11 10 1 7 -7 38 -17 71 -21 68 -16 137 15 197 10 21 18 44 17 51 -2
7 2 12 8 11 11 -2 65 48 67 63 1 5 8 7 16 6 8 -2 10 1 5 9 -4 7 -3 10 3 6 6
-4 26 0 44 8 50 21 165 19 218 -5z m838 7 c11 -1 19 -6 15 -11 -3 -5 2 -7 11
-3 10 4 16 2 14 -5 -1 -6 4 -13 12 -16 9 -3 11 0 6 9 -5 8 -6 12 -2 9 3 -3 6
-9 7 -15 2 -17 63 -75 72 -69 5 3 7 2 6 -3 -4 -12 23 -73 31 -69 3 2 7 -31 9
-73 2 -54 -2 -90 -13 -121 -9 -25 -17 -53 -18 -62 -1 -9 -5 -14 -9 -12 -8 5
-30 -31 -22 -38 2 -3 -2 -11 -11 -18 -8 -7 -15 -9 -15 -6 0 4 -9 2 -20 -4 -11
-6 -17 -16 -14 -22 4 -6 3 -8 -3 -5 -6 4 -31 -2 -54 -13 -59 -26 -159 -26
-218 0 -23 11 -48 17 -54 13 -6 -3 -7 -1 -3 5 3 6 -3 16 -14 22 -11 6 -20 8
-20 4 0 -3 -7 -1 -15 6 -9 7 -13 15 -11 18 8 7 -14 43 -22 38 -4 -2 -8 3 -9
12 -1 9 -8 35 -17 57 -19 50 -20 137 -1 189 8 22 11 44 8 49 -3 6 -1 7 5 3 11
-7 17 7 12 29 -1 6 2 7 6 2 9 -9 75 53 69 63 -3 4 3 7 13 6 9 0 16 4 15 11 -2
8 4 10 14 6 11 -4 14 -3 9 5 -4 7 -2 10 7 7 7 -3 24 -1 38 5 20 8 90 7 186 -3z
m-1187 -11 c0 -2 -8 -10 -17 -17 -16 -13 -17 -12 -4 4 13 16 21 21 21 13z
m-58 -80 c-15 -24 -29 -42 -31 -40 -4 4 47 84 54 84 2 0 -8 -20 -23 -44z
m1429 27 c13 -16 12 -17 -3 -4 -10 7 -18 15 -18 17 0 8 8 3 21 -13z m39 -67
c0 -12 -5 -7 -19 24 -11 24 -11 24 3 6 9 -11 16 -24 16 -30z m-1513 -68 c-3
-8 -6 -5 -6 6 -1 11 2 17 5 13 3 -3 4 -12 1 -19z m1530 0 c-3 -8 -6 -5 -6 6
-1 11 2 17 5 13 3 -3 4 -12 1 -19z m10 -110 c-2 -18 -4 -4 -4 32 0 36 2 50 4
33 2 -18 2 -48 0 -65z m-1550 5 c-2 -16 -4 -3 -4 27 0 30 2 43 4 28 2 -16 2
-40 0 -55z m1500 15 c-3 -8 -6 -5 -6 6 -1 11 2 17 5 13 3 -3 4 -12 1 -19z
m-1490 -70 c-3 -8 -6 -5 -6 6 -1 11 2 17 5 13 3 -3 4 -12 1 -19z m1530 -10
c-3 -8 -6 -5 -6 6 -1 11 2 17 5 13 3 -3 4 -12 1 -19z m-1493 -75 c9 -18 14
-33 12 -33 -6 0 -36 55 -36 66 0 11 5 3 24 -33z m1447 -31 c-9 -18 -106 -112
-115 -112 -4 0 115 126 122 129 1 0 -2 -7 -7 -17z m5680 -35 c-8 -8 -11 -7
-11 4 0 20 13 34 18 19 3 -7 -1 -17 -7 -23z m-7071 -12 c19 -19 32 -35 29 -35
-3 0 -20 16 -39 35 -19 19 -32 35 -29 35 3 0 20 -16 39 -35z m227 -61 c-3 -3
-12 -4 -19 -1 -8 3 -5 6 6 6 11 1 17 -2 13 -5z m840 0 c-3 -3 -12 -4 -19 -1
-8 3 -5 6 6 6 11 1 17 -2 13 -5z m70 0 c-3 -3 -12 -4 -19 -1 -8 3 -5 6 6 6 11
1 17 -2 13 -5z m6223 -243 c0 -6 -4 -13 -10 -16 -5 -3 -10 1 -10 9 0 9 5 16
10 16 6 0 10 -4 10 -9z m-5981 -599 c-11 -4 -77 17 -83 27 -3 4 17 0 44 -8 27
-9 44 -17 39 -19z m-1344 18 c-3 -5 -14 -10 -23 -9 -14 0 -13 2 3 9 27 11 27
11 20 0z m-48 -16 c-3 -3 -12 -4 -19 -1 -8 3 -5 6 6 6 11 1 17 -2 13 -5z m-57
-14 c-25 -8 -25 -8 4 -9 16 -1 27 -4 23 -7 -3 -4 -28 -3 -54 1 -46 8 -47 9
-18 16 17 3 39 7 50 7 16 0 15 -2 -5 -8z m1497 4 c-3 -3 -12 -4 -19 -1 -8 3
-5 6 6 6 11 1 17 -2 13 -5z m43 -14 c-14 -4 -41 -8 -60 -8 l-35 1 35 7 c19 4
46 8 60 8 l25 0 -25 -8z m2030 -690 c0 -5 -4 -10 -10 -10 -5 0 -10 5 -10 10 0
6 5 10 10 10 6 0 10 -4 10 -10z m4528 -1367 c5 -18 -23 -16 -39 3 -11 14 -10
15 11 12 13 -1 25 -9 28 -15z m-3738 -113 c0 -5 -5 -10 -11 -10 -5 0 -7 5 -4
10 3 6 8 10 11 10 2 0 4 -4 4 -10z m939 -31 c-16 -10 -23 -4 -14 10 3 6 11 8
17 5 6 -4 5 -9 -3 -15z m-34 -119 c3 -5 1 -10 -4 -10 -6 0 -11 5 -11 10 0 6 2
10 4 10 3 0 8 -4 11 -10z m2640 -310 c3 -5 -3 -10 -14 -10 -12 0 -21 5 -21 10
0 6 6 10 14 10 8 0 18 -4 21 -10z m-1115 -350 c0 -5 -5 -10 -11 -10 -5 0 -7 5
-4 10 3 6 8 10 11 10 2 0 4 -4 4 -10z m-5440 -80 c0 -5 -5 -10 -11 -10 -5 0
-7 5 -4 10 3 6 8 10 11 10 2 0 4 -4 4 -10z m-2110 -10 c0 -5 -4 -10 -10 -10
-5 0 -10 5 -10 10 0 6 5 10 10 10 6 0 10 -4 10 -10z m1720 -40 c0 -5 -5 -10
-11 -10 -5 0 -7 5 -4 10 3 6 8 10 11 10 2 0 4 -4 4 -10z m6158 -294 c4 -21
-14 -37 -35 -29 -14 5 -18 35 -6 47 12 12 38 1 41 -18z m-9130 -31 c2 -17 -3
-21 -28 -23 -23 -2 -30 2 -30 16 0 25 10 33 35 30 11 -2 21 -12 23 -23z m5467
-25 c-3 -5 -11 -10 -16 -10 -6 0 -7 5 -4 10 3 6 11 10 16 10 6 0 7 -4 4 -10z
m2765 -20 c0 -5 -4 -10 -10 -10 -5 0 -10 5 -10 10 0 6 5 10 10 10 6 0 10 -4
10 -10z m780 -100 c0 -5 -5 -10 -11 -10 -5 0 -7 5 -4 10 3 6 8 10 11 10 2 0 4
-4 4 -10z m-6920 -34 c0 -3 -4 -8 -10 -11 -5 -3 -10 -1 -10 4 0 6 5 11 10 11
6 0 10 -2 10 -4z m2297 -178 c-3 -7 -5 -2 -5 12 0 14 2 19 5 13 2 -7 2 -19 0
-25z m3383 -88 c0 -5 -5 -10 -11 -10 -5 0 -7 5 -4 10 3 6 8 10 11 10 2 0 4 -4
4 -10z m-1870 -4 c0 -3 -4 -8 -10 -11 -5 -3 -10 -1 -10 4 0 6 5 11 10 11 6 0
10 -2 10 -4z m-690 -76 c0 -5 -2 -10 -4 -10 -3 0 -8 5 -11 10 -3 6 -1 10 4 10
6 0 11 -4 11 -10z m2520 -80 c0 -5 -2 -10 -4 -10 -3 0 -8 5 -11 10 -3 6 -1 10
4 10 6 0 11 -4 11 -10z m-470 -80 c0 -5 -2 -10 -4 -10 -3 0 -8 5 -11 10 -3 6
-1 10 4 10 6 0 11 -4 11 -10z m-2296 -35 c3 -8 1 -15 -3 -15 -5 0 -11 7 -15
15 -3 8 -1 15 3 15 5 0 11 -7 15 -15z m2531 -5 c3 -5 -1 -10 -9 -10 -9 0 -16
5 -16 10 0 6 4 10 9 10 6 0 13 -4 16 -10z m1715 -5 c0 -8 -4 -15 -10 -15 -5 0
-10 7 -10 15 0 8 5 15 10 15 6 0 10 -7 10 -15z"/>
<path d="M4354 8229 c-40 -45 -15 -159 35 -159 9 0 27 7 39 16 18 13 22 25 22
74 0 49 -4 61 -22 74 -30 22 -51 20 -74 -5z"/>
<path d="M5720 8232 c-18 -15 -22 -28 -22 -72 0 -44 4 -57 22 -72 25 -21 43
-22 71 -8 27 15 28 129 1 153 -24 22 -44 21 -72 -1z"/>
<path d="M2100 8230 c-37 -37 -26 -50 40 -50 33 0 60 3 60 6 0 11 -23 49 -34
56 -19 13 -45 9 -66 -12z"/>
<path d="M2793 8235 c-43 -30 -37 -128 9 -155 23 -12 30 -12 52 0 24 12 26 19
26 75 0 85 -34 117 -87 80z"/>
<path d="M3005 8225 c-38 -37 -31 -45 35 -45 52 0 60 3 60 18 0 23 -30 52 -54
52 -9 0 -28 -11 -41 -25z"/>
<path d="M4575 8225 c-38 -37 -31 -45 35 -45 52 0 60 3 60 18 0 23 -30 52 -54
52 -9 0 -28 -11 -41 -25z"/>
<path d="M4792 8234 c-18 -13 -22 -24 -22 -74 0 -52 3 -62 25 -76 49 -32 95 5
95 77 0 73 -47 109 -98 73z"/>
<path d="M5095 8225 c-64 -63 0 -185 75 -145 29 15 44 73 30 115 -19 58 -65
71 -105 30z"/>
<path d="M5510 8230 c-37 -37 -26 -50 40 -50 33 0 60 3 60 6 0 11 -23 49 -34
56 -19 13 -45 9 -66 -12z"/>
<path d="M4096 4816 c-65 -170 -316 -179 -400 -15 l-28 54 7 -50 c39 -282 282
-360 400 -127 17 34 49 171 42 178 -2 3 -12 -16 -21 -40z"/>
<path d="M3525 4174 c-4 -53 -10 -141 -14 -195 l-6 -99 23 0 24 0 -7 193 c-4
105 -9 193 -10 195 -1 2 -6 -41 -10 -94z"/>
<path d="M4237 4136 c-12 -225 -10 -253 12 -259 11 -3 21 -3 23 -1 3 2 -15
271 -24 369 -2 17 -6 -33 -11 -109z"/>
<path d="M3690 4085 c-6 -70 -5 -83 5 -73 3 3 5 37 3 74 l-3 69 -5 -70z"/>
<path d="M4075 4108 c-8 -40 1 -108 14 -108 6 0 4 110 -3 135 -2 6 -7 -7 -11
-27z"/>
<path d="M3676 3812 c-3 -5 -8 -50 -12 -101 -12 -155 -42 -174 -269 -169
l-140 3 124 27 c161 36 171 44 171 145 0 66 -2 73 -19 73 -24 0 -30 -8 -44
-67 -19 -72 -44 -86 -177 -91 -107 -4 -111 -5 -135 -34 -49 -58 -54 -138 -13
-205 54 -90 226 -177 428 -218 110 -22 355 -30 479 -16 365 43 613 195 571
352 -6 20 -23 55 -40 77 l-30 42 -83 0 c-141 0 -187 25 -201 110 -3 22 -10 40
-15 40 -5 0 -16 3 -25 6 -14 5 -16 -5 -16 -68 0 -102 10 -110 171 -146 l124
-27 -145 -3 c-159 -3 -219 10 -242 51 -7 12 -17 67 -23 122 -8 78 -13 100 -25
100 -12 0 -15 -23 -18 -131 l-3 -132 31 -26 c30 -25 132 -61 250 -88 55 -13
54 -13 -79 -16 -174 -3 -234 9 -282 57 -34 34 -37 44 -64 184 -16 81 -32 147
-36 147 -3 0 -19 -66 -34 -147 -27 -141 -30 -150 -64 -184 -48 -48 -108 -60
-282 -57 -133 3 -134 3 -79 16 118 27 220 63 249 88 l31 26 0 134 c0 110 -3
134 -14 134 -8 0 -17 -4 -20 -8z"/>
<path d="M3327 3719 c-22 -11 -37 -23 -34 -25 8 -8 77 24 77 35 0 13 3 14 -43
-10z"/>
<path d="M4424 3715 c11 -8 25 -15 30 -15 6 0 2 7 -8 15 -11 8 -25 15 -30 15
-6 0 -2 -7 8 -15z"/>
<path d="M3425 5558 c-32 -17 -45 -39 -45 -77 1 -85 98 -120 150 -54 29 37 26
79 -9 114 -31 30 -62 36 -96 17z"/>
<path d="M4259 5541 c-35 -35 -38 -77 -9 -114 60 -77 187 -6 150 83 -27 65
-92 79 -141 31z"/>
<path d="M12192 8153 c-2 -44 1 -53 18 -58 33 -11 50 12 48 64 l-1 46 -6 -50
c-5 -41 -9 -50 -26 -50 -17 0 -21 9 -26 50 l-6 50 -1 -52z"/>
<path d="M12297 8163 c-3 -5 5 -8 18 -8 13 0 21 3 18 8 -2 4 -10 7 -18 7 -8 0
-16 -3 -18 -7z"/>
<path d="M12371 8156 c-16 -19 -11 -46 11 -60 12 -7 21 -7 28 0 8 8 4 10 -11
10 -12 -1 -24 5 -26 12 -3 7 5 12 22 12 20 0 26 4 23 17 -4 23 -31 28 -47 9z
m39 -6 c0 -5 -9 -10 -21 -10 -11 0 -17 5 -14 10 3 6 13 10 21 10 8 0 14 -4 14
-10z"/>
<path d="M12441 8126 c2 -34 3 -36 6 -11 3 17 9 35 14 41 5 7 3 11 -6 11 -11
0 -15 -11 -14 -41z"/>
<path d="M12490 8131 c0 -23 2 -41 4 -41 8 0 12 71 4 76 -4 3 -8 -13 -8 -35z"/>
<path d="M12527 8163 c6 -4 13 -24 16 -43 4 -34 4 -33 3 4 -1 26 -6 41 -16 43
-10 3 -11 2 -3 -4z"/>
<path d="M12586 8161 c-3 -5 3 -7 14 -4 11 3 20 0 20 -6 0 -6 -6 -11 -13 -11
-23 0 -38 -22 -26 -37 7 -7 17 -13 23 -13 6 0 3 5 -7 11 -9 6 -15 14 -12 20
10 15 33 10 39 -8 2 -10 4 -2 3 17 -2 34 -27 54 -41 31z"/>
<path d="M12663 8130 c0 -25 2 -35 4 -22 2 12 2 32 0 45 -2 12 -4 2 -4 -23z"/>
<path d="M12692 8158 c9 -7 19 -26 21 -43 4 -28 4 -27 6 6 1 25 -4 39 -15 43
-25 10 -29 7 -12 -6z"/>
<path d="M12730 8166 c0 -2 7 -7 16 -10 8 -3 12 -2 9 4 -6 10 -25 14 -25 6z"/>
<path d="M12826 8155 c19 -14 19 -14 -3 -15 -12 0 -24 6 -26 13 -3 7 -6 5 -6
-5 -1 -13 7 -18 29 -18 17 0 30 4 30 8 0 11 -22 32 -34 32 -5 0 -1 -7 10 -15z"/>
<path d="M12326 8116 c6 -16 4 -18 -14 -14 -12 4 -20 2 -16 -3 7 -12 31 -11
40 2 3 6 1 16 -5 22 -9 9 -10 7 -5 -7z"/>
<path d="M12191 7293 c1 -32 4 -48 6 -36 3 15 13 23 31 25 20 2 28 9 30 27 4
26 -12 41 -45 41 -21 0 -23 -4 -22 -57z m57 20 c3 -19 -1 -23 -22 -23 -21 0
-26 5 -26 26 0 21 4 25 23 22 14 -2 23 -11 25 -25z"/>
<path d="M12315 7308 c19 -11 19 -11 0 -19 -19 -7 -19 -8 -1 -8 12 -1 16 -6
13 -16 -4 -8 -2 -17 3 -20 6 -4 10 7 10 22 0 30 -16 53 -34 53 -6 0 -2 -6 9
-12z"/>
<path d="M12380 7316 c0 -2 7 -7 16 -10 8 -3 12 -2 9 4 -6 10 -25 14 -25 6z"/>
<path d="M12444 7309 c-3 -6 -1 -16 5 -22 9 -9 10 -7 5 7 -6 16 -4 18 14 14
12 -4 20 -2 16 3 -7 12 -31 11 -40 -2z"/>
<path d="M12557 7313 c-4 -3 -7 -11 -7 -17 0 -6 5 -5 12 2 6 6 9 14 7 17 -3 3
-9 2 -12 -2z"/>
<path d="M12643 7313 c-12 -4 -19 -63 -9 -63 2 0 13 -3 23 -6 17 -5 17 -5 1 6
-10 6 -18 20 -18 30 0 10 8 24 18 29 17 11 7 13 -15 4z"/>
<path d="M12772 7308 c-22 -22 -7 -69 23 -68 5 0 2 5 -7 11 -10 5 -18 19 -18
29 0 10 8 24 18 29 9 6 12 11 7 11 -6 0 -16 -5 -23 -12z"/>
<path d="M12360 7301 c0 -10 19 -25 25 -20 1 2 -3 10 -11 17 -8 7 -14 8 -14 3z"/>
<path d="M12522 7290 c0 -8 3 -24 7 -34 7 -18 8 -18 14 -3 3 9 2 17 -3 17 -5
0 -11 8 -13 18 -3 11 -5 12 -5 2z"/>
<path d="M12283 7266 c1 -11 9 -21 17 -23 10 -3 11 -2 4 4 -6 4 -14 15 -17 23
-5 11 -6 9 -4 -4z"/>
<path d="M12406 7267 c3 -10 9 -15 12 -12 3 3 0 11 -7 18 -10 9 -11 8 -5 -6z"/>
<path d="M12482 7268 c2 -8 -6 -13 -19 -12 -12 0 -20 -3 -17 -8 8 -13 30 -9
43 6 8 10 9 16 1 21 -6 4 -9 1 -8 -7z"/>
<path d="M12586 7265 c-9 -26 -7 -32 5 -12 6 10 9 21 6 23 -2 3 -7 -2 -11 -11z"/>
</g>
</svg>
