<?xml version="1.0" standalone="no"?>
<!DOCTYPE svg PUBLIC "-//W3C//DTD SVG 20010904//EN"
 "http://www.w3.org/TR/2001/REC-SVG-20010904/DTD/svg10.dtd">
<svg version="1.0" xmlns="http://www.w3.org/2000/svg"
 width="1652.000000pt" height="878.000000pt" viewBox="0 0 1652.000000 878.000000"
 preserveAspectRatio="xMidYMid meet">

<g transform="translate(0.000000,878.000000) scale(0.100000,-0.100000)"
fill="#000000" stroke="none">
<path d="M0 4390 c0 -3896 2 -4390 15 -4390 13 0 15 389 15 3445 l0 3445 900
0 900 0 0 250 0 250 -900 0 -900 0 0 490 0 490 8245 0 8245 0 0 205 0 205
-8260 0 -8260 0 0 -4390z m270 4260 c0 -11 -4 -20 -9 -20 -6 0 -11 -24 -13
-52 l-3 -53 -77 -3 -78 -3 0 61 0 60 70 0 c56 0 70 3 70 15 0 8 9 15 20 15 13
0 20 -7 20 -20z m2529 -7 c20 -12 31 -26 31 -41 0 -31 -26 -79 -50 -92 -26
-14 -55 1 -75 40 -23 44 -19 73 13 92 35 21 44 21 81 1z m12091 1 c0 -3 -6
-20 -14 -39 -18 -43 -2 -59 25 -24 10 13 19 22 22 19 13 -16 35 -90 27 -90 -6
0 -10 5 -10 10 0 6 -11 10 -25 10 -14 0 -25 -4 -25 -10 0 -5 -5 -10 -11 -10
-5 0 -7 5 -3 12 11 18 -25 39 -47 27 -20 -10 -28 4 -9 16 6 3 8 18 4 33 -5 25
-4 26 10 9 14 -18 15 -18 26 2 10 19 8 21 -25 21 -39 0 -48 17 -12 22 24 4 67
-2 67 -8z m-13570 -21 c0 -18 -6 -23 -25 -23 -16 0 -23 4 -19 14 7 18 -23 28
-46 16 -34 -18 -44 -48 -25 -76 24 -37 59 -36 92 4 18 21 23 23 23 10 0 -28
-37 -58 -70 -58 -62 0 -93 77 -50 120 16 16 31 20 70 18 44 -3 50 -6 50 -25z
m1764 8 c12 -14 16 -32 14 -67 l-3 -49 -55 0 -55 0 -3 54 c-2 29 -1 60 2 67 8
22 79 18 100 -5z m618 -49 c2 -32 -1 -51 -7 -49 -5 2 -11 30 -13 63 -2 38 0
55 7 49 5 -5 11 -34 13 -63z m281 -51 c-1 -1 -6 0 -12 4 -12 7 -15 98 -3 109
6 7 21 -102 15 -113z m60 77 c18 -2 22 -10 24 -43 2 -42 -1 -39 -11 8 -9 41
-36 35 -36 -8 0 -19 -4 -35 -10 -35 -12 0 -14 103 -2 114 4 4 8 -1 10 -12 2
-12 12 -22 25 -24z m11140 22 c3 -12 14 -20 25 -20 27 0 35 -15 17 -30 -8 -7
-15 -25 -15 -40 0 -35 -8 -42 -31 -27 -15 9 -23 9 -38 0 -23 -15 -31 -8 -31
27 0 15 -7 33 -15 40 -18 15 -10 30 17 30 11 0 22 8 25 20 3 11 13 20 23 20
10 0 20 -9 23 -20z m-14669 -21 c-17 -18 -16 -19 34 -19 29 0 52 -4 52 -10 0
-5 -26 -10 -57 -10 l-56 0 23 -25 c13 -14 19 -25 14 -25 -6 0 -23 14 -39 30
l-29 30 29 30 c30 31 58 31 29 -1z m419 -61 c-30 -31 -47 -30 -18 2 18 20 17
20 -41 22 l-59 2 58 3 c31 2 57 7 57 10 0 4 -8 16 -17 27 -10 12 -3 8 15 -8
l32 -30 -27 -28z m2417 59 c12 -4 11 -6 -2 -6 -23 -1 -25 -57 -3 -64 11 -4 10
-4 -2 -3 -14 1 -19 12 -21 51 -1 28 1 45 5 39 5 -6 15 -14 23 -17z m60 0 c12
-4 11 -6 -2 -6 -23 -1 -25 -57 -3 -64 11 -4 10 -4 -2 -3 -14 1 -19 12 -21 51
-1 28 1 45 5 39 5 -6 15 -14 23 -17z m870 0 c12 -4 11 -6 -2 -6 -12 -1 -18 -9
-18 -26 0 -13 8 -29 18 -35 15 -10 15 -10 -3 -8 -16 3 -20 12 -23 53 -1 28 1
45 5 39 5 -6 15 -14 23 -17z m203 16 c3 -5 -5 -8 -18 -8 -13 0 -21 3 -18 8 2
4 10 7 18 7 8 0 16 -3 18 -7z m94 -18 c2 -17 1 -18 -3 -2 -4 13 -12 17 -25 14
-11 -3 -16 -1 -13 4 10 17 39 5 41 -16z m71 -27 l-1 -53 -6 45 c-6 43 -5 60 5
60 2 0 3 -24 2 -52z m-291 20 c-3 -8 -6 -5 -6 6 -1 11 2 17 5 13 3 -3 4 -12 1
-19z m-1073 3 c3 -4 -6 -6 -19 -3 -14 2 -25 6 -25 8 0 8 39 4 44 -5z m220 -13
c14 -22 -2 -52 -30 -55 -14 -2 -13 0 4 7 31 13 26 51 -8 62 -25 7 -25 7 -1 5
13 -1 29 -10 35 -19z m281 -18 c0 -32 -2 -35 -30 -35 -24 0 -31 5 -33 23 -6
38 5 54 35 50 25 -3 28 -7 28 -38z m65 31 c-18 -5 -25 -14 -25 -31 0 -17 7
-26 25 -32 23 -6 23 -7 -5 -5 -23 2 -31 7 -33 25 -5 37 5 52 35 51 l28 -1 -25
-7z m88 -34 c3 -37 2 -38 -25 -35 -37 4 -39 39 -3 49 l25 6 -25 12 -25 11 25
-3 c21 -2 25 -8 28 -40z m217 3 c0 -32 -2 -35 -30 -35 -24 0 -31 5 -33 23 -6
38 5 54 35 50 25 -3 28 -7 28 -38z m58 33 c-29 -5 -30 -20 -2 -28 28 -9 20
-39 -11 -42 l-25 -3 25 11 25 11 -22 11 c-36 16 -28 48 11 46 19 -2 19 -2 -1
-6z m284 -35 c-3 -7 -5 -2 -5 12 0 14 2 19 5 13 2 -7 2 -19 0 -25z m-60 0 c-3
-8 -6 -5 -6 6 -1 11 2 17 5 13 3 -3 4 -12 1 -19z m-29 -19 c-3 -8 -7 -3 -11
10 -4 17 -3 21 5 13 5 -5 8 -16 6 -23z m125 16 c-3 -9 -8 -14 -10 -11 -3 3 -2
9 2 15 9 16 15 13 8 -4z m-152 -33 c-7 -2 -18 1 -23 6 -8 8 -4 9 13 5 13 -4
18 -8 10 -11z m102 6 c-2 -5 -10 -8 -18 -8 -8 0 -16 3 -18 8 -3 4 5 7 18 7 13
0 21 -3 18 -7z m92 2 c-3 -5 -14 -10 -23 -9 -14 0 -13 2 3 9 27 11 27 11 20 0z
m-3915 -1400 c0 -53 -4 -90 -10 -90 -6 0 -10 37 -10 90 0 53 4 90 10 90 6 0
10 -37 10 -90z m460 0 c0 -53 -4 -90 -10 -90 -6 0 -10 37 -10 90 0 53 4 90 10
90 6 0 10 -37 10 -90z m-336 25 c31 -31 27 -84 -8 -107 -36 -24 -86 8 -86 55
0 56 58 88 94 52z m142 1 c25 -19 12 -31 -15 -14 -29 18 -56 0 -56 -37 0 -37
27 -55 56 -37 27 17 40 5 15 -14 -62 -45 -125 30 -80 94 17 25 51 29 80 8z
m132 2 c7 -7 12 -35 12 -63 l0 -52 -41 1 c-73 2 -82 67 -10 74 17 2 31 8 31
13 0 17 -32 23 -52 10 -27 -16 -38 -3 -14 15 24 17 58 18 74 2z"/>
<path d="M130 8580 l0 -40 50 0 50 0 0 40 0 40 -50 0 -50 0 0 -40z"/>
<path d="M2727 8632 c-23 -14 -26 -22 -21 -47 3 -16 17 -41 30 -55 l24 -25 24
25 c13 14 27 39 30 56 7 29 -5 42 -54 60 -3 1 -17 -5 -33 -14z"/>
<path d="M14906 8565 c-3 -9 0 -15 9 -15 9 0 12 6 9 15 -4 8 -7 15 -9 15 -2 0
-5 -7 -9 -15z"/>
<path d="M2994 8626 c-3 -7 -4 -33 -2 -57 l3 -44 45 0 c45 0 45 0 48 38 3 32
0 37 -17 37 -14 0 -21 6 -21 20 0 15 -7 20 -25 20 -14 0 -28 -6 -31 -14z"/>
<path d="M15146 8615 c-3 -8 -15 -15 -26 -15 -23 0 -27 -18 -5 -26 10 -4 13
-14 9 -31 -6 -23 -5 -24 15 -14 16 9 26 9 42 0 20 -10 21 -9 15 14 -4 17 -1
27 9 31 22 8 18 26 -5 26 -11 0 -23 7 -26 15 -4 8 -10 15 -14 15 -4 0 -10 -7
-14 -15z"/>
<path d="M3734 8586 c-9 -24 4 -48 23 -44 12 2 18 12 18 28 0 29 -32 41 -41
16z"/>
<path d="M3897 8564 c-9 -10 2 -24 19 -24 8 0 14 7 14 15 0 15 -21 21 -33 9z"/>
<path d="M4104 8586 c-9 -24 4 -48 23 -44 12 2 18 12 18 28 0 29 -32 41 -41
16z"/>
<path d="M722 7148 c-29 -29 -4 -84 35 -76 28 5 26 82 -2 86 -11 1 -26 -3 -33
-10z"/>
<path d="M994 7099 c-3 -6 -1 -16 5 -22 13 -13 42 0 49 21 5 15 -44 16 -54 1z"/>
<path d="M4308 8179 c-15 -8 -18 -25 -18 -110 0 -96 1 -100 25 -111 38 -17 72
2 81 47 11 62 0 156 -21 171 -22 16 -43 17 -67 3z m47 -110 c0 -68 -3 -84 -15
-84 -12 0 -16 16 -18 74 -3 82 2 105 21 98 8 -2 12 -29 12 -88z"/>
<path d="M4420 8071 c0 -101 2 -121 15 -121 12 0 15 16 16 83 1 87 3 86 34
-26 13 -44 21 -57 33 -55 15 3 17 19 17 118 0 96 -3 115 -15 115 -11 0 -16
-14 -19 -55 l-4 -55 -16 55 c-13 43 -22 56 -39 58 -22 3 -22 1 -22 -117z"/>
<path d="M4567 8183 c-4 -3 -7 -55 -7 -115 l0 -108 50 0 c38 0 50 4 50 15 0
10 -10 15 -30 15 l-30 0 0 100 c0 77 -3 100 -13 100 -8 0 -17 -3 -20 -7z"/>
<path d="M4680 8070 c0 -100 3 -120 15 -120 13 0 15 20 15 120 0 100 -2 120
-15 120 -12 0 -15 -20 -15 -120z"/>
<path d="M4740 8071 c0 -101 2 -121 15 -121 12 0 15 16 16 83 l1 82 22 -80
c16 -55 28 -81 39 -83 15 -3 17 10 17 117 0 101 -2 121 -15 121 -12 0 -15 -14
-16 -62 l-1 -63 -17 60 c-14 47 -22 61 -39 63 -22 3 -22 1 -22 -117z"/>
<path d="M4880 8075 l0 -115 50 0 c38 0 50 4 50 15 0 10 -10 15 -30 15 -28 0
-30 3 -30 35 0 31 3 35 25 35 16 0 25 6 25 15 0 9 -9 15 -25 15 -21 0 -25 5
-25 30 0 27 3 30 30 30 23 0 30 4 30 20 0 17 -7 20 -50 20 l-50 0 0 -115z"/>
<path d="M5004 8177 c-2 -7 -3 -60 -2 -118 3 -103 3 -104 28 -105 22 -1 22 0
3 3 -22 4 -23 8 -23 114 l0 109 28 0 c15 0 34 -6 42 -12 12 -11 12 -10 1 5
-16 20 -69 23 -77 4z"/>
<path d="M5792 8073 l2 -118 3 112 4 112 42 4 42 4 -47 1 -48 2 2 -117z"/>
<path d="M5135 8169 c-4 -6 -5 -12 -2 -15 2 -3 7 2 10 11 7 17 1 20 -8 4z"/>
<path d="M5206 8167 c3 -10 9 -15 12 -12 3 3 0 11 -7 18 -10 9 -11 8 -5 -6z"/>
<path d="M5254 8085 c0 -55 1 -76 3 -47 2 29 2 74 0 100 -2 26 -3 2 -3 -53z"/>
<path d="M5344 8090 c0 -52 1 -74 3 -47 2 26 2 68 0 95 -2 26 -3 4 -3 -48z"/>
<path d="M5674 8080 c0 -58 1 -81 3 -52 2 28 2 76 0 105 -2 28 -3 5 -3 -53z"/>
<path d="M14470 8170 c0 -5 4 -10 8 -10 17 0 42 -70 36 -100 l-6 -30 71 0 c41
0 71 4 71 10 0 6 -27 10 -60 10 -33 0 -60 4 -60 10 0 6 20 10 46 10 42 0 46 2
60 35 7 19 14 39 14 45 0 6 -30 10 -75 10 -43 0 -75 4 -75 10 0 6 -7 10 -15
10 -8 0 -15 -4 -15 -10z m156 -46 c-3 -9 -6 -20 -6 -25 0 -5 -18 -9 -40 -9
-29 0 -42 5 -50 19 -15 30 -14 31 46 31 47 0 55 -3 50 -16z"/>
<path d="M5624 8070 c0 -52 1 -74 3 -47 2 26 2 68 0 95 -2 26 -3 4 -3 -48z"/>
<path d="M5533 8070 c0 -47 2 -66 4 -42 2 23 2 61 0 85 -2 23 -4 4 -4 -43z"/>
<path d="M13380 8065 l0 -55 38 2 c36 1 36 1 5 5 -43 6 -47 40 -5 46 l27 4
-27 2 c-21 1 -28 6 -28 20 0 15 8 21 33 24 31 4 31 4 -5 5 l-38 2 0 -55z"/>
<path d="M13472 8073 c-2 -49 0 -53 23 -59 38 -10 55 11 53 65 l-1 46 -4 -42
c-8 -80 -59 -85 -66 -6 l-3 48 -2 -52z"/>
<path d="M13570 8065 c0 -30 5 -55 10 -55 6 0 10 11 10 25 0 14 5 25 10 25 6
0 15 -11 20 -25 5 -14 14 -25 20 -25 6 0 5 9 -2 25 -8 19 -8 28 2 40 18 21 -4
45 -41 45 -28 0 -29 -1 -29 -55z m58 22 c2 -12 -3 -17 -17 -17 -15 0 -21 6
-21 21 0 25 33 22 38 -4z"/>
<path d="M13170 8097 c14 -8 27 -12 30 -10 7 6 -23 23 -40 23 -8 0 -4 -6 10
-13z"/>
<path d="M13880 8081 c0 -5 7 -14 15 -21 12 -10 18 -10 30 0 23 19 18 30 -15
30 -16 0 -30 -4 -30 -9z"/>
<path d="M13103 8055 c0 -10 10 -15 31 -14 30 1 30 1 6 8 l-25 8 25 5 c23 5
22 5 -6 7 -21 1 -31 -4 -31 -14z"/>
<path d="M5092 8020 c-1 -20 -8 -43 -14 -50 -7 -9 -5 -8 5 1 13 11 17 26 14
50 l-4 34 -1 -35z"/>
<path d="M13170 8013 c-14 -7 -18 -13 -10 -13 17 0 47 17 40 23 -3 2 -16 -2
-30 -10z"/>
<path d="M14510 8000 c0 -11 7 -20 15 -20 8 0 15 9 15 20 0 11 -7 20 -15 20
-8 0 -15 -9 -15 -20z"/>
<path d="M14610 8000 c0 -11 7 -20 15 -20 8 0 15 9 15 20 0 11 -7 20 -15 20
-8 0 -15 -9 -15 -20z"/>
<path d="M5130 7981 c0 -6 4 -13 10 -16 6 -3 7 1 4 9 -7 18 -14 21 -14 7z"/>
<path d="M5206 7973 c-6 -14 -5 -15 5 -6 7 7 10 15 7 18 -3 3 -9 -2 -12 -12z"/>
<path d="M5610 7960 c8 -5 20 -10 25 -10 6 0 3 5 -5 10 -8 5 -19 10 -25 10 -5
0 -3 -5 5 -10z"/>
<path d="M5168 7953 c7 -3 16 -2 19 1 4 3 -2 6 -13 5 -11 0 -14 -3 -6 -6z"/>
<path d="M4680 7084 c0 -55 0 -55 -22 -40 -56 40 -128 -5 -128 -79 0 -74 72
-119 128 -79 20 14 22 14 22 0 0 -9 7 -16 15 -16 13 0 15 22 15 135 0 113 -2
135 -15 135 -12 0 -15 -13 -15 -56z m-16 -76 c46 -66 -28 -144 -86 -91 -22 20
-23 70 -1 95 23 25 68 23 87 -4z"/>
<path d="M3300 7000 c0 -109 2 -130 15 -130 12 0 15 13 15 60 l0 60 65 0 65 0
0 -60 c0 -47 3 -60 15 -60 13 0 15 21 15 130 0 109 -2 130 -15 130 -12 0 -15
-13 -15 -55 l0 -55 -65 0 -65 0 0 55 c0 42 -3 55 -15 55 -13 0 -15 -21 -15
-130z"/>
<path d="M3990 7000 c0 -109 2 -130 15 -130 11 0 15 12 15 49 l0 48 49 7 c69
9 99 49 79 106 -12 37 -41 50 -109 50 l-49 0 0 -130z m131 74 c15 -42 -11 -74
-61 -74 l-40 0 0 50 0 50 45 0 c40 0 47 -3 56 -26z"/>
<path d="M3770 7080 c0 -11 -7 -20 -15 -20 -8 0 -15 -7 -15 -15 0 -8 7 -15 15
-15 12 0 15 -14 15 -64 0 -45 5 -69 16 -80 20 -21 64 -21 64 -1 0 9 -9 15 -25
15 -24 0 -25 2 -25 65 0 63 1 65 25 65 16 0 25 6 25 15 0 9 -9 15 -25 15 -18
0 -25 5 -25 20 0 11 -7 20 -15 20 -8 0 -15 -9 -15 -20z"/>
<path d="M5190 7080 c0 -11 -7 -20 -15 -20 -8 0 -15 -7 -15 -15 0 -8 7 -15 15
-15 12 0 15 -14 15 -68 0 -76 9 -92 53 -92 34 0 33 23 -1 28 -20 3 -22 9 -22
68 0 62 1 64 25 64 16 0 25 6 25 15 0 9 -9 15 -25 15 -18 0 -25 5 -25 20 0 11
-7 20 -15 20 -8 0 -15 -9 -15 -20z"/>
<path d="M3583 7050 c-29 -12 -43 -41 -43 -90 0 -49 34 -90 75 -90 33 0 81 24
89 45 12 32 6 93 -11 114 -20 24 -77 35 -110 21z m87 -39 c15 -29 12 -77 -6
-95 -22 -23 -71 -20 -84 3 -15 29 -12 77 6 95 22 23 71 20 84 -3z"/>
<path d="M4200 6965 c0 -78 3 -95 15 -95 12 0 15 14 15 64 0 66 14 96 46 96 8
0 14 7 14 15 0 8 -6 15 -14 15 -7 0 -19 -7 -26 -15 -7 -8 -16 -15 -21 -15 -5
0 -9 7 -9 15 0 8 -4 15 -10 15 -6 0 -10 -38 -10 -95z"/>
<path d="M4357 7049 c-11 -6 -25 -26 -33 -44 -41 -99 64 -179 137 -106 74 75
-15 202 -104 150z m85 -36 c40 -36 11 -113 -42 -113 -35 0 -54 23 -54 65 0 18
6 40 13 49 17 21 60 20 83 -1z"/>
<path d="M4760 6985 c0 -62 4 -79 20 -95 24 -24 57 -26 88 -4 20 14 22 14 22
0 0 -9 7 -16 15 -16 12 0 15 17 15 95 0 78 -3 95 -15 95 -12 0 -15 -13 -15
-58 0 -66 -19 -102 -54 -102 -36 0 -46 19 -46 92 0 54 -3 68 -15 68 -12 0 -15
-15 -15 -75z"/>
<path d="M4989 7031 c-81 -81 25 -211 115 -140 14 11 26 25 26 30 0 14 -26 11
-40 -6 -31 -38 -100 -3 -100 50 0 53 69 88 100 50 14 -17 40 -20 40 -6 0 18
-53 51 -82 51 -19 0 -40 -10 -59 -29z"/>
<path d="M5325 7044 c-9 -9 -15 -28 -13 -42 2 -21 12 -30 48 -42 33 -11 46
-22 48 -38 3 -18 -1 -22 -26 -22 -16 0 -35 7 -42 15 -14 17 -40 20 -40 5 0
-22 41 -50 73 -50 49 0 69 19 65 60 -3 32 -7 36 -50 48 -36 10 -48 18 -48 33
0 14 7 19 28 19 15 0 33 -5 39 -11 6 -6 17 -9 24 -7 9 3 6 11 -9 26 -26 26
-74 29 -97 6z"/>
<path d="M10016 6148 c-3 -7 -12 -62 -20 -123 -9 -60 -23 -150 -31 -200 -8
-49 -15 -109 -15 -132 0 -24 -9 -105 -20 -180 -40 -285 -46 -301 -156 -415
-58 -60 -128 -87 -259 -99 -55 -5 -134 -16 -176 -24 -80 -15 -107 -14 -229 9
-41 8 -106 20 -145 26 -84 13 -157 36 -207 64 -33 19 -119 93 -131 113 -16 26
-78 304 -91 408 -9 66 -20 154 -25 195 -6 41 -11 121 -11 177 0 57 -4 105 -10
108 -5 3 -10 15 -10 25 0 29 -14 32 -113 31 -120 -2 -121 -3 -113 -136 3 -55
10 -116 15 -135 15 -56 22 -423 10 -570 -22 -277 -67 -380 -253 -574 -42 -43
-76 -81 -76 -83 0 -2 4 -12 9 -21 5 -10 14 -80 21 -157 6 -77 18 -183 26 -235
8 -52 21 -174 29 -270 8 -96 22 -215 31 -265 25 -132 26 -332 3 -498 -24 -170
-24 -164 4 -181 32 -21 250 -55 487 -75 216 -19 888 -32 1050 -20 325 24 410
30 559 44 90 8 169 19 175 25 18 18 8 163 -20 272 -12 48 -13 88 -4 240 16
302 22 360 37 418 20 78 43 233 43 297 0 30 6 67 14 82 8 15 20 59 26 97 6 38
25 103 41 145 16 42 29 81 29 88 0 7 -38 55 -85 108 -173 196 -208 312 -240
787 -15 222 -15 233 5 383 12 85 20 173 18 196 l-3 41 -60 13 c-78 16 -125 16
-129 1z"/>
<path d="M12300 5751 c0 -14 23 -29 55 -36 l30 -7 -30 26 c-30 26 -55 33 -55
17z"/>
<path d="M12261 5731 c-7 -5 -21 -7 -30 -6 -9 1 -11 0 -4 -2 12 -5 36 -37 46
-65 5 -13 -2 -22 -22 -32 -26 -14 -30 -14 -49 7 l-21 22 30 14 c22 10 27 16
19 26 -8 10 -17 9 -45 -4 -39 -18 -43 -31 -17 -53 38 -34 60 -40 87 -22 19 12
28 14 39 5 10 -8 16 -8 25 3 6 8 10 19 9 24 -2 6 6 18 17 27 19 16 18 16 -8 0
-27 -16 -30 -16 -48 1 -17 15 -18 19 -4 34 8 9 15 20 15 23 0 10 -22 8 -39 -2z
m54 -91 c3 -5 -1 -10 -9 -10 -9 0 -16 5 -16 10 0 6 4 10 9 10 6 0 13 -4 16
-10z"/>
<path d="M12380 5684 c0 -13 18 -39 24 -34 2 3 -2 14 -10 24 -8 11 -14 16 -14
10z"/>
<path d="M5249 5657 c-126 -86 -229 -170 -229 -187 0 -16 26 -40 44 -40 3 0
26 27 51 60 64 84 158 160 196 160 56 0 250 -111 548 -312 163 -110 301 -205
308 -212 20 -19 -246 -182 -427 -261 -148 -65 -458 -213 -490 -234 -8 -6 -112
-42 -230 -82 -118 -39 -247 -86 -287 -104 -88 -40 -156 -102 -179 -161 -9 -24
-23 -44 -30 -44 -47 0 -69 29 -273 370 -197 328 -235 400 -211 400 21 0 8 25
-42 79 -63 66 -68 70 -68 40 0 -22 64 -146 85 -164 24 -20 425 -711 431 -743
6 -28 13 -34 49 -44 40 -11 43 -14 49 -55 18 -132 100 -190 256 -180 239 15
496 196 618 435 28 56 54 117 58 136 3 20 10 36 15 36 5 0 9 13 9 29 0 33 31
63 89 87 53 22 58 19 66 -38 12 -88 81 -183 142 -194 90 -17 179 46 289 203
82 117 129 205 149 281 9 31 25 75 35 97 26 55 18 78 -34 97 -44 16 -698 447
-711 468 -12 19 -186 100 -215 100 -15 0 -42 -10 -61 -23z m986 -634 c-1 -32
-8 -78 -15 -103 -15 -55 -88 -206 -108 -223 -8 -6 -1 16 17 50 46 92 78 182
86 243 12 102 24 121 20 33z m-499 -213 c-20 -23 -44 -56 -52 -73 -13 -27 -22
-33 -48 -34 -41 -1 -130 -45 -150 -75 -15 -22 -16 -22 -30 -3 -9 12 -31 21
-62 24 l-49 6 205 97 c113 53 209 97 214 97 4 1 -8 -17 -28 -39z"/>
<path d="M12442 5591 c13 -16 30 -32 38 -36 8 -3 -1 10 -19 29 -42 44 -51 46
-19 7z"/>
<path d="M12232 5571 c13 -22 28 -28 28 -11 0 5 -9 14 -20 20 -19 10 -20 10
-8 -9z"/>
<path d="M12500 5533 c0 -7 5 -15 11 -19 8 -4 3 -12 -12 -20 -13 -7 -20 -13
-16 -14 5 0 16 4 26 10 14 7 24 5 40 -9 24 -21 28 -36 7 -28 -18 7 -27 -15
-15 -34 8 -13 13 -5 10 15 -1 5 6 3 15 -5 10 -8 15 -9 11 -2 -11 17 9 25 22 9
9 -10 8 -15 -4 -20 -8 -3 -15 -11 -15 -18 0 -16 -47 -39 -66 -31 -8 3 -14 0
-14 -6 0 -6 3 -10 8 -10 22 4 39 -3 39 -15 0 -15 -28 -16 -39 -1 -5 6 -8 6 -8
-1 0 -6 27 -34 60 -63 33 -29 60 -48 60 -42 0 5 -7 14 -16 19 -13 7 -11 11 13
23 15 8 46 27 68 44 l41 29 -66 54 c-36 30 -86 75 -112 101 -27 25 -48 40 -48
34z m131 -130 c12 -15 12 -16 -3 -10 -10 3 -18 2 -18 -4 0 -6 -5 -7 -10 -4 -8
5 -7 11 1 21 14 17 14 17 30 -3z"/>
<path d="M12517 5459 c-4 -16 -3 -18 9 -8 16 13 19 29 5 29 -5 0 -11 -9 -14
-21z"/>
<path d="M12513 5411 c0 -11 5 -18 9 -15 4 3 5 11 1 19 -7 21 -12 19 -10 -4z"/>
<path d="M12752 5344 c10 -10 20 -16 22 -13 3 3 -5 11 -17 18 -21 13 -21 12
-5 -5z"/>
<path d="M12710 5280 c-30 -21 -61 -39 -67 -40 -8 0 -13 -13 -13 -31 0 -24 4
-30 15 -25 10 3 36 -16 74 -55 33 -34 63 -59 69 -55 5 3 7 -5 4 -20 -3 -18 -1
-25 9 -23 8 2 25 -3 38 -10 13 -7 21 -9 18 -3 -7 10 42 36 51 27 3 -3 0 -5 -6
-5 -6 0 -9 -7 -6 -15 4 -8 11 -12 18 -8 6 4 5 -1 -3 -10 -7 -9 -20 -17 -27
-17 -8 0 -14 -10 -14 -22 0 -34 27 -103 39 -101 5 2 15 -12 21 -31 6 -18 25
-46 42 -62 l32 -29 -32 38 c-24 29 -32 47 -32 78 0 51 20 99 56 134 16 16 20
22 9 14 -18 -13 -19 -13 -7 3 8 10 20 14 29 11 9 -4 14 -2 10 3 -3 5 12 9 34
9 22 0 45 5 51 12 13 16 86 17 125 2 57 -21 113 -93 113 -144 0 -24 2 -25 15
-11 20 20 19 35 -6 76 -26 42 -42 55 -98 82 -48 22 -203 40 -237 28 -17 -7
-28 -2 -48 19 -14 15 -26 34 -26 43 0 10 -10 27 -22 40 -13 13 -17 17 -10 8
15 -20 15 -30 1 -30 -6 0 -25 -11 -43 -25 -18 -14 -37 -25 -42 -25 -6 0 -15
-5 -22 -12 -17 -17 -39 -18 -52 -3 -8 9 7 23 59 56 52 32 66 46 55 52 -8 4
-19 5 -26 1 -6 -4 -8 -3 -5 3 3 5 -9 25 -28 43 -19 19 -35 42 -35 52 0 27 -19
21 -80 -22z m285 -207 c5 -14 3 -15 -6 -6 -8 8 -19 9 -37 2 -22 -8 -23 -8 -12
6 17 20 46 19 55 -2z m-31 -28 c-23 -17 -34 -19 -34 -4 0 5 5 7 10 4 6 -3 10
-1 10 4 0 6 8 11 17 11 15 0 14 -2 -3 -15z"/>
<path d="M12880 5015 c0 -8 4 -15 10 -15 5 0 7 7 4 15 -4 8 -8 15 -10 15 -2 0
-4 -7 -4 -15z"/>
<path d="M13140 4860 c0 -5 5 -10 11 -10 5 0 7 5 4 10 -3 6 -8 10 -11 10 -2 0
-4 -4 -4 -10z"/>
<path d="M13347 4849 c-17 -67 -93 -118 -192 -129 -58 -7 -59 -7 -14 -9 65 -2
127 23 174 69 42 41 85 51 85 18 0 -9 4 -19 9 -22 5 -4 5 10 0 32 -5 20 -9 41
-9 47 0 5 -5 4 -12 -3 -17 -17 -26 -15 -30 6 -3 13 -6 10 -11 -9z"/>
<path d="M13342 4662 c-81 -56 -105 -92 -62 -92 11 0 20 -4 20 -10 0 -5 5 -10
10 -10 7 0 7 6 1 18 -7 13 -6 23 1 30 15 15 28 15 28 2 0 -5 -7 -10 -16 -10
-8 0 -12 -4 -9 -10 4 -6 21 0 42 15 41 28 63 23 36 -8 -13 -14 -13 -18 -3 -13
8 5 2 -3 -15 -18 -16 -14 -34 -25 -39 -26 -6 0 3 -13 19 -30 15 -16 33 -26 39
-23 6 3 8 3 4 -2 -8 -8 18 -39 151 -180 42 -45 139 -148 216 -229 190 -202
209 -221 379 -381 82 -77 183 -173 224 -212 41 -40 78 -73 81 -73 3 0 28 -20
55 -45 l48 -45 47 39 c25 21 55 49 66 61 l20 22 -145 140 c-80 77 -178 170
-219 207 -40 36 -168 161 -284 278 -116 117 -214 210 -219 207 -5 -3 -7 -2 -6
3 4 13 -294 323 -304 317 -5 -3 -3 -13 4 -22 12 -15 11 -16 -5 -3 -12 9 -14
17 -7 26 7 8 5 18 -6 31 -11 14 -17 15 -20 6 -3 -6 -10 -10 -14 -7 -5 3 -17
-6 -26 -20 -9 -13 -21 -22 -27 -18 -6 4 -3 11 8 20 19 13 31 48 14 37 -5 -3
-7 -10 -4 -15 4 -5 2 -9 -4 -9 -19 0 -21 19 -3 29 13 7 22 7 30 -1 18 -18 24
-4 8 17 -13 18 -16 17 -58 -18 -52 -43 -74 -38 -26 6 18 16 25 24 15 17 -9 -7
-20 -10 -23 -8 -8 9 55 50 66 43 5 -3 10 -2 10 4 0 25 -23 16 -98 -37z m18
-17 c0 -2 -10 -10 -22 -16 -21 -11 -22 -11 -9 4 13 16 31 23 31 12z m-50 -29
c0 -2 -8 -10 -17 -17 -16 -13 -17 -12 -4 4 13 16 21 21 21 13z m154 -34 c3 -5
-1 -9 -9 -9 -8 0 -12 4 -9 9 3 4 7 8 9 8 2 0 6 -4 9 -8z m321 -309 c-2 -10 -4
-20 -5 -23 -1 -3 -2 -9 -1 -13 1 -5 -3 -6 -8 -3 -10 7 -9 25 2 44 11 17 16 15
12 -5z m40 -43 c-3 -5 -13 -6 -21 -3 -12 4 -13 8 -3 14 15 9 32 2 24 -11z
m-92 -16 c-12 -19 -12 -22 2 -28 19 -7 58 17 47 29 -4 5 -2 5 4 2 7 -4 14 -16
17 -27 10 -37 -63 -50 -77 -14 -3 8 -10 14 -16 14 -6 0 -8 -5 -4 -12 4 -7 3
-8 -4 -4 -9 5 -8 13 3 30 8 12 13 25 11 27 -3 3 3 5 13 5 17 0 17 -2 4 -22z
m173 -131 c-3 -8 -1 -11 4 -8 6 3 10 -1 10 -9 0 -9 -3 -16 -7 -17 -5 0 -20 -3
-35 -5 -34 -6 -57 26 -33 46 13 11 14 10 9 -4 -9 -22 9 -20 26 3 15 22 35 17
26 -6z m67 -102 c-4 -15 0 -19 21 -17 24 1 39 16 16 16 -5 0 -10 5 -10 10 0
19 21 10 29 -12 11 -30 -2 -45 -40 -46 -35 -1 -46 17 -29 47 13 26 20 27 13 2z
m116 -117 c-11 -13 -9 -14 14 -9 19 5 27 3 27 -6 0 -7 3 -9 6 -6 4 4 1 14 -7
23 -12 15 -12 17 1 12 8 -2 16 -16 18 -30 3 -21 -2 -26 -28 -32 -18 -3 -36 -3
-41 0 -13 8 -11 38 3 52 17 17 23 15 7 -4z m165 -126 c-4 -15 -3 -18 6 -13 8
5 11 3 8 -6 -2 -8 -21 -15 -40 -17 -41 -4 -55 16 -32 45 14 17 14 17 8 0 -6
-17 -5 -18 15 -6 11 8 21 17 21 22 0 4 5 5 10 2 6 -4 8 -16 4 -27z m126 -98
c0 -5 -2 -10 -4 -10 -3 0 -8 5 -11 10 -3 6 -1 10 4 10 6 0 11 -4 11 -10z m-33
-24 c18 4 51 -11 43 -20 -3 -2 -21 -6 -40 -8 -33 -3 -35 -1 -38 27 -2 24 0 27
8 13 5 -9 18 -14 27 -12z m279 -195 c-4 -5 -21 -20 -39 -32 l-32 -22 28 29
c15 17 27 36 27 44 0 10 3 11 11 3 6 -6 8 -16 5 -22z"/>
<path d="M13202 4690 c-48 -11 -69 -35 -22 -25 43 9 80 23 80 30 0 6 -16 5
-58 -5z"/>
<path d="M13227 4609 c7 -7 15 -10 18 -7 3 3 -2 9 -12 12 -14 6 -15 5 -6 -5z"/>
<path d="M3713 2505 c0 -38 2 -53 4 -32 2 20 2 52 0 70 -2 17 -4 1 -4 -38z"/>
<path d="M7652 2505 c0 -39 3 -60 7 -47 l6 24 19 -21 c11 -12 24 -21 29 -21 6
0 0 11 -13 25 -23 24 -23 25 -5 45 10 11 13 20 8 20 -6 0 -17 -7 -24 -17 -13
-15 -15 -12 -20 23 -5 30 -6 23 -7 -31z"/>
<path d="M11850 2505 c0 -37 4 -65 10 -65 6 0 10 15 10 34 0 62 45 55 53 -7 4
-32 4 -32 5 4 2 40 -18 65 -43 55 -11 -4 -15 1 -15 19 0 14 -4 25 -10 25 -6 0
-10 -28 -10 -65z"/>
<path d="M3307 2554 c-17 -18 -6 -46 23 -55 17 -6 30 -17 30 -25 0 -23 -29
-28 -50 -9 -21 19 -28 7 -8 -13 25 -25 78 -8 78 26 0 7 -16 20 -35 28 -19 8
-35 19 -35 24 0 18 29 23 47 9 14 -12 16 -12 11 1 -5 16 -49 26 -61 14z"/>
<path d="M7367 2553 c19 -4 23 -12 26 -61 l3 -57 2 57 c2 50 5 57 25 61 12 2
0 4 -28 4 -27 0 -40 -2 -28 -4z"/>
<path d="M7795 2551 c15 -6 21 -20 26 -62 l6 -54 1 57 c2 50 5 57 25 61 12 2
0 5 -28 5 -34 0 -43 -2 -30 -7z"/>
<path d="M11415 2543 c3 -10 11 -37 18 -61 13 -50 28 -50 42 0 15 53 21 54 35
3 7 -25 16 -45 21 -45 10 0 43 109 36 117 -3 3 -12 -17 -20 -43 -14 -47 -15
-48 -25 -24 -5 14 -11 34 -13 44 -7 36 -26 27 -38 -19 -6 -25 -13 -45 -16 -45
-3 0 -10 20 -16 45 -6 25 -16 45 -21 45 -6 0 -7 -8 -3 -17z"/>
<path d="M11682 2534 c-7 -8 -8 -14 -3 -14 5 0 11 -17 13 -37 2 -29 8 -39 23
-41 18 -2 18 -2 3 8 -10 6 -18 22 -18 35 0 13 8 29 18 34 15 9 15 10 0 11 -9
0 -18 4 -20 9 -1 5 -9 3 -16 -5z"/>
<path d="M3404 2490 c1 -45 1 -45 39 -47 l37 -1 0 44 c0 24 -4 44 -10 44 -5 0
-10 -15 -10 -34 0 -62 -45 -55 -53 7 -3 20 -4 15 -3 -13z"/>
<path d="M3500 2484 c0 -54 18 -59 22 -6 2 29 7 37 23 37 16 0 21 -9 26 -40
l7 -40 -2 45 c-1 45 -1 45 -38 47 l-38 1 0 -44z"/>
<path d="M3617 2523 c-3 -5 -7 -31 -11 -60 -5 -46 -4 -52 14 -58 29 -9 60 3
60 24 0 12 -12 22 -32 29 -25 7 -27 10 -12 11 25 1 49 25 40 40 -3 5 0 12 6
14 7 3 -4 6 -24 6 -20 1 -39 -2 -41 -6z m41 -26 c2 -10 -3 -17 -12 -17 -18 0
-29 16 -21 31 9 14 29 6 33 -14z m7 -67 c8 -13 -20 -24 -41 -16 -20 8 -9 26
16 26 10 0 22 -5 25 -10z"/>
<path d="M3755 2520 c-5 -9 -1 -10 14 -5 11 3 26 3 33 -2 9 -5 3 -9 -17 -13
-24 -4 -30 -10 -30 -30 0 -21 5 -25 33 -26 33 -1 33 0 30 40 -3 36 -6 41 -30
44 -14 2 -29 -2 -33 -8z m55 -39 c0 -5 -7 -14 -15 -21 -18 -15 -42 1 -31 19 8
13 46 15 46 2z"/>
<path d="M3857 2524 c-15 -15 -6 -35 20 -45 20 -7 23 -13 15 -21 -9 -9 -15 -9
-24 0 -18 18 -33 15 -18 -3 17 -20 54 -15 58 7 2 12 -6 21 -24 28 -20 8 -24
14 -16 22 8 8 16 7 28 -3 15 -12 17 -12 12 1 -5 16 -39 25 -51 14z"/>
<path d="M3947 2524 c-15 -15 -6 -35 20 -45 20 -7 23 -13 15 -21 -9 -9 -15 -9
-24 0 -18 18 -33 15 -18 -3 17 -20 54 -15 58 7 2 12 -6 21 -24 28 -20 8 -24
14 -16 22 8 8 16 7 28 -3 15 -12 17 -12 12 1 -5 16 -39 25 -51 14z"/>
<path d="M4036 2514 c-19 -18 -20 -28 -6 -55 11 -20 54 -26 65 -10 3 6 -7 9
-21 8 -15 -1 -29 4 -31 11 -3 8 7 12 31 12 39 0 41 2 26 31 -13 23 -43 25 -64
3z m52 -11 c2 -8 -6 -13 -22 -13 -25 0 -33 10 -19 24 10 10 36 3 41 -11z"/>
<path d="M4134 2516 c-8 -21 3 -36 27 -36 20 0 26 -15 9 -25 -6 -4 -18 -1 -27
7 -14 11 -15 11 -11 -2 6 -19 35 -25 53 -10 18 15 8 40 -15 40 -22 0 -35 16
-20 25 6 4 18 1 27 -7 14 -11 16 -11 11 2 -6 21 -47 25 -54 6z"/>
<path d="M7455 2520 c-4 -7 2 -9 19 -4 16 4 26 2 26 -5 0 -6 -8 -11 -19 -11
-10 0 -24 -7 -31 -15 -18 -22 4 -45 41 -42 25 2 29 6 29 33 0 16 -5 35 -12 42
-15 15 -45 16 -53 2z m45 -44 c0 -8 -5 -18 -11 -22 -14 -8 -33 11 -25 25 10
16 36 13 36 -3z"/>
<path d="M7540 2484 c0 -54 18 -59 22 -6 2 29 7 37 23 37 16 0 21 -9 26 -40
l7 -40 -2 45 c-1 45 -1 45 -38 47 l-38 1 0 -44z"/>
<path d="M7882 2518 c-17 -17 -15 -53 3 -68 8 -7 25 -10 40 -6 24 6 30 21 25
56 -4 29 -46 40 -68 18z m42 -4 c21 -8 21 -50 0 -58 -32 -12 -57 27 -32 52 14
14 12 14 32 6z"/>
<path d="M7981 2460 c1 -36 4 -53 6 -39 3 21 8 25 27 22 24 -5 56 19 56 42 0
24 -31 45 -61 43 l-29 -2 1 -66z m67 29 c4 -30 -22 -46 -44 -28 -17 14 -18 31
-2 47 19 19 43 9 46 -19z"/>
<path d="M11595 2520 c-4 -7 2 -9 19 -4 16 4 26 2 26 -5 0 -6 -8 -11 -19 -11
-10 0 -24 -7 -31 -15 -18 -22 4 -45 41 -42 25 2 29 6 29 33 0 16 -5 35 -12 42
-15 15 -45 16 -53 2z m45 -44 c0 -8 -5 -18 -11 -22 -14 -8 -33 11 -25 25 10
16 36 13 36 -3z"/>
<path d="M11757 2509 c-20 -27 -10 -58 19 -65 23 -6 61 13 49 24 -2 3 -11 0
-18 -7 -19 -15 -47 -4 -47 19 0 26 28 46 42 32 17 -17 33 -15 18 3 -18 21 -46
19 -63 -6z"/>
<path d="M3311 2296 c-20 -24 -20 -54 -1 -71 21 -19 61 -17 68 5 5 13 3 13
-11 1 -10 -8 -24 -10 -34 -6 -17 7 -16 8 2 15 18 8 18 9 -5 10 l-25 2 25 8 25
8 -25 1 c-23 1 -23 2 -7 18 14 15 21 16 37 5 11 -7 20 -8 20 -3 0 22 -52 27
-69 7z"/>
<path d="M3408 2303 c-2 -5 -1 -28 3 -53 l6 -45 1 53 c2 48 -2 63 -10 45z"/>
<path d="M3463 2303 c32 -5 31 -1 11 -48 -8 -20 -13 -39 -11 -41 5 -5 37 70
37 86 0 6 -15 9 -32 9 -31 -2 -31 -2 -5 -6z"/>
<path d="M3539 2283 c-14 -38 3 -76 34 -71 32 4 32 53 0 52 -13 0 -23 5 -23
12 0 20 19 27 37 12 14 -11 16 -11 11 2 -2 8 -14 16 -26 18 -16 3 -25 -4 -33
-25z m51 -43 c0 -11 -6 -20 -14 -20 -18 0 -29 16 -21 30 11 18 35 11 35 -10z"/>
<path d="M3631 2296 c-9 -10 -9 -16 -1 -21 8 -5 7 -11 -1 -21 -10 -12 -9 -18
5 -32 23 -23 51 -4 51 34 0 49 -29 71 -54 40z m39 -11 c0 -8 -7 -15 -15 -15
-8 0 -15 7 -15 15 0 8 7 15 15 15 8 0 15 -7 15 -15z m8 -42 c5 -17 -26 -29
-40 -15 -6 6 -7 15 -3 22 9 14 37 9 43 -7z"/>
<path d="M7369 2288 c-17 -30 -17 -40 1 -60 16 -19 55 -24 65 -8 3 6 -1 7 -9
4 -9 -3 -24 -3 -33 1 -17 7 -16 8 2 15 18 8 18 9 -5 10 l-25 2 25 8 25 8 -25
1 c-23 1 -23 2 -7 18 15 15 20 16 38 5 18 -11 20 -11 17 0 -3 7 -16 14 -31 16
-18 2 -29 -3 -38 -20z"/>
<path d="M7469 2306 c-8 -8 3 -96 12 -96 5 0 9 23 9 50 0 44 -7 60 -21 46z"/>
<path d="M7509 2283 c-14 -38 3 -76 34 -71 32 4 32 53 0 52 -13 0 -23 5 -23
12 0 20 19 27 37 12 14 -11 16 -11 11 2 -2 8 -14 16 -26 18 -16 3 -25 -4 -33
-25z m51 -43 c0 -11 -6 -20 -14 -20 -18 0 -29 16 -21 30 11 18 35 11 35 -10z"/>
<path d="M7632 2301 l27 -6 -19 -42 c-10 -24 -16 -43 -12 -43 7 0 42 78 42 93
0 4 -15 6 -32 6 -32 -1 -32 -2 -6 -8z"/>
<path d="M7690 2295 c-16 -20 6 -48 32 -42 11 3 18 0 18 -9 0 -20 -30 -30 -41
-13 -6 10 -9 11 -9 1 0 -19 28 -26 45 -12 18 15 20 61 3 78 -16 16 -33 15 -48
-3z m48 -12 c5 -17 -26 -29 -40 -15 -6 6 -7 15 -3 22 9 14 37 9 43 -7z"/>
<path d="M11429 2288 c-17 -30 -17 -40 1 -60 16 -19 55 -24 65 -8 3 6 -1 7 -9
4 -9 -3 -24 -3 -33 1 -17 7 -16 8 2 15 18 8 18 9 -5 10 l-25 2 25 8 25 8 -25
1 c-23 1 -23 2 -7 18 15 15 20 16 38 5 18 -11 20 -11 17 0 -3 7 -16 14 -31 16
-18 2 -29 -3 -38 -20z"/>
<path d="M11531 2291 c-13 -23 10 -47 34 -37 9 3 15 0 15 -10 0 -20 -30 -30
-41 -13 -6 9 -9 10 -9 2 0 -34 55 -25 62 11 11 54 -38 92 -61 47z m44 -11 c0
-8 -8 -16 -17 -18 -13 -2 -18 3 -18 18 0 15 5 20 18 18 9 -2 17 -10 17 -18z"/>
<path d="M11623 2303 c31 -5 33 -13 11 -54 -8 -17 -13 -33 -10 -36 3 -3 10 5
15 18 34 87 35 79 -7 78 -30 -2 -32 -3 -9 -6z"/>
<path d="M11709 2293 c-11 -15 -11 -16 1 -5 42 37 54 -7 13 -50 l-27 -28 40 1
c21 1 29 4 17 6 -20 4 -21 5 -5 32 26 47 -7 85 -39 44z"/>
<path d="M11790 2295 c-16 -20 6 -48 32 -42 11 3 18 0 18 -9 0 -20 -30 -30
-41 -13 -6 10 -9 11 -9 1 0 -19 28 -26 45 -12 18 15 20 61 3 78 -16 16 -33 15
-48 -3z m48 -12 c5 -17 -26 -29 -40 -15 -6 6 -7 15 -3 22 9 14 37 9 43 -7z"/>
<path d="M6130 1240 c-79 -18 -202 -70 -285 -122 -75 -47 -262 -188 -333 -252
-35 -31 -80 -68 -100 -81 -20 -13 -75 -58 -122 -99 -47 -42 -90 -76 -97 -76
-7 0 -16 -6 -20 -13 -4 -6 -37 -37 -73 -67 -36 -30 -99 -87 -140 -126 -41 -39
-96 -90 -122 -113 l-47 -43 -30 34 c-41 46 -65 92 -58 112 4 9 34 33 67 54 33
20 60 42 60 47 0 6 -16 20 -35 33 -34 22 -40 19 -36 -15 2 -14 -71 -63 -94
-63 -8 0 -15 5 -15 11 0 5 -4 7 -10 4 -13 -8 -13 -26 1 -22 6 1 14 -5 18 -13
42 -85 72 -139 86 -157 6 -7 19 -25 30 -39 11 -15 32 -40 48 -56 15 -16 27
-34 27 -40 0 -6 3 -9 6 -5 4 3 17 -8 29 -26 16 -24 19 -36 11 -47 -8 -12 -8
-13 4 -2 20 17 30 15 30 -8 0 -11 5 -20 10 -20 6 0 10 -7 10 -15 0 -13 57 -15
458 -14 l457 0 33 41 c17 22 32 35 32 28 0 -6 5 -8 12 -4 7 4 8 3 4 -4 -4 -7
-2 -12 4 -12 7 0 10 -7 7 -14 -4 -10 -1 -13 9 -9 10 4 12 0 8 -11 -3 -9 -2
-16 4 -16 5 0 12 9 15 20 3 11 1 18 -4 14 -5 -3 -9 2 -9 10 0 8 5 18 12 22 7
4 8 3 4 -4 -4 -7 -2 -12 5 -12 7 0 9 -8 6 -21 -5 -20 -5 -20 13 -4 17 15 19
15 25 -5 l7 -21 19 22 c10 12 19 18 19 13 0 -6 -5 -15 -10 -20 -7 -7 16 -11
70 -11 64 -2 80 1 80 13 0 11 -4 12 -19 2 -15 -9 -23 -9 -35 1 -13 11 -16 11
-16 1 0 -8 -3 -10 -6 -7 -4 4 -1 13 6 22 11 14 14 13 26 -2 10 -14 15 -15 25
-6 7 7 9 16 5 20 -4 4 -12 1 -17 -7 -12 -16 -10 -9 7 35 7 18 6 19 -9 6 -15
-12 -17 -12 -11 3 3 9 14 16 24 16 10 0 21 7 24 16 4 9 9 14 12 11 4 -3 -3
-17 -14 -31 -19 -24 -19 -27 -3 -60 l16 -35 17 22 c10 12 18 18 18 13 0 -5 7
-3 15 4 10 9 15 9 15 1 0 -6 -4 -11 -10 -11 -5 0 -10 -7 -10 -16 0 -14 2 -14
16 -3 10 8 14 22 11 38 -3 14 0 34 8 44 11 16 13 16 19 1 4 -9 12 -14 21 -10
13 4 13 2 5 -14 -16 -30 -3 -47 38 -48 20 -1 38 -6 40 -12 2 -5 36 -10 77 -10
l73 0 66 70 c82 87 129 159 152 228 14 45 15 62 5 115 -7 34 -16 96 -21 137
-5 42 -13 87 -19 100 -9 24 -10 23 -10 -10 l-1 -35 -19 35 c-11 21 -15 39 -10
45 12 12 11 25 -2 25 -5 0 -7 -4 -4 -10 3 -5 4 -10 2 -10 -8 0 -87 136 -87
149 0 11 3 11 18 0 15 -13 16 -12 3 3 -7 10 -18 15 -23 12 -6 -4 -21 6 -34 22
-28 35 -30 45 -6 38 13 -5 14 -4 3 4 -8 6 -21 7 -30 4 -14 -5 -14 -3 -3 10 11
14 11 21 1 40 -7 13 -12 27 -11 31 1 5 -2 6 -8 2 -6 -3 -8 -11 -5 -16 3 -5 -1
-6 -10 -3 -11 5 -13 10 -5 19 8 9 6 14 -5 19 -11 4 -15 -2 -15 -23 0 -22 6
-30 25 -35 14 -4 25 -11 25 -16 0 -13 -17 -13 -25 1 -4 5 -12 8 -18 6 -7 -2
-20 0 -30 5 -14 7 -22 5 -32 -9 -12 -16 -13 -9 -13 50 0 62 -3 73 -33 115 -63
87 -89 107 -140 107 -37 -1 -46 2 -41 14 4 10 1 13 -11 8 -8 -3 -17 -2 -19 2
-2 4 -37 0 -78 -9z m406 -362 c5 -7 3 -8 -6 -3 -9 6 -10 2 -5 -16 6 -19 5 -22
-5 -12 -7 6 -10 19 -7 27 8 19 13 20 23 4z m-34 -60 c-7 -7 -12 -8 -12 -2 0
14 12 26 19 19 2 -3 -1 -11 -7 -17z m-6 -76 c-11 -10 -15 4 -8 28 l7 25 3 -23
c2 -13 1 -26 -2 -30z m-101 -191 c-3 -6 -11 -11 -16 -11 -5 0 -4 6 3 14 14 16
24 13 13 -3z m279 3 c3 -8 2 -12 -4 -9 -6 3 -10 10 -10 16 0 14 7 11 14 -7z
m113 -46 c-3 -7 -5 -2 -5 12 0 14 2 19 5 13 2 -7 2 -19 0 -25z m-107 18 c0 -3
-4 -8 -10 -11 -5 -3 -10 -1 -10 4 0 6 5 11 10 11 6 0 10 -2 10 -4z m113 -108
c-10 -31 -11 -30 -10 22 0 45 2 51 10 33 7 -16 7 -33 0 -55z m-543 38 c0 -2
-8 -10 -17 -17 -16 -13 -17 -12 -4 4 13 16 21 21 21 13z m-49 -53 c-11 -21
-59 -73 -67 -73 -6 0 47 72 61 82 15 12 17 10 6 -9z m-132 -129 c-33 -33 -37
-34 -50 -18 -12 15 -12 16 8 10 16 -5 27 0 44 22 13 16 26 28 29 25 2 -2 -12
-20 -31 -39z m121 31 c0 -8 -7 -15 -15 -15 -13 0 -14 3 -3 15 16 18 18 18 18
0z m336 -12 c3 10 11 17 17 17 5 0 3 -8 -6 -18 -10 -10 -17 -28 -17 -39 0 -12
-7 -23 -15 -27 -18 -7 -20 5 -3 22 9 9 8 12 -4 12 -23 0 -27 -11 -17 -39 8
-19 12 -21 24 -11 8 7 15 8 15 3 0 -6 -15 -18 -34 -28 -29 -16 -33 -22 -25
-37 9 -17 8 -18 -9 -7 -25 16 -18 35 16 44 23 6 25 8 11 18 -9 7 -14 18 -12
25 3 6 -1 12 -7 12 -10 0 -10 4 0 15 7 8 19 15 26 15 8 0 14 7 14 16 0 14 -3
14 -15 4 -9 -8 -15 -8 -15 -2 0 18 24 21 37 4 11 -13 13 -13 19 1z m-381 -33
c-1 -16 -5 -33 -10 -37 -4 -5 -5 -2 -1 5 15 25 -23 11 -58 -22 -55 -52 -42
-28 17 31 28 29 52 53 53 53 0 0 0 -13 -1 -30z m415 -1 c0 -6 -4 -7 -10 -4 -5
3 -10 11 -10 16 0 6 5 7 10 4 6 -3 10 -11 10 -16z m-607 -53 c-10 -13 -20 -22
-22 -20 -4 4 29 44 36 44 2 0 -4 -11 -14 -24z m421 13 c-3 -6 0 -16 7 -21 11
-7 9 -8 -5 -4 -13 5 -17 2 -12 -9 3 -9 0 -15 -10 -15 -9 0 -12 5 -8 11 3 6 0
15 -7 20 -11 7 -10 9 4 9 9 0 17 5 17 10 0 6 5 10 11 10 5 0 7 -5 3 -11z m56
7 c0 -2 -8 -10 -17 -17 -16 -13 -17 -12 -4 4 13 16 21 21 21 13z m23 -16 c3
-11 0 -18 -6 -17 -6 1 -15 -7 -21 -18 -6 -11 -18 -20 -26 -20 -9 0 -14 -8 -13
-21 2 -15 -4 -24 -18 -27 -17 -5 -18 -3 -8 10 10 12 10 16 -2 24 -8 5 -11 9
-6 10 4 1 10 2 15 3 19 4 62 40 67 57 8 24 11 24 18 -1z m-469 -11 c-34 -38
-72 -61 -80 -48 -4 7 -3 9 3 6 6 -4 28 9 49 28 44 39 56 45 28 14z m586 11 c0
-5 -5 -10 -11 -10 -5 0 -7 5 -4 10 3 6 8 10 11 10 2 0 4 -4 4 -10z m-30 -14
c0 -2 -8 -10 -17 -17 -16 -13 -17 -12 -4 4 13 16 21 21 21 13z m-214 -23 c-3
-7 -1 -13 4 -13 14 0 12 -13 -5 -36 -14 -18 -14 -18 -8 4 8 33 -6 27 -18 -8
-6 -17 -18 -30 -26 -30 -12 0 -12 2 1 16 21 21 21 40 -1 23 -15 -13 -15 -12
-3 11 7 14 16 30 21 36 12 15 41 13 35 -3z m214 -23 c0 -5 -5 -10 -11 -10 -5
0 -7 5 -4 10 3 6 8 10 11 10 2 0 4 -4 4 -10z m-529 -33 c-10 -9 -11 -8 -5 6 3
10 9 15 12 12 3 -3 0 -11 -7 -18z m184 4 c-3 -6 -11 -11 -16 -11 -5 0 -4 6 3
14 14 16 24 13 13 -3z m309 10 c3 -5 -1 -11 -9 -14 -9 -4 -12 -1 -8 9 6 16 10
17 17 5z m54 -2 c-10 -5 -18 -15 -18 -20 0 -6 6 -7 13 -3 9 5 9 3 -1 -7 -11
-12 -14 -12 -21 0 -7 10 -10 10 -16 1 -5 -8 -1 -16 9 -22 9 -5 16 -14 16 -21
0 -8 -3 -7 -9 2 -5 7 -14 10 -20 7 -6 -4 -11 0 -11 9 0 9 -5 13 -10 10 -6 -4
-10 -12 -9 -18 3 -23 -1 -37 -11 -37 -5 0 -7 7 -4 15 8 20 -6 19 -36 -2 -24
-16 -24 -16 -10 2 11 14 12 19 2 22 -6 3 -9 9 -6 14 3 6 11 3 17 -6 11 -13 19
-10 66 25 29 22 58 40 65 40 6 0 3 -5 -6 -11z m-658 -9 c0 -5 -5 -10 -11 -10
-5 0 -7 5 -4 10 3 6 8 10 11 10 2 0 4 -4 4 -10z m520 -10 c0 -5 -5 -10 -11
-10 -5 0 -7 5 -4 10 3 6 8 10 11 10 2 0 4 -4 4 -10z m-446 -8 c3 -5 -1 -9 -9
-9 -8 0 -12 4 -9 9 3 4 7 8 9 8 2 0 6 -4 9 -8z m491 -2 c-3 -5 -11 -10 -16
-10 -6 0 -7 5 -4 10 3 6 11 10 16 10 6 0 7 -4 4 -10z m-309 -38 c-17 -16 -18
-16 -5 5 7 12 15 20 18 17 3 -2 -3 -12 -13 -22z m247 -14 c-2 -5 -10 -8 -18
-8 -10 0 -11 5 -2 25 10 20 13 22 18 7 4 -9 5 -20 2 -24z"/>
<path d="M6296 171 c-4 -7 -5 -15 -2 -18 9 -9 19 4 14 18 -4 11 -6 11 -12 0z"/>
<path d="M6285 1240 c-3 -5 -1 -10 4 -10 6 0 11 5 11 10 0 6 -2 10 -4 10 -3 0
-8 -4 -11 -10z"/>
<path d="M6600 950 c0 -6 4 -9 9 -6 5 4 12 1 14 -4 3 -6 4 -5 3 2 -3 15 -26
23 -26 8z"/>
<path d="M13142 648 c-94 -10 -178 -36 -288 -90 -72 -35 -104 -59 -172 -127
-52 -52 -81 -89 -78 -98 3 -8 2 -12 -3 -9 -20 13 -115 -164 -106 -197 5 -16 4
-18 -3 -8 -10 14 -23 -16 -37 -86 l-7 -33 46 0 c31 0 46 4 46 13 0 19 20 36
36 30 8 -3 12 -9 9 -14 -3 -4 -12 -6 -20 -2 -9 3 -15 -1 -15 -11 0 -19 36 -22
43 -3 4 9 7 9 14 -1 10 -14 130 -15 139 -1 2 4 11 6 19 2 11 -4 15 2 15 23 -1
26 -2 27 -14 12 -7 -10 -16 -15 -19 -11 -4 3 3 15 15 25 21 18 23 18 29 1 7
-16 8 -16 8 -1 1 9 -6 21 -15 26 -10 6 -17 23 -18 44 -1 29 2 34 17 30 12 -3
16 -10 12 -21 -3 -8 -3 -12 1 -8 5 4 14 -3 21 -15 8 -15 12 -18 13 -7 0 8 -5
20 -12 27 -9 9 -8 16 5 30 9 10 14 22 10 25 -3 4 -1 7 5 7 7 0 12 6 12 14 0
24 16 27 40 6 13 -11 18 -20 12 -20 -6 0 -14 4 -17 10 -3 5 -11 10 -18 10 -19
0 27 -29 48 -30 31 -1 100 -28 98 -38 -1 -6 10 -9 25 -9 60 2 102 -4 102 -14
0 -6 -9 -8 -22 -3 -13 3 -20 3 -16 -1 11 -11 108 -14 114 -3 7 11 44 10 44 -1
0 -5 -8 -7 -18 -4 -23 6 -60 -32 -38 -40 9 -4 16 3 21 16 6 22 6 22 15 2 5
-11 9 -14 9 -7 1 6 11 12 22 12 21 0 21 -1 -4 -20 -14 -11 -36 -20 -49 -20
-16 0 -19 -3 -10 -9 11 -7 11 -9 -2 -14 -9 -4 -17 1 -21 14 -4 10 -11 19 -17
19 -6 0 -6 -6 2 -15 10 -13 9 -15 -9 -15 -11 0 -21 -5 -21 -11 0 -6 -7 -9 -15
-6 -8 4 -17 2 -20 -3 -7 -12 -15 -10 74 -17 53 -4 72 -2 67 6 -4 6 -12 8 -18
5 -6 -4 -8 -2 -5 3 4 6 18 8 33 5 19 -3 22 -7 12 -13 -8 -5 12 -9 50 -9 40 0
61 4 57 10 -3 6 0 13 8 16 8 3 17 14 20 25 3 11 9 19 14 18 4 -1 10 0 13 1 3
1 14 3 25 5 36 7 95 28 95 35 0 4 -13 5 -30 2 -16 -2 -30 -9 -30 -14 0 -5 -5
-6 -11 -2 -8 4 -7 9 2 15 9 6 2 7 -18 4 -19 -3 -33 -1 -33 5 0 5 5 10 11 10 5
0 7 6 3 12 -5 10 -4 10 6 1 8 -8 20 -9 36 -3 19 8 22 6 17 -7 -5 -13 -1 -14
25 -8 26 5 32 3 32 -10 0 -15 2 -16 17 -4 13 11 17 11 20 2 8 -23 21 -14 16
10 -5 21 -5 22 10 2 12 -16 18 -17 30 -7 12 10 16 10 20 0 2 -7 8 -10 12 -6 5
5 1 16 -8 26 -10 10 -14 22 -11 25 4 4 1 13 -6 22 -10 12 -10 15 4 15 10 0 14
-4 11 -10 -3 -5 -2 -10 4 -10 6 0 15 -10 22 -21 8 -15 8 -19 0 -15 -6 4 -11 3
-11 -3 0 -5 5 -13 10 -16 6 -4 4 -13 -7 -23 -12 -12 -18 -13 -21 -4 -2 6 -8
12 -14 12 -5 0 -7 -9 -3 -19 4 -14 0 -21 -15 -26 -17 -5 -19 -10 -9 -21 13
-16 33 -19 24 -4 -7 12 2 12 30 0 14 -6 15 -9 5 -10 -8 0 -24 -7 -35 -15 -18
-14 -16 -15 28 -14 38 2 45 5 36 16 -9 10 -8 13 5 13 9 0 19 -6 22 -13 3 -9
42 -13 145 -15 l141 -3 -6 37 c-9 45 -76 198 -112 256 -44 69 -105 137 -170
189 -75 59 -198 122 -224 114 -10 -3 -25 1 -34 10 -9 9 -29 20 -46 25 -26 7
-30 6 -30 -10 0 -12 10 -21 30 -25 30 -7 111 -44 97 -45 -4 0 -22 6 -40 13
-18 7 -78 24 -134 37 -57 13 -103 27 -103 31 0 8 49 5 73 -5 9 -5 24 -6 32 -2
8 3 15 1 15 -4 0 -6 4 -10 8 -10 16 0 9 30 -7 31 -9 1 -29 3 -46 4 -16 2 -50
5 -75 7 -25 2 -78 1 -118 -4z m14 -31 c-18 -6 -31 -6 -38 1 -8 8 -5 9 9 6 12
-3 24 -1 28 5 3 6 11 8 18 4 7 -4 0 -10 -17 -16z m61 7 c-3 -3 -12 -4 -19 -1
-8 3 -5 6 6 6 11 1 17 -2 13 -5z m-122 -22 c-3 -3 -11 0 -18 7 -9 10 -8 11 6
5 10 -3 15 -9 12 -12z m-82 -28 c-80 -33 -92 -29 -18 5 33 15 64 26 68 23 5
-2 -17 -15 -50 -28z m-243 -218 c0 -3 -4 -8 -10 -11 -5 -3 -10 -1 -10 4 0 6 5
11 10 11 6 0 10 -2 10 -4z m25 -36 c-3 -5 -11 -10 -16 -10 -6 0 -7 5 -4 10 3
6 11 10 16 10 6 0 7 -4 4 -10z m-55 -34 c0 -3 -4 -8 -10 -11 -5 -3 -10 -1 -10
4 0 6 5 11 10 11 6 0 10 -2 10 -4z m90 -5 c0 -5 -7 -11 -14 -14 -10 -4 -13 -1
-9 9 6 15 23 19 23 5z m561 -1 c20 -6 53 -23 73 -39 l36 -28 -53 -28 c-28 -15
-76 -29 -106 -32 l-54 -6 7 39 c4 21 9 47 12 57 5 15 -3 17 -77 17 -93 0 -98
9 -12 20 87 11 134 11 174 0z m-651 -41 c0 -5 -4 -9 -10 -9 -5 0 -10 7 -10 16
0 8 5 12 10 9 6 -3 10 -10 10 -16z m337 5 c-3 -3 -12 -4 -19 -1 -8 3 -5 6 6 6
11 1 17 -2 13 -5z m524 -12 c-15 -29 -38 -45 -46 -32 -3 5 0 10 7 10 7 0 19 9
26 20 15 25 26 26 13 2z m39 -12 c0 -5 -5 -10 -11 -10 -5 0 -7 5 -4 10 3 6 8
10 11 10 2 0 4 -4 4 -10z m-860 -4 c0 -3 -4 -8 -10 -11 -5 -3 -10 -1 -10 4 0
6 5 11 10 11 6 0 10 -2 10 -4z m844 -22 c20 -8 21 -20 1 -28 -8 -3 -14 0 -12
7 1 7 -7 11 -18 9 -16 -2 -17 -1 -5 7 18 13 15 12 34 5z m106 -16 c0 -13 -23
-5 -28 10 -2 7 2 10 12 6 9 -3 16 -11 16 -16z m-923 -10 c-3 -8 -6 -5 -6 6 -1
11 2 17 5 13 3 -3 4 -12 1 -19z m728 12 c-3 -5 -14 -10 -23 -10 -15 0 -15 2
-2 10 20 13 33 13 25 0z m250 0 c3 -6 -1 -7 -9 -4 -18 7 -21 14 -7 14 6 0 13
-4 16 -10z m-309 -15 c9 -8 11 -15 5 -15 -5 0 -13 5 -16 10 -4 6 -11 7 -17 4
-7 -4 -8 -2 -4 4 9 16 14 15 32 -3z m69 -5 c-3 -5 -12 -10 -18 -10 -7 0 -6 4
3 10 19 12 23 12 15 0z m43 -14 c-7 -8 -15 -12 -17 -11 -5 6 10 25 20 25 5 0
4 -6 -3 -14z m-202 -11 c-11 -8 -22 -12 -25 -9 -6 6 19 24 34 24 6 -1 1 -7 -9
-15z m-671 -5 c3 -5 2 -10 -4 -10 -5 0 -13 5 -16 10 -3 6 -2 10 4 10 5 0 13
-4 16 -10z m592 -6 c-3 -3 -12 -4 -19 -1 -8 3 -5 6 6 6 11 1 17 -2 13 -5z
m433 -3 c0 -6 -4 -13 -10 -16 -5 -3 -10 1 -10 9 0 9 5 16 10 16 6 0 10 -4 10
-9z m-1214 -24 c1 -7 -8 -14 -20 -14 -19 -2 -19 -1 -3 8 9 6 14 16 11 22 -4 7
-3 8 1 4 5 -4 10 -13 11 -20z m155 9 c-8 -10 -9 -16 -1 -21 6 -3 8 -11 5 -16
-4 -5 2 -6 11 -2 13 5 16 3 11 -10 -3 -9 -2 -19 2 -22 5 -2 14 15 20 40 13 53
20 58 16 13 -2 -18 -4 -33 -5 -33 -1 0 -3 -8 -5 -18 -7 -39 -16 -34 -61 29
-15 22 -10 54 8 54 6 0 6 -6 -1 -14z m32 -11 c-3 -9 -8 -14 -10 -11 -3 3 -2 9
2 15 9 16 15 13 8 -4z m622 5 c-3 -5 -13 -10 -21 -10 -8 0 -12 5 -9 10 3 6 13
10 21 10 8 0 12 -4 9 -10z m57 -2 c3 -8 12 -9 36 0 26 9 32 8 32 -3 0 -9 -6
-12 -15 -9 -8 4 -15 1 -15 -6 0 -6 -5 -8 -10 -5 -6 3 -20 3 -31 0 -16 -6 -18
-9 -8 -15 9 -6 6 -10 -12 -15 -47 -12 -94 -11 -91 3 1 6 -3 12 -9 12 -5 0 -7
5 -4 10 8 13 55 13 55 -1 0 -5 -4 -7 -10 -4 -5 3 -10 2 -10 -3 0 -5 11 -9 25
-9 26 0 34 12 13 20 -7 3 1 6 17 7 29 1 29 1 11 15 -19 15 -19 15 1 15 12 0
23 -5 25 -12z m-780 -34 c-9 -16 -10 -14 -9 8 1 15 6 23 11 18 4 -4 4 -16 -2
-26z m1171 11 c-3 -9 -8 -14 -10 -11 -3 3 -2 9 2 15 9 16 15 13 8 -4z m-77
-10 c17 -16 14 -18 -10 -9 -9 3 -16 10 -16 15 0 13 9 11 26 -6z m134 -25 c0
-5 -5 -10 -11 -10 -5 0 -7 5 -4 10 3 6 8 10 11 10 2 0 4 -4 4 -10z m-660 -20
c12 -8 11 -10 -7 -10 -13 0 -23 5 -23 10 0 13 11 13 30 0z m180 -5 c0 -1 -15
-2 -32 -2 -26 -1 -29 1 -13 7 17 6 45 3 45 -5z"/>
<path d="M8680 639 c-247 -32 -358 -54 -485 -96 -27 -10 -52 -18 -55 -18 -16
-5 -157 -78 -166 -87 -3 -3 2 -48 11 -99 9 -51 14 -103 10 -117 -10 -40 3 -62
36 -62 26 0 29 -4 29 -30 0 -24 -3 -28 -17 -23 -10 3 -24 10 -30 16 -10 7 -13
4 -13 -10 0 -11 -3 -41 -6 -67 l-7 -46 1043 0 c605 1 1075 5 1120 11 99 12
178 33 244 64 29 14 61 25 71 25 20 0 159 103 181 134 17 25 18 90 2 104 -9 6
-47 7 -108 2 -76 -7 -100 -5 -124 7 -57 30 -139 53 -242 68 -58 9 -109 13
-113 10 -11 -6 -375 40 -477 60 -44 9 -171 38 -284 65 -217 52 -278 63 -430
80 -52 6 -102 12 -110 14 -8 2 -44 0 -80 -5z m124 -430 c6 -5 20 -9 33 -9 16
0 21 4 17 15 -5 13 7 15 74 15 74 0 132 -13 132 -30 0 -32 -73 -41 -92 -10 -7
11 -19 20 -26 20 -10 0 -10 -4 2 -16 23 -23 21 -24 -31 -23 -43 1 -45 2 -18 9
22 6 7 8 -52 9 -57 1 -83 -3 -85 -11 -6 -18 -687 -26 -698 -8 -4 6 -5 21 -3
33 l4 22 367 -3 c203 -2 371 -8 376 -13z m-479 -73 c6 -1 11 -5 13 -9 1 -4 0
-6 -1 -4 -2 1 -12 -5 -21 -13 -32 -26 -176 -18 -176 10 0 14 110 30 150 23 14
-3 30 -6 35 -7z"/>
<path d="M4813 633 c-22 -8 -15 -67 10 -91 31 -29 51 -28 72 4 16 24 16 26 -2
40 -22 17 -45 18 -61 2 -19 -19 -27 0 -9 20 26 28 21 38 -10 25z"/>
<path d="M4975 613 c-31 -8 -38 -19 -30 -52 6 -27 9 -30 22 -20 13 12 43 62
43 74 0 5 -4 5 -35 -2z"/>
<path d="M4160 550 c0 -5 5 -10 11 -10 5 0 7 5 4 10 -3 6 -8 10 -11 10 -2 0
-4 -4 -4 -10z"/>
<path d="M4056 543 c-44 -5 -117 -51 -142 -89 -31 -46 3 -131 71 -182 59 -45
78 -37 21 8 -52 41 -66 66 -66 119 0 28 7 43 28 62 36 33 78 59 95 59 8 0 20
7 27 15 7 8 11 14 9 13 -2 -1 -22 -3 -43 -5z"/>
<path d="M4110 540 c0 -5 5 -10 10 -10 6 0 10 5 10 10 0 6 -4 10 -10 10 -5 0
-10 -4 -10 -10z"/>
<path d="M4907 518 c-3 -18 -9 -42 -13 -53 -6 -16 -3 -15 13 5 20 24 29 80 13
80 -4 0 -10 -15 -13 -32z"/>
<path d="M4560 463 c-30 -20 -49 -38 -42 -41 11 -3 122 63 122 74 0 13 -31 0
-80 -33z"/>
<path d="M4588 404 c-47 -30 -55 -44 -26 -44 18 0 20 -2 8 -10 -8 -5 -11 -13
-6 -17 5 -4 13 0 20 11 6 10 21 31 34 47 30 36 16 42 -30 13z"/>
<path d="M6838 287 c-5 -82 -35 -158 -93 -238 l-35 -49 39 0 c22 0 42 6 45 13
5 9 7 9 12 0 9 -19 42 -16 47 5 4 16 5 16 6 -1 2 -28 75 -20 79 8 11 72 13
125 5 125 -5 0 -7 15 -5 32 5 30 3 32 -12 19 -18 -15 -23 -2 -5 16 16 16 -5
81 -37 115 -15 15 -31 28 -35 28 -3 0 -8 -33 -11 -73z"/>
<path d="M3697 256 c-16 -41 28 -157 84 -221 27 -30 37 -35 76 -35 l44 0 -60
50 c-79 66 -112 110 -126 172 -8 37 -13 47 -18 34z"/>
<path d="M12844 166 c-9 -20 -9 -26 3 -30 20 -8 23 -8 23 5 0 5 -4 7 -10 4 -5
-3 -10 -2 -10 4 0 5 5 13 10 16 12 7 13 25 3 25 -5 0 -13 -11 -19 -24z"/>
<path d="M12884 155 c4 -11 0 -26 -11 -39 l-18 -21 23 19 c24 21 28 41 10 52
-8 5 -9 2 -4 -11z"/>
<path d="M12940 160 c8 -5 24 -10 34 -10 26 0 18 6 -19 14 -22 5 -26 4 -15 -4z"/>
<path d="M12928 132 c9 -11 21 -17 25 -14 5 2 0 10 -10 18 -26 20 -36 17 -15
-4z"/>
<path d="M13048 133 c7 -3 16 -2 19 1 4 3 -2 6 -13 5 -11 0 -14 -3 -6 -6z"/>
<path d="M13048 103 c7 -3 16 -2 19 1 4 3 -2 6 -13 5 -11 0 -14 -3 -6 -6z"/>
<path d="M13080 99 c0 -5 5 -9 11 -9 5 0 7 -4 4 -10 -9 -15 11 -12 24 4 9 11
6 15 -14 18 -14 3 -25 1 -25 -3z"/>
<path d="M13170 100 c-9 -6 -10 -10 -3 -10 6 0 15 5 18 10 8 12 4 12 -15 0z"/>
<path d="M13550 87 c0 -4 -4 -6 -9 -2 -5 3 -16 -2 -25 -10 -8 -9 -31 -17 -51
-19 -32 -2 -96 -46 -68 -46 7 0 15 5 18 10 3 6 12 10 18 10 7 0 6 -4 -3 -10
-23 -14 -8 -20 33 -11 23 6 35 5 31 -1 -3 -5 12 -8 35 -7 23 2 41 6 41 9 0 15
-14 19 -32 9 -11 -6 -22 -8 -25 -6 -2 3 28 20 67 38 39 19 67 35 62 37 -5 1
-28 -6 -52 -17 -24 -11 -48 -17 -52 -15 -4 3 -8 1 -8 -4 0 -5 -12 -12 -27 -15
l-27 -5 25 19 c13 10 32 19 41 19 22 0 48 10 48 19 0 4 -9 7 -20 7 -11 0 -20
-4 -20 -9z m-80 -41 c0 -3 -4 -8 -10 -11 -5 -3 -10 -1 -10 4 0 6 5 11 10 11 6
0 10 -2 10 -4z"/>
<path d="M6326 81 c-4 -7 -5 -15 -2 -18 9 -9 19 4 14 18 -4 11 -6 11 -12 0z"/>
<path d="M12821 69 c-11 -18 -11 -23 1 -30 20 -13 32 -11 19 5 -6 7 -9 21 -5
30 9 23 1 20 -15 -5z"/>
<path d="M12855 61 c-3 -5 -2 -12 3 -15 5 -3 9 1 9 9 0 17 -3 19 -12 6z"/>
<path d="M5912 48 c-7 -7 -12 -17 -12 -24 0 -7 -6 -15 -12 -17 -10 -4 -10 -6
0 -6 7 -1 16 7 19 17 4 9 11 20 17 24 6 4 8 9 5 12 -3 3 -11 0 -17 -6z"/>
<path d="M6330 40 c0 -5 4 -10 10 -10 5 0 7 -7 4 -15 -4 -8 -1 -15 5 -15 12 0
14 11 5 34 -7 18 -24 22 -24 6z"/>
<path d="M12878 36 c-16 -12 -16 -14 9 -25 23 -11 25 -10 14 3 -7 8 -10 20 -6
26 8 13 4 12 -17 -4z"/>
<path d="M13046 35 c-25 -19 -16 -19 20 0 16 8 22 15 14 15 -8 -1 -24 -7 -34
-15z"/>
<path d="M13593 43 c-21 -8 -15 -20 12 -25 28 -6 27 -6 19 16 -6 17 -11 18
-31 9z"/>
<path d="M4750 30 c0 -5 5 -10 10 -10 6 0 10 5 10 10 0 6 -4 10 -10 10 -5 0
-10 -4 -10 -10z"/>
<path d="M5920 14 c0 -8 5 -12 10 -9 6 3 10 10 10 16 0 5 -4 9 -10 9 -5 0 -10
-7 -10 -16z"/>
<path d="M6266 15 c-3 -8 -1 -15 4 -15 6 0 10 7 10 15 0 19 -6 19 -14 0z"/>
<path d="M4720 10 c0 -5 5 -10 11 -10 5 0 7 5 4 10 -3 6 -8 10 -11 10 -2 0 -4
-4 -4 -10z"/>
<path d="M6025 10 c-3 -5 -1 -10 4 -10 6 0 11 5 11 10 0 6 -2 10 -4 10 -3 0
-8 -4 -11 -10z"/>
<path d="M6385 10 c-3 -5 -1 -10 4 -10 6 0 11 5 11 10 0 6 -2 10 -4 10 -3 0
-8 -4 -11 -10z"/>
<path d="M6418 3 c7 -3 16 -2 19 1 4 3 -2 6 -13 5 -11 0 -14 -3 -6 -6z"/>
</g>
</svg>
