<?xml version="1.0" standalone="no"?>
<!DOCTYPE svg PUBLIC "-//W3C//DTD SVG 20010904//EN"
 "http://www.w3.org/TR/2001/REC-SVG-20010904/DTD/svg10.dtd">
<svg version="1.0" xmlns="http://www.w3.org/2000/svg"
 width="421.000000pt" height="324.000000pt" viewBox="0 0 421.000000 324.000000"
 preserveAspectRatio="xMidYMid meet">

<g transform="translate(0.000000,324.000000) scale(0.100000,-0.100000)"
fill="#000000" stroke="none">
<path d="M0 2831 c0 -263 4 -412 10 -416 6 -3 10 -21 9 -38 0 -27 -2 -29 -9
-12 -5 12 -9 -74 -9 -214 l-1 -233 25 4 c14 3 25 1 25 -3 0 -5 -11 -9 -25 -9
-31 0 -33 -17 -2 -31 l22 -10 -22 5 -23 4 0 -849 c0 -726 2 -849 14 -849 8 0
16 -5 18 -11 3 -9 9 -9 25 0 62 33 93 1 93 -97 l0 -72 52 0 c51 0 52 0 30 16
-44 31 -55 117 -12 94 10 -6 44 -10 74 -10 31 0 56 -4 56 -10 0 -5 -25 -10
-55 -10 -30 0 -55 -3 -55 -7 1 -24 22 -36 59 -35 29 1 41 -2 41 -12 0 -8 -6
-17 -13 -19 -6 -3 14 -6 46 -6 53 -1 57 0 43 15 -9 8 -16 31 -16 50 0 27 4 34
19 34 14 0 21 -8 23 -27 2 -19 10 -29 23 -31 30 -6 42 -21 25 -32 -10 -7 2
-10 40 -9 46 0 51 2 33 11 -22 11 -47 63 -37 79 7 12 154 11 154 -1 0 -5 -28
-10 -62 -12 l-63 -3 23 -23 c18 -18 29 -22 57 -16 28 5 35 3 35 -9 0 -8 -6
-18 -13 -20 -6 -3 8 -5 33 -5 25 0 39 2 33 5 -7 2 -13 12 -13 20 0 12 7 14 30
10 32 -7 60 0 60 14 0 5 -17 17 -37 28 l-38 20 42 1 c67 0 98 -51 51 -84 -21
-15 -15 -16 86 -16 l109 0 -27 21 c-17 14 -26 30 -26 50 l0 29 75 0 c43 0 75
-4 75 -10 0 -5 -25 -10 -55 -10 -43 0 -55 -3 -55 -15 0 -20 38 -34 73 -28 20
4 27 1 27 -10 0 -8 -6 -18 -12 -21 -7 -3 18 -4 56 -3 l68 2 18 45 18 45 73 0
73 0 17 -45 c9 -25 24 -46 33 -48 13 -3 16 6 16 47 0 44 3 51 20 51 17 0 20
-7 20 -50 l0 -50 68 0 c37 0 62 4 56 8 -16 11 -34 48 -34 71 0 33 34 26 47 -9
9 -23 18 -30 37 -30 21 0 28 6 33 30 4 21 11 30 24 30 16 0 19 -8 19 -50 l0
-50 53 1 c44 0 49 2 30 11 -22 11 -47 63 -37 79 11 19 32 8 43 -22 9 -25 15
-30 38 -27 19 2 29 10 33 28 9 37 40 39 40 3 0 -33 -8 -46 -35 -61 -16 -9 -3
-11 65 -11 69 0 81 2 65 11 -46 26 -63 88 -25 88 11 0 20 -6 20 -13 0 -27 37
-49 77 -45 29 2 38 -1 41 -14 2 -9 -5 -18 -15 -21 -10 -3 1 -5 25 -6 l42 -1 0
50 c0 43 3 50 20 50 16 0 20 -7 20 -30 0 -27 3 -30 30 -30 29 0 70 29 70 50 0
5 9 10 20 10 11 0 20 -4 20 -10 0 -25 -28 -64 -55 -76 -25 -11 126 -13 923
-14 l952 0 0 1620 0 1620 -2105 0 -2104 0 -1 -409z m3858 302 c-137 -2 -359
-2 -495 0 -137 1 -25 2 247 2 272 0 384 -1 248 -2z m-781 -210 c-2 -32 -3 -6
-3 57 0 63 1 89 3 58 2 -32 2 -84 0 -115z m1070 0 c-2 -32 -3 -6 -3 57 0 63 1
89 3 58 2 -32 2 -84 0 -115z m-3760 35 c-2 -18 -4 -6 -4 27 0 33 2 48 4 33 2
-15 2 -42 0 -60z m1933 28 c0 -51 -1 -53 -27 -52 -25 1 -28 5 -28 36 0 30 3
35 23 34 15 0 22 5 22 18 0 10 2 18 5 18 3 0 5 -24 5 -54z m90 0 c0 -51 -1
-53 -26 -52 -53 2 -58 66 -5 74 11 2 21 10 21 18 0 8 2 14 5 14 3 0 5 -24 5
-54z m90 44 c-13 -9 -13 -11 0 -20 10 -6 11 -10 3 -10 -8 0 -13 -14 -13 -35 0
-48 -17 -44 -22 5 -4 47 6 70 30 70 15 0 15 -2 2 -10z m70 -45 c0 -30 -4 -55
-10 -55 -5 0 -10 25 -10 55 0 30 5 55 10 55 6 0 10 -25 10 -55z m1120 0 c0
-54 -1 -55 -28 -55 -15 0 -33 5 -40 12 -8 8 -15 8 -26 -1 -8 -7 -25 -11 -38
-9 -19 2 -23 9 -23 38 0 29 4 36 23 38 13 2 30 -2 38 -9 11 -9 18 -9 26 -1 7
7 20 12 30 12 10 0 18 7 18 15 0 8 5 15 10 15 6 0 10 -25 10 -55z m-1457 -10
c9 -25 12 -45 7 -45 -4 0 -10 7 -14 15 -3 8 -12 15 -21 15 -9 0 -18 -7 -21
-15 -4 -8 -10 -15 -15 -15 -5 0 -4 11 1 25 6 14 14 37 20 51 13 33 25 25 43
-31z m1027 48 c0 -3 -7 -15 -17 -25 -15 -17 -15 -19 2 -38 28 -31 8 -37 -22
-7 l-27 26 24 26 c23 24 40 32 40 18z m80 -18 l24 -26 -27 -26 c-30 -30 -50
-24 -22 7 17 19 17 21 2 38 -35 38 -12 45 23 7z m185 15 c-3 -5 -17 -10 -31
-10 -20 0 -24 -5 -24 -30 0 -25 4 -30 25 -30 14 0 25 -4 25 -10 0 -5 -14 -10
-30 -10 -39 0 -59 37 -42 75 9 20 19 25 47 25 22 0 34 -4 30 -10z m-3203 -18
c-7 -2 -13 -20 -13 -40 l-2 -37 -6 40 c-8 48 -5 56 16 48 11 -4 13 -8 5 -11z
m-269 1 c3 -5 -5 -8 -18 -8 -13 0 -21 3 -18 8 2 4 10 7 18 7 8 0 16 -3 18 -7z
m100 0 c-7 -2 -19 -2 -25 0 -7 3 -2 5 12 5 14 0 19 -2 13 -5z m70 0 c3 -5 -5
-8 -18 -8 -13 0 -21 3 -18 8 2 4 10 7 18 7 8 0 16 -3 18 -7z m242 -3 c3 -6 -1
-7 -9 -4 -18 7 -21 14 -7 14 6 0 13 -4 16 -10z m1317 -8 c-17 -5 -15 -40 3
-45 12 -4 11 -5 -2 -3 -9 0 -20 13 -24 28 -8 31 -3 39 19 30 10 -4 12 -7 4
-10z m745 -44 c-2 -13 -4 -3 -4 22 0 25 2 35 4 23 2 -13 2 -33 0 -45z m121 40
c3 -13 -3 -18 -22 -18 -32 0 -34 -17 -3 -30 22 -10 22 -10 -3 -7 -26 2 -38 32
-26 63 8 21 50 14 54 -8z m1117 -3 c0 -12 -9 -22 -25 -26 l-25 -7 28 -1 c15
-1 27 -6 27 -12 0 -6 -14 -9 -32 -7 -26 2 -34 8 -36 26 -6 38 5 54 35 50 20
-2 28 -9 28 -23z m197 -17 l-22 -22 -22 22 -22 22 44 0 44 0 -22 -22z m-3499
5 c-7 -2 -21 -2 -30 0 -10 3 -4 5 12 5 17 0 24 -2 18 -5z m2374 -20 c-16 -16
-18 -16 -34 0 -16 16 -15 17 17 17 32 0 33 -1 17 -17z m-2782 -13 c-3 -5 -12
-10 -18 -10 -7 0 -6 4 3 10 19 12 23 12 15 0z m100 -8 c-3 -3 -11 0 -18 7 -9
10 -8 11 6 5 10 -3 15 -9 12 -12z m70 8 c-3 -5 -12 -10 -18 -10 -7 0 -6 4 3
10 19 12 23 12 15 0z m3765 -80 c0 -31 9 -35 90 -32 14 0 18 -2 10 -4 -11 -3
-14 -15 -12 -44 5 -54 -10 -70 -67 -70 -39 0 -52 5 -75 29 -28 29 -28 58 0 47
11 -4 14 7 14 49 0 48 2 55 20 55 16 0 20 -7 20 -30z m-257 -37 c-112 -2 -294
-2 -405 0 -112 1 -21 2 202 2 223 0 314 -1 203 -2z m-2546 -265 c-2 -18 -4 -6
-4 27 0 33 2 48 4 33 2 -15 2 -42 0 -60z m1703 28 c0 -51 -1 -53 -27 -52 -25
1 -28 5 -28 36 0 30 3 35 23 34 15 0 22 5 22 18 0 10 2 18 5 18 3 0 5 -24 5
-54z m-1977 -49 c18 -4 17 -5 -5 -6 -27 -1 -28 0 -26 52 l2 52 3 -47 c3 -39 8
-47 26 -51z m1785 81 c-22 -7 -28 -16 -28 -38 0 -22 6 -31 28 -38 24 -9 24
-11 5 -11 -23 -1 -53 23 -53 42 0 24 31 57 53 56 19 0 19 -2 -5 -11z m-1693
-48 c0 -38 -24 -52 -50 -30 -31 25 -9 73 30 68 16 -2 20 -11 20 -38z m58 30
c-14 -6 -23 -18 -23 -30 0 -12 10 -25 23 -30 22 -10 22 -10 -3 -7 -43 4 -41
78 2 76 l23 0 -22 -9z m87 -30 c0 -36 -3 -40 -24 -40 -13 0 -26 6 -29 14 -6
16 11 36 30 36 19 0 16 18 -4 23 -14 4 -12 5 5 6 19 1 22 -4 22 -39z m1648 28
c17 -17 15 -43 -4 -59 -31 -26 -70 25 -44 56 15 18 32 19 48 3z m170 0 c19
-19 14 -28 -13 -28 -31 0 -33 -18 -2 -30 21 -8 21 -9 2 -9 -25 -1 -45 17 -45
39 0 18 19 40 35 40 6 0 16 -5 23 -12z m55 5 c-29 -5 -30 -20 -2 -28 27 -9 21
-40 -9 -41 -19 -1 -19 -1 -2 3 26 6 25 17 -2 35 -25 17 -17 39 15 37 22 -2 22
-2 0 -6z m101 -15 c14 -23 -3 -53 -30 -53 -12 0 -21 -9 -25 -25 -4 -16 -7 -3
-8 36 -1 60 0 61 25 60 15 -1 32 -9 38 -18z m80 0 c12 -46 7 -58 -23 -58 -16
0 -31 6 -34 14 -6 16 11 36 30 36 19 0 16 18 -4 23 -14 4 -14 5 3 6 15 1 24
-7 28 -21z m59 12 c-27 -11 -30 -45 -5 -59 14 -9 14 -10 2 -11 -9 0 -21 5 -28
12 -26 26 -6 69 33 67 19 0 19 -1 -2 -9z m85 -13 c3 -12 -3 -17 -22 -17 -32 0
-25 -29 8 -31 17 -1 18 -2 3 -6 -22 -6 -47 14 -47 36 0 38 51 54 58 18z m55
16 c-29 -5 -30 -20 -2 -28 28 -9 20 -39 -11 -42 l-25 -3 25 11 25 11 -22 11
c-36 16 -28 48 11 46 19 -2 19 -2 -1 -6z m-3346 -215 c-3 -8 -6 -5 -6 6 -1 11
2 17 5 13 3 -3 4 -12 1 -19z m408 -278 l0 -65 -75 0 -75 0 -3 54 c-5 81 -3 82
80 79 l73 -3 0 -65z m205 5 c0 -30 -4 -55 -10 -55 -5 0 -10 25 -10 55 0 30 5
55 10 55 6 0 10 -25 10 -55z m-45 35 c4 -6 -5 -10 -19 -10 -22 0 -26 -4 -26
-30 0 -26 4 -30 27 -30 20 0 24 -3 16 -11 -17 -17 -60 -2 -66 23 -12 43 47 92
68 58z m3212 -1 c-11 -6 -25 -25 -33 -43 -7 -17 -13 -24 -14 -15 0 20 37 69
53 69 7 0 4 -5 -6 -11z m88 -9 c26 -28 15 -31 -12 -3 -12 13 -19 23 -14 23 4
0 16 -9 26 -20z m-3171 -22 c8 -13 8 -23 0 -35 -28 -45 -89 -9 -64 38 13 24
48 22 64 -3z m84 -20 c2 -22 -1 -38 -7 -38 -6 0 -11 14 -11 30 0 17 -5 30 -10
30 -6 0 -13 -13 -16 -30 -9 -43 -24 -37 -24 9 0 38 1 39 33 38 29 -2 32 -5 35
-39z m90 20 c2 -13 -3 -18 -17 -18 -28 0 -27 -18 2 -23 20 -3 21 -4 3 -12 -37
-16 -71 30 -45 61 16 19 53 14 57 -8z m2960 -11 c2 -9 -1 -17 -7 -17 -6 0 -7
8 -4 17 5 13 2 15 -11 10 -11 -4 -15 -3 -11 4 9 14 29 6 33 -14z m-45 -86 c-4
-6 -43 30 -43 40 0 5 10 -2 23 -14 13 -12 22 -24 20 -26z m82 19 c-10 -11 -22
-20 -26 -20 -5 0 2 10 14 23 27 28 38 25 12 -3z m-3828 -96 c-3 -3 -12 -4 -19
-1 -8 3 -5 6 6 6 11 1 17 -2 13 -5z m1603 -204 c0 -5 -4 -10 -10 -10 -5 0 -10
5 -10 10 0 6 5 10 10 10 6 0 10 -4 10 -10z m300 -9 c0 -14 5 -18 19 -14 13 3
21 -2 26 -16 11 -36 -3 -61 -36 -61 -29 0 -29 1 -29 55 0 30 5 55 10 55 6 0
10 -9 10 -19z m-1580 -11 c0 -13 7 -20 20 -20 13 0 20 7 20 20 0 11 5 20 10
20 6 0 10 -22 10 -50 0 -27 -4 -50 -10 -50 -5 0 -10 9 -10 20 0 13 -7 20 -20
20 -13 0 -20 -7 -20 -20 0 -11 -4 -20 -10 -20 -5 0 -10 23 -10 50 0 28 5 50
10 50 6 0 10 -9 10 -20z m150 10 c0 -5 -7 -10 -15 -10 -11 0 -15 -11 -15 -40
0 -22 -4 -40 -10 -40 -5 0 -10 18 -10 40 0 22 -4 40 -10 40 -5 0 -10 5 -10 10
0 6 16 10 35 10 19 0 35 -4 35 -10z m80 0 c0 -5 -4 -10 -10 -10 -5 0 -10 -18
-10 -40 0 -22 -4 -40 -10 -40 -5 0 -10 18 -10 40 0 29 -4 40 -15 40 -8 0 -15
5 -15 10 0 6 16 10 35 10 19 0 35 -4 35 -10z m88 -17 c3 -17 -3 -24 -22 -29
-17 -4 -26 -13 -26 -25 0 -10 -4 -19 -10 -19 -5 0 -10 23 -10 51 l0 50 33 -3
c24 -2 33 -8 35 -25z m72 17 c0 -5 -10 -10 -22 -10 -22 0 -21 -1 7 -24 25 -20
28 -26 16 -40 -15 -18 -47 -21 -56 -6 -4 6 6 10 22 10 l28 1 -29 24 c-25 20
-28 26 -17 39 15 18 51 22 51 6z m320 0 c0 -5 -10 -10 -22 -10 l-23 -1 23 -19
c31 -25 25 -54 -11 -58 -15 -2 -27 1 -27 7 0 6 9 11 20 11 26 0 25 8 -2 29
-27 23 -18 51 17 51 14 0 25 -4 25 -10z m75 0 c3 -5 -3 -10 -14 -10 -27 0 -27
-17 0 -25 31 -10 21 -49 -13 -53 -16 -2 -28 1 -28 7 0 6 9 11 20 11 26 0 25 8
-2 29 -13 11 -19 24 -15 34 7 19 42 23 52 7z m45 -10 c0 -13 7 -20 20 -20 13
0 20 7 20 20 0 11 5 20 10 20 6 0 10 -22 10 -50 0 -27 -4 -50 -10 -50 -5 0
-10 9 -10 20 0 13 -7 20 -20 20 -13 0 -20 -7 -20 -20 0 -11 -4 -20 -10 -20 -5
0 -10 23 -10 50 0 28 5 50 10 50 6 0 10 -9 10 -20z m400 10 c0 -5 -11 -10 -24
-10 -26 0 -39 -20 -30 -45 7 -17 34 -21 34 -5 0 6 -4 10 -10 10 -5 0 -10 5
-10 10 0 6 9 10 20 10 16 0 20 -7 20 -30 0 -27 -3 -30 -30 -30 -45 0 -66 52
-34 84 17 18 64 22 64 6z m150 -10 c0 -13 7 -20 20 -20 13 0 20 7 20 20 0 11
5 20 10 20 6 0 10 -22 10 -50 0 -27 -4 -50 -10 -50 -5 0 -10 9 -10 20 0 13 -7
20 -20 20 -13 0 -20 -7 -20 -20 0 -11 -4 -20 -10 -20 -5 0 -10 23 -10 50 0 28
5 50 10 50 6 0 10 -9 10 -20z m370 10 c0 -5 -9 -10 -19 -10 -20 0 -37 -32 -26
-50 3 -5 15 -10 26 -10 10 0 19 -4 19 -10 0 -18 -49 -11 -60 9 -14 27 -13 47
6 65 17 18 54 22 54 6z m50 -30 c0 -33 3 -40 20 -40 11 0 20 -4 20 -10 0 -5
-13 -10 -30 -10 -29 0 -30 1 -30 50 0 28 5 50 10 50 6 0 10 -18 10 -40z m85
-10 c0 -38 -4 -50 -15 -50 -11 0 -15 12 -15 50 0 38 4 50 15 50 11 0 15 -12
15 -50z m-555 29 c11 -8 12 -12 3 -16 -15 -6 -17 -43 -3 -43 6 0 10 -5 10 -11
0 -24 -35 -2 -41 26 -9 50 2 65 31 44z m-50 -39 c0 -22 -4 -40 -10 -40 -5 0
-10 18 -10 40 0 22 5 40 10 40 6 0 10 -18 10 -40z m210 9 c0 -38 24 -35 28 4
5 42 22 32 22 -12 0 -38 -1 -39 -32 -38 -30 2 -33 5 -36 40 -2 21 1 37 7 37 6
0 11 -14 11 -31z m-1000 -229 c0 -6 -107 -10 -300 -10 -193 0 -300 4 -300 10
0 6 107 10 300 10 193 0 300 -4 300 -10z m2995 -225 l0 -50 -50 0 -50 0 -3 39
c-5 60 1 68 55 64 l48 -3 0 -50z m-3422 12 c12 -4 17 -16 16 -39 l-1 -33 -7
29 c-9 42 -29 44 -34 4 -3 -24 -4 -20 -5 17 -1 28 2 45 6 39 4 -6 15 -13 25
-17z m66 -5 c-16 -6 -10 -50 9 -55 13 -4 12 -5 -4 -6 -18 -1 -23 6 -26 33 -5
46 0 59 17 43 7 -7 9 -13 4 -15z m81 5 c12 -4 11 -6 -2 -6 -23 -1 -25 -47 -3
-54 11 -4 10 -4 -2 -3 -11 1 -20 12 -24 31 -6 33 0 62 10 47 3 -5 13 -12 21
-15z m275 -28 c-13 -24 -25 -40 -25 -36 0 13 41 89 46 84 2 -2 -7 -24 -21 -48z
m75 1 c-12 -23 -23 -40 -26 -38 -2 3 6 23 18 46 29 53 36 47 8 -8z m219 22
c-14 -5 -11 -50 4 -55 7 -4 6 -6 -4 -6 -12 -1 -18 9 -21 33 -5 46 0 59 17 43
7 -7 9 -13 4 -15z m74 5 c12 -4 17 -16 15 -39 l-1 -33 -4 33 c-3 18 -10 32
-18 32 -8 0 -15 -14 -18 -32 -3 -24 -4 -19 -5 17 -1 28 2 45 6 39 4 -6 15 -13
25 -17z m138 3 c17 0 20 -6 17 -32 -2 -25 -8 -34 -25 -36 -21 -3 -23 0 -22 45
0 26 3 42 6 36 2 -7 14 -13 24 -13z m359 -30 c-12 -23 -23 -40 -26 -38 -2 3 6
23 18 46 29 53 36 47 8 -8z m153 27 c12 -4 17 -16 16 -39 l-1 -33 -7 29 c-9
42 -29 44 -34 4 -3 -24 -4 -20 -5 17 -1 28 2 45 6 39 4 -6 15 -13 25 -17z
m578 16 c-11 -5 -11 -7 0 -14 11 -7 10 -9 -3 -9 -13 0 -18 -9 -19 -32 l-2 -33
-6 35 c-8 39 3 60 28 59 12 0 12 -2 2 -6z m439 -39 c0 -41 -2 -45 -22 -42 -32
4 -39 57 -9 65 12 3 21 9 21 14 0 5 2 9 5 9 3 0 5 -21 5 -46z m425 36 l-20 -9
20 -1 c17 -2 17 -3 3 -7 -12 -3 -19 -15 -20 -36 l-1 -32 -4 33 c-2 17 -9 32
-14 32 -5 0 -4 7 3 15 7 8 22 14 33 14 l20 0 -20 -9z m-1157 -18 c-10 -2 -18
-12 -18 -22 0 -11 8 -24 18 -30 16 -10 15 -11 -3 -8 -13 2 -21 14 -26 35 -8
38 -5 43 24 35 18 -5 19 -7 5 -10z m-1498 -27 c0 -28 -4 -35 -19 -35 -11 0
-22 -8 -24 -17 -3 -10 -5 6 -6 35 -1 49 0 52 24 52 22 0 25 -4 25 -35z m70 25
c0 -5 -7 -7 -15 -4 -8 4 -15 1 -15 -5 0 -6 7 -11 15 -11 8 0 15 -9 15 -20 0
-14 -6 -20 -22 -19 -17 1 -19 2 -5 6 21 6 22 19 2 27 -22 8 -18 36 5 36 11 0
20 -4 20 -10z m60 0 c0 -5 -4 -10 -10 -10 -5 0 -10 5 -10 10 0 6 5 10 10 10 6
0 10 -4 10 -10z m230 -35 c0 -48 -20 -69 -43 -45 -9 10 -7 11 11 5 12 -3 22
-2 22 3 0 5 -9 12 -20 15 -13 3 -20 14 -20 29 0 29 7 38 32 38 15 0 18 -8 18
-45z m60 16 c0 -16 6 -32 13 -34 6 -3 -4 -5 -23 -5 -19 0 -27 2 -17 5 20 5 24
49 5 56 -8 3 -6 6 5 6 12 1 17 -7 17 -28z m205 -31 c8 0 15 14 18 33 4 31 4
31 5 -6 2 -34 0 -38 -20 -35 -18 2 -24 10 -25 36 -3 32 -3 32 3 2 3 -16 11
-30 19 -30z m241 48 c5 -8 2 -9 -11 -4 -21 8 -36 -9 -28 -31 3 -9 13 -11 27
-7 16 5 18 4 9 -6 -14 -15 -41 -7 -49 15 -12 30 35 61 52 33z m69 -23 c0 -23
-4 -30 -20 -30 -21 0 -31 25 -21 51 11 28 41 12 41 -21z m81 0 c1 -28 1 -28
-3 -2 -6 38 -23 34 -25 -5 l-1 -33 -5 35 -5 35 -7 -35 -7 -35 -2 38 c-1 36 1
38 27 35 22 -2 27 -8 28 -33z m134 26 c0 -5 -8 -8 -17 -7 -12 1 -18 -6 -18
-19 0 -13 6 -20 18 -19 9 1 17 -3 17 -8 0 -5 -10 -8 -22 -6 -39 5 -37 68 2 68
11 0 20 -4 20 -9z m138 2 c-12 -3 -18 -14 -18 -34 0 -16 -4 -29 -10 -29 -5 0
-10 15 -10 33 0 29 3 33 28 34 15 0 19 -1 10 -4z m62 -22 c0 -20 6 -31 18 -34
9 -3 1 -5 -18 -5 -19 0 -29 2 -22 5 6 2 12 15 12 28 0 13 -6 26 -12 28 -8 3
-6 6 5 6 12 1 17 -7 17 -28z m84 20 c4 -5 -4 -7 -16 -4 l-23 5 24 -20 c13 -11
21 -24 17 -31 -9 -13 -33 -15 -40 -2 -4 5 3 7 14 4 11 -3 20 0 20 6 0 6 -6 11
-14 11 -18 0 -29 16 -21 30 8 12 32 13 39 1z m136 -20 c0 -16 6 -32 13 -34 6
-3 -4 -5 -23 -5 -19 0 -27 2 -17 5 20 5 24 49 5 56 -8 3 -6 6 5 6 12 1 17 -7
17 -28z m88 -6 c3 -26 -1 -31 -23 -33 -19 -1 -25 3 -25 18 0 14 7 20 21 20 12
0 17 4 14 11 -4 6 -14 8 -22 5 -8 -3 -11 -1 -8 5 13 20 40 4 43 -26z m70 -3
l-1 -37 -4 33 c-5 40 -25 38 -34 -4 -7 -28 -7 -28 -8 6 -1 31 2 36 24 38 23 2
25 -1 23 -36z m142 34 c0 -2 3 -11 6 -20 5 -12 0 -16 -21 -16 -16 0 -24 -4
-20 -11 4 -6 13 -8 21 -5 8 3 14 1 14 -5 0 -6 -10 -9 -22 -7 -39 5 -37 68 2
68 11 0 20 -2 20 -4z m68 -3 c-10 -2 -22 -19 -27 -36 l-9 -32 -1 35 c-1 32 2
36 27 37 15 0 19 -1 10 -4z m78 -33 l2 -35 -5 33 c-2 18 -10 32 -18 32 -8 0
-15 -14 -18 -32 -4 -32 -4 -32 -5 5 -2 34 0 38 21 35 18 -2 22 -10 23 -38z
m75 4 c5 -29 4 -31 -23 -32 -33 -1 -40 27 -8 35 11 3 20 10 20 15 0 6 -9 8
-20 5 -11 -3 -17 -1 -14 4 12 20 38 3 45 -27z m67 -2 l-1 -37 -4 33 c-5 40
-25 38 -34 -4 -7 -28 -7 -28 -8 6 -1 31 2 36 24 38 23 2 25 -1 23 -36z m150
16 c2 -13 -3 -18 -17 -18 -25 0 -28 -17 -3 -23 14 -4 14 -5 1 -6 -24 -2 -42
25 -34 49 8 26 48 24 53 -2z m66 13 c4 -5 -4 -7 -16 -4 l-23 5 24 -20 c13 -11
21 -24 17 -31 -8 -13 -46 -15 -46 -2 0 5 9 7 20 4 11 -3 20 0 20 6 0 6 -6 11
-14 11 -18 0 -29 16 -21 30 8 12 32 13 39 1z m76 -26 c0 -28 -4 -35 -19 -35
-11 0 -22 -8 -24 -17 -3 -10 -5 6 -6 35 -1 49 0 52 24 52 22 0 25 -4 25 -35z
m57 22 c-9 -7 -18 -23 -20 -37 -3 -19 -5 -17 -6 10 -1 30 3 36 20 37 19 2 19
0 6 -10z m88 -6 c9 -29 -5 -52 -29 -49 -37 5 -34 68 3 68 11 0 22 -8 26 -19z
m125 -10 c0 -16 6 -32 13 -34 6 -3 -1 -5 -18 -5 -16 0 -24 2 -17 5 6 2 12 15
12 28 0 13 -6 26 -12 28 -8 3 -6 6 5 6 12 1 17 -7 17 -28z m62 22 c-10 -4 -10
-8 -1 -19 8 -9 8 -14 1 -14 -15 0 -25 18 -17 30 3 6 12 10 18 9 8 0 8 -2 -1
-6z m281 -10 c-8 -3 -13 -23 -13 -49 l0 -44 44 0 c24 0 47 5 49 10 3 6 4 5 3
-2 -2 -9 -20 -13 -52 -13 l-49 0 -3 39 c-4 45 3 66 20 65 10 0 10 -2 1 -6z
m-2933 -43 c0 -5 -4 -10 -10 -10 -5 0 -10 5 -10 10 0 6 5 10 10 10 6 0 10 -4
10 -10z m650 0 c0 -5 -4 -10 -10 -10 -5 0 -10 5 -10 10 0 6 5 10 10 10 6 0 10
-4 10 -10z m2005 -8 c-3 -3 -11 0 -18 7 -9 10 -8 11 6 5 10 -3 15 -9 12 -12z
m-2308 -344 c-2 -18 -4 -6 -4 27 0 33 2 48 4 33 2 -15 2 -42 0 -60z m390 5
c-2 -16 -4 -3 -4 27 0 30 2 43 4 28 2 -16 2 -40 0 -55z m-1200 61 c-3 -3 -12
-4 -19 -1 -8 3 -5 6 6 6 11 1 17 -2 13 -5z m1320 -46 c-2 -13 -4 -5 -4 17 -1
22 1 32 4 23 2 -10 2 -28 0 -40z m147 43 c3 -4 -6 -6 -19 -3 -14 2 -25 6 -25
8 0 8 39 4 44 -5z m-1511 -16 c-3 -9 -8 -14 -10 -11 -3 3 -2 9 2 15 9 16 15
13 8 -4z m819 -3 c-15 -5 -16 -58 -2 -65 6 -3 5 -4 -2 -3 -12 3 -30 71 -20 80
2 3 11 2 20 -2 10 -4 12 -7 4 -10z m-399 -65 c8 -6 7 -7 -3 -4 -10 2 -15 17
-16 43 -1 37 -1 38 3 4 3 -19 10 -39 16 -43z m34 11 c-2 -13 -4 -3 -4 22 0 25
2 35 4 23 2 -13 2 -33 0 -45z m253 58 c0 -2 -7 -7 -16 -10 -8 -3 -12 -2 -9 4
6 10 25 14 25 6z m381 -19 c-10 -9 -11 -8 -5 6 3 10 9 15 12 12 3 -3 0 -11 -7
-18z m-884 -39 c-2 -13 -4 -5 -4 17 -1 22 1 32 4 23 2 -10 2 -28 0 -40z m390
0 c-2 -13 -4 -5 -4 17 -1 22 1 32 4 23 2 -10 2 -28 0 -40z m393 38 c0 -8 -13
-16 -30 -18 -16 -3 -30 -1 -30 4 0 4 11 8 25 8 14 0 25 5 25 10 0 6 2 10 5 10
3 0 5 -6 5 -14z m-873 -28 c-3 -7 -5 -2 -5 12 0 14 2 19 5 13 2 -7 2 -19 0
-25z m140 -15 c-3 -10 -5 -2 -5 17 0 19 2 27 5 18 2 -10 2 -26 0 -35z m83 35
c0 -5 -11 -8 -25 -8 -31 0 -33 -18 -2 -30 13 -5 16 -9 7 -9 -20 -1 -40 18 -40
39 0 10 10 15 30 15 17 0 30 -3 30 -7z m307 -35 c-3 -10 -5 -2 -5 17 0 19 2
27 5 18 2 -10 2 -26 0 -35z m260 0 c-3 -10 -5 -2 -5 17 0 19 2 27 5 18 2 -10
2 -26 0 -35z m293 29 c-14 -2 -28 -9 -32 -16 -5 -7 -8 -3 -8 10 0 18 5 20 33
15 29 -5 30 -6 7 -9z m97 -14 c-3 -7 -5 -2 -5 12 0 14 2 19 5 13 2 -7 2 -19 0
-25z m217 18 c-3 -9 -13 -12 -27 -8 -21 6 -21 6 3 13 14 4 26 7 27 8 1 1 0 -5
-3 -13z m-1510 -22 c3 -8 2 -12 -4 -9 -6 3 -10 10 -10 16 0 14 7 11 14 -7z
m522 -13 c-4 -6 -15 -10 -24 -10 -15 1 -14 2 1 6 12 3 16 10 12 21 -5 13 -3
14 6 5 6 -6 8 -16 5 -22z m547 4 c-3 -9 -8 -14 -10 -11 -3 3 -2 9 2 15 9 16
15 13 8 -4z m49 -7 c-7 -7 -12 -8 -12 -2 0 14 12 26 19 19 2 -3 -1 -11 -7 -17z
m-417 -6 c-3 -3 -11 0 -18 7 -9 10 -8 11 6 5 10 -3 15 -9 12 -12z m-658 2 c-3
-3 -12 -4 -19 -1 -8 3 -5 6 6 6 11 1 17 -2 13 -5z m1160 0 c-3 -3 -12 -4 -19
-1 -8 3 -5 6 6 6 11 1 17 -2 13 -5z m386 -1 c-7 -2 -19 -2 -25 0 -7 3 -2 5 12
5 14 0 19 -2 13 -5z m-868 -33 c-3 -5 -14 -10 -23 -9 -14 0 -13 2 3 9 27 11
27 11 20 0z m-628 -372 c18 -17 23 -32 23 -69 0 -26 -3 -50 -7 -52 -5 -3 -6
17 -4 45 4 61 -16 88 -66 88 l-33 0 -2 -67 -2 -68 -3 59 c-2 32 -2 65 1 72 8
22 67 17 93 -8z m520 -80 c-2 -18 -4 -6 -4 27 0 33 2 48 4 33 2 -15 2 -42 0
-60z m253 28 c0 -51 -1 -53 -26 -52 -34 1 -53 29 -38 54 7 9 21 17 33 16 14 0
21 5 21 18 0 10 2 18 5 18 3 0 5 -24 5 -54z m-576 28 c33 -32 8 -84 -40 -84
-22 0 -24 4 -24 50 0 46 2 50 24 50 14 0 32 -7 40 -16z m696 10 c0 -3 -11 -22
-25 -42 l-25 -37 27 -6 c25 -6 24 -7 -10 -8 -41 -1 -41 -1 -5 51 23 33 23 36
-4 41 -17 3 -14 5 10 6 17 0 32 -1 32 -5z m45 -44 c0 -44 -3 -50 -20 -49 -11
0 -14 3 -7 6 6 2 12 22 12 43 0 21 -6 41 -12 43 -7 3 -4 6 7 6 17 1 20 -5 20
-49z m80 20 c0 -18 -6 -26 -22 -28 -13 -2 -23 -12 -26 -25 -2 -12 -5 2 -6 31
-1 53 -1 53 27 50 21 -2 27 -8 27 -28z m-730 -30 c0 -31 -3 -35 -25 -35 -19 0
-26 6 -28 23 -5 36 5 54 30 50 19 -2 23 -9 23 -38z m35 21 c0 -27 18 -36 22
-11 4 28 22 30 26 3 4 -28 22 -31 22 -4 0 11 4 22 9 25 5 3 4 -12 -1 -34 -13
-48 -24 -51 -34 -7 l-7 32 -10 -32 c-13 -44 -22 -41 -35 7 -5 23 -6 40 -1 40
5 0 9 -9 9 -19z m162 7 c11 -18 10 -68 -2 -68 -5 0 -10 16 -10 35 0 43 -27 49
-36 8 -10 -48 -12 -49 -13 -8 -1 37 1 41 26 43 15 1 30 -4 35 -10z m116 0 c17
-17 15 -43 -4 -59 -31 -26 -70 25 -44 56 15 18 32 19 48 3z m82 -28 c0 -36 -3
-40 -24 -40 -13 0 -26 6 -29 14 -6 16 11 36 30 36 19 0 16 18 -4 23 -14 4 -12
5 5 6 19 1 22 -4 22 -39z m-710 -45 c0 -16 -6 -25 -15 -25 -9 0 -15 9 -15 25
0 16 6 25 15 25 9 0 15 -9 15 -25z"/>
<path d="M2274 2986 c-8 -22 3 -49 19 -43 6 2 12 14 12 27 0 27 -22 39 -31 16z"/>
<path d="M2367 2993 c-11 -10 -8 -41 4 -49 17 -10 32 12 24 35 -6 21 -16 26
-28 14z"/>
<path d="M3550 2970 c0 -11 7 -20 15 -20 8 0 15 9 15 20 0 11 -7 20 -15 20 -8
0 -15 -9 -15 -20z"/>
<path d="M3640 2970 c0 -11 7 -20 15 -20 8 0 15 9 15 20 0 11 -7 20 -15 20 -8
0 -15 -9 -15 -20z"/>
<path d="M2197 2990 c-3 -12 0 -20 8 -20 8 0 11 8 8 20 -3 11 -7 20 -8 20 -1
0 -5 -9 -8 -20z"/>
<path d="M2605 2990 c-3 -5 3 -10 15 -10 12 0 18 5 15 10 -3 6 -10 10 -15 10
-5 0 -12 -4 -15 -10z"/>
<path d="M3728 2983 c7 -3 16 -2 19 1 4 3 -2 6 -13 5 -11 0 -14 -3 -6 -6z"/>
<path d="M3960 2819 c0 -54 -2 -60 -15 -49 -26 22 -30 1 -5 -25 21 -22 32 -25
75 -23 49 3 50 4 53 38 4 40 -16 60 -60 60 -24 0 -28 4 -28 30 0 17 -4 30 -10
30 -6 0 -10 -27 -10 -61z"/>
<path d="M2844 2586 c-8 -22 3 -49 19 -43 6 2 12 14 12 27 0 27 -22 39 -31 16z"/>
<path d="M964 2586 c-8 -22 3 -49 19 -43 6 2 12 14 12 27 0 27 -22 39 -31 16z"/>
<path d="M1110 2555 c0 -8 7 -15 15 -15 8 0 15 7 15 15 0 8 -7 15 -15 15 -8 0
-15 -7 -15 -15z"/>
<path d="M2756 2585 c-7 -20 3 -45 19 -45 16 0 26 25 19 45 -4 8 -12 15 -19
15 -7 0 -15 -7 -19 -15z"/>
<path d="M2930 2590 c0 -5 7 -10 15 -10 8 0 15 5 15 10 0 6 -7 10 -15 10 -8 0
-15 -4 -15 -10z"/>
<path d="M3077 2588 c-6 -21 4 -48 19 -48 9 0 14 11 14 30 0 30 -24 43 -33 18z"/>
<path d="M3160 2554 c0 -9 5 -14 12 -12 18 6 21 28 4 28 -9 0 -16 -7 -16 -16z"/>
<path d="M3310 2590 c0 -5 7 -10 16 -10 8 0 12 5 9 10 -3 6 -10 10 -16 10 -5
0 -9 -4 -9 -10z"/>
<path d="M324 2157 c-3 -8 -4 -34 -2 -58 l3 -44 65 0 65 0 0 55 0 55 -63 3
c-47 2 -64 -1 -68 -11z m45 -62 c-14 -14 -16 -13 -16 15 0 28 2 29 16 15 14
-13 14 -17 0 -30z m54 -12 c-7 -2 -19 -2 -25 0 -7 3 -2 5 12 5 14 0 19 -2 13
-5z"/>
<path d="M710 2100 c0 -13 5 -20 13 -17 6 2 12 10 12 17 0 7 -6 15 -12 18 -8
2 -13 -5 -13 -18z"/>
<path d="M2000 1680 c0 -11 7 -20 15 -20 8 0 15 9 15 20 0 11 -7 20 -15 20 -8
0 -15 -9 -15 -20z"/>
<path d="M690 1710 c0 -5 7 -10 15 -10 8 0 15 5 15 10 0 6 -7 10 -15 10 -8 0
-15 -4 -15 -10z"/>
<path d="M3810 1235 l0 -45 45 0 45 0 0 45 0 45 -45 0 -45 0 0 -45z"/>
<path d="M1394 1225 c-3 -8 -3 -19 1 -25 11 -18 25 -11 25 15 0 27 -17 34 -26
10z"/>
<path d="M2904 1225 c-3 -8 -3 -19 1 -25 11 -18 25 -11 25 15 0 27 -17 34 -26
10z"/>
<path d="M674 1225 c-3 -8 -3 -19 1 -25 11 -18 25 -11 25 15 0 27 -17 34 -26
10z"/>
<path d="M1030 1215 c0 -16 6 -25 15 -25 9 0 15 9 15 25 0 16 -6 25 -15 25 -9
0 -15 -9 -15 -25z"/>
<path d="M1610 1215 c0 -16 6 -25 15 -25 9 0 15 9 15 25 0 16 -6 25 -15 25 -9
0 -15 -9 -15 -25z"/>
<path d="M2330 1200 c0 -5 4 -10 9 -10 6 0 13 5 16 10 3 6 -1 10 -9 10 -9 0
-16 -4 -16 -10z"/>
<path d="M2545 1230 c-3 -5 1 -10 9 -10 9 0 16 5 16 10 0 6 -4 10 -9 10 -6 0
-13 -4 -16 -10z"/>
<path d="M2760 1200 c0 -5 4 -10 9 -10 6 0 13 5 16 10 3 6 -1 10 -9 10 -9 0
-16 -4 -16 -10z"/>
<path d="M2980 1230 c0 -5 7 -10 16 -10 8 0 12 5 9 10 -3 6 -10 10 -16 10 -5
0 -9 -4 -9 -10z"/>
<path d="M3124 1225 c-3 -8 -3 -19 1 -25 11 -18 25 -11 25 15 0 27 -17 34 -26
10z"/>
<path d="M3264 1225 c-9 -23 14 -45 26 -25 5 8 8 19 7 24 -6 17 -27 18 -33 1z"/>
<path d="M1150 340 c0 -25 4 -31 18 -28 11 2 17 12 17 28 0 16 -6 26 -17 28
-14 3 -18 -3 -18 -28z"/>
<path d="M570 350 c0 -33 3 -40 20 -40 10 0 24 9 30 20 14 26 -3 60 -30 60
-17 0 -20 -7 -20 -40z"/>
<path d="M1400 370 c0 -15 5 -20 18 -18 9 2 17 10 17 18 0 8 -8 16 -17 18 -13
2 -18 -3 -18 -18z"/>
<path d="M674 356 c-8 -22 3 -49 19 -43 6 2 12 14 12 27 0 27 -22 39 -31 16z"/>
<path d="M987 355 c-9 -22 3 -46 22 -43 10 2 16 13 16 28 0 28 -29 40 -38 15z"/>
<path d="M1070 325 c0 -8 7 -15 15 -15 8 0 15 7 15 15 0 8 -7 15 -15 15 -8 0
-15 -7 -15 -15z"/>
<path d="M381 294 c0 -11 3 -14 6 -6 3 7 2 16 -1 19 -3 4 -6 -2 -5 -13z"/>
<path d="M52 128 c-7 -7 -12 -38 -12 -70 l0 -58 35 0 35 0 0 54 c0 30 -3 61
-6 70 -7 19 -35 21 -52 4z"/>
<path d="M1275 45 c-3 -8 -7 -22 -10 -30 -3 -12 7 -15 56 -15 52 0 60 2 55 16
-3 9 -6 22 -6 30 0 20 -89 20 -95 -1z"/>
<path d="M1685 10 c-3 -5 -1 -10 4 -10 6 0 11 5 11 10 0 6 -2 10 -4 10 -3 0
-8 -4 -11 -10z"/>
</g>
</svg>
