<?xml version="1.0" standalone="no"?>
<!DOCTYPE svg PUBLIC "-//W3C//DTD SVG 20010904//EN"
 "http://www.w3.org/TR/2001/REC-SVG-20010904/DTD/svg10.dtd">
<svg version="1.0" xmlns="http://www.w3.org/2000/svg"
 width="752.000000pt" height="289.000000pt" viewBox="0 0 752.000000 289.000000"
 preserveAspectRatio="xMidYMid meet">

<g transform="translate(0.000000,289.000000) scale(0.100000,-0.100000)"
fill="#000000" stroke="none">
<path d="M0 1445 l0 -1445 3760 0 3760 0 0 1445 0 1445 -3760 0 -3760 0 0
-1445z m95 1365 c21 -40 18 -62 -3 -25 l-17 30 -6 -50 -6 -50 -1 63 c-2 68 9
79 33 32z m45 -31 c0 -44 -3 -60 -12 -56 -7 2 -13 11 -12 20 0 10 1 35 2 57 3
64 22 46 22 -21z m84 14 c19 -55 22 -89 5 -60 -12 21 -59 23 -59 2 0 -8 -4
-15 -9 -15 -9 0 12 91 26 113 10 17 22 4 37 -40z m86 22 c11 28 13 28 20 10 5
-11 8 -40 8 -65 -1 -43 -2 -43 -5 -7 -2 20 -8 37 -14 37 -5 0 -9 -4 -9 -10 0
-19 -19 -10 -27 13 -6 18 -9 13 -14 -28 l-6 -50 -1 56 c-2 65 8 82 25 42 l11
-28 12 30z m103 18 c-25 -3 -33 -9 -33 -24 0 -14 7 -19 28 -20 l27 -2 -27 -4
c-22 -3 -28 -10 -28 -28 0 -19 6 -24 33 -28 31 -4 31 -4 -5 -5 l-38 -2 0 60 0
60 38 -2 c36 -1 36 -1 5 -5z m3801 1 c18 -7 22 -49 6 -59 -6 -4 -4 -16 6 -31
9 -13 12 -24 7 -24 -5 0 -15 12 -22 26 -13 30 -33 27 -42 -7 -5 -15 -7 -2 -8
39 -1 65 7 74 53 56z m99 -1 c-25 -3 -33 -9 -33 -24 0 -14 7 -19 28 -20 l27
-2 -27 -4 c-22 -3 -28 -10 -28 -28 0 -19 6 -24 33 -28 31 -4 31 -4 -5 -5 l-38
-2 0 60 0 60 38 -2 c36 -1 36 -1 5 -5z m111 -40 c19 -55 22 -89 5 -60 -12 21
-59 23 -59 2 0 -8 -4 -15 -9 -15 -9 0 12 91 26 113 10 17 22 4 37 -40z m98 30
c37 -33 11 -103 -39 -103 -22 0 -23 4 -23 60 0 55 2 60 22 60 12 0 30 -7 40
-17z m92 -14 c10 18 20 31 22 28 3 -3 -2 -19 -10 -36 -9 -16 -16 -41 -16 -56
0 -14 -4 -25 -10 -25 -5 0 -10 12 -10 28 0 15 -7 36 -15 46 -8 11 -15 27 -15
35 1 9 9 1 19 -18 l19 -35 16 33z m416 22 c0 -5 -8 -7 -19 -4 -34 9 -34 -18 0
-47 29 -24 32 -30 20 -44 -14 -16 -61 -23 -61 -8 0 5 10 8 22 8 32 -1 34 28 3
42 -23 11 -33 40 -18 55 10 10 53 8 53 -2z m98 2 c-14 -4 -18 -15 -18 -59 0
-30 -4 -54 -10 -54 -5 0 -10 24 -10 54 0 44 -4 55 -17 59 -10 3 2 5 27 5 25 0
37 -2 28 -5z m96 -40 c19 -55 22 -89 5 -60 -12 21 -59 23 -59 2 0 -8 -4 -15
-9 -15 -9 0 12 91 26 113 10 17 22 4 37 -40z m104 40 c-14 -4 -18 -15 -18 -59
0 -30 -4 -54 -10 -54 -5 0 -10 24 -10 54 0 44 -4 55 -17 59 -10 3 2 5 27 5 25
0 37 -2 28 -5z m57 -93 c23 -19 35 -2 35 51 0 27 5 49 11 49 18 0 6 -101 -13
-114 -33 -20 -53 4 -54 65 -1 50 -1 51 3 7 2 -25 10 -52 18 -58z m145 91 c0
-5 -8 -7 -19 -4 -34 9 -34 -18 0 -47 29 -24 32 -30 20 -44 -14 -16 -61 -23
-61 -8 0 5 10 8 22 8 32 -1 34 28 3 42 -23 11 -33 40 -18 55 10 10 53 8 53 -2z
m484 3 c18 -7 22 -49 6 -59 -6 -4 -4 -16 6 -31 9 -13 12 -24 7 -24 -5 0 -15
12 -22 26 -13 30 -33 27 -42 -7 -5 -15 -7 -2 -8 39 -1 65 7 74 53 56z m99 -1
c-25 -3 -33 -9 -33 -24 0 -14 7 -19 28 -20 l27 -2 -27 -4 c-22 -3 -28 -10 -28
-28 0 -19 6 -24 33 -28 31 -4 31 -4 -5 -5 l-38 -2 0 60 0 60 38 -2 c36 -1 36
-1 5 -5z m117 -2 c0 -5 -8 -7 -19 -4 -34 9 -34 -18 0 -47 29 -24 32 -30 20
-44 -14 -16 -61 -23 -61 -8 0 5 10 8 22 8 32 -1 34 28 3 42 -23 11 -33 40 -18
55 10 10 53 8 53 -2z m98 2 c-14 -4 -18 -15 -18 -59 0 -30 -4 -54 -10 -54 -5
0 -10 24 -10 54 0 44 -4 55 -17 59 -10 3 2 5 27 5 25 0 37 -2 28 -5z m96 -40
c19 -55 22 -89 5 -60 -12 21 -59 23 -59 2 0 -8 -4 -15 -9 -15 -9 0 12 91 26
113 10 17 22 4 37 -40z m90 41 c18 -7 22 -49 6 -59 -6 -4 -4 -16 6 -31 9 -13
12 -24 7 -24 -5 0 -15 12 -22 26 -13 30 -33 27 -42 -7 -5 -15 -7 -2 -8 39 -1
65 7 74 53 56z m114 -1 c-14 -4 -18 -15 -18 -59 0 -30 -4 -54 -10 -54 -5 0
-10 24 -10 54 0 44 -4 55 -17 59 -10 3 2 5 27 5 25 0 37 -2 28 -5z m102 -2 c0
-5 -8 -7 -19 -4 -34 9 -34 -18 0 -47 29 -24 32 -30 20 -44 -14 -16 -61 -23
-61 -8 0 5 10 8 22 8 32 -1 34 28 3 42 -23 11 -33 40 -18 55 10 10 53 8 53 -2z
m394 -38 c19 -55 22 -89 5 -60 -12 21 -59 23 -59 2 0 -8 -4 -15 -9 -15 -9 0
12 91 26 113 10 17 22 4 37 -40z m106 37 c0 -5 -6 -7 -12 -5 -23 8 -41 -12
-41 -45 0 -51 41 -66 55 -19 6 22 7 21 5 -6 -1 -22 -8 -31 -23 -33 -47 -7 -72
62 -37 100 17 19 53 25 53 8z m83 3 c-25 -3 -33 -9 -33 -24 0 -14 7 -19 28
-20 l27 -2 -27 -4 c-22 -3 -28 -10 -28 -28 0 -19 6 -24 33 -28 31 -4 31 -4 -5
-5 l-38 -2 0 60 0 60 38 -2 c36 -1 36 -1 5 -5z m-7083 -268 c0 -61 -1 -65 -23
-65 -29 0 -47 18 -47 45 0 26 18 45 42 45 11 0 18 7 18 20 0 11 2 20 5 20 3 0
5 -29 5 -65z m470 55 c0 -5 -4 -10 -10 -10 -5 0 -10 5 -10 10 0 6 5 10 10 10
6 0 10 -4 10 -10z m623 0 c-27 -11 -30 -30 -5 -31 16 -1 16 -2 0 -6 -13 -3
-18 -15 -18 -44 0 -21 -4 -39 -10 -39 -5 0 -10 18 -10 40 0 22 -4 40 -10 40
-5 0 0 11 12 25 12 14 31 25 42 24 20 0 20 -1 -1 -9z m107 -55 c0 -61 -1 -65
-23 -65 -29 0 -47 18 -47 45 0 26 18 45 42 45 11 0 18 7 18 20 0 11 2 20 5 20
3 0 5 -29 5 -65z m150 45 c0 -13 7 -20 18 -20 24 0 42 -19 42 -46 0 -28 -23
-46 -52 -42 -21 3 -23 9 -26 66 -2 38 1 62 8 62 5 0 10 -9 10 -20z m2724 -64
c-14 -42 -28 -75 -31 -72 -3 3 5 35 17 73 25 74 30 86 36 80 2 -2 -8 -38 -22
-81z m1096 74 c0 -5 -4 -10 -10 -10 -5 0 -10 5 -10 10 0 6 5 10 10 10 6 0 10
-4 10 -10z m-4287 -7 c-22 -4 -34 -43 -14 -43 5 0 17 -7 25 -16 23 -22 4 -54
-32 -53 l-27 1 25 7 c35 10 38 39 6 47 -28 7 -29 8 -20 42 5 16 13 22 33 21
23 -2 24 -2 4 -6z m118 -36 c2 -24 3 -51 1 -60 -4 -21 -22 -22 -22 -2 0 9 -9
15 -25 15 -14 0 -25 3 -25 6 0 19 47 84 61 84 4 0 9 -20 10 -43z m500 0 c2
-24 3 -51 1 -60 -4 -21 -22 -22 -22 -2 0 9 -9 15 -25 15 -14 0 -25 3 -25 6 0
19 47 84 61 84 4 0 9 -20 10 -43z m77 27 c-32 -17 -37 -34 -9 -34 28 0 47 -28
34 -48 -24 -40 -73 -16 -73 35 0 27 33 63 58 63 12 -1 9 -5 -10 -16z m123 -27
c2 -24 3 -51 1 -60 -4 -21 -22 -22 -22 -2 0 9 -9 15 -25 15 -14 0 -25 3 -25 6
0 19 47 84 61 84 4 0 9 -20 10 -43z m77 27 c-32 -17 -37 -34 -9 -34 28 0 47
-28 34 -48 -24 -40 -73 -16 -73 35 0 27 33 63 58 63 12 -1 9 -5 -10 -16z m219
-19 c1 -16 3 -38 5 -49 2 -10 -5 -23 -14 -30 -29 -18 -53 4 -53 50 -1 47 11
66 39 62 15 -2 22 -11 23 -33z m101 13 c2 -10 -8 -33 -23 -52 l-26 -35 33 -4
c29 -3 27 -4 -11 -5 -43 -2 -43 -2 -27 21 9 12 23 32 32 44 20 28 9 46 -23 38
-17 -4 -22 -2 -18 5 11 17 59 7 63 -12z m302 1 c22 -41 -9 -100 -52 -99 -7 1
-1 8 15 16 34 18 35 34 3 34 -16 0 -27 7 -31 20 -14 44 44 69 65 29z m1593
-91 c7 -4 -4 -7 -23 -7 -19 1 -27 3 -17 6 13 3 17 15 17 48 0 38 -3 43 -17 38
-15 -5 -14 -3 2 10 19 15 20 14 23 -36 2 -28 9 -55 15 -59z m200 0 c7 -4 -4
-7 -23 -7 -19 1 -27 3 -17 6 13 3 17 15 17 48 0 38 -3 43 -17 38 -15 -5 -14
-3 2 10 19 15 20 14 23 -36 2 -28 9 -55 15 -59z m591 106 c18 -7 22 -49 6 -59
-6 -4 -4 -16 6 -31 9 -13 12 -24 7 -24 -5 0 -15 12 -22 26 -13 30 -33 27 -42
-7 -5 -15 -7 -2 -8 39 -1 65 7 74 53 56z m1020 -26 c20 -57 -29 -115 -61 -72
-16 22 -17 58 -2 85 15 29 51 21 63 -13z m1093 -3 c1 -16 3 -38 5 -49 2 -10
-5 -23 -14 -30 -29 -18 -53 4 -53 50 -1 47 11 66 39 62 15 -2 22 -11 23 -33z
m113 32 c0 -1 -9 -20 -20 -42 -11 -22 -20 -47 -20 -57 0 -10 -5 -18 -11 -18
-11 0 -7 21 16 77 13 32 13 32 -18 36 -27 3 -25 4 11 5 23 1 42 1 42 -1z
m-7112 -74 c3 -40 1 -43 -21 -43 -34 0 -54 25 -37 45 7 8 22 15 33 15 24 0 12
15 -18 23 -12 3 -8 5 10 4 28 -2 30 -5 33 -44z m180 40 c-35 -5 -36 -21 -2
-33 34 -13 29 -44 -9 -48 -15 -2 -27 1 -27 6 0 6 8 8 19 5 30 -8 35 16 7 27
-43 16 -33 51 13 49 l26 -2 -27 -4z m120 -5 c23 -23 13 -38 -24 -38 -31 0 -35
-2 -24 -14 6 -8 21 -17 33 -19 19 -4 19 -4 -4 -6 -30 -1 -49 15 -49 44 0 25
18 45 40 45 9 0 21 -5 28 -12z m85 5 c-19 -4 -23 -11 -23 -44 0 -21 -4 -39
-10 -39 -11 0 -14 73 -3 83 3 4 18 6 32 6 24 -2 24 -2 4 -6z m68 -23 c6 -16
15 -30 19 -30 5 0 11 14 15 30 4 17 11 30 16 30 12 0 12 -3 -7 -50 -9 -22 -20
-40 -24 -40 -7 0 -40 71 -40 85 0 15 13 1 21 -25z m119 -5 c0 -22 6 -38 18
-45 15 -10 15 -10 -3 -8 -15 2 -21 12 -23 40 -2 24 -9 38 -20 41 -12 3 -11 5
6 6 19 1 22 -4 22 -34z m115 28 c-49 -11 -51 -67 -3 -76 21 -4 21 -4 -3 -6
-31 -1 -49 15 -49 46 0 24 24 43 55 42 l20 -1 -20 -5z m113 -5 c23 -23 13 -38
-24 -38 -31 0 -35 -2 -24 -14 6 -8 21 -17 33 -19 19 -4 19 -4 -4 -6 -30 -1
-49 15 -49 44 0 25 18 45 40 45 9 0 21 -5 28 -12z m587 5 c-49 -11 -51 -67 -3
-76 21 -4 21 -4 -2 -6 -32 -1 -50 15 -50 46 0 24 24 43 55 42 l20 -1 -20 -5z
m900 0 c-49 -11 -51 -67 -3 -76 21 -4 21 -4 -2 -6 -32 -1 -50 15 -50 46 0 24
24 43 55 42 l20 -1 -20 -5z m111 -43 l2 -45 -7 40 c-4 27 -12 41 -23 43 -15 3
-18 -4 -18 -37 0 -23 -4 -41 -10 -41 -11 0 -14 73 -3 84 4 4 19 6 33 4 22 -3
25 -8 26 -48z m2556 13 c2 -26 8 -39 20 -41 13 -3 18 6 21 40 l4 43 1 -47 c2
-45 0 -48 -23 -48 -27 0 -45 25 -45 64 0 40 18 30 22 -11z m144 -13 l2 -45 -7
40 c-4 27 -12 41 -23 43 -15 3 -18 -4 -18 -37 0 -23 -4 -41 -10 -41 -11 0 -14
73 -3 84 4 4 19 6 33 4 22 -3 25 -8 26 -48z m100 0 l2 -45 -7 40 c-4 27 -12
41 -23 43 -15 3 -18 -4 -18 -37 0 -23 -4 -41 -10 -41 -11 0 -14 73 -3 84 4 4
19 6 33 4 22 -3 25 -8 26 -48z m74 15 c0 -22 6 -38 18 -45 15 -10 15 -10 -3
-8 -15 2 -21 12 -23 40 -2 24 -9 38 -20 41 -12 3 -11 5 6 6 19 1 22 -4 22 -34z
m126 -15 l2 -45 -7 40 c-4 27 -12 41 -23 43 -15 3 -18 -4 -18 -37 0 -23 -4
-41 -10 -41 -11 0 -14 73 -3 84 4 4 19 6 33 4 22 -3 25 -8 26 -48z m102 -7
c-3 -57 -4 -58 -33 -60 -18 -1 -22 1 -10 4 30 8 43 23 19 23 -26 0 -44 19 -44
45 0 28 18 45 47 45 23 0 24 -3 21 -57z m1708 7 c1 -35 0 -37 -3 -10 -5 41
-23 66 -23 32 0 -12 -4 -22 -10 -22 -5 0 -10 9 -10 20 0 38 -19 20 -23 -22
l-4 -43 -1 48 -2 48 38 -3 c37 -3 37 -3 38 -48z m-6323 3 c-7 -2 -19 -2 -25 0
-7 3 -2 5 12 5 14 0 19 -2 13 -5z m1100 0 c-7 -2 -19 -2 -25 0 -7 3 -2 5 12 5
14 0 19 -2 13 -5z m-1213 -143 c0 -5 -4 -10 -10 -10 -5 0 -10 5 -10 10 0 6 5
10 10 10 6 0 10 -4 10 -10z m530 -55 c0 -61 -1 -65 -23 -65 -29 0 -47 18 -47
45 0 26 18 45 42 45 11 0 18 7 18 20 0 11 2 20 5 20 3 0 5 -29 5 -65z m250 45
c0 -13 7 -20 18 -20 24 0 42 -19 42 -46 0 -28 -23 -46 -52 -42 -21 3 -23 9
-26 66 -2 38 1 62 8 62 5 0 10 -9 10 -20z m100 0 c0 -13 7 -20 18 -20 24 0 42
-19 42 -46 0 -28 -23 -46 -52 -42 -21 3 -23 9 -26 66 -2 38 1 62 8 62 5 0 10
-9 10 -20z m250 -45 c0 -61 -1 -65 -23 -65 -29 0 -47 18 -47 45 0 26 18 45 42
45 11 0 18 7 18 20 0 11 2 20 5 20 3 0 5 -29 5 -65z m93 55 c-27 -11 -30 -30
-5 -31 16 -1 16 -2 0 -6 -13 -3 -18 -15 -18 -44 0 -21 -4 -39 -10 -39 -5 0
-10 18 -10 40 0 22 -4 40 -10 40 -5 0 0 11 12 25 12 14 31 25 42 24 20 0 20
-1 -1 -9z m2181 -74 c-14 -42 -28 -75 -31 -72 -3 3 5 35 17 73 25 74 30 86 36
80 2 -2 -8 -38 -22 -81z m1096 74 c0 -5 -4 -10 -10 -10 -5 0 -10 5 -10 10 0 6
5 10 10 10 6 0 10 -4 10 -10z m-4060 -3 c0 -1 -9 -20 -20 -42 -11 -22 -20 -47
-20 -57 0 -10 -5 -18 -11 -18 -11 0 -7 21 16 77 13 32 13 32 -18 36 -27 3 -25
4 11 5 23 1 42 1 42 -1z m200 0 c0 -1 -9 -20 -20 -42 -11 -22 -20 -47 -20 -57
0 -10 -5 -18 -11 -18 -11 0 -7 21 16 77 13 32 13 32 -18 36 -27 3 -25 4 11 5
23 1 42 1 42 -1z m68 -13 c-32 -17 -37 -34 -9 -34 28 0 47 -28 34 -48 -24 -40
-73 -16 -73 35 0 27 33 63 58 63 12 -1 9 -5 -10 -16z m322 -5 c22 -41 -9 -100
-52 -99 -7 1 -1 8 15 16 34 18 35 34 3 34 -16 0 -27 7 -31 20 -14 44 44 69 65
29z m578 5 c-32 -17 -37 -34 -9 -34 28 0 47 -28 34 -48 -24 -40 -73 -16 -73
35 0 27 33 63 58 63 12 -1 9 -5 -10 -16z m119 -19 c1 -16 3 -38 5 -49 2 -10
-5 -23 -14 -30 -29 -18 -53 4 -53 50 -1 47 11 66 39 62 15 -2 22 -11 23 -33z
m1596 -77 c7 -4 -4 -7 -23 -7 -19 1 -27 3 -17 6 13 3 17 15 17 48 0 38 -3 43
-17 38 -15 -5 -14 -3 2 10 19 15 20 14 23 -36 2 -28 9 -55 15 -59z m200 0 c7
-4 -4 -7 -23 -7 -19 1 -27 3 -17 6 13 3 17 15 17 48 0 38 -3 43 -17 38 -15 -5
-14 -3 2 10 19 15 20 14 23 -36 2 -28 9 -55 15 -59z m591 106 c18 -7 22 -49 6
-59 -6 -4 -4 -16 6 -31 9 -13 12 -24 7 -24 -5 0 -15 12 -22 26 -13 30 -33 27
-42 -7 -5 -15 -7 -2 -8 39 -1 65 7 74 53 56z m1020 -26 c20 -57 -29 -115 -61
-72 -16 22 -17 58 -2 85 15 29 51 21 63 -13z m1093 -3 c1 -16 3 -38 5 -49 2
-10 -5 -23 -14 -30 -29 -18 -53 4 -53 50 -1 47 11 66 39 62 15 -2 22 -11 23
-33z m113 32 c0 -1 -9 -20 -20 -42 -11 -22 -20 -47 -20 -57 0 -10 -5 -18 -11
-18 -11 0 -7 21 16 77 13 32 13 32 -18 36 -27 3 -25 4 11 5 23 1 42 1 42 -1z
m-6840 -17 c0 -5 8 -11 18 -11 16 -1 16 -2 0 -6 -13 -3 -18 -14 -18 -38 0 -24
5 -35 18 -38 13 -4 12 -5 -4 -6 -23 -1 -34 16 -34 55 0 13 -5 24 -10 24 -6 0
-5 6 2 15 15 17 28 19 28 5z m-285 -17 c-49 -11 -51 -67 -3 -76 21 -4 21 -4
-2 -6 -32 -1 -50 15 -50 46 0 24 24 43 55 42 l20 -1 -20 -5z m113 -40 c3 -40
1 -43 -21 -43 -34 0 -54 25 -37 45 7 8 22 15 33 15 24 0 12 15 -18 23 -12 3
-8 5 10 4 28 -2 30 -5 33 -44z m85 40 c-19 -4 -23 -11 -23 -44 0 -21 -4 -39
-10 -39 -11 0 -14 73 -3 83 3 4 18 6 32 6 24 -2 24 -2 4 -6z m195 0 c-35 -5
-36 -21 -2 -33 34 -13 29 -44 -9 -48 -15 -2 -27 1 -27 6 0 6 8 8 19 5 30 -8
35 16 7 27 -43 16 -33 51 13 49 l26 -2 -27 -4z m120 -5 c23 -23 13 -38 -24
-38 -31 0 -35 -2 -24 -14 6 -8 21 -17 33 -19 19 -4 19 -4 -3 -6 -31 -1 -50 15
-50 44 0 25 18 45 40 45 9 0 21 -5 28 -12z m85 5 c-19 -4 -23 -11 -23 -44 0
-21 -4 -39 -10 -39 -11 0 -14 73 -3 83 3 4 18 6 32 6 24 -2 24 -2 4 -6z m68
-23 c6 -16 15 -30 19 -30 5 0 11 14 15 30 4 17 11 30 16 30 12 0 12 -3 -7 -50
-9 -22 -20 -40 -24 -40 -7 0 -40 71 -40 85 0 15 13 1 21 -25z m119 -5 c0 -22
6 -38 18 -45 15 -10 15 -10 -3 -8 -15 2 -21 12 -23 40 -2 24 -9 38 -20 41 -12
3 -11 5 6 6 19 1 22 -4 22 -34z m115 28 c-49 -11 -51 -67 -3 -76 21 -4 21 -4
-3 -6 -31 -1 -49 15 -49 46 0 24 24 43 55 42 l20 -1 -20 -5z m113 -5 c23 -23
13 -38 -24 -38 -31 0 -35 -2 -24 -14 6 -8 21 -17 33 -19 19 -4 19 -4 -3 -6
-31 -1 -50 15 -50 44 0 25 18 45 40 45 9 0 21 -5 28 -12z m1161 -5 c9 -17 11
-17 25 2 8 11 16 15 16 10 0 -6 -5 -16 -11 -22 -8 -8 -6 -18 6 -37 19 -29 10
-36 -10 -9 -12 17 -15 17 -36 -2 l-23 -20 18 28 c17 27 17 30 0 48 -9 10 -12
19 -6 19 6 0 15 -8 21 -17z m126 10 c-49 -11 -51 -67 -3 -76 21 -4 21 -4 -2
-6 -32 -1 -50 15 -50 46 0 24 24 43 55 42 l20 -1 -20 -5z m321 -43 c1 -35 0
-37 -3 -10 -5 41 -23 66 -23 32 0 -12 -4 -22 -10 -22 -5 0 -10 9 -10 20 0 38
-19 20 -23 -22 l-4 -43 -1 48 -2 48 38 -3 c37 -3 37 -3 38 -48z m2346 13 c2
-26 8 -39 20 -41 13 -3 18 6 21 40 l4 43 1 -47 c2 -45 0 -48 -23 -48 -27 0
-45 25 -45 64 0 40 18 30 22 -11z m144 -13 l2 -45 -7 40 c-4 27 -12 41 -23 43
-15 3 -18 -4 -18 -37 0 -23 -4 -41 -10 -41 -11 0 -14 73 -3 84 4 4 19 6 33 4
22 -3 25 -8 26 -48z m100 0 l2 -45 -7 40 c-4 27 -12 41 -23 43 -15 3 -18 -4
-18 -37 0 -23 -4 -41 -10 -41 -11 0 -14 73 -3 84 4 4 19 6 33 4 22 -3 25 -8
26 -48z m74 15 c0 -22 6 -38 18 -45 15 -10 15 -10 -3 -8 -15 2 -21 12 -23 40
-2 24 -9 38 -20 41 -12 3 -11 5 6 6 19 1 22 -4 22 -34z m126 -15 l2 -45 -7 40
c-4 27 -12 41 -23 43 -15 3 -18 -4 -18 -37 0 -23 -4 -41 -10 -41 -11 0 -14 73
-3 84 4 4 19 6 33 4 22 -3 25 -8 26 -48z m102 -7 c-3 -57 -4 -58 -33 -60 -18
-1 -22 1 -10 4 30 8 43 23 19 23 -26 0 -44 19 -44 45 0 28 18 45 47 45 23 0
24 -3 21 -57z m1708 7 c1 -35 0 -37 -3 -10 -5 41 -23 66 -23 32 0 -12 -4 -22
-10 -22 -5 0 -10 9 -10 20 0 38 -19 20 -23 -22 l-4 -43 -1 48 -2 48 38 -3 c37
-3 37 -3 38 -48z m-6123 3 c-7 -2 -19 -2 -25 0 -7 3 -2 5 12 5 14 0 19 -2 13
-5z m1000 0 c-7 -2 -19 -2 -25 0 -7 3 -2 5 12 5 14 0 19 -2 13 -5z m-2033
-152 c0 -13 8 -21 23 -23 19 -3 22 -9 23 -48 l2 -45 -7 40 c-4 27 -12 41 -23
43 -15 3 -18 -4 -18 -37 0 -23 -4 -41 -10 -41 -6 0 -10 28 -10 65 0 37 4 65
10 65 6 0 10 -9 10 -19z m300 -16 c0 -40 5 -42 34 -17 21 17 21 17 2 -6 -19
-22 -19 -22 4 -47 29 -31 15 -33 -17 -3 l-23 21 0 -21 c0 -12 -4 -22 -10 -22
-6 0 -10 28 -10 65 0 37 4 65 10 65 6 0 10 -16 10 -35z m820 25 c0 -5 -4 -10
-10 -10 -5 0 -10 5 -10 10 0 6 5 10 10 10 6 0 10 -4 10 -10z m530 -55 c0 -61
-1 -65 -23 -65 -29 0 -47 18 -47 45 0 26 18 45 42 45 11 0 18 7 18 20 0 11 2
20 5 20 3 0 5 -29 5 -65z m200 0 c0 -61 -1 -65 -23 -65 -29 0 -47 18 -47 45 0
26 18 45 42 45 11 0 18 7 18 20 0 11 2 20 5 20 3 0 5 -29 5 -65z m400 0 c0
-61 -1 -65 -23 -65 -29 0 -47 18 -47 45 0 26 18 45 42 45 11 0 18 7 18 20 0
11 2 20 5 20 3 0 5 -29 5 -65z m490 55 c0 -5 -4 -10 -10 -10 -5 0 -10 5 -10
10 0 6 5 10 10 10 6 0 10 -4 10 -10z m260 -25 c0 -40 5 -42 34 -17 21 17 21
17 2 -6 -19 -22 -19 -22 4 -47 29 -31 15 -33 -17 -3 l-23 21 0 -21 c0 -12 -4
-22 -10 -22 -6 0 -10 28 -10 65 0 37 4 65 10 65 6 0 10 -16 10 -35z m1124 -49
c-14 -42 -28 -75 -31 -72 -3 3 5 35 17 73 25 74 30 86 36 80 2 -2 -8 -38 -22
-81z m1096 74 c0 -5 -4 -10 -10 -10 -5 0 -10 5 -10 10 0 6 5 10 10 10 6 0 10
-4 10 -10z m-3687 -7 c-22 -4 -34 -43 -14 -43 5 0 17 -7 25 -16 23 -22 4 -54
-32 -53 l-27 1 25 7 c35 10 38 39 6 47 -28 7 -29 8 -20 42 5 16 13 22 33 21
23 -2 24 -2 4 -6z m217 -14 c22 -41 -9 -100 -52 -99 -7 1 -1 8 15 16 34 18 35
34 3 34 -16 0 -27 7 -31 20 -14 44 44 69 65 29z m197 -14 c1 -16 3 -38 5 -49
2 -10 -5 -23 -14 -30 -29 -18 -53 4 -53 50 -1 47 11 66 39 62 15 -2 22 -11 23
-33z m104 -8 c2 -24 3 -51 1 -60 -4 -21 -22 -22 -22 -2 0 9 -9 15 -25 15 -14
0 -25 3 -25 6 0 19 47 84 61 84 4 0 9 -20 10 -43z m300 0 c2 -24 3 -51 1 -60
-4 -21 -22 -22 -22 -2 0 9 -9 15 -25 15 -14 0 -25 3 -25 6 0 19 47 84 61 84 4
0 9 -20 10 -43z m100 0 c2 -24 3 -51 1 -60 -4 -21 -22 -22 -22 -2 0 9 -9 15
-25 15 -14 0 -25 3 -25 6 0 19 47 84 61 84 4 0 9 -20 10 -43z m196 8 c1 -16 3
-38 5 -49 2 -10 -5 -23 -14 -30 -29 -18 -53 4 -53 50 -1 47 11 66 39 62 15 -2
22 -11 23 -33z m1396 -77 c7 -4 -4 -7 -23 -7 -19 1 -27 3 -17 6 13 3 17 15 17
48 0 38 -3 43 -17 38 -15 -5 -14 -3 2 10 19 15 20 14 23 -36 2 -28 9 -55 15
-59z m200 0 c7 -4 -4 -7 -23 -7 -19 1 -27 3 -17 6 13 3 17 15 17 48 0 38 -3
43 -17 38 -15 -5 -14 -3 2 10 19 15 20 14 23 -36 2 -28 9 -55 15 -59z m591
106 c18 -7 22 -49 6 -59 -6 -4 -4 -16 6 -31 9 -13 12 -24 7 -24 -5 0 -15 12
-22 26 -13 30 -33 27 -42 -7 -5 -15 -7 -2 -8 39 -1 65 7 74 53 56z m1020 -26
c20 -57 -29 -115 -61 -72 -16 22 -17 58 -2 85 15 29 51 21 63 -13z m1093 -3
c1 -16 3 -38 5 -49 2 -10 -5 -23 -14 -30 -29 -18 -53 4 -53 50 -1 47 11 66 39
62 15 -2 22 -11 23 -33z m113 32 c0 -1 -9 -20 -20 -42 -11 -22 -20 -47 -20
-57 0 -10 -5 -18 -11 -18 -11 0 -7 21 16 77 13 32 13 32 -18 36 -27 3 -25 4
11 5 23 1 42 1 42 -1z m-6440 -17 c0 -5 8 -11 18 -11 16 -1 16 -2 0 -6 -13 -3
-18 -14 -18 -38 0 -24 5 -35 18 -38 13 -4 12 -5 -4 -6 -23 -1 -34 16 -34 55 0
13 -5 24 -10 24 -6 0 -5 6 2 15 15 17 28 19 28 5z m-685 -17 c-49 -11 -51 -67
-3 -76 21 -4 21 -4 -2 -6 -32 -1 -50 15 -50 46 0 24 24 43 55 42 l20 -1 -20
-5z m213 -5 c23 -23 13 -38 -24 -38 -31 0 -35 -2 -24 -14 6 -8 21 -17 33 -19
19 -4 19 -4 -4 -6 -30 -1 -49 15 -49 44 0 25 18 45 40 45 9 0 21 -5 28 -12z
m87 5 c-49 -11 -51 -67 -3 -76 21 -4 21 -4 -2 -6 -32 -1 -50 15 -50 46 0 24
24 43 55 42 l20 -1 -20 -5z m215 -7 c28 -35 -11 -93 -47 -70 -36 22 -23 84 17
84 10 0 23 -7 30 -14z m52 -23 c2 -26 8 -39 20 -41 13 -3 18 6 21 40 l4 43 1
-47 c2 -45 0 -48 -23 -48 -27 0 -45 25 -45 64 0 40 18 30 22 -11z m226 30
c-35 -5 -36 -21 -2 -33 34 -13 29 -44 -9 -48 -15 -2 -27 1 -27 6 0 6 8 8 19 5
30 -8 35 16 7 27 -43 16 -33 51 13 49 l26 -2 -27 -4z m120 -5 c23 -23 13 -38
-24 -38 -31 0 -35 -2 -24 -14 6 -8 21 -17 33 -19 19 -4 19 -4 -4 -6 -30 -1
-49 15 -49 44 0 25 18 45 40 45 9 0 21 -5 28 -12z m85 5 c-19 -4 -23 -11 -23
-44 0 -21 -4 -39 -10 -39 -11 0 -14 73 -3 83 3 4 18 6 32 6 24 -2 24 -2 4 -6z
m68 -23 c6 -16 15 -30 19 -30 5 0 11 14 15 30 4 17 11 30 16 30 12 0 12 -3 -7
-50 -9 -22 -20 -40 -24 -40 -7 0 -40 71 -40 85 0 15 13 1 21 -25z m119 -5 c0
-22 6 -38 18 -45 15 -10 15 -10 -3 -8 -15 2 -21 12 -23 40 -2 24 -9 38 -20 41
-12 3 -11 5 6 6 19 1 22 -4 22 -34z m115 28 c-49 -11 -51 -67 -3 -76 21 -4 21
-4 -2 -6 -32 -1 -50 15 -50 46 0 24 24 43 55 42 l20 -1 -20 -5z m113 -5 c23
-23 13 -38 -24 -38 -31 0 -35 -2 -24 -14 6 -8 21 -17 33 -19 19 -4 19 -4 -3
-6 -31 -1 -50 15 -50 44 0 25 18 45 40 45 9 0 21 -5 28 -12z m787 5 c-49 -11
-51 -67 -3 -76 21 -4 21 -4 -2 -6 -32 -1 -50 15 -50 46 0 24 24 43 55 42 l20
-1 -20 -5z m603 -50 c-3 -54 -5 -58 -28 -60 -25 -3 -25 -3 -2 7 18 8 22 17 22
54 0 38 -3 45 -22 49 -19 4 -19 4 5 6 28 1 28 1 25 -56z m108 7 l2 -45 -7 40
c-4 27 -12 41 -23 43 -15 3 -18 -4 -18 -37 0 -23 -4 -41 -10 -41 -11 0 -14 73
-3 84 4 4 19 6 33 4 22 -3 25 -8 26 -48z m102 38 c27 -27 7 -78 -30 -78 -10 0
-18 -7 -18 -15 0 -8 -4 -15 -10 -15 -11 0 -14 103 -3 113 11 11 48 8 61 -5z
m1954 -25 c2 -26 8 -39 20 -41 13 -3 18 6 21 40 l4 43 1 -47 c2 -45 0 -48 -23
-48 -27 0 -45 25 -45 64 0 40 18 30 22 -11z m144 -13 l2 -45 -7 40 c-4 27 -12
41 -23 43 -15 3 -18 -4 -18 -37 0 -23 -4 -41 -10 -41 -11 0 -14 73 -3 84 4 4
19 6 33 4 22 -3 25 -8 26 -48z m100 0 l2 -45 -7 40 c-4 27 -12 41 -23 43 -15
3 -18 -4 -18 -37 0 -23 -4 -41 -10 -41 -11 0 -14 73 -3 84 4 4 19 6 33 4 22
-3 25 -8 26 -48z m74 15 c0 -22 6 -38 18 -45 15 -10 15 -10 -3 -8 -15 2 -21
12 -23 40 -2 24 -9 38 -20 41 -12 3 -11 5 6 6 19 1 22 -4 22 -34z m126 -15 l2
-45 -7 40 c-4 27 -12 41 -23 43 -15 3 -18 -4 -18 -37 0 -23 -4 -41 -10 -41
-11 0 -14 73 -3 84 4 4 19 6 33 4 22 -3 25 -8 26 -48z m102 -7 c-3 -57 -4 -58
-33 -60 -18 -1 -22 1 -10 4 30 8 43 23 19 23 -26 0 -44 19 -44 45 0 28 18 45
47 45 23 0 24 -3 21 -57z m1708 7 c1 -35 0 -37 -3 -10 -5 41 -23 66 -23 32 0
-12 -4 -22 -10 -22 -5 0 -10 9 -10 20 0 38 -19 20 -23 -22 l-4 -43 -1 48 -2
48 38 -3 c37 -3 37 -3 38 -48z m-5723 3 c-7 -2 -19 -2 -25 0 -7 3 -2 5 12 5
14 0 19 -2 13 -5z m1100 0 c-7 -2 -19 -2 -25 0 -7 3 -2 5 12 5 14 0 19 -2 13
-5z m-1413 -143 c0 -5 -4 -10 -10 -10 -5 0 -10 5 -10 10 0 6 5 10 10 10 6 0
10 -4 10 -10z m723 0 c-27 -11 -30 -30 -5 -31 16 -1 16 -2 0 -6 -13 -3 -18
-15 -18 -44 0 -21 -4 -39 -10 -39 -5 0 -10 18 -10 40 0 22 -4 40 -10 40 -5 0
0 11 12 25 12 14 31 25 42 24 20 0 20 -1 -1 -9z m607 -55 c0 -61 -1 -65 -23
-65 -29 0 -47 18 -47 45 0 26 18 45 42 45 11 0 18 7 18 20 0 11 2 20 5 20 3 0
5 -29 5 -65z m270 10 c0 -41 4 -57 18 -65 15 -10 15 -10 -3 -8 -17 3 -20 12
-23 60 -2 43 -7 58 -20 61 -12 3 -11 5 6 6 20 1 22 -3 22 -54z m323 45 c-27
-11 -30 -30 -5 -31 16 -1 16 -2 0 -6 -13 -3 -18 -15 -18 -44 0 -21 -4 -39 -10
-39 -5 0 -10 18 -10 40 0 22 -4 40 -10 40 -5 0 0 11 12 25 12 14 31 25 42 24
20 0 20 -1 -1 -9z m1081 -74 c-14 -42 -28 -75 -31 -72 -3 3 5 35 17 73 25 74
30 86 36 80 2 -2 -8 -38 -22 -81z m1096 74 c0 -5 -4 -10 -10 -10 -5 0 -10 5
-10 10 0 6 5 10 10 10 6 0 10 -4 10 -10z m-3687 -7 c-22 -4 -34 -43 -14 -43 5
0 17 -7 25 -16 23 -22 4 -54 -32 -53 l-27 1 25 7 c35 10 38 39 6 47 -28 7 -29
8 -20 42 5 16 13 22 33 21 23 -2 24 -2 4 -6z m95 -9 c-32 -17 -37 -34 -9 -34
28 0 47 -28 34 -48 -24 -40 -73 -16 -73 35 0 27 33 63 58 63 12 -1 9 -5 -10
-16z m122 -5 c22 -41 -9 -100 -52 -99 -7 1 -1 8 15 16 34 18 35 34 3 34 -16 0
-27 7 -31 20 -14 44 44 69 65 29z m178 5 c-32 -17 -37 -34 -9 -34 28 0 47 -28
34 -48 -24 -40 -73 -16 -73 35 0 27 33 63 58 63 12 -1 9 -5 -10 -16z m205 9
c-22 -4 -34 -43 -14 -43 5 0 17 -7 25 -16 23 -22 4 -54 -32 -53 l-27 1 25 7
c35 10 38 39 6 47 -28 7 -29 8 -20 42 5 16 13 22 33 21 23 -2 24 -2 4 -6z m95
-9 c-32 -17 -37 -34 -9 -34 28 0 47 -28 34 -48 -24 -40 -73 -16 -73 35 0 27
33 63 58 63 12 -1 9 -5 -10 -16z m100 0 c-32 -17 -37 -34 -9 -34 28 0 47 -28
34 -48 -24 -40 -73 -16 -73 35 0 27 33 63 58 63 12 -1 9 -5 -10 -16z m320 -6
c2 -10 -8 -33 -23 -52 l-26 -35 33 -4 c29 -3 27 -4 -11 -5 -43 -2 -43 -2 -27
21 9 12 23 32 32 44 20 28 9 46 -23 38 -17 -4 -22 -2 -18 5 11 17 59 7 63 -12z
m312 19 c0 -1 -9 -20 -20 -42 -11 -22 -20 -47 -20 -57 0 -10 -5 -18 -11 -18
-11 0 -7 21 16 77 13 32 13 32 -18 36 -27 3 -25 4 11 5 23 1 42 1 42 -1z
m1083 -109 c7 -4 -4 -7 -23 -7 -19 1 -27 3 -17 6 13 3 17 15 17 48 0 38 -3 43
-17 38 -15 -5 -14 -3 2 10 19 15 20 14 23 -36 2 -28 9 -55 15 -59z m200 0 c7
-4 -4 -7 -23 -7 -19 1 -27 3 -17 6 13 3 17 15 17 48 0 38 -3 43 -17 38 -15 -5
-14 -3 2 10 19 15 20 14 23 -36 2 -28 9 -55 15 -59z m591 106 c18 -7 22 -49 6
-59 -6 -4 -4 -16 6 -31 9 -13 12 -24 7 -24 -5 0 -15 12 -22 26 -13 30 -33 27
-42 -7 -5 -15 -7 -2 -8 39 -1 65 7 74 53 56z m1020 -26 c20 -57 -29 -115 -61
-72 -16 22 -17 58 -2 85 15 29 51 21 63 -13z m1093 -3 c1 -16 3 -38 5 -49 2
-10 -5 -23 -14 -30 -29 -18 -53 4 -53 50 -1 47 11 66 39 62 15 -2 22 -11 23
-33z m113 32 c0 -1 -9 -20 -20 -42 -11 -22 -20 -47 -20 -57 0 -10 -5 -18 -11
-18 -11 0 -7 21 16 77 13 32 13 32 -18 36 -27 3 -25 4 11 5 23 1 42 1 42 -1z
m-7125 -34 c-49 -11 -51 -67 -3 -76 21 -4 21 -4 -2 -6 -32 -1 -50 15 -50 46 0
24 24 43 55 42 l20 -1 -20 -5z m67 -30 c2 -26 8 -39 20 -41 13 -3 18 6 21 40
l4 43 1 -47 c2 -45 0 -48 -23 -48 -27 0 -45 25 -45 64 0 40 18 30 22 -11z
m131 30 c-19 -4 -23 -11 -23 -44 0 -21 -4 -39 -10 -39 -11 0 -14 73 -3 83 3 4
18 6 32 6 24 -2 24 -2 4 -6z m100 0 c-19 -4 -23 -11 -23 -44 0 -21 -4 -39 -10
-39 -11 0 -14 73 -3 83 3 4 18 6 32 6 24 -2 24 -2 4 -6z m115 -5 c23 -23 13
-38 -24 -38 -31 0 -35 -2 -24 -14 6 -8 21 -17 33 -19 19 -4 19 -4 -4 -6 -30
-1 -49 15 -49 44 0 25 18 45 40 45 9 0 21 -5 28 -12z m98 -38 l2 -45 -7 40
c-4 27 -12 41 -23 43 -15 3 -18 -4 -18 -37 0 -23 -4 -41 -10 -41 -11 0 -14 73
-3 84 4 4 19 6 33 4 22 -3 25 -8 26 -48z m89 43 c-49 -11 -51 -67 -3 -76 21
-4 21 -4 -3 -6 -31 -1 -49 15 -49 46 0 24 24 43 55 42 l20 -1 -20 -5z m70 -23
c10 -43 23 -46 31 -5 3 19 11 35 16 35 25 0 -31 -114 -57 -117 -16 -1 -16 -1
-2 3 21 7 22 24 2 71 -18 42 -18 43 -6 43 5 0 12 -13 16 -30z m123 23 c-35 -5
-36 -21 -2 -33 34 -13 29 -44 -9 -48 -15 -2 -27 1 -27 6 0 6 8 8 19 5 30 -8
35 16 7 27 -43 16 -33 51 13 49 l26 -2 -27 -4z m120 -5 c23 -23 13 -38 -24
-38 -31 0 -35 -2 -24 -14 6 -8 21 -17 33 -19 19 -4 19 -4 -4 -6 -30 -1 -49 15
-49 44 0 25 18 45 40 45 9 0 21 -5 28 -12z m85 5 c-19 -4 -23 -11 -23 -44 0
-21 -4 -39 -10 -39 -11 0 -14 73 -3 83 3 4 18 6 32 6 24 -2 24 -2 4 -6z m68
-23 c6 -16 15 -30 19 -30 5 0 11 14 15 30 4 17 11 30 16 30 12 0 12 -3 -7 -50
-9 -22 -20 -40 -24 -40 -7 0 -40 71 -40 85 0 15 13 1 21 -25z m119 -5 c0 -22
6 -38 18 -45 15 -10 15 -10 -3 -8 -15 2 -21 12 -23 40 -2 24 -9 38 -20 41 -12
3 -11 5 6 6 19 1 22 -4 22 -34z m115 28 c-49 -11 -51 -67 -3 -76 21 -4 21 -4
-2 -6 -32 -1 -50 15 -50 46 0 24 24 43 55 42 l20 -1 -20 -5z m113 -5 c23 -23
13 -38 -24 -38 -31 0 -35 -2 -24 -14 6 -8 21 -17 33 -19 19 -4 19 -4 -3 -6
-31 -1 -50 15 -50 44 0 25 18 45 40 45 9 0 21 -5 28 -12z m687 5 c-49 -11 -51
-67 -3 -76 21 -4 21 -4 -2 -6 -32 -1 -50 15 -50 46 0 24 24 43 55 42 l20 -1
-20 -5z m793 0 c-35 -5 -36 -21 -2 -33 34 -13 29 -44 -9 -48 -15 -2 -27 1 -27
6 0 6 8 8 19 5 30 -8 35 16 7 27 -43 16 -33 51 13 49 l26 -2 -27 -4z m2074
-30 c2 -26 8 -39 20 -41 13 -3 18 6 21 40 l4 43 1 -47 c2 -45 0 -48 -23 -48
-27 0 -45 25 -45 64 0 40 18 30 22 -11z m144 -13 l2 -45 -7 40 c-4 27 -12 41
-23 43 -15 3 -18 -4 -18 -37 0 -23 -4 -41 -10 -41 -11 0 -14 73 -3 84 4 4 19
6 33 4 22 -3 25 -8 26 -48z m100 0 l2 -45 -7 40 c-4 27 -12 41 -23 43 -15 3
-18 -4 -18 -37 0 -23 -4 -41 -10 -41 -11 0 -14 73 -3 84 4 4 19 6 33 4 22 -3
25 -8 26 -48z m74 15 c0 -22 6 -38 18 -45 15 -10 15 -10 -3 -8 -15 2 -21 12
-23 40 -2 24 -9 38 -20 41 -12 3 -11 5 6 6 19 1 22 -4 22 -34z m126 -15 l2
-45 -7 40 c-4 27 -12 41 -23 43 -15 3 -18 -4 -18 -37 0 -23 -4 -41 -10 -41
-11 0 -14 73 -3 84 4 4 19 6 33 4 22 -3 25 -8 26 -48z m102 -7 c-3 -57 -4 -58
-33 -60 -18 -1 -22 1 -10 4 30 8 43 23 19 23 -26 0 -44 19 -44 45 0 28 18 45
47 45 23 0 24 -3 21 -57z m1708 7 c1 -35 0 -37 -3 -10 -5 41 -23 66 -23 32 0
-12 -4 -22 -10 -22 -5 0 -10 9 -10 20 0 38 -19 20 -23 -22 l-4 -43 -1 48 -2
48 38 -3 c37 -3 37 -3 38 -48z m-5723 3 c-7 -2 -19 -2 -25 0 -7 3 -2 5 12 5
14 0 19 -2 13 -5z m1100 0 c-7 -2 -19 -2 -25 0 -7 3 -2 5 12 5 14 0 19 -2 13
-5z m-2313 -143 c0 -5 -4 -10 -10 -10 -5 0 -10 5 -10 10 0 6 5 10 10 10 6 0
10 -4 10 -10z m100 -45 c0 -41 4 -57 18 -65 15 -10 15 -10 -3 -8 -17 3 -20 12
-23 60 -2 43 -7 58 -20 61 -12 3 -11 5 6 6 20 1 22 -3 22 -54z m500 45 c0 -5
-4 -10 -10 -10 -5 0 -10 5 -10 10 0 6 5 10 10 10 6 0 10 -4 10 -10z m530 -55
c0 -61 -1 -65 -23 -65 -29 0 -47 18 -47 45 0 26 18 45 42 45 11 0 18 7 18 20
0 11 2 20 5 20 3 0 5 -29 5 -65z m150 45 c0 -13 7 -20 18 -20 24 0 42 -19 42
-46 0 -28 -23 -46 -52 -42 -21 3 -23 9 -26 66 -2 38 1 62 8 62 5 0 10 -9 10
-20z m350 -45 c0 -61 -1 -65 -23 -65 -29 0 -47 18 -47 45 0 26 18 45 42 45 11
0 18 7 18 20 0 11 2 20 5 20 3 0 5 -29 5 -65z m200 0 c0 -61 -1 -65 -23 -65
-29 0 -47 18 -47 45 0 26 18 45 42 45 11 0 18 7 18 20 0 11 2 20 5 20 3 0 5
-29 5 -65z m2074 -19 c-14 -42 -28 -75 -31 -72 -3 3 5 35 17 73 25 74 30 86
36 80 2 -2 -8 -38 -22 -81z m1096 74 c0 -5 -4 -10 -10 -10 -5 0 -10 5 -10 10
0 6 5 10 10 10 6 0 10 -4 10 -10z m-3960 -3 c0 -1 -9 -20 -20 -42 -11 -22 -20
-47 -20 -57 0 -10 -5 -18 -11 -18 -11 0 -7 21 16 77 13 32 13 32 -18 36 -27 3
-25 4 11 5 23 1 42 1 42 -1z m191 -40 c2 -24 3 -51 1 -60 -4 -21 -22 -22 -22
-2 0 9 -9 15 -25 15 -14 0 -25 3 -25 6 0 19 47 84 61 84 4 0 9 -20 10 -43z
m196 8 c1 -16 3 -38 5 -49 2 -10 -5 -23 -14 -30 -29 -18 -53 4 -53 50 -1 47
11 66 39 62 15 -2 22 -11 23 -33z m313 32 c0 -1 -9 -20 -20 -42 -11 -22 -20
-47 -20 -57 0 -10 -5 -18 -11 -18 -11 0 -7 21 16 77 13 32 13 32 -18 36 -27 3
-25 4 11 5 23 1 42 1 42 -1z m168 -13 c-32 -17 -37 -34 -9 -34 28 0 47 -28 34
-48 -24 -40 -73 -16 -73 35 0 27 33 63 58 63 12 -1 9 -5 -10 -16z m222 -5 c22
-41 -9 -100 -52 -99 -7 1 -1 8 15 16 34 18 35 34 3 34 -16 0 -27 7 -31 20 -14
44 44 69 65 29z m97 -14 c1 -16 3 -38 5 -49 2 -10 -5 -23 -14 -30 -29 -18 -53
4 -53 50 -1 47 11 66 39 62 15 -2 22 -11 23 -33z m204 -8 c2 -24 3 -51 1 -60
-4 -21 -22 -22 -22 -2 0 9 -9 15 -25 15 -14 0 -25 3 -25 6 0 19 47 84 61 84 4
0 9 -20 10 -43z m77 27 c-32 -17 -37 -34 -9 -34 28 0 47 -28 34 -48 -24 -40
-73 -16 -73 35 0 27 33 63 58 63 12 -1 9 -5 -10 -16z m1315 -96 c7 -4 -4 -7
-23 -7 -19 1 -27 3 -17 6 13 3 17 15 17 48 0 38 -3 43 -17 38 -15 -5 -14 -3 2
10 19 15 20 14 23 -36 2 -28 9 -55 15 -59z m200 0 c7 -4 -4 -7 -23 -7 -19 1
-27 3 -17 6 13 3 17 15 17 48 0 38 -3 43 -17 38 -15 -5 -14 -3 2 10 19 15 20
14 23 -36 2 -28 9 -55 15 -59z m591 106 c18 -7 22 -49 6 -59 -6 -4 -4 -16 6
-31 9 -13 12 -24 7 -24 -5 0 -15 12 -22 26 -13 30 -33 27 -42 -7 -5 -15 -7 -2
-8 39 -1 65 7 74 53 56z m1020 -26 c20 -57 -29 -115 -61 -72 -16 22 -17 58 -2
85 15 29 51 21 63 -13z m1093 -3 c1 -16 3 -38 5 -49 2 -10 -5 -23 -14 -30 -29
-18 -53 4 -53 50 -1 47 11 66 39 62 15 -2 22 -11 23 -33z m113 32 c0 -1 -9
-20 -20 -42 -11 -22 -20 -47 -20 -57 0 -10 -5 -18 -11 -18 -11 0 -7 21 16 77
13 32 13 32 -18 36 -27 3 -25 4 11 5 23 1 42 1 42 -1z m-4540 -17 c0 -5 8 -11
18 -11 16 -1 16 -2 0 -6 -13 -3 -18 -14 -18 -38 0 -24 5 -35 18 -38 13 -4 12
-5 -4 -6 -23 -1 -34 16 -34 55 0 13 -5 24 -10 24 -6 0 -5 6 2 15 15 17 28 19
28 5z m-2572 -22 c23 -23 13 -38 -24 -38 -31 0 -35 -2 -24 -14 6 -8 21 -17 33
-19 19 -4 19 -4 -4 -6 -30 -1 -49 15 -49 44 0 25 18 45 40 45 9 0 21 -5 28
-12z m108 -38 c1 -35 0 -37 -3 -10 -5 41 -23 66 -23 32 0 -12 -4 -22 -10 -22
-5 0 -10 9 -10 20 0 38 -19 20 -23 -22 l-4 -43 -1 48 -2 48 38 -3 c37 -3 37
-3 38 -48z m92 3 c3 -40 1 -43 -21 -43 -34 0 -54 25 -37 45 7 8 22 15 33 15
24 0 12 15 -18 23 -12 3 -8 5 10 4 28 -2 30 -5 33 -44z m72 12 c0 -22 6 -38
18 -45 15 -10 15 -10 -3 -8 -15 2 -21 12 -23 40 -2 24 -9 38 -20 41 -12 3 -11
5 6 6 19 1 22 -4 22 -34z m208 28 c-35 -5 -36 -21 -2 -33 34 -13 29 -44 -9
-48 -15 -2 -27 1 -27 6 0 6 8 8 19 5 30 -8 35 16 7 27 -43 16 -33 51 13 49
l26 -2 -27 -4z m120 -5 c23 -23 13 -38 -24 -38 -31 0 -35 -2 -24 -14 6 -8 21
-17 33 -19 19 -4 19 -4 -4 -6 -30 -1 -49 15 -49 44 0 25 18 45 40 45 9 0 21
-5 28 -12z m85 5 c-19 -4 -23 -11 -23 -44 0 -21 -4 -39 -10 -39 -11 0 -14 73
-3 83 3 4 18 6 32 6 24 -2 24 -2 4 -6z m68 -23 c6 -16 15 -30 19 -30 5 0 11
14 15 30 4 17 11 30 16 30 12 0 12 -3 -7 -50 -9 -22 -20 -40 -24 -40 -7 0 -40
71 -40 85 0 15 13 1 21 -25z m119 -5 c0 -22 6 -38 18 -45 15 -10 15 -10 -3 -8
-15 2 -21 12 -23 40 -2 24 -9 38 -20 41 -12 3 -11 5 6 6 19 1 22 -4 22 -34z
m115 28 c-49 -11 -51 -67 -3 -76 21 -4 21 -4 -2 -6 -32 -1 -50 15 -50 46 0 24
24 43 55 42 l20 -1 -20 -5z m113 -5 c23 -23 13 -38 -24 -38 -31 0 -35 -2 -24
-14 6 -8 21 -17 33 -19 19 -4 19 -4 -3 -6 -31 -1 -50 15 -50 44 0 25 18 45 40
45 9 0 21 -5 28 -12z m687 5 c-49 -11 -51 -67 -3 -76 21 -4 21 -4 -2 -6 -32
-1 -50 15 -50 46 0 24 24 43 55 42 l20 -1 -20 -5z m3167 -30 c2 -26 8 -39 20
-41 13 -3 18 6 21 40 l4 43 1 -47 c2 -45 0 -48 -23 -48 -27 0 -45 25 -45 64 0
40 18 30 22 -11z m144 -13 l2 -45 -7 40 c-4 27 -12 41 -23 43 -15 3 -18 -4
-18 -37 0 -23 -4 -41 -10 -41 -11 0 -14 73 -3 84 4 4 19 6 33 4 22 -3 25 -8
26 -48z m100 0 l2 -45 -7 40 c-4 27 -12 41 -23 43 -15 3 -18 -4 -18 -37 0 -23
-4 -41 -10 -41 -11 0 -14 73 -3 84 4 4 19 6 33 4 22 -3 25 -8 26 -48z m74 15
c0 -22 6 -38 18 -45 15 -10 15 -10 -3 -8 -15 2 -21 12 -23 40 -2 24 -9 38 -20
41 -12 3 -11 5 6 6 19 1 22 -4 22 -34z m126 -15 l2 -45 -7 40 c-4 27 -12 41
-23 43 -15 3 -18 -4 -18 -37 0 -23 -4 -41 -10 -41 -11 0 -14 73 -3 84 4 4 19
6 33 4 22 -3 25 -8 26 -48z m102 -7 c-3 -57 -4 -58 -33 -60 -18 -1 -22 1 -10
4 30 8 43 23 19 23 -26 0 -44 19 -44 45 0 28 18 45 47 45 23 0 24 -3 21 -57z
m1708 7 c1 -35 0 -37 -3 -10 -5 41 -23 66 -23 32 0 -12 -4 -22 -10 -22 -5 0
-10 9 -10 20 0 38 -19 20 -23 -22 l-4 -43 -1 48 -2 48 38 -3 c37 -3 37 -3 38
-48z m-6023 3 c-7 -2 -19 -2 -25 0 -7 3 -2 5 12 5 14 0 19 -2 13 -5z m1100 0
c-7 -2 -19 -2 -25 0 -7 3 -2 5 12 5 14 0 19 -2 13 -5z m-2290 -143 c-27 -11
-30 -30 -5 -31 16 -1 16 -2 0 -6 -13 -3 -18 -15 -18 -44 0 -21 -4 -39 -10 -39
-5 0 -10 18 -10 40 0 22 -4 40 -10 40 -5 0 0 11 12 25 12 14 31 25 42 24 20 0
20 -1 -1 -9z m707 -55 c0 -61 -1 -65 -23 -65 -29 0 -47 18 -47 45 0 26 18 45
42 45 11 0 18 7 18 20 0 11 2 20 5 20 3 0 5 -29 5 -65z m400 0 c0 -61 -1 -65
-23 -65 -29 0 -47 18 -47 45 0 26 18 45 42 45 11 0 18 7 18 20 0 11 2 20 5 20
3 0 5 -29 5 -65z m50 45 c0 -13 7 -20 18 -20 24 0 42 -19 42 -46 0 -28 -23
-46 -52 -42 -21 3 -23 9 -26 66 -2 38 1 62 8 62 5 0 10 -9 10 -20z m100 0 c0
-13 7 -20 18 -20 24 0 42 -19 42 -46 0 -28 -23 -46 -52 -42 -21 3 -23 9 -26
66 -2 38 1 62 8 62 5 0 10 -9 10 -20z m150 -45 c0 -61 -1 -65 -23 -65 -29 0
-47 18 -47 45 0 26 18 45 42 45 11 0 18 7 18 20 0 11 2 20 5 20 3 0 5 -29 5
-65z m100 0 c0 -61 -1 -65 -23 -65 -29 0 -47 18 -47 45 0 26 18 45 42 45 11 0
18 7 18 20 0 11 2 20 5 20 3 0 5 -29 5 -65z m93 55 c-27 -11 -30 -30 -5 -31
16 -1 16 -2 0 -6 -13 -3 -18 -15 -18 -44 0 -21 -4 -39 -10 -39 -5 0 -10 18
-10 40 0 22 -4 40 -10 40 -5 0 0 11 12 25 12 14 31 25 42 24 20 0 20 -1 -1 -9z
m577 -45 c0 -41 4 -57 18 -65 15 -10 15 -10 -3 -8 -17 3 -20 12 -23 60 -2 43
-7 58 -20 61 -12 3 -11 5 6 6 20 1 22 -3 22 -54z m2004 -29 c-14 -42 -28 -75
-31 -72 -3 3 5 35 17 73 25 74 30 86 36 80 2 -2 -8 -38 -22 -81z m1096 74 c0
-5 -4 -10 -10 -10 -5 0 -10 5 -10 10 0 6 5 10 10 10 6 0 10 -4 10 -10z m-4360
-3 c0 -1 -9 -20 -20 -42 -11 -22 -20 -47 -20 -57 0 -10 -5 -18 -11 -18 -11 0
-7 21 16 77 13 32 13 32 -18 36 -27 3 -25 4 11 5 23 1 42 1 42 -1z m68 -13
c-32 -17 -37 -34 -9 -34 28 0 47 -28 34 -48 -24 -40 -73 -16 -73 35 0 27 33
63 58 63 12 -1 9 -5 -10 -16z m805 9 c-22 -4 -34 -43 -14 -43 5 0 17 -7 25
-16 23 -22 4 -54 -32 -53 l-27 1 25 7 c35 10 38 39 6 47 -28 7 -29 8 -20 42 5
16 13 22 33 21 23 -2 24 -2 4 -6z m515 -15 c2 -10 -8 -33 -23 -52 l-26 -35 33
-4 c29 -3 27 -4 -11 -5 -43 -2 -43 -2 -27 21 9 12 23 32 32 44 20 28 9 46 -23
38 -17 -4 -22 -2 -18 5 11 17 59 7 63 -12z m1795 -90 c7 -4 -4 -7 -23 -7 -19
1 -27 3 -17 6 13 3 17 15 17 48 0 38 -3 43 -17 38 -15 -5 -14 -3 2 10 19 15
20 14 23 -36 2 -28 9 -55 15 -59z m200 0 c7 -4 -4 -7 -23 -7 -19 1 -27 3 -17
6 13 3 17 15 17 48 0 38 -3 43 -17 38 -15 -5 -14 -3 2 10 19 15 20 14 23 -36
2 -28 9 -55 15 -59z m591 106 c18 -7 22 -49 6 -59 -6 -4 -4 -16 6 -31 9 -13
12 -24 7 -24 -5 0 -15 12 -22 26 -13 30 -33 27 -42 -7 -5 -15 -7 -2 -8 39 -1
65 7 74 53 56z m1020 -26 c20 -57 -29 -115 -61 -72 -16 22 -17 58 -2 85 15 29
51 21 63 -13z m1093 -3 c1 -16 3 -38 5 -49 2 -10 -5 -23 -14 -30 -29 -18 -53
4 -53 50 -1 47 11 66 39 62 15 -2 22 -11 23 -33z m113 32 c0 -1 -9 -20 -20
-42 -11 -22 -20 -47 -20 -57 0 -10 -5 -18 -11 -18 -11 0 -7 21 16 77 13 32 13
32 -18 36 -27 3 -25 4 11 5 23 1 42 1 42 -1z m-6740 -17 c0 -5 8 -11 18 -11
16 -1 16 -2 0 -6 -13 -3 -18 -14 -18 -38 0 -24 5 -35 18 -38 13 -4 12 -5 -4
-6 -23 -1 -34 16 -34 55 0 13 -5 24 -10 24 -6 0 -5 6 2 15 15 17 28 19 28 5z
m-287 -17 c-19 -4 -23 -11 -23 -44 0 -21 -4 -39 -10 -39 -11 0 -14 73 -3 83 3
4 18 6 32 6 24 -2 24 -2 4 -6z m117 -7 c28 -35 -11 -93 -47 -70 -36 22 -23 84
17 84 10 0 23 -7 30 -14z m96 -36 l2 -45 -7 40 c-4 27 -12 41 -23 43 -15 3
-18 -4 -18 -37 0 -23 -4 -41 -10 -41 -11 0 -14 73 -3 84 4 4 19 6 33 4 22 -3
25 -8 26 -48z m202 38 c23 -23 13 -38 -24 -38 -31 0 -35 -2 -24 -14 6 -8 21
-17 33 -19 19 -4 19 -4 -3 -6 -31 -1 -50 15 -50 44 0 25 18 45 40 45 9 0 21
-5 28 -12z m98 -38 l2 -45 -7 40 c-4 27 -12 41 -23 43 -15 3 -18 -4 -18 -37 0
-23 -4 -41 -10 -41 -11 0 -14 73 -3 84 4 4 19 6 33 4 22 -3 25 -8 26 -48z
m1089 43 c-49 -11 -51 -67 -3 -76 21 -4 21 -4 -2 -6 -32 -1 -50 15 -50 46 0
24 24 43 55 42 l20 -1 -20 -5z m267 -44 c6 -4 8 -15 4 -25 -11 -28 -26 2 -24
46 0 27 2 30 5 10 3 -14 10 -28 15 -31z m53 -7 l-7 -36 -19 24 c-10 14 -19 32
-18 40 0 12 2 12 13 -2 15 -20 26 -14 27 16 0 12 3 15 6 8 3 -7 2 -30 -2 -50z
m91 8 l2 -45 -7 40 c-4 27 -12 41 -23 43 -15 3 -18 -4 -18 -37 0 -23 -4 -41
-10 -41 -11 0 -14 73 -3 84 4 4 19 6 33 4 22 -3 25 -8 26 -48z m302 -7 c-3
-57 -4 -58 -33 -60 -18 -1 -22 1 -10 4 30 8 43 23 19 23 -26 0 -44 19 -44 45
0 28 18 45 47 45 23 0 24 -3 21 -57z m2554 20 c2 -26 8 -39 20 -41 13 -3 18 6
21 40 l4 43 1 -47 c2 -45 0 -48 -23 -48 -27 0 -45 25 -45 64 0 40 18 30 22
-11z m144 -13 l2 -45 -7 40 c-4 27 -12 41 -23 43 -15 3 -18 -4 -18 -37 0 -23
-4 -41 -10 -41 -11 0 -14 73 -3 84 4 4 19 6 33 4 22 -3 25 -8 26 -48z m100 0
l2 -45 -7 40 c-4 27 -12 41 -23 43 -15 3 -18 -4 -18 -37 0 -23 -4 -41 -10 -41
-11 0 -14 73 -3 84 4 4 19 6 33 4 22 -3 25 -8 26 -48z m74 15 c0 -22 6 -38 18
-45 15 -10 15 -10 -3 -8 -15 2 -21 12 -23 40 -2 24 -9 38 -20 41 -12 3 -11 5
6 6 19 1 22 -4 22 -34z m126 -15 l2 -45 -7 40 c-4 27 -12 41 -23 43 -15 3 -18
-4 -18 -37 0 -23 -4 -41 -10 -41 -11 0 -14 73 -3 84 4 4 19 6 33 4 22 -3 25
-8 26 -48z m102 -7 c-3 -57 -4 -58 -33 -60 -18 -1 -22 1 -10 4 30 8 43 23 19
23 -26 0 -44 19 -44 45 0 28 18 45 47 45 23 0 24 -3 21 -57z m1708 7 c1 -35 0
-37 -3 -10 -5 41 -23 66 -23 32 0 -12 -4 -22 -10 -22 -5 0 -10 9 -10 20 0 38
-19 20 -23 -22 l-4 -43 -1 48 -2 48 38 -3 c37 -3 37 -3 38 -48z m-6423 3 c-7
-2 -19 -2 -25 0 -7 3 -2 5 12 5 14 0 19 -2 13 -5z m1100 0 c-7 -2 -19 -2 -25
0 -7 3 -2 5 12 5 14 0 19 -2 13 -5z m-1913 -188 c0 -41 4 -57 18 -65 15 -10
15 -10 -3 -8 -17 3 -20 12 -23 60 -2 43 -7 58 -20 61 -12 3 -11 5 6 6 20 1 22
-3 22 -54z m330 -10 c0 -61 -1 -65 -23 -65 -29 0 -47 18 -47 45 0 26 18 45 42
45 11 0 18 7 18 20 0 11 2 20 5 20 3 0 5 -29 5 -65z m1593 55 c-27 -11 -30
-30 -5 -31 16 -1 16 -2 0 -6 -13 -3 -18 -15 -18 -44 0 -21 -4 -39 -10 -39 -5
0 -10 18 -10 40 0 22 -4 40 -10 40 -5 0 0 11 12 25 12 14 31 25 42 24 20 0 20
-1 -1 -9z m107 -55 c0 -61 -1 -65 -23 -65 -29 0 -47 18 -47 45 0 26 18 45 42
45 11 0 18 7 18 20 0 11 2 20 5 20 3 0 5 -29 5 -65z m550 46 c0 -13 8 -21 23
-23 19 -3 22 -9 23 -48 l2 -45 -7 40 c-4 27 -12 41 -23 43 -15 3 -18 -4 -18
-37 0 -23 -4 -41 -10 -41 -6 0 -10 28 -10 65 0 37 4 65 10 65 6 0 10 -9 10
-19z m300 -16 c0 -40 5 -42 34 -17 21 17 21 17 2 -6 -19 -22 -19 -22 4 -47 29
-31 15 -33 -17 -3 l-23 21 0 -21 c0 -12 -4 -22 -10 -22 -6 0 -10 28 -10 65 0
37 4 65 10 65 6 0 10 -16 10 -35z m1324 -49 c-14 -42 -28 -75 -31 -72 -3 3 5
35 17 73 25 74 30 86 36 80 2 -2 -8 -38 -22 -81z m1096 74 c0 -5 -4 -10 -10
-10 -5 0 -10 5 -10 10 0 6 5 10 10 10 6 0 10 -4 10 -10z m-3887 -7 c-22 -4
-34 -43 -14 -43 5 0 17 -7 25 -16 23 -22 4 -54 -32 -53 l-27 1 25 7 c35 10 38
39 6 47 -28 7 -29 8 -20 42 5 16 13 22 33 21 23 -2 24 -2 4 -6z m95 -9 c-32
-17 -37 -34 -9 -34 28 0 47 -28 34 -48 -24 -40 -73 -16 -73 35 0 27 33 63 58
63 12 -1 9 -5 -10 -16z m100 0 c-32 -17 -37 -34 -9 -34 28 0 47 -28 34 -48
-24 -40 -73 -16 -73 35 0 27 33 63 58 63 12 -1 9 -5 -10 -16z m132 13 c0 -1
-9 -20 -20 -42 -11 -22 -20 -47 -20 -57 0 -10 -5 -18 -11 -18 -11 0 -7 21 16
77 13 32 13 32 -18 36 -27 3 -25 4 11 5 23 1 42 1 42 -1z m91 -40 c2 -24 3
-51 1 -60 -4 -21 -22 -22 -22 -2 0 9 -9 15 -25 15 -14 0 -25 3 -25 6 0 19 47
84 61 84 4 0 9 -20 10 -43z m277 27 c-32 -17 -37 -34 -9 -34 28 0 47 -28 34
-48 -24 -40 -73 -16 -73 35 0 27 33 63 58 63 12 -1 9 -5 -10 -16z m122 -5 c22
-41 -9 -100 -52 -99 -7 1 -1 8 15 16 34 18 35 34 3 34 -16 0 -27 7 -31 20 -14
44 44 69 65 29z m78 5 c-32 -17 -37 -34 -9 -34 28 0 47 -28 34 -48 -24 -40
-73 -16 -73 35 0 27 33 63 58 63 12 -1 9 -5 -10 -16z m219 -19 c1 -16 3 -38 5
-49 2 -10 -5 -23 -14 -30 -29 -18 -53 4 -53 50 -1 47 11 66 39 62 15 -2 22
-11 23 -33z m1596 -77 c7 -4 -4 -7 -23 -7 -19 1 -27 3 -17 6 13 3 17 15 17 48
0 38 -3 43 -17 38 -15 -5 -14 -3 2 10 19 15 20 14 23 -36 2 -28 9 -55 15 -59z
m200 0 c7 -4 -4 -7 -23 -7 -19 1 -27 3 -17 6 13 3 17 15 17 48 0 38 -3 43 -17
38 -15 -5 -14 -3 2 10 19 15 20 14 23 -36 2 -28 9 -55 15 -59z m591 106 c18
-7 22 -49 6 -59 -6 -4 -4 -16 6 -31 9 -13 12 -24 7 -24 -5 0 -15 12 -22 26
-13 30 -33 27 -42 -7 -5 -15 -7 -2 -8 39 -1 65 7 74 53 56z m1020 -26 c20 -57
-29 -115 -61 -72 -16 22 -17 58 -2 85 15 29 51 21 63 -13z m1093 -3 c1 -16 3
-38 5 -49 2 -10 -5 -23 -14 -30 -29 -18 -53 4 -53 50 -1 47 11 66 39 62 15 -2
22 -11 23 -33z m113 32 c0 -1 -9 -20 -20 -42 -11 -22 -20 -47 -20 -57 0 -10
-5 -18 -11 -18 -11 0 -7 21 16 77 13 32 13 32 -18 36 -27 3 -25 4 11 5 23 1
42 1 42 -1z m-6140 -17 c0 -5 8 -11 18 -11 16 -1 16 -2 0 -6 -13 -3 -18 -14
-18 -38 0 -24 5 -35 18 -38 13 -4 12 -5 -4 -6 -23 -1 -34 16 -34 55 0 13 -5
24 -10 24 -6 0 -5 6 2 15 15 17 28 19 28 5z m-870 -24 c28 -35 -11 -93 -47
-70 -36 22 -23 84 17 84 10 0 23 -7 30 -14z m98 -33 c3 -40 1 -43 -21 -43 -34
0 -54 25 -37 45 7 8 22 15 33 15 24 0 12 15 -18 23 -12 3 -8 5 10 4 28 -2 30
-5 33 -44z m200 -10 c-3 -57 -4 -58 -33 -60 -18 -1 -22 1 -10 4 30 8 43 23 19
23 -26 0 -44 19 -44 45 0 28 18 45 47 45 23 0 24 -3 21 -57z m100 45 c23 -23
13 -38 -24 -38 -31 0 -35 -2 -24 -14 6 -8 21 -17 33 -19 19 -4 19 -4 -3 -6
-31 -1 -50 15 -50 44 0 25 18 45 40 45 9 0 21 -5 28 -12z m98 -38 l2 -45 -7
40 c-4 27 -12 41 -23 43 -15 3 -18 -4 -18 -37 0 -23 -4 -41 -10 -41 -11 0 -14
73 -3 84 4 4 19 6 33 4 22 -3 25 -8 26 -48z m102 38 c23 -23 13 -38 -24 -38
-31 0 -35 -2 -24 -14 6 -8 21 -17 33 -19 19 -4 19 -4 -4 -6 -30 -1 -49 15 -49
44 0 25 18 45 40 45 9 0 21 -5 28 -12z m85 5 c-19 -4 -23 -11 -23 -44 0 -21
-4 -39 -10 -39 -11 0 -14 73 -3 83 3 4 18 6 32 6 24 -2 24 -2 4 -6z m115 -40
c3 -40 1 -43 -21 -43 -34 0 -54 25 -37 45 7 8 22 15 33 15 24 0 12 15 -18 23
-12 3 -8 5 10 4 28 -2 30 -5 33 -44z m202 33 c28 -35 -11 -93 -47 -70 -36 22
-23 84 17 84 10 0 23 -7 30 -14z m83 7 c-19 -4 -23 -11 -23 -44 0 -21 -4 -39
-10 -39 -11 0 -14 73 -3 83 3 4 18 6 32 6 24 -2 24 -2 4 -6z m1495 0 c-35 -5
-36 -21 -2 -33 34 -13 29 -44 -9 -48 -15 -2 -27 1 -27 6 0 6 8 8 19 5 30 -8
35 16 7 27 -43 16 -33 51 13 49 l26 -2 -27 -4z m105 0 c-19 -4 -23 -11 -23
-44 0 -21 -4 -39 -10 -39 -11 0 -14 73 -3 83 3 4 18 6 32 6 24 -2 24 -2 4 -6z
m2169 -30 c2 -26 8 -39 20 -41 13 -3 18 6 21 40 l4 43 1 -47 c2 -45 0 -48 -23
-48 -27 0 -45 25 -45 64 0 40 18 30 22 -11z m144 -13 l2 -45 -7 40 c-4 27 -12
41 -23 43 -15 3 -18 -4 -18 -37 0 -23 -4 -41 -10 -41 -11 0 -14 73 -3 84 4 4
19 6 33 4 22 -3 25 -8 26 -48z m100 0 l2 -45 -7 40 c-4 27 -12 41 -23 43 -15
3 -18 -4 -18 -37 0 -23 -4 -41 -10 -41 -11 0 -14 73 -3 84 4 4 19 6 33 4 22
-3 25 -8 26 -48z m74 15 c0 -22 6 -38 18 -45 15 -10 15 -10 -3 -8 -15 2 -21
12 -23 40 -2 24 -9 38 -20 41 -12 3 -11 5 6 6 19 1 22 -4 22 -34z m126 -15 l2
-45 -7 40 c-4 27 -12 41 -23 43 -15 3 -18 -4 -18 -37 0 -23 -4 -41 -10 -41
-11 0 -14 73 -3 84 4 4 19 6 33 4 22 -3 25 -8 26 -48z m102 -7 c-3 -57 -4 -58
-33 -60 -18 -1 -22 1 -10 4 30 8 43 23 19 23 -26 0 -44 19 -44 45 0 28 18 45
47 45 23 0 24 -3 21 -57z m1708 7 c1 -35 0 -37 -3 -10 -5 41 -23 66 -23 32 0
-12 -4 -22 -10 -22 -5 0 -10 9 -10 20 0 38 -19 20 -23 -22 l-4 -43 -1 48 -2
48 38 -3 c37 -3 37 -3 38 -48z m-5923 3 c-7 -2 -19 -2 -25 0 -7 3 -2 5 12 5
14 0 19 -2 13 -5z m1100 0 c-7 -2 -19 -2 -25 0 -7 3 -2 5 12 5 14 0 19 -2 13
-5z m-1313 -143 c0 -5 -4 -10 -10 -10 -5 0 -10 5 -10 10 0 6 5 10 10 10 6 0
10 -4 10 -10z m523 0 c-27 -11 -30 -30 -5 -31 16 -1 16 -2 0 -6 -13 -3 -18
-15 -18 -44 0 -21 -4 -39 -10 -39 -5 0 -10 18 -10 40 0 22 -4 40 -10 40 -5 0
0 11 12 25 12 14 31 25 42 24 20 0 20 -1 -1 -9z m100 0 c-27 -11 -30 -30 -5
-31 16 -1 16 -2 0 -6 -13 -3 -18 -15 -18 -44 0 -21 -4 -39 -10 -39 -5 0 -10
18 -10 40 0 22 -4 40 -10 40 -5 0 0 11 12 25 12 14 31 25 42 24 20 0 20 -1 -1
-9z m200 0 c-27 -11 -30 -30 -5 -31 16 -1 16 -2 0 -6 -13 -3 -18 -15 -18 -44
0 -21 -4 -39 -10 -39 -5 0 -10 18 -10 40 0 22 -4 40 -10 40 -5 0 0 11 12 25
12 14 31 25 42 24 20 0 20 -1 -1 -9z m100 0 c-27 -11 -30 -30 -5 -31 16 -1 16
-2 0 -6 -13 -3 -18 -15 -18 -44 0 -21 -4 -39 -10 -39 -5 0 -10 18 -10 40 0 22
-4 40 -10 40 -5 0 0 11 12 25 12 14 31 25 42 24 20 0 20 -1 -1 -9z m107 -55
c0 -61 -1 -65 -23 -65 -29 0 -47 18 -47 45 0 26 18 45 42 45 11 0 18 7 18 20
0 11 2 20 5 20 3 0 5 -29 5 -65z m393 55 c-27 -11 -30 -30 -5 -31 16 -1 16 -2
0 -6 -13 -3 -18 -15 -18 -44 0 -21 -4 -39 -10 -39 -5 0 -10 18 -10 40 0 22 -4
40 -10 40 -5 0 0 11 12 25 12 14 31 25 42 24 20 0 20 -1 -1 -9z m107 -55 c0
-61 -1 -65 -23 -65 -29 0 -47 18 -47 45 0 26 18 45 42 45 11 0 18 7 18 20 0
11 2 20 5 20 3 0 5 -29 5 -65z m1574 -19 c-14 -42 -28 -75 -31 -72 -3 3 5 35
17 73 25 74 30 86 36 80 2 -2 -8 -38 -22 -81z m1096 74 c0 -5 -4 -10 -10 -10
-5 0 -10 5 -10 10 0 6 5 10 10 10 6 0 10 -4 10 -10z m-3770 -21 c22 -41 -9
-100 -52 -99 -7 1 -1 8 15 16 34 18 35 34 3 34 -16 0 -27 7 -31 20 -14 44 44
69 65 29z m278 5 c-32 -17 -37 -34 -9 -34 28 0 47 -28 34 -48 -24 -40 -73 -16
-73 35 0 27 33 63 58 63 12 -1 9 -5 -10 -16z m400 0 c-32 -17 -37 -34 -9 -34
28 0 47 -28 34 -48 -24 -40 -73 -16 -73 35 0 27 33 63 58 63 12 -1 9 -5 -10
-16z m620 -6 c2 -10 -8 -33 -23 -52 l-26 -35 33 -4 c29 -3 27 -4 -11 -5 -43
-2 -43 -2 -27 21 9 12 23 32 32 44 20 28 9 46 -23 38 -17 -4 -22 -2 -18 5 11
17 59 7 63 -12z m1295 -90 c7 -4 -4 -7 -23 -7 -19 1 -27 3 -17 6 13 3 17 15
17 48 0 38 -3 43 -17 38 -15 -5 -14 -3 2 10 19 15 20 14 23 -36 2 -28 9 -55
15 -59z m200 0 c7 -4 -4 -7 -23 -7 -19 1 -27 3 -17 6 13 3 17 15 17 48 0 38
-3 43 -17 38 -15 -5 -14 -3 2 10 19 15 20 14 23 -36 2 -28 9 -55 15 -59z m591
106 c18 -7 22 -49 6 -59 -6 -4 -4 -16 6 -31 9 -13 12 -24 7 -24 -5 0 -15 12
-22 26 -13 30 -33 27 -42 -7 -5 -15 -7 -2 -8 39 -1 65 7 74 53 56z m1020 -26
c20 -57 -29 -115 -61 -72 -16 22 -17 58 -2 85 15 29 51 21 63 -13z m1093 -3
c1 -16 3 -38 5 -49 2 -10 -5 -23 -14 -30 -29 -18 -53 4 -53 50 -1 47 11 66 39
62 15 -2 22 -11 23 -33z m113 32 c0 -1 -9 -20 -20 -42 -11 -22 -20 -47 -20
-57 0 -10 -5 -18 -11 -18 -11 0 -7 21 16 77 13 32 13 32 -18 36 -27 3 -25 4
11 5 23 1 42 1 42 -1z m-6540 -17 c0 -5 8 -11 18 -11 16 -1 16 -2 0 -6 -13 -3
-18 -14 -18 -38 0 -24 5 -35 18 -38 13 -4 12 -5 -4 -6 -23 -1 -34 16 -34 55 0
13 -5 24 -10 24 -6 0 -5 6 2 15 15 17 28 19 28 5z m2100 0 c0 -5 8 -11 18 -11
16 -1 16 -2 0 -6 -13 -3 -18 -14 -18 -38 0 -24 5 -35 18 -38 13 -4 12 -5 -4
-6 -23 -1 -34 16 -34 55 0 13 -5 24 -10 24 -6 0 -5 6 2 15 15 17 28 19 28 5z
m-2672 -22 c27 -27 7 -78 -30 -78 -10 0 -18 -7 -18 -15 0 -8 -4 -15 -10 -15
-11 0 -14 103 -3 113 11 11 48 8 61 -5z m100 -35 c3 -40 1 -43 -21 -43 -34 0
-54 25 -37 45 7 8 22 15 33 15 24 0 12 15 -18 23 -12 3 -8 5 10 4 28 -2 30 -5
33 -44z m57 17 c10 -43 23 -46 31 -5 3 19 11 35 16 35 25 0 -31 -114 -57 -117
-16 -1 -16 -1 -2 3 21 7 22 24 2 71 -18 42 -18 43 -6 43 5 0 12 -13 16 -30z
m151 -20 c1 -35 0 -37 -3 -10 -5 41 -23 66 -23 32 0 -12 -4 -22 -10 -22 -5 0
-10 9 -10 20 0 38 -19 20 -23 -22 l-4 -43 -1 48 -2 48 38 -3 c37 -3 37 -3 38
-48z m92 38 c23 -23 13 -38 -24 -38 -31 0 -35 -2 -24 -14 6 -8 21 -17 33 -19
19 -4 19 -4 -4 -6 -30 -1 -49 15 -49 44 0 25 18 45 40 45 9 0 21 -5 28 -12z
m98 -38 l2 -45 -7 40 c-4 27 -12 41 -23 43 -15 3 -18 -4 -18 -37 0 -23 -4 -41
-10 -41 -11 0 -14 73 -3 84 4 4 19 6 33 4 22 -3 25 -8 26 -48z m182 43 c-35
-5 -36 -21 -2 -33 34 -13 29 -44 -9 -48 -15 -2 -27 1 -27 6 0 6 8 8 19 5 30
-8 35 16 7 27 -43 16 -33 51 13 49 l26 -2 -27 -4z m120 -5 c23 -23 13 -38 -24
-38 -31 0 -35 -2 -24 -14 6 -8 21 -17 33 -19 19 -4 19 -4 -4 -6 -30 -1 -49 15
-49 44 0 25 18 45 40 45 9 0 21 -5 28 -12z m85 5 c-19 -4 -23 -11 -23 -44 0
-21 -4 -39 -10 -39 -11 0 -14 73 -3 83 3 4 18 6 32 6 24 -2 24 -2 4 -6z m68
-23 c6 -16 15 -30 19 -30 5 0 11 14 15 30 4 17 11 30 16 30 12 0 12 -3 -7 -50
-9 -22 -20 -40 -24 -40 -7 0 -40 71 -40 85 0 15 13 1 21 -25z m119 -5 c0 -22
6 -38 18 -45 15 -10 15 -10 -3 -8 -15 2 -21 12 -23 40 -2 24 -9 38 -20 41 -12
3 -11 5 6 6 19 1 22 -4 22 -34z m115 28 c-49 -11 -51 -67 -3 -76 21 -4 21 -4
-2 -6 -32 -1 -50 15 -50 46 0 24 24 43 55 42 l20 -1 -20 -5z m113 -5 c23 -23
13 -38 -24 -38 -31 0 -35 -2 -24 -14 6 -8 21 -17 33 -19 19 -4 19 -4 -3 -6
-31 -1 -50 15 -50 44 0 25 18 45 40 45 9 0 21 -5 28 -12z m1098 -38 l2 -45 -7
40 c-4 27 -12 41 -23 43 -15 3 -18 -4 -18 -37 0 -23 -4 -41 -10 -41 -11 0 -14
73 -3 84 4 4 19 6 33 4 22 -3 25 -8 26 -48z m2556 13 c2 -26 8 -39 20 -41 13
-3 18 6 21 40 l4 43 1 -47 c2 -45 0 -48 -23 -48 -27 0 -45 25 -45 64 0 40 18
30 22 -11z m144 -13 l2 -45 -7 40 c-4 27 -12 41 -23 43 -15 3 -18 -4 -18 -37
0 -23 -4 -41 -10 -41 -11 0 -14 73 -3 84 4 4 19 6 33 4 22 -3 25 -8 26 -48z
m100 0 l2 -45 -7 40 c-4 27 -12 41 -23 43 -15 3 -18 -4 -18 -37 0 -23 -4 -41
-10 -41 -11 0 -14 73 -3 84 4 4 19 6 33 4 22 -3 25 -8 26 -48z m74 15 c0 -22
6 -38 18 -45 15 -10 15 -10 -3 -8 -15 2 -21 12 -23 40 -2 24 -9 38 -20 41 -12
3 -11 5 6 6 19 1 22 -4 22 -34z m126 -15 l2 -45 -7 40 c-4 27 -12 41 -23 43
-15 3 -18 -4 -18 -37 0 -23 -4 -41 -10 -41 -11 0 -14 73 -3 84 4 4 19 6 33 4
22 -3 25 -8 26 -48z m102 -7 c-3 -57 -4 -58 -33 -60 -18 -1 -22 1 -10 4 30 8
43 23 19 23 -26 0 -44 19 -44 45 0 28 18 45 47 45 23 0 24 -3 21 -57z m1708 7
c1 -35 0 -37 -3 -10 -5 41 -23 66 -23 32 0 -12 -4 -22 -10 -22 -5 0 -10 9 -10
20 0 38 -19 20 -23 -22 l-4 -43 -1 48 -2 48 38 -3 c37 -3 37 -3 38 -48z
m-5823 3 c-7 -2 -19 -2 -25 0 -7 3 -2 5 12 5 14 0 19 -2 13 -5z m900 0 c-7 -2
-19 -2 -25 0 -7 3 -2 5 12 5 14 0 19 -2 13 -5z m-1983 -198 c0 -61 -1 -65 -23
-65 -29 0 -47 18 -47 45 0 26 18 45 42 45 11 0 18 7 18 20 0 11 2 20 5 20 3 0
5 -29 5 -65z m770 10 c0 -41 4 -57 18 -65 15 -10 15 -10 -3 -8 -17 3 -20 12
-23 60 -2 43 -7 58 -20 61 -12 3 -11 5 6 6 20 1 22 -3 22 -54z m700 45 c0 -5
-4 -10 -10 -10 -5 0 -10 5 -10 10 0 6 5 10 10 10 6 0 10 -4 10 -10z m880 -10
c0 -13 7 -20 18 -20 24 0 42 -19 42 -46 0 -28 -23 -46 -52 -42 -21 3 -23 9
-26 66 -2 38 1 62 8 62 5 0 10 -9 10 -20z m250 -45 c0 -61 -1 -65 -23 -65 -29
0 -47 18 -47 45 0 26 18 45 42 45 11 0 18 7 18 20 0 11 2 20 5 20 3 0 5 -29 5
-65z m150 45 c0 -13 7 -20 18 -20 24 0 42 -19 42 -46 0 -28 -23 -46 -52 -42
-21 3 -23 9 -26 66 -2 38 1 62 8 62 5 0 10 -9 10 -20z m220 -35 c0 -41 4 -57
18 -65 15 -10 15 -10 -3 -8 -17 3 -20 12 -23 60 -2 43 -7 58 -20 61 -12 3 -11
5 6 6 20 1 22 -3 22 -54z m130 -10 c0 -61 -1 -65 -23 -65 -29 0 -47 18 -47 45
0 26 18 45 42 45 11 0 18 7 18 20 0 11 2 20 5 20 3 0 5 -29 5 -65z m774 -19
c-14 -42 -28 -75 -31 -72 -3 3 5 35 17 73 25 74 30 86 36 80 2 -2 -8 -38 -22
-81z m1096 74 c0 -5 -4 -10 -10 -10 -5 0 -10 5 -10 10 0 6 5 10 10 10 6 0 10
-4 10 -10z m-3060 -3 c0 -1 -9 -20 -20 -42 -11 -22 -20 -47 -20 -57 0 -10 -5
-18 -11 -18 -11 0 -7 21 16 77 13 32 13 32 -18 36 -27 3 -25 4 11 5 23 1 42 1
42 -1z m91 -40 c2 -24 3 -51 1 -60 -4 -21 -22 -22 -22 -2 0 9 -9 15 -25 15
-14 0 -25 3 -25 6 0 19 47 84 61 84 4 0 9 -20 10 -43z m177 27 c-32 -17 -37
-34 -9 -34 28 0 47 -28 34 -48 -24 -40 -73 -16 -73 35 0 27 33 63 58 63 12 -1
9 -5 -10 -16z m132 13 c0 -1 -9 -20 -20 -42 -11 -22 -20 -47 -20 -57 0 -10 -5
-18 -11 -18 -11 0 -7 21 16 77 13 32 13 32 -18 36 -27 3 -25 4 11 5 23 1 42 1
42 -1z m190 -18 c22 -41 -9 -100 -52 -99 -7 1 -1 8 15 16 34 18 35 34 3 34
-16 0 -27 7 -31 20 -14 44 44 69 65 29z m197 -14 c1 -16 3 -38 5 -49 2 -10 -5
-23 -14 -30 -29 -18 -53 4 -53 50 -1 47 11 66 39 62 15 -2 22 -11 23 -33z
m686 28 c-22 -4 -34 -43 -14 -43 5 0 17 -7 25 -16 23 -22 4 -54 -32 -53 l-27
1 25 7 c35 10 38 39 6 47 -28 7 -29 8 -20 42 5 16 13 22 33 21 23 -2 24 -2 4
-6z m410 -105 c7 -4 -4 -7 -23 -7 -19 1 -27 3 -17 6 13 3 17 15 17 48 0 38 -3
43 -17 38 -15 -5 -14 -3 2 10 19 15 20 14 23 -36 2 -28 9 -55 15 -59z m200 0
c7 -4 -4 -7 -23 -7 -19 1 -27 3 -17 6 13 3 17 15 17 48 0 38 -3 43 -17 38 -15
-5 -14 -3 2 10 19 15 20 14 23 -36 2 -28 9 -55 15 -59z m591 106 c18 -7 22
-49 6 -59 -6 -4 -4 -16 6 -31 9 -13 12 -24 7 -24 -5 0 -15 12 -22 26 -13 30
-33 27 -42 -7 -5 -15 -7 -2 -8 39 -1 65 7 74 53 56z m1020 -26 c20 -57 -29
-115 -61 -72 -16 22 -17 58 -2 85 15 29 51 21 63 -13z m1093 -3 c1 -16 3 -38
5 -49 2 -10 -5 -23 -14 -30 -29 -18 -53 4 -53 50 -1 47 11 66 39 62 15 -2 22
-11 23 -33z m113 32 c0 -1 -9 -20 -20 -42 -11 -22 -20 -47 -20 -57 0 -10 -5
-18 -11 -18 -11 0 -7 21 16 77 13 32 13 32 -18 36 -27 3 -25 4 11 5 23 1 42 1
42 -1z m-6540 -17 c0 -5 8 -11 18 -11 16 -1 16 -2 0 -6 -13 -3 -18 -14 -18
-38 0 -24 5 -35 18 -38 13 -4 12 -5 -4 -6 -23 -1 -34 16 -34 55 0 13 -5 24
-10 24 -6 0 -5 6 2 15 15 17 28 19 28 5z m300 0 c0 -5 8 -11 18 -11 16 -1 16
-2 0 -6 -13 -3 -18 -14 -18 -38 0 -24 5 -35 18 -38 13 -4 12 -5 -4 -6 -23 -1
-34 16 -34 55 0 13 -5 24 -10 24 -6 0 -5 6 2 15 15 17 28 19 28 5z m-872 -22
c27 -27 7 -78 -30 -78 -10 0 -18 -7 -18 -15 0 -8 -4 -15 -10 -15 -11 0 -14
103 -3 113 11 11 48 8 61 -5z m85 5 c-19 -4 -23 -11 -23 -44 0 -21 -4 -39 -10
-39 -11 0 -14 73 -3 83 3 4 18 6 32 6 24 -2 24 -2 4 -6z m117 -7 c28 -35 -11
-93 -47 -70 -36 22 -23 84 17 84 10 0 23 -7 30 -14z m152 -23 c2 -26 8 -39 20
-41 13 -3 18 6 21 40 l4 43 1 -47 c2 -45 0 -48 -23 -48 -27 0 -45 25 -45 64 0
40 18 30 22 -11z m133 30 c-49 -11 -51 -67 -3 -76 21 -4 21 -4 -2 -6 -32 -1
-50 15 -50 46 0 24 24 43 55 42 l20 -1 -20 -5z m200 0 c-49 -11 -51 -67 -3
-76 21 -4 21 -4 -3 -6 -31 -1 -49 15 -49 46 0 24 24 43 55 42 l20 -1 -20 -5z
m113 -40 c3 -40 1 -43 -21 -43 -34 0 -54 25 -37 45 7 8 22 15 33 15 24 0 12
15 -18 23 -12 3 -8 5 10 4 28 -2 30 -5 33 -44z m200 0 c3 -40 1 -43 -21 -43
-34 0 -54 25 -37 45 7 8 22 15 33 15 24 0 12 15 -18 23 -12 3 -8 5 10 4 28 -2
30 -5 33 -44z m202 33 c28 -35 -11 -93 -47 -70 -36 22 -23 84 17 84 10 0 23
-7 30 -14z m98 -43 c-3 -57 -4 -58 -33 -60 -18 -1 -22 1 -10 4 30 8 43 23 19
23 -26 0 -44 19 -44 45 0 28 18 45 47 45 23 0 24 -3 21 -57z m80 50 c-35 -5
-36 -21 -2 -33 34 -13 29 -44 -9 -48 -15 -2 -27 1 -27 6 0 6 8 8 19 5 30 -8
35 16 7 27 -43 16 -33 51 13 49 l26 -2 -27 -4z m120 -5 c23 -23 13 -38 -24
-38 -31 0 -35 -2 -24 -14 6 -8 21 -17 33 -19 19 -4 19 -4 -3 -6 -31 -1 -50 15
-50 44 0 25 18 45 40 45 9 0 21 -5 28 -12z m85 5 c-19 -4 -23 -11 -23 -44 0
-21 -4 -39 -10 -39 -11 0 -14 73 -3 83 3 4 18 6 32 6 24 -2 24 -2 4 -6z m68
-23 c6 -16 15 -30 19 -30 5 0 11 14 15 30 4 17 11 30 16 30 12 0 12 -3 -7 -50
-9 -22 -20 -40 -24 -40 -7 0 -40 71 -40 85 0 15 13 1 21 -25z m119 -5 c0 -22
6 -38 18 -45 15 -10 15 -10 -3 -8 -15 2 -21 12 -23 40 -2 24 -9 38 -20 41 -12
3 -11 5 6 6 19 1 22 -4 22 -34z m115 28 c-49 -11 -51 -67 -3 -76 21 -4 21 -4
-2 -6 -32 -1 -50 15 -50 46 0 24 24 43 55 42 l20 -1 -20 -5z m113 -5 c23 -23
13 -38 -24 -38 -31 0 -35 -2 -24 -14 6 -8 21 -17 33 -19 19 -4 19 -4 -3 -6
-31 -1 -50 15 -50 44 0 25 18 45 40 45 9 0 21 -5 28 -12z m387 5 c-49 -11 -51
-67 -3 -76 21 -4 21 -4 -2 -6 -32 -1 -50 15 -50 46 0 24 24 43 55 42 l20 -1
-20 -5z m1115 1 c0 -3 -9 -17 -20 -31 -26 -33 -25 -41 3 -46 16 -3 13 -5 -10
-6 -38 -1 -41 10 -12 47 l21 27 -24 6 c-20 6 -19 7 10 8 17 1 32 -2 32 -5z
m99 -56 c-1 -35 -3 -55 -6 -45 -2 9 -12 17 -22 17 -23 0 -41 20 -41 45 0 27
18 45 47 45 22 0 23 -4 22 -62z m1353 25 c2 -26 8 -39 20 -41 13 -3 18 6 21
40 l4 43 1 -47 c2 -45 0 -48 -23 -48 -27 0 -45 25 -45 64 0 40 18 30 22 -11z
m144 -13 l2 -45 -7 40 c-4 27 -12 41 -23 43 -15 3 -18 -4 -18 -37 0 -23 -4
-41 -10 -41 -11 0 -14 73 -3 84 4 4 19 6 33 4 22 -3 25 -8 26 -48z m100 0 l2
-45 -7 40 c-4 27 -12 41 -23 43 -15 3 -18 -4 -18 -37 0 -23 -4 -41 -10 -41
-11 0 -14 73 -3 84 4 4 19 6 33 4 22 -3 25 -8 26 -48z m74 15 c0 -22 6 -38 18
-45 15 -10 15 -10 -3 -8 -15 2 -21 12 -23 40 -2 24 -9 38 -20 41 -12 3 -11 5
6 6 19 1 22 -4 22 -34z m126 -15 l2 -45 -7 40 c-4 27 -12 41 -23 43 -15 3 -18
-4 -18 -37 0 -23 -4 -41 -10 -41 -11 0 -14 73 -3 84 4 4 19 6 33 4 22 -3 25
-8 26 -48z m102 -7 c-3 -57 -4 -58 -33 -60 -18 -1 -22 1 -10 4 30 8 43 23 19
23 -26 0 -44 19 -44 45 0 28 18 45 47 45 23 0 24 -3 21 -57z m1708 7 c1 -35 0
-37 -3 -10 -5 41 -23 66 -23 32 0 -12 -4 -22 -10 -22 -5 0 -10 9 -10 20 0 38
-19 20 -23 -22 l-4 -43 -1 48 -2 48 38 -3 c37 -3 37 -3 38 -48z m-5123 3 c-7
-2 -19 -2 -25 0 -7 3 -2 5 12 5 14 0 19 -2 13 -5z m1100 0 c-7 -2 -19 -2 -25
0 -7 3 -2 5 12 5 14 0 19 -2 13 -5z m-2383 -198 c0 -61 -1 -65 -23 -65 -29 0
-47 18 -47 45 0 26 18 45 42 45 11 0 18 7 18 20 0 11 2 20 5 20 3 0 5 -29 5
-65z m270 55 c0 -5 -4 -10 -10 -10 -5 0 -10 5 -10 10 0 6 5 10 10 10 6 0 10
-4 10 -10z m700 0 c0 -5 -4 -10 -10 -10 -5 0 -10 5 -10 10 0 6 5 10 10 10 6 0
10 -4 10 -10z m780 -10 c0 -13 7 -20 18 -20 24 0 42 -19 42 -46 0 -28 -23 -46
-52 -42 -21 3 -23 9 -26 66 -2 38 1 62 8 62 5 0 10 -9 10 -20z m243 10 c-27
-11 -30 -30 -5 -31 16 -1 16 -2 0 -6 -13 -3 -18 -15 -18 -44 0 -21 -4 -39 -10
-39 -5 0 -10 18 -10 40 0 22 -4 40 -10 40 -5 0 0 11 12 25 12 14 31 25 42 24
20 0 20 -1 -1 -9z m307 -55 c0 -61 -1 -65 -23 -65 -29 0 -47 18 -47 45 0 26
18 45 42 45 11 0 18 7 18 20 0 11 2 20 5 20 3 0 5 -29 5 -65z m600 0 c0 -61
-1 -65 -23 -65 -29 0 -47 18 -47 45 0 26 18 45 42 45 11 0 18 7 18 20 0 11 2
20 5 20 3 0 5 -29 5 -65z m474 -19 c-14 -42 -28 -75 -31 -72 -3 3 5 35 17 73
25 74 30 86 36 80 2 -2 -8 -38 -22 -81z m1096 74 c0 -5 -4 -10 -10 -10 -5 0
-10 5 -10 10 0 6 5 10 10 10 6 0 10 -4 10 -10z m-3087 -7 c-22 -4 -34 -43 -14
-43 5 0 17 -7 25 -16 23 -22 4 -54 -32 -53 l-27 1 25 7 c35 10 38 39 6 47 -28
7 -29 8 -20 42 5 16 13 22 33 21 23 -2 24 -2 4 -6z m117 -14 c22 -41 -9 -100
-52 -99 -7 1 -1 8 15 16 34 18 35 34 3 34 -16 0 -27 7 -31 20 -14 44 44 69 65
29z m78 5 c-32 -17 -37 -34 -9 -34 28 0 47 -28 34 -48 -24 -40 -73 -16 -73 35
0 27 33 63 58 63 12 -1 9 -5 -10 -16z m100 0 c-32 -17 -37 -34 -9 -34 28 0 47
-28 34 -48 -24 -40 -73 -16 -73 35 0 27 33 63 58 63 12 -1 9 -5 -10 -16z m222
-5 c22 -41 -9 -100 -52 -99 -7 1 -1 8 15 16 34 18 35 34 3 34 -16 0 -27 7 -31
20 -14 44 44 69 65 29z m183 14 c-22 -4 -34 -43 -14 -43 5 0 17 -7 25 -16 23
-22 4 -54 -32 -53 l-27 1 25 7 c35 10 38 39 6 47 -28 7 -29 8 -20 42 5 16 13
22 33 21 23 -2 24 -2 4 -6z m117 -14 c22 -41 -9 -100 -52 -99 -7 1 -1 8 15 16
34 18 35 34 3 34 -16 0 -27 7 -31 20 -14 44 44 69 65 29z m1093 -91 c7 -4 -4
-7 -23 -7 -19 1 -27 3 -17 6 13 3 17 15 17 48 0 38 -3 43 -17 38 -15 -5 -14
-3 2 10 19 15 20 14 23 -36 2 -28 9 -55 15 -59z m200 0 c7 -4 -4 -7 -23 -7
-19 1 -27 3 -17 6 13 3 17 15 17 48 0 38 -3 43 -17 38 -15 -5 -14 -3 2 10 19
15 20 14 23 -36 2 -28 9 -55 15 -59z m591 106 c18 -7 22 -49 6 -59 -6 -4 -4
-16 6 -31 9 -13 12 -24 7 -24 -5 0 -15 12 -22 26 -13 30 -33 27 -42 -7 -5 -15
-7 -2 -8 39 -1 65 7 74 53 56z m1020 -26 c20 -57 -29 -115 -61 -72 -16 22 -17
58 -2 85 15 29 51 21 63 -13z m1093 -3 c1 -16 3 -38 5 -49 2 -10 -5 -23 -14
-30 -29 -18 -53 4 -53 50 -1 47 11 66 39 62 15 -2 22 -11 23 -33z m113 32 c0
-1 -9 -20 -20 -42 -11 -22 -20 -47 -20 -57 0 -10 -5 -18 -11 -18 -11 0 -7 21
16 77 13 32 13 32 -18 36 -27 3 -25 4 11 5 23 1 42 1 42 -1z m-6140 -17 c0 -5
8 -11 18 -11 16 -1 16 -2 0 -6 -13 -3 -18 -14 -18 -38 0 -24 5 -35 18 -38 13
-4 12 -5 -4 -6 -23 -1 -34 16 -34 55 0 13 -5 24 -10 24 -6 0 -5 6 2 15 15 17
28 19 28 5z m2300 0 c0 -5 8 -11 18 -11 16 -1 16 -2 0 -6 -13 -3 -18 -14 -18
-38 0 -24 5 -35 18 -38 13 -4 12 -5 -4 -6 -23 -1 -34 16 -34 55 0 13 -5 24
-10 24 -6 0 -5 6 2 15 15 17 28 19 28 5z m-3287 -17 c-19 -4 -23 -11 -23 -44
0 -21 -4 -39 -10 -39 -11 0 -14 73 -3 83 3 4 18 6 32 6 24 -2 24 -2 4 -6z
m115 -5 c23 -23 13 -38 -24 -38 -31 0 -35 -2 -24 -14 6 -8 21 -17 33 -19 19
-4 19 -4 -4 -6 -30 -1 -49 15 -49 44 0 25 18 45 40 45 9 0 21 -5 28 -12z m87
5 c-49 -11 -51 -67 -3 -76 21 -4 21 -4 -3 -6 -31 -1 -49 15 -49 46 0 24 24 43
55 42 l20 -1 -20 -5z m115 -7 c28 -35 -11 -93 -47 -70 -36 22 -23 84 17 84 10
0 23 -7 30 -14z m106 -36 c1 -35 0 -37 -3 -10 -5 41 -23 66 -23 32 0 -12 -4
-22 -10 -22 -5 0 -10 9 -10 20 0 38 -19 20 -23 -22 l-4 -43 -1 48 -2 48 38 -3
c37 -3 37 -3 38 -48z m100 0 c1 -35 0 -37 -3 -10 -5 41 -23 66 -23 32 0 -12
-4 -22 -10 -22 -5 0 -10 9 -10 20 0 38 -19 20 -23 -22 l-4 -43 -1 48 -2 48 38
-3 c37 -3 37 -3 38 -48z m92 38 c23 -23 13 -38 -24 -38 -31 0 -35 -2 -24 -14
6 -8 21 -17 33 -19 19 -4 19 -4 -4 -6 -30 -1 -49 15 -49 44 0 25 18 45 40 45
9 0 21 -5 28 -12z m98 -38 l2 -45 -7 40 c-4 27 -12 41 -23 43 -15 3 -18 -4
-18 -37 0 -23 -4 -41 -10 -41 -11 0 -14 73 -3 84 4 4 19 6 33 4 22 -3 25 -8
26 -48z m202 3 c3 -40 1 -43 -21 -43 -34 0 -54 25 -37 45 7 8 22 15 33 15 24
0 12 15 -18 23 -12 3 -8 5 10 4 28 -2 30 -5 33 -44z m172 12 c0 -22 6 -38 18
-45 15 -10 15 -10 -3 -8 -15 2 -21 12 -23 40 -2 24 -9 38 -20 41 -12 3 -11 5
6 6 19 1 22 -4 22 -34z m130 21 c28 -35 -11 -93 -47 -70 -36 22 -23 84 17 84
10 0 23 -7 30 -14z m96 -36 l2 -45 -7 40 c-4 27 -12 41 -23 43 -15 3 -18 -4
-18 -37 0 -23 -4 -41 -10 -41 -11 0 -14 73 -3 84 4 4 19 6 33 4 22 -3 25 -8
26 -48z m82 43 c-35 -5 -36 -21 -2 -33 34 -13 29 -44 -9 -48 -15 -2 -27 1 -27
6 0 6 8 8 19 5 30 -8 35 16 7 27 -43 16 -33 51 13 49 l26 -2 -27 -4z m120 -5
c23 -23 13 -38 -24 -38 -31 0 -35 -2 -24 -14 6 -8 21 -17 33 -19 19 -4 19 -4
-3 -6 -31 -1 -50 15 -50 44 0 25 18 45 40 45 9 0 21 -5 28 -12z m85 5 c-19 -4
-23 -11 -23 -44 0 -21 -4 -39 -10 -39 -11 0 -14 73 -3 83 3 4 18 6 32 6 24 -2
24 -2 4 -6z m68 -23 c6 -16 15 -30 19 -30 5 0 11 14 15 30 4 17 11 30 16 30
12 0 12 -3 -7 -50 -9 -22 -20 -40 -24 -40 -7 0 -40 71 -40 85 0 15 13 1 21
-25z m119 -5 c0 -22 6 -38 18 -45 15 -10 15 -10 -3 -8 -15 2 -21 12 -23 40 -2
24 -9 38 -20 41 -12 3 -11 5 6 6 19 1 22 -4 22 -34z m115 28 c-49 -11 -51 -67
-3 -76 21 -4 21 -4 -2 -6 -32 -1 -50 15 -50 46 0 24 24 43 55 42 l20 -1 -20
-5z m113 -5 c23 -23 13 -38 -24 -38 -31 0 -35 -2 -24 -14 6 -8 21 -17 33 -19
19 -4 19 -4 -3 -6 -31 -1 -50 15 -50 44 0 25 18 45 40 45 9 0 21 -5 28 -12z
m1402 6 c0 -3 -9 -17 -20 -31 -26 -33 -25 -41 3 -46 16 -3 13 -5 -10 -6 -38
-1 -41 10 -12 47 l21 27 -24 6 c-20 6 -19 7 10 8 17 1 32 -2 32 -5z m78 -1
c-35 -5 -36 -21 -2 -33 34 -13 29 -44 -9 -48 -15 -2 -27 1 -27 6 0 6 8 8 19 5
30 -8 35 16 7 27 -43 16 -33 51 13 49 l26 -2 -27 -4z m100 0 c-35 -5 -36 -21
-2 -33 34 -13 29 -44 -9 -48 -15 -2 -27 1 -27 6 0 6 8 8 19 5 30 -8 35 16 7
27 -43 16 -33 51 13 49 l26 -2 -27 -4z m1374 -30 c2 -26 8 -39 20 -41 13 -3
18 6 21 40 l4 43 1 -47 c2 -45 0 -48 -23 -48 -27 0 -45 25 -45 64 0 40 18 30
22 -11z m144 -13 l2 -45 -7 40 c-4 27 -12 41 -23 43 -15 3 -18 -4 -18 -37 0
-23 -4 -41 -10 -41 -11 0 -14 73 -3 84 4 4 19 6 33 4 22 -3 25 -8 26 -48z
m100 0 l2 -45 -7 40 c-4 27 -12 41 -23 43 -15 3 -18 -4 -18 -37 0 -23 -4 -41
-10 -41 -11 0 -14 73 -3 84 4 4 19 6 33 4 22 -3 25 -8 26 -48z m74 15 c0 -22
6 -38 18 -45 15 -10 15 -10 -3 -8 -15 2 -21 12 -23 40 -2 24 -9 38 -20 41 -12
3 -11 5 6 6 19 1 22 -4 22 -34z m126 -15 l2 -45 -7 40 c-4 27 -12 41 -23 43
-15 3 -18 -4 -18 -37 0 -23 -4 -41 -10 -41 -11 0 -14 73 -3 84 4 4 19 6 33 4
22 -3 25 -8 26 -48z m102 -7 c-3 -57 -4 -58 -33 -60 -18 -1 -22 1 -10 4 30 8
43 23 19 23 -26 0 -44 19 -44 45 0 28 18 45 47 45 23 0 24 -3 21 -57z m1708 7
c1 -35 0 -37 -3 -10 -5 41 -23 66 -23 32 0 -12 -4 -22 -10 -22 -5 0 -10 9 -10
20 0 38 -19 20 -23 -22 l-4 -43 -1 48 -2 48 38 -3 c37 -3 37 -3 38 -48z
m-5123 3 c-7 -2 -19 -2 -25 0 -7 3 -2 5 12 5 14 0 19 -2 13 -5z m1100 0 c-7
-2 -19 -2 -25 0 -7 3 -2 5 12 5 14 0 19 -2 13 -5z m-2983 -198 c0 -61 -1 -65
-23 -65 -29 0 -47 18 -47 45 0 26 18 45 42 45 11 0 18 7 18 20 0 11 2 20 5 20
3 0 5 -29 5 -65z m70 55 c0 -5 -4 -10 -10 -10 -5 0 -10 5 -10 10 0 6 5 10 10
10 6 0 10 -4 10 -10z m1023 0 c-27 -11 -30 -30 -5 -31 16 -1 16 -2 0 -6 -13
-3 -18 -15 -18 -44 0 -21 -4 -39 -10 -39 -5 0 -10 18 -10 40 0 22 -4 40 -10
40 -5 0 0 11 12 25 12 14 31 25 42 24 20 0 20 -1 -1 -9z m500 0 c-27 -11 -30
-30 -5 -31 16 -1 16 -2 0 -6 -13 -3 -18 -15 -18 -44 0 -21 -4 -39 -10 -39 -5
0 -10 18 -10 40 0 22 -4 40 -10 40 -5 0 0 11 12 25 12 14 31 25 42 24 20 0 20
-1 -1 -9z m57 -10 c0 -13 7 -20 18 -20 24 0 42 -19 42 -46 0 -28 -23 -46 -52
-42 -21 3 -23 9 -26 66 -2 38 1 62 8 62 5 0 10 -9 10 -20z m2324 -64 c-14 -42
-28 -75 -31 -72 -3 3 5 35 17 73 25 74 30 86 36 80 2 -2 -8 -38 -22 -81z
m1096 74 c0 -5 -4 -10 -10 -10 -5 0 -10 5 -10 10 0 6 5 10 10 10 6 0 10 -4 10
-10z m-4069 -43 c2 -24 3 -51 1 -60 -4 -21 -22 -22 -22 -2 0 9 -9 15 -25 15
-14 0 -25 3 -25 6 0 19 47 84 61 84 4 0 9 -20 10 -43z m277 27 c-32 -17 -37
-34 -9 -34 28 0 47 -28 34 -48 -24 -40 -73 -16 -73 35 0 27 33 63 58 63 12 -1
9 -5 -10 -16z m105 9 c-22 -4 -34 -43 -14 -43 5 0 17 -7 25 -16 23 -22 4 -54
-32 -53 l-27 1 25 7 c35 10 38 39 6 47 -28 7 -29 8 -20 42 5 16 13 22 33 21
23 -2 24 -2 4 -6z m114 -28 c1 -16 3 -38 5 -49 2 -10 -5 -23 -14 -30 -29 -18
-53 4 -53 50 -1 47 11 66 39 62 15 -2 22 -11 23 -33z m781 19 c-32 -17 -37
-34 -9 -34 28 0 47 -28 34 -48 -24 -40 -73 -16 -73 35 0 27 33 63 58 63 12 -1
9 -5 -10 -16z m1615 -96 c7 -4 -4 -7 -23 -7 -19 1 -27 3 -17 6 13 3 17 15 17
48 0 38 -3 43 -17 38 -15 -5 -14 -3 2 10 19 15 20 14 23 -36 2 -28 9 -55 15
-59z m200 0 c7 -4 -4 -7 -23 -7 -19 1 -27 3 -17 6 13 3 17 15 17 48 0 38 -3
43 -17 38 -15 -5 -14 -3 2 10 19 15 20 14 23 -36 2 -28 9 -55 15 -59z m591
106 c18 -7 22 -49 6 -59 -6 -4 -4 -16 6 -31 9 -13 12 -24 7 -24 -5 0 -15 12
-22 26 -13 30 -33 27 -42 -7 -5 -15 -7 -2 -8 39 -1 65 7 74 53 56z m1020 -26
c20 -57 -29 -115 -61 -72 -16 22 -17 58 -2 85 15 29 51 21 63 -13z m1093 -3
c1 -16 3 -38 5 -49 2 -10 -5 -23 -14 -30 -29 -18 -53 4 -53 50 -1 47 11 66 39
62 15 -2 22 -11 23 -33z m113 32 c0 -1 -9 -20 -20 -42 -11 -22 -20 -47 -20
-57 0 -10 -5 -18 -11 -18 -11 0 -7 21 16 77 13 32 13 32 -18 36 -27 3 -25 4
11 5 23 1 42 1 42 -1z m-6240 -17 c0 -5 8 -11 18 -11 16 -1 16 -2 0 -6 -13 -3
-18 -14 -18 -38 0 -24 5 -35 18 -38 13 -4 12 -5 -4 -6 -23 -1 -34 16 -34 55 0
13 -5 24 -10 24 -6 0 -5 6 2 15 15 17 28 19 28 5z m-887 -17 c-19 -4 -23 -11
-23 -44 0 -21 -4 -39 -10 -39 -11 0 -14 73 -3 83 3 4 18 6 32 6 24 -2 24 -2 4
-6z m115 -5 c23 -23 13 -38 -24 -38 -31 0 -35 -2 -24 -14 6 -8 21 -17 33 -19
19 -4 19 -4 -4 -6 -30 -1 -49 15 -49 44 0 25 18 45 40 45 9 0 21 -5 28 -12z
m172 -23 c0 -22 6 -38 18 -45 15 -10 15 -10 -3 -8 -15 2 -21 12 -23 40 -2 24
-9 38 -20 41 -12 3 -11 5 6 6 19 1 22 -4 22 -34z m108 28 c-35 -5 -36 -21 -2
-33 34 -13 29 -44 -9 -48 -15 -2 -27 1 -27 6 0 6 8 8 19 5 30 -8 35 16 7 27
-43 16 -33 51 13 49 l26 -2 -27 -4z m207 0 c-49 -11 -51 -67 -3 -76 21 -4 21
-4 -3 -6 -31 -1 -49 15 -49 46 0 24 24 43 55 42 l20 -1 -20 -5z m113 -40 c3
-40 1 -43 -21 -43 -34 0 -54 25 -37 45 7 8 22 15 33 15 24 0 12 15 -18 23 -12
3 -8 5 10 4 28 -2 30 -5 33 -44z m85 40 c-19 -4 -23 -11 -23 -44 0 -21 -4 -39
-10 -39 -11 0 -14 73 -3 83 3 4 18 6 32 6 24 -2 24 -2 4 -6z m302 0 c-49 -11
-51 -67 -3 -76 21 -4 21 -4 -2 -6 -32 -1 -50 15 -50 46 0 24 24 43 55 42 l20
-1 -20 -5z m300 0 c-49 -11 -51 -67 -3 -76 21 -4 21 -4 -2 -6 -32 -1 -50 15
-50 46 0 24 24 43 55 42 l20 -1 -20 -5z m698 0 c-19 -4 -23 -11 -23 -44 0 -21
-4 -39 -10 -39 -11 0 -14 73 -3 83 3 4 18 6 32 6 24 -2 24 -2 4 -6z m76 -10
c9 -17 11 -17 25 2 8 11 16 15 16 10 0 -6 -5 -16 -11 -22 -8 -8 -6 -18 6 -37
19 -29 10 -36 -10 -9 -12 17 -15 17 -36 -2 l-23 -20 18 28 c17 27 17 30 0 48
-9 10 -12 19 -6 19 6 0 15 -8 21 -17z m93 -34 c6 -4 8 -15 4 -25 -11 -28 -26
2 -24 46 0 27 2 30 5 10 3 -14 10 -28 15 -31z m53 -7 l-7 -36 -19 24 c-10 14
-19 32 -18 40 0 12 2 12 13 -2 15 -20 26 -14 27 16 0 12 3 15 6 8 3 -7 2 -30
-2 -50z m78 51 c-19 -4 -23 -11 -23 -44 0 -21 -4 -39 -10 -39 -11 0 -14 73 -3
83 3 4 18 6 32 6 24 -2 24 -2 4 -6z m2569 -30 c2 -26 8 -39 20 -41 13 -3 18 6
21 40 l4 43 1 -47 c2 -45 0 -48 -23 -48 -27 0 -45 25 -45 64 0 40 18 30 22
-11z m144 -13 l2 -45 -7 40 c-4 27 -12 41 -23 43 -15 3 -18 -4 -18 -37 0 -23
-4 -41 -10 -41 -11 0 -14 73 -3 84 4 4 19 6 33 4 22 -3 25 -8 26 -48z m100 0
l2 -45 -7 40 c-4 27 -12 41 -23 43 -15 3 -18 -4 -18 -37 0 -23 -4 -41 -10 -41
-11 0 -14 73 -3 84 4 4 19 6 33 4 22 -3 25 -8 26 -48z m74 15 c0 -22 6 -38 18
-45 15 -10 15 -10 -3 -8 -15 2 -21 12 -23 40 -2 24 -9 38 -20 41 -12 3 -11 5
6 6 19 1 22 -4 22 -34z m126 -15 l2 -45 -7 40 c-4 27 -12 41 -23 43 -15 3 -18
-4 -18 -37 0 -23 -4 -41 -10 -41 -11 0 -14 73 -3 84 4 4 19 6 33 4 22 -3 25
-8 26 -48z m102 -7 c-3 -57 -4 -58 -33 -60 -18 -1 -22 1 -10 4 30 8 43 23 19
23 -26 0 -44 19 -44 45 0 28 18 45 47 45 23 0 24 -3 21 -57z m1708 7 c1 -35 0
-37 -3 -10 -5 41 -23 66 -23 32 0 -12 -4 -22 -10 -22 -5 0 -10 9 -10 20 0 38
-19 20 -23 -22 l-4 -43 -1 48 -2 48 38 -3 c37 -3 37 -3 38 -48z m-6723 3 c-7
-2 -19 -2 -25 0 -7 3 -2 5 12 5 14 0 19 -2 13 -5z m500 0 c-7 -2 -19 -2 -25 0
-7 3 -2 5 12 5 14 0 19 -2 13 -5z m1000 0 c-7 -2 -19 -2 -25 0 -7 3 -2 5 12 5
14 0 19 -2 13 -5z m-1933 -152 c0 -13 8 -21 23 -23 19 -3 22 -9 23 -48 l2 -45
-7 40 c-4 27 -12 41 -23 43 -15 3 -18 -4 -18 -37 0 -23 -4 -41 -10 -41 -6 0
-10 28 -10 65 0 37 4 65 10 65 6 0 10 -9 10 -19z m120 9 c0 -5 -4 -10 -10 -10
-5 0 -10 5 -10 10 0 6 5 10 10 10 6 0 10 -4 10 -10z m300 0 c0 -5 -4 -10 -10
-10 -5 0 -10 5 -10 10 0 6 5 10 10 10 6 0 10 -4 10 -10z m700 0 c0 -5 -4 -10
-10 -10 -5 0 -10 5 -10 10 0 6 5 10 10 10 6 0 10 -4 10 -10z m1130 -55 c0 -61
-1 -65 -23 -65 -29 0 -47 18 -47 45 0 26 18 45 42 45 11 0 18 7 18 20 0 11 2
20 5 20 3 0 5 -29 5 -65z m493 55 c-27 -11 -30 -30 -5 -31 16 -1 16 -2 0 -6
-13 -3 -18 -15 -18 -44 0 -21 -4 -39 -10 -39 -5 0 -10 18 -10 40 0 22 -4 40
-10 40 -5 0 0 11 12 25 12 14 31 25 42 24 20 0 20 -1 -1 -9z m57 -25 c0 -40 5
-42 34 -17 21 17 21 17 2 -6 -19 -22 -19 -22 4 -47 29 -31 15 -33 -17 -3 l-23
21 0 -21 c0 -12 -4 -22 -10 -22 -6 0 -10 28 -10 65 0 37 4 65 10 65 6 0 10
-16 10 -35z m1324 -49 c-14 -42 -28 -75 -31 -72 -3 3 5 35 17 73 25 74 30 86
36 80 2 -2 -8 -38 -22 -81z m1096 74 c0 -5 -4 -10 -10 -10 -5 0 -10 5 -10 10
0 6 5 10 10 10 6 0 10 -4 10 -10z m-3687 -7 c-22 -4 -34 -43 -14 -43 5 0 17
-7 25 -16 23 -22 4 -54 -32 -53 l-27 1 25 7 c35 10 38 39 6 47 -28 7 -29 8
-20 42 5 16 13 22 33 21 23 -2 24 -2 4 -6z m100 0 c-22 -4 -34 -43 -14 -43 5
0 17 -7 25 -16 23 -22 4 -54 -32 -53 l-27 1 25 7 c35 10 38 39 6 47 -28 7 -29
8 -20 42 5 16 13 22 33 21 23 -2 24 -2 4 -6z m95 -9 c-32 -17 -37 -34 -9 -34
28 0 47 -28 34 -48 -24 -40 -73 -16 -73 35 0 27 33 63 58 63 12 -1 9 -5 -10
-16z m105 9 c-22 -4 -34 -43 -14 -43 5 0 17 -7 25 -16 23 -22 4 -54 -32 -53
l-27 1 25 7 c35 10 38 39 6 47 -28 7 -29 8 -20 42 5 16 13 22 33 21 23 -2 24
-2 4 -6z m127 4 c0 -1 -9 -20 -20 -42 -11 -22 -20 -47 -20 -57 0 -10 -5 -18
-11 -18 -11 0 -7 21 16 77 13 32 13 32 -18 36 -27 3 -25 4 11 5 23 1 42 1 42
-1z m91 -40 c2 -24 3 -51 1 -60 -4 -21 -22 -22 -22 -2 0 9 -9 15 -25 15 -14 0
-25 3 -25 6 0 19 47 84 61 84 4 0 9 -20 10 -43z m96 8 c1 -16 3 -38 5 -49 2
-10 -5 -23 -14 -30 -29 -18 -53 4 -53 50 -1 47 11 66 39 62 15 -2 22 -11 23
-33z m304 -8 c2 -24 3 -51 1 -60 -4 -21 -22 -22 -22 -2 0 9 -9 15 -25 15 -14
0 -25 3 -25 6 0 19 47 84 61 84 4 0 9 -20 10 -43z m500 0 c2 -24 3 -51 1 -60
-4 -21 -22 -22 -22 -2 0 9 -9 15 -25 15 -14 0 -25 3 -25 6 0 19 47 84 61 84 4
0 9 -20 10 -43z m77 27 c-32 -17 -37 -34 -9 -34 28 0 47 -28 34 -48 -24 -40
-73 -16 -73 35 0 27 33 63 58 63 12 -1 9 -5 -10 -16z m1015 -96 c7 -4 -4 -7
-23 -7 -19 1 -27 3 -17 6 13 3 17 15 17 48 0 38 -3 43 -17 38 -15 -5 -14 -3 2
10 19 15 20 14 23 -36 2 -28 9 -55 15 -59z m200 0 c7 -4 -4 -7 -23 -7 -19 1
-27 3 -17 6 13 3 17 15 17 48 0 38 -3 43 -17 38 -15 -5 -14 -3 2 10 19 15 20
14 23 -36 2 -28 9 -55 15 -59z m591 106 c18 -7 22 -49 6 -59 -6 -4 -4 -16 6
-31 9 -13 12 -24 7 -24 -5 0 -15 12 -22 26 -13 30 -33 27 -42 -7 -5 -15 -7 -2
-8 39 -1 65 7 74 53 56z m1020 -26 c20 -57 -29 -115 -61 -72 -16 22 -17 58 -2
85 15 29 51 21 63 -13z m1093 -3 c1 -16 3 -38 5 -49 2 -10 -5 -23 -14 -30 -29
-18 -53 4 -53 50 -1 47 11 66 39 62 15 -2 22 -11 23 -33z m113 32 c0 -1 -9
-20 -20 -42 -11 -22 -20 -47 -20 -57 0 -10 -5 -18 -11 -18 -11 0 -7 21 16 77
13 32 13 32 -18 36 -27 3 -25 4 11 5 23 1 42 1 42 -1z m-7132 -34 c-35 -5 -36
-21 -2 -33 34 -13 29 -44 -9 -48 -15 -2 -27 1 -27 6 0 6 8 8 19 5 30 -8 35 16
7 27 -43 16 -33 51 13 49 l26 -2 -27 -4z m192 -28 c0 -22 6 -38 18 -45 15 -10
15 -10 -3 -8 -15 2 -21 12 -23 40 -2 24 -9 38 -20 41 -12 3 -11 5 6 6 19 1 22
-4 22 -34z m128 23 c27 -27 7 -78 -30 -78 -10 0 -18 -7 -18 -15 0 -8 -4 -15
-10 -15 -11 0 -14 103 -3 113 11 11 48 8 61 -5z m100 0 c27 -27 7 -78 -30 -78
-10 0 -18 -7 -18 -15 0 -8 -4 -15 -10 -15 -11 0 -14 103 -3 113 11 11 48 8 61
-5z m72 -23 c0 -22 6 -38 18 -45 15 -10 15 -10 -3 -8 -15 2 -21 12 -23 40 -2
24 -9 38 -20 41 -12 3 -11 5 6 6 19 1 22 -4 22 -34z m126 -15 l2 -45 -7 40
c-4 27 -12 41 -23 43 -15 3 -18 -4 -18 -37 0 -23 -4 -41 -10 -41 -11 0 -14 73
-3 84 4 4 19 6 33 4 22 -3 25 -8 26 -48z m102 -7 c-3 -57 -4 -58 -33 -60 -18
-1 -22 1 -10 4 30 8 43 23 19 23 -26 0 -44 19 -44 45 0 28 18 45 47 45 23 0
24 -3 21 -57z m80 50 c-35 -5 -36 -21 -2 -33 34 -13 29 -44 -9 -48 -15 -2 -27
1 -27 6 0 6 8 8 19 5 30 -8 35 16 7 27 -43 16 -33 51 13 49 l26 -2 -27 -4z
m120 -5 c23 -23 13 -38 -24 -38 -31 0 -35 -2 -24 -14 6 -8 21 -17 33 -19 19
-4 19 -4 -4 -6 -30 -1 -49 15 -49 44 0 25 18 45 40 45 9 0 21 -5 28 -12z m85
5 c-19 -4 -23 -11 -23 -44 0 -21 -4 -39 -10 -39 -11 0 -14 73 -3 83 3 4 18 6
32 6 24 -2 24 -2 4 -6z m68 -23 c6 -16 15 -30 19 -30 5 0 11 14 15 30 4 17 11
30 16 30 12 0 12 -3 -7 -50 -9 -22 -20 -40 -24 -40 -7 0 -40 71 -40 85 0 15
13 1 21 -25z m119 -5 c0 -22 6 -38 18 -45 15 -10 15 -10 -3 -8 -15 2 -21 12
-23 40 -2 24 -9 38 -20 41 -12 3 -11 5 6 6 19 1 22 -4 22 -34z m115 28 c-49
-11 -51 -67 -3 -76 21 -4 21 -4 -2 -6 -32 -1 -50 15 -50 46 0 24 24 43 55 42
l20 -1 -20 -5z m113 -5 c23 -23 13 -38 -24 -38 -31 0 -35 -2 -24 -14 6 -8 21
-17 33 -19 19 -4 19 -4 -3 -6 -31 -1 -50 15 -50 44 0 25 18 45 40 45 9 0 21
-5 28 -12z m987 5 c-49 -11 -51 -67 -3 -76 21 -4 21 -4 -2 -6 -32 -1 -50 15
-50 46 0 24 24 43 55 42 l20 -1 -20 -5z m266 -23 c6 -16 15 -30 19 -30 5 0 11
14 15 30 4 17 11 30 16 30 12 0 12 -3 -7 -50 -9 -22 -20 -40 -24 -40 -7 0 -40
71 -40 85 0 15 13 1 21 -25z m2301 -7 c2 -26 8 -39 20 -41 13 -3 18 6 21 40
l4 43 1 -47 c2 -45 0 -48 -23 -48 -27 0 -45 25 -45 64 0 40 18 30 22 -11z
m144 -13 l2 -45 -7 40 c-4 27 -12 41 -23 43 -15 3 -18 -4 -18 -37 0 -23 -4
-41 -10 -41 -11 0 -14 73 -3 84 4 4 19 6 33 4 22 -3 25 -8 26 -48z m100 0 l2
-45 -7 40 c-4 27 -12 41 -23 43 -15 3 -18 -4 -18 -37 0 -23 -4 -41 -10 -41
-11 0 -14 73 -3 84 4 4 19 6 33 4 22 -3 25 -8 26 -48z m74 15 c0 -22 6 -38 18
-45 15 -10 15 -10 -3 -8 -15 2 -21 12 -23 40 -2 24 -9 38 -20 41 -12 3 -11 5
6 6 19 1 22 -4 22 -34z m126 -15 l2 -45 -7 40 c-4 27 -12 41 -23 43 -15 3 -18
-4 -18 -37 0 -23 -4 -41 -10 -41 -11 0 -14 73 -3 84 4 4 19 6 33 4 22 -3 25
-8 26 -48z m102 -7 c-3 -57 -4 -58 -33 -60 -18 -1 -22 1 -10 4 30 8 43 23 19
23 -26 0 -44 19 -44 45 0 28 18 45 47 45 23 0 24 -3 21 -57z m1708 7 c1 -35 0
-37 -3 -10 -5 41 -23 66 -23 32 0 -12 -4 -22 -10 -22 -5 0 -10 9 -10 20 0 38
-19 20 -23 -22 l-4 -43 -1 48 -2 48 38 -3 c37 -3 37 -3 38 -48z m-5723 3 c-7
-2 -19 -2 -25 0 -7 3 -2 5 12 5 14 0 19 -2 13 -5z m1100 0 c-7 -2 -19 -2 -25
0 -7 3 -2 5 12 5 14 0 19 -2 13 -5z"/>
<path d="M186 2798 c-9 -35 -8 -38 15 -38 16 0 19 4 14 23 -11 35 -22 41 -29
15z"/>
<path d="M4177 2824 c-4 -4 -7 -16 -7 -26 0 -14 6 -19 23 -16 14 2 22 10 22
23 0 20 -25 32 -38 19z"/>
<path d="M4386 2798 c-9 -35 -8 -38 15 -38 16 0 19 4 14 23 -11 35 -22 41 -29
15z"/>
<path d="M4477 2823 c-10 -10 -8 -81 2 -87 5 -4 16 -3 25 0 22 8 22 80 0 88
-19 7 -19 7 -27 -1z"/>
<path d="M5186 2798 c-9 -35 -8 -38 15 -38 16 0 19 4 14 23 -11 35 -22 41 -29
15z"/>
<path d="M5977 2824 c-4 -4 -7 -16 -7 -26 0 -14 6 -19 23 -16 14 2 22 10 22
23 0 20 -25 32 -38 19z"/>
<path d="M6386 2798 c-9 -35 -8 -38 15 -38 16 0 19 4 14 23 -11 35 -22 41 -29
15z"/>
<path d="M6477 2824 c-4 -4 -7 -16 -7 -26 0 -14 6 -19 23 -16 14 2 22 10 22
23 0 20 -25 32 -38 19z"/>
<path d="M7086 2798 c-9 -35 -8 -38 15 -38 16 0 19 4 14 23 -11 35 -22 41 -29
15z"/>
<path d="M180 2564 c-16 -19 -3 -47 24 -52 14 -3 17 3 14 29 -3 37 -19 47 -38
23z"/>
<path d="M1380 2564 c-16 -19 -3 -47 24 -52 14 -3 17 3 14 29 -3 37 -19 47
-38 23z"/>
<path d="M1587 2574 c-4 -4 -7 -20 -7 -36 0 -23 4 -29 18 -26 11 2 17 13 17
32 0 29 -14 43 -28 30z"/>
<path d="M1187 2570 c-16 -22 -16 -25 -1 -28 21 -5 26 2 22 30 l-3 23 -18 -25z"/>
<path d="M1687 2570 c-16 -22 -16 -25 -1 -28 21 -5 26 2 22 30 l-3 23 -18 -25z"/>
<path d="M1782 2538 c2 -12 10 -23 18 -23 22 0 19 39 -3 43 -15 3 -18 -1 -15
-20z"/>
<path d="M1887 2570 c-16 -22 -16 -25 -1 -28 21 -5 26 2 22 30 l-3 23 -18 -25z"/>
<path d="M1982 2538 c2 -12 10 -23 18 -23 22 0 19 39 -3 43 -15 3 -18 -1 -15
-20z"/>
<path d="M2187 2604 c-14 -15 -6 -34 14 -34 14 0 19 5 17 17 -3 18 -20 27 -31
17z"/>
<path d="M2186 2553 c-3 -4 -6 -15 -6 -25 0 -24 33 -21 38 3 3 17 -21 33 -32
22z"/>
<path d="M2587 2604 c-16 -16 -7 -44 14 -44 15 0 20 5 17 22 -3 22 -19 33 -31
22z"/>
<path d="M4977 2604 c-4 -4 -7 -16 -7 -26 0 -14 6 -19 23 -16 14 2 22 10 22
23 0 20 -25 32 -38 19z"/>
<path d="M5980 2586 c-6 -17 -6 -35 0 -52 15 -39 35 -24 35 26 0 50 -20 65
-35 26z m30 -26 c0 -5 -4 -10 -10 -10 -5 0 -10 5 -10 10 0 6 5 10 10 10 6 0
10 -4 10 -10z"/>
<path d="M7087 2604 c-14 -15 -6 -34 14 -34 14 0 19 5 17 17 -3 18 -20 27 -31
17z"/>
<path d="M7086 2553 c-3 -4 -6 -15 -6 -25 0 -24 33 -21 38 3 3 17 -21 33 -32
22z"/>
<path d="M87 2543 c-14 -13 -6 -33 13 -33 13 0 20 7 20 20 0 19 -20 27 -33 13z"/>
<path d="M380 2565 c-11 -13 -9 -15 15 -15 16 0 25 5 23 12 -7 19 -24 20 -38
3z"/>
<path d="M880 2565 c-11 -13 -9 -15 15 -15 16 0 25 5 23 12 -7 19 -24 20 -38
3z"/>
<path d="M5579 2564 c-9 -11 -10 -20 -2 -32 17 -28 38 -20 41 16 4 36 -16 44
-39 16z"/>
<path d="M1380 2344 c-16 -19 -3 -47 24 -52 14 -3 17 3 14 29 -3 37 -19 47
-38 23z"/>
<path d="M1687 2354 c-4 -4 -7 -20 -7 -36 0 -23 4 -29 18 -26 11 2 17 13 17
32 0 29 -14 43 -28 30z"/>
<path d="M1787 2354 c-4 -4 -7 -20 -7 -36 0 -23 4 -29 18 -26 11 2 17 13 17
32 0 29 -14 43 -28 30z"/>
<path d="M1980 2344 c-16 -19 -3 -47 24 -52 14 -3 17 3 14 29 -3 37 -19 47
-38 23z"/>
<path d="M1582 2318 c2 -12 10 -23 18 -23 22 0 19 39 -3 43 -15 3 -18 -1 -15
-20z"/>
<path d="M1887 2384 c-16 -16 -7 -44 14 -44 15 0 20 5 17 22 -3 22 -19 33 -31
22z"/>
<path d="M2482 2318 c2 -12 10 -23 18 -23 22 0 19 39 -3 43 -15 3 -18 -1 -15
-20z"/>
<path d="M2587 2384 c-14 -15 -6 -34 14 -34 14 0 19 5 17 17 -3 18 -20 27 -31
17z"/>
<path d="M2586 2333 c-3 -4 -6 -15 -6 -25 0 -24 33 -21 38 3 3 17 -21 33 -32
22z"/>
<path d="M4977 2384 c-4 -4 -7 -16 -7 -26 0 -14 6 -19 23 -16 14 2 22 10 22
23 0 20 -25 32 -38 19z"/>
<path d="M5980 2366 c-6 -17 -6 -35 0 -52 15 -39 35 -24 35 26 0 50 -20 65
-35 26z m30 -26 c0 -5 -4 -10 -10 -10 -5 0 -10 5 -10 10 0 6 5 10 10 10 6 0
10 -4 10 -10z"/>
<path d="M7087 2384 c-14 -15 -6 -34 14 -34 14 0 19 5 17 17 -3 18 -20 27 -31
17z"/>
<path d="M7086 2333 c-3 -4 -6 -15 -6 -25 0 -24 33 -21 38 3 3 17 -21 33 -32
22z"/>
<path d="M187 2323 c-14 -13 -6 -33 13 -33 13 0 20 7 20 20 0 19 -20 27 -33
13z"/>
<path d="M580 2345 c-11 -13 -9 -15 15 -15 16 0 25 5 23 12 -7 19 -24 20 -38
3z"/>
<path d="M1080 2345 c-11 -13 -9 -15 15 -15 16 0 25 5 23 12 -7 19 -24 20 -38
3z"/>
<path d="M5579 2344 c-9 -11 -10 -20 -2 -32 17 -28 38 -20 41 16 4 36 -16 44
-39 16z"/>
<path d="M1780 2124 c-16 -19 -3 -47 24 -52 14 -3 17 3 14 29 -3 37 -19 47
-38 23z"/>
<path d="M1980 2124 c-16 -19 -3 -47 24 -52 14 -3 17 3 14 29 -3 37 -19 47
-38 23z"/>
<path d="M2380 2124 c-16 -19 -3 -47 24 -52 14 -3 17 3 14 29 -3 37 -19 47
-38 23z"/>
<path d="M1887 2164 c-16 -16 -7 -44 14 -44 15 0 20 5 17 22 -3 22 -19 33 -31
22z"/>
<path d="M2087 2164 c-14 -15 -6 -34 14 -34 14 0 19 5 17 17 -3 18 -20 27 -31
17z"/>
<path d="M2086 2113 c-3 -4 -6 -15 -6 -25 0 -24 33 -21 38 3 3 17 -21 33 -32
22z"/>
<path d="M2187 2130 c-16 -22 -16 -25 -1 -28 21 -5 26 2 22 30 l-3 23 -18 -25z"/>
<path d="M2487 2130 c-16 -22 -16 -25 -1 -28 21 -5 26 2 22 30 l-3 23 -18 -25z"/>
<path d="M2587 2130 c-16 -22 -16 -25 -1 -28 21 -5 26 2 22 30 l-3 23 -18 -25z"/>
<path d="M2787 2164 c-14 -15 -6 -34 14 -34 14 0 19 5 17 17 -3 18 -20 27 -31
17z"/>
<path d="M2786 2113 c-3 -4 -6 -15 -6 -25 0 -24 33 -21 38 3 3 17 -21 33 -32
22z"/>
<path d="M4977 2164 c-4 -4 -7 -16 -7 -26 0 -14 6 -19 23 -16 14 2 22 10 22
23 0 20 -25 32 -38 19z"/>
<path d="M5980 2146 c-6 -17 -6 -35 0 -52 15 -39 35 -24 35 26 0 50 -20 65
-35 26z m30 -26 c0 -5 -4 -10 -10 -10 -5 0 -10 5 -10 10 0 6 5 10 10 10 6 0
10 -4 10 -10z"/>
<path d="M7087 2164 c-14 -15 -6 -34 14 -34 14 0 19 5 17 17 -3 18 -20 27 -31
17z"/>
<path d="M7086 2113 c-3 -4 -6 -15 -6 -25 0 -24 33 -21 38 3 3 17 -21 33 -32
22z"/>
<path d="M280 2125 c-11 -13 -9 -15 15 -15 16 0 25 5 23 12 -7 19 -24 20 -38
3z"/>
<path d="M580 2124 c-10 -11 -11 -20 -3 -32 17 -27 38 -20 38 12 0 34 -16 44
-35 20z"/>
<path d="M980 2125 c-11 -13 -9 -15 15 -15 16 0 25 5 23 12 -7 19 -24 20 -38
3z"/>
<path d="M1480 2125 c-11 -13 -9 -15 15 -15 16 0 25 5 23 12 -7 19 -24 20 -38
3z"/>
<path d="M3082 2108 c4 -43 33 -46 33 -3 0 21 -5 31 -18 33 -15 3 -18 -2 -15
-30z"/>
<path d="M5579 2124 c-9 -11 -10 -20 -2 -32 17 -28 38 -20 41 16 4 36 -16 44
-39 16z"/>
<path d="M2580 1904 c-16 -19 -3 -47 24 -52 14 -3 17 3 14 29 -3 37 -19 47
-38 23z"/>
<path d="M1782 1878 c2 -12 10 -23 18 -23 22 0 19 39 -3 43 -15 3 -18 -1 -15
-20z"/>
<path d="M1887 1944 c-16 -16 -7 -44 14 -44 15 0 20 5 17 22 -3 22 -19 33 -31
22z"/>
<path d="M2082 1878 c2 -12 10 -23 18 -23 22 0 19 39 -3 43 -15 3 -18 -1 -15
-20z"/>
<path d="M2382 1878 c2 -12 10 -23 18 -23 22 0 19 39 -3 43 -15 3 -18 -1 -15
-20z"/>
<path d="M2482 1878 c2 -12 10 -23 18 -23 22 0 19 39 -3 43 -15 3 -18 -1 -15
-20z"/>
<path d="M4977 1944 c-4 -4 -7 -16 -7 -26 0 -14 6 -19 23 -16 14 2 22 10 22
23 0 20 -25 32 -38 19z"/>
<path d="M5980 1926 c-6 -17 -6 -35 0 -52 15 -39 35 -24 35 26 0 50 -20 65
-35 26z m30 -26 c0 -5 -4 -10 -10 -10 -5 0 -10 5 -10 10 0 6 5 10 10 10 6 0
10 -4 10 -10z"/>
<path d="M7087 1944 c-14 -15 -6 -34 14 -34 14 0 19 5 17 17 -3 18 -20 27 -31
17z"/>
<path d="M7086 1893 c-3 -4 -6 -15 -6 -25 0 -24 33 -21 38 3 3 17 -21 33 -32
22z"/>
<path d="M480 1905 c-11 -13 -9 -15 15 -15 16 0 25 5 23 12 -7 19 -24 20 -38
3z"/>
<path d="M980 1905 c-11 -13 -9 -15 15 -15 16 0 25 5 23 12 -7 19 -24 20 -38
3z"/>
<path d="M1480 1905 c-11 -13 -9 -15 15 -15 16 0 25 5 23 12 -7 19 -24 20 -38
3z"/>
<path d="M5579 1904 c-9 -11 -10 -20 -2 -32 17 -28 38 -20 41 16 4 36 -16 44
-39 16z"/>
<path d="M1480 1684 c-16 -19 -3 -47 24 -52 14 -3 17 3 14 29 -3 37 -19 47
-38 23z"/>
<path d="M1687 1694 c-4 -4 -7 -20 -7 -36 0 -23 4 -29 18 -26 11 2 17 13 17
32 0 29 -14 43 -28 30z"/>
<path d="M1980 1684 c-16 -19 -3 -47 24 -52 14 -3 17 3 14 29 -3 37 -19 47
-38 23z"/>
<path d="M2180 1684 c-16 -19 -3 -47 24 -52 14 -3 17 3 14 29 -3 37 -19 47
-38 23z"/>
<path d="M1587 1690 c-16 -22 -16 -25 -1 -28 21 -5 26 2 22 30 l-3 23 -18 -25z"/>
<path d="M1787 1724 c-14 -15 -6 -34 14 -34 14 0 19 5 17 17 -3 18 -20 27 -31
17z"/>
<path d="M1786 1673 c-3 -4 -6 -15 -6 -25 0 -24 33 -21 38 3 3 17 -21 33 -32
22z"/>
<path d="M2282 1658 c2 -12 10 -23 18 -23 22 0 19 39 -3 43 -15 3 -18 -1 -15
-20z"/>
<path d="M2487 1724 c-16 -16 -7 -44 14 -44 15 0 20 5 17 22 -3 22 -19 33 -31
22z"/>
<path d="M2587 1724 c-14 -15 -6 -34 14 -34 14 0 19 5 17 17 -3 18 -20 27 -31
17z"/>
<path d="M2586 1673 c-3 -4 -6 -15 -6 -25 0 -24 33 -21 38 3 3 17 -21 33 -32
22z"/>
<path d="M2787 1690 c-16 -22 -16 -25 -1 -28 21 -5 26 2 22 30 l-3 23 -18 -25z"/>
<path d="M2882 1658 c2 -12 10 -23 18 -23 22 0 19 39 -3 43 -15 3 -18 -1 -15
-20z"/>
<path d="M4977 1724 c-4 -4 -7 -16 -7 -26 0 -14 6 -19 23 -16 14 2 22 10 22
23 0 20 -25 32 -38 19z"/>
<path d="M5980 1706 c-6 -17 -6 -35 0 -52 15 -39 35 -24 35 26 0 50 -20 65
-35 26z m30 -26 c0 -5 -4 -10 -10 -10 -5 0 -10 5 -10 10 0 6 5 10 10 10 6 0
10 -4 10 -10z"/>
<path d="M7087 1724 c-14 -15 -6 -34 14 -34 14 0 19 5 17 17 -3 18 -20 27 -31
17z"/>
<path d="M7086 1673 c-3 -4 -6 -15 -6 -25 0 -24 33 -21 38 3 3 17 -21 33 -32
22z"/>
<path d="M80 1685 c-11 -13 -9 -15 15 -15 16 0 25 5 23 12 -7 19 -24 20 -38 3z"/>
<path d="M287 1663 c-14 -13 -6 -33 13 -33 13 0 20 7 20 20 0 19 -20 27 -33
13z"/>
<path d="M680 1685 c-11 -13 -9 -15 15 -15 16 0 25 5 23 12 -7 19 -24 20 -38
3z"/>
<path d="M1180 1685 c-11 -13 -9 -15 15 -15 16 0 25 5 23 12 -7 19 -24 20 -38
3z"/>
<path d="M5579 1684 c-9 -11 -10 -20 -2 -32 17 -28 38 -20 41 16 4 36 -16 44
-39 16z"/>
<path d="M780 1464 c-16 -19 -3 -47 24 -52 14 -3 17 3 14 29 -3 37 -19 47 -38
23z"/>
<path d="M1180 1464 c-16 -19 -3 -47 24 -52 14 -3 17 3 14 29 -3 37 -19 47
-38 23z"/>
<path d="M1287 1474 c-4 -4 -7 -20 -7 -36 0 -23 4 -29 18 -26 11 2 17 13 17
32 0 29 -14 43 -28 30z"/>
<path d="M1387 1474 c-4 -4 -7 -20 -7 -36 0 -23 4 -29 18 -26 11 2 17 13 17
32 0 29 -14 43 -28 30z"/>
<path d="M1480 1464 c-16 -19 -3 -47 24 -52 14 -3 17 3 14 29 -3 37 -19 47
-38 23z"/>
<path d="M1580 1464 c-16 -19 -3 -47 24 -52 14 -3 17 3 14 29 -3 37 -19 47
-38 23z"/>
<path d="M1082 1438 c2 -12 10 -23 18 -23 22 0 19 39 -3 43 -15 3 -18 -1 -15
-20z"/>
<path d="M4977 1504 c-4 -4 -7 -16 -7 -26 0 -14 6 -19 23 -16 14 2 22 10 22
23 0 20 -25 32 -38 19z"/>
<path d="M5980 1486 c-6 -17 -6 -35 0 -52 15 -39 35 -24 35 26 0 50 -20 65
-35 26z m30 -26 c0 -5 -4 -10 -10 -10 -5 0 -10 5 -10 10 0 6 5 10 10 10 6 0
10 -4 10 -10z"/>
<path d="M7087 1504 c-14 -15 -6 -34 14 -34 14 0 19 5 17 17 -3 18 -20 27 -31
17z"/>
<path d="M7086 1453 c-3 -4 -6 -15 -6 -25 0 -24 33 -21 38 3 3 17 -21 33 -32
22z"/>
<path d="M280 1464 c-10 -11 -11 -20 -3 -32 17 -27 38 -20 38 12 0 34 -16 44
-35 20z"/>
<path d="M580 1465 c-11 -13 -9 -15 15 -15 16 0 25 5 23 12 -7 19 -24 20 -38
3z"/>
<path d="M2479 1464 c-9 -11 -10 -20 -2 -32 17 -28 38 -20 41 16 4 36 -16 44
-39 16z"/>
<path d="M5579 1464 c-9 -11 -10 -20 -2 -32 17 -28 38 -20 41 16 4 36 -16 44
-39 16z"/>
<path d="M380 1244 c-16 -19 -3 -47 24 -52 14 -3 17 3 14 29 -3 37 -19 47 -38
23z"/>
<path d="M2080 1244 c-16 -19 -3 -47 24 -52 14 -3 17 3 14 29 -3 37 -19 47
-38 23z"/>
<path d="M1582 1218 c2 -12 10 -23 18 -23 22 0 19 39 -3 43 -15 3 -18 -1 -15
-20z"/>
<path d="M1682 1218 c2 -12 10 -23 18 -23 22 0 19 39 -3 43 -15 3 -18 -1 -15
-20z"/>
<path d="M1887 1250 c-16 -22 -16 -25 -1 -28 21 -5 26 2 22 30 l-3 23 -18 -25z"/>
<path d="M2182 1218 c2 -12 10 -23 18 -23 22 0 19 39 -3 43 -15 3 -18 -1 -15
-20z"/>
<path d="M2287 1284 c-16 -16 -7 -44 14 -44 15 0 20 5 17 22 -3 22 -19 33 -31
22z"/>
<path d="M2382 1218 c2 -12 10 -23 18 -23 22 0 19 39 -3 43 -15 3 -18 -1 -15
-20z"/>
<path d="M2587 1284 c-14 -15 -6 -34 14 -34 14 0 19 5 17 17 -3 18 -20 27 -31
17z"/>
<path d="M2586 1233 c-3 -4 -6 -15 -6 -25 0 -24 33 -21 38 3 3 17 -21 33 -32
22z"/>
<path d="M4977 1284 c-4 -4 -7 -16 -7 -26 0 -14 6 -19 23 -16 14 2 22 10 22
23 0 20 -25 32 -38 19z"/>
<path d="M5980 1266 c-6 -17 -6 -35 0 -52 15 -39 35 -24 35 26 0 50 -20 65
-35 26z m30 -26 c0 -5 -4 -10 -10 -10 -5 0 -10 5 -10 10 0 6 5 10 10 10 6 0
10 -4 10 -10z"/>
<path d="M7087 1284 c-14 -15 -6 -34 14 -34 14 0 19 5 17 17 -3 18 -20 27 -31
17z"/>
<path d="M7086 1233 c-3 -4 -6 -15 -6 -25 0 -24 33 -21 38 3 3 17 -21 33 -32
22z"/>
<path d="M180 1244 c-10 -11 -11 -20 -3 -32 17 -27 38 -20 38 12 0 34 -16 44
-35 20z"/>
<path d="M287 1223 c-14 -13 -6 -33 13 -33 13 0 20 7 20 20 0 19 -20 27 -33
13z"/>
<path d="M479 1244 c-9 -11 -10 -20 -2 -32 17 -28 38 -20 41 16 4 36 -16 44
-39 16z"/>
<path d="M580 1245 c-11 -13 -9 -15 15 -15 16 0 25 5 23 12 -7 19 -24 20 -38
3z"/>
<path d="M780 1245 c-11 -13 -9 -15 15 -15 16 0 25 5 23 12 -7 19 -24 20 -38
3z"/>
<path d="M987 1223 c-14 -13 -6 -33 13 -33 13 0 20 7 20 20 0 19 -20 27 -33
13z"/>
<path d="M1180 1244 c-10 -11 -11 -20 -3 -32 17 -27 38 -20 38 12 0 34 -16 44
-35 20z"/>
<path d="M5579 1244 c-9 -11 -10 -20 -2 -32 17 -28 38 -20 41 16 4 36 -16 44
-39 16z"/>
<path d="M2180 1024 c-16 -19 -3 -47 24 -52 14 -3 17 3 14 29 -3 37 -19 47
-38 23z"/>
<path d="M2680 1024 c-16 -19 -3 -47 24 -52 14 -3 17 3 14 29 -3 37 -19 47
-38 23z"/>
<path d="M1587 1064 c-16 -16 -7 -44 14 -44 15 0 20 5 17 22 -3 22 -19 33 -31
22z"/>
<path d="M1882 998 c2 -12 10 -23 18 -23 22 0 19 39 -3 43 -15 3 -18 -1 -15
-20z"/>
<path d="M2282 998 c2 -12 10 -23 18 -23 22 0 19 39 -3 43 -15 3 -18 -1 -15
-20z"/>
<path d="M4977 1064 c-4 -4 -7 -16 -7 -26 0 -14 6 -19 23 -16 14 2 22 10 22
23 0 20 -25 32 -38 19z"/>
<path d="M5980 1046 c-6 -17 -6 -35 0 -52 15 -39 35 -24 35 26 0 50 -20 65
-35 26z m30 -26 c0 -5 -4 -10 -10 -10 -5 0 -10 5 -10 10 0 6 5 10 10 10 6 0
10 -4 10 -10z"/>
<path d="M7087 1064 c-14 -15 -6 -34 14 -34 14 0 19 5 17 17 -3 18 -20 27 -31
17z"/>
<path d="M7086 1013 c-3 -4 -6 -15 -6 -25 0 -24 33 -21 38 3 3 17 -21 33 -32
22z"/>
<path d="M82 1008 c4 -43 33 -46 33 -3 0 21 -5 31 -18 33 -15 3 -18 -2 -15
-30z"/>
<path d="M187 1003 c-14 -13 -6 -33 13 -33 13 0 20 7 20 20 0 19 -20 27 -33
13z"/>
<path d="M480 1025 c-11 -13 -9 -15 15 -15 16 0 25 5 23 12 -7 19 -24 20 -38
3z"/>
<path d="M880 1025 c-11 -13 -9 -15 15 -15 16 0 25 5 23 12 -7 19 -24 20 -38
3z"/>
<path d="M1380 1025 c-11 -13 -9 -15 15 -15 16 0 25 5 23 12 -7 19 -24 20 -38
3z"/>
<path d="M5579 1024 c-9 -11 -10 -20 -2 -32 17 -28 38 -20 41 16 4 36 -16 44
-39 16z"/>
<path d="M380 804 c-16 -19 -3 -47 24 -52 14 -3 17 3 14 29 -3 37 -19 47 -38
23z"/>
<path d="M2787 814 c-4 -4 -7 -20 -7 -36 0 -23 4 -29 18 -26 11 2 17 13 17 32
0 29 -14 43 -28 30z"/>
<path d="M2980 804 c-16 -19 -3 -47 24 -52 14 -3 17 3 14 29 -3 37 -19 47 -38
23z"/>
<path d="M3187 814 c-4 -4 -7 -20 -7 -36 0 -23 4 -29 18 -26 11 2 17 13 17 32
0 29 -14 43 -28 30z"/>
<path d="M3480 804 c-16 -19 -3 -47 24 -52 14 -3 17 3 14 29 -3 37 -19 47 -38
23z"/>
<path d="M2387 810 c-16 -22 -16 -25 -1 -28 21 -5 26 2 22 30 l-3 23 -18 -25z"/>
<path d="M2582 778 c2 -12 10 -23 18 -23 22 0 19 39 -3 43 -15 3 -18 -1 -15
-20z"/>
<path d="M2887 844 c-16 -16 -7 -44 14 -44 15 0 20 5 17 22 -3 22 -19 33 -31
22z"/>
<path d="M3087 844 c-14 -15 -6 -34 14 -34 14 0 19 5 17 17 -3 18 -20 27 -31
17z"/>
<path d="M3086 793 c-3 -4 -6 -15 -6 -25 0 -24 33 -21 38 3 3 17 -21 33 -32
22z"/>
<path d="M4977 844 c-4 -4 -7 -16 -7 -26 0 -14 6 -19 23 -16 14 2 22 10 22 23
0 20 -25 32 -38 19z"/>
<path d="M5980 826 c-6 -17 -6 -35 0 -52 15 -39 35 -24 35 26 0 50 -20 65 -35
26z m30 -26 c0 -5 -4 -10 -10 -10 -5 0 -10 5 -10 10 0 6 5 10 10 10 6 0 10 -4
10 -10z"/>
<path d="M7087 844 c-14 -15 -6 -34 14 -34 14 0 19 5 17 17 -3 18 -20 27 -31
17z"/>
<path d="M7086 793 c-3 -4 -6 -15 -6 -25 0 -24 33 -21 38 3 3 17 -21 33 -32
22z"/>
<path d="M82 788 c4 -43 33 -46 33 -3 0 21 -5 31 -18 33 -15 3 -18 -2 -15 -30z"/>
<path d="M280 804 c-10 -11 -11 -20 -3 -32 17 -27 38 -20 38 12 0 34 -16 44
-35 20z"/>
<path d="M887 783 c-14 -13 -6 -33 13 -33 13 0 20 7 20 20 0 19 -20 27 -33 13z"/>
<path d="M1087 783 c-14 -13 -6 -33 13 -33 13 0 20 7 20 20 0 19 -20 27 -33
13z"/>
<path d="M1280 804 c-10 -11 -11 -20 -3 -32 17 -27 38 -20 38 12 0 34 -16 44
-35 20z"/>
<path d="M1379 804 c-9 -11 -10 -20 -2 -32 17 -28 38 -20 41 16 4 36 -16 44
-39 16z"/>
<path d="M1580 805 c-11 -13 -9 -15 15 -15 16 0 25 5 23 12 -7 19 -24 20 -38
3z"/>
<path d="M2080 805 c-11 -13 -9 -15 15 -15 16 0 25 5 23 12 -7 19 -24 20 -38
3z"/>
<path d="M3679 804 c-9 -11 -10 -20 -2 -32 17 -28 38 -20 41 16 4 36 -16 44
-39 16z"/>
<path d="M5579 804 c-9 -11 -10 -20 -2 -32 17 -28 38 -20 41 16 4 36 -16 44
-39 16z"/>
<path d="M880 584 c-16 -19 -3 -47 24 -52 14 -3 17 3 14 29 -3 37 -19 47 -38
23z"/>
<path d="M2687 594 c-4 -4 -7 -20 -7 -36 0 -23 4 -29 18 -26 11 2 17 13 17 32
0 29 -14 43 -28 30z"/>
<path d="M3180 584 c-16 -19 -3 -47 24 -52 14 -3 17 3 14 29 -3 37 -19 47 -38
23z"/>
<path d="M3780 584 c-16 -19 -3 -47 24 -52 14 -3 17 3 14 29 -3 37 -19 47 -38
23z"/>
<path d="M2387 624 c-16 -16 -7 -44 14 -44 15 0 20 5 17 22 -3 22 -19 33 -31
22z"/>
<path d="M2482 558 c2 -12 10 -23 18 -23 22 0 19 39 -3 43 -15 3 -18 -1 -15
-20z"/>
<path d="M2582 558 c2 -12 10 -23 18 -23 22 0 19 39 -3 43 -15 3 -18 -1 -15
-20z"/>
<path d="M2787 624 c-16 -16 -7 -44 14 -44 15 0 20 5 17 22 -3 22 -19 33 -31
22z"/>
<path d="M3087 624 c-16 -16 -7 -44 14 -44 15 0 20 5 17 22 -3 22 -19 33 -31
22z"/>
<path d="M4977 624 c-4 -4 -7 -16 -7 -26 0 -14 6 -19 23 -16 14 2 22 10 22 23
0 20 -25 32 -38 19z"/>
<path d="M5980 606 c-6 -17 -6 -35 0 -52 15 -39 35 -24 35 26 0 50 -20 65 -35
26z m30 -26 c0 -5 -4 -10 -10 -10 -5 0 -10 5 -10 10 0 6 5 10 10 10 6 0 10 -4
10 -10z"/>
<path d="M7087 624 c-14 -15 -6 -34 14 -34 14 0 19 5 17 17 -3 18 -20 27 -31
17z"/>
<path d="M7086 573 c-3 -4 -6 -15 -6 -25 0 -24 33 -21 38 3 3 17 -21 33 -32
22z"/>
<path d="M180 585 c-11 -13 -9 -15 15 -15 16 0 25 5 23 12 -7 19 -24 20 -38 3z"/>
<path d="M380 584 c-10 -11 -11 -20 -3 -32 17 -27 38 -20 38 12 0 34 -16 44
-35 20z"/>
<path d="M680 585 c-11 -13 -9 -15 15 -15 16 0 25 5 23 12 -7 19 -24 20 -38 3z"/>
<path d="M987 563 c-14 -13 -6 -33 13 -33 13 0 20 7 20 20 0 19 -20 27 -33 13z"/>
<path d="M1280 584 c-10 -11 -11 -20 -3 -32 17 -27 38 -20 38 12 0 34 -16 44
-35 20z"/>
<path d="M1580 585 c-11 -13 -9 -15 15 -15 16 0 25 5 23 12 -7 19 -24 20 -38
3z"/>
<path d="M2080 585 c-11 -13 -9 -15 15 -15 16 0 25 5 23 12 -7 19 -24 20 -38
3z"/>
<path d="M5579 584 c-9 -11 -10 -20 -2 -32 17 -28 38 -20 41 16 4 36 -16 44
-39 16z"/>
<path d="M280 364 c-16 -19 -3 -47 24 -52 14 -3 17 3 14 29 -3 37 -19 47 -38
23z"/>
<path d="M1987 374 c-4 -4 -7 -20 -7 -36 0 -23 4 -29 18 -26 11 2 17 13 17 32
0 29 -14 43 -28 30z"/>
<path d="M1287 370 c-16 -22 -16 -25 -1 -28 21 -5 26 2 22 30 l-3 23 -18 -25z"/>
<path d="M1582 338 c2 -12 10 -23 18 -23 22 0 19 39 -3 43 -15 3 -18 -1 -15
-20z"/>
<path d="M1787 404 c-14 -15 -6 -34 14 -34 14 0 19 5 17 17 -3 18 -20 27 -31
17z"/>
<path d="M1786 353 c-3 -4 -6 -15 -6 -25 0 -24 33 -21 38 3 3 17 -21 33 -32
22z"/>
<path d="M2582 338 c2 -12 10 -23 18 -23 22 0 19 39 -3 43 -15 3 -18 -1 -15
-20z"/>
<path d="M4977 404 c-4 -4 -7 -16 -7 -26 0 -14 6 -19 23 -16 14 2 22 10 22 23
0 20 -25 32 -38 19z"/>
<path d="M5980 386 c-6 -17 -6 -35 0 -52 15 -39 35 -24 35 26 0 50 -20 65 -35
26z m30 -26 c0 -5 -4 -10 -10 -10 -5 0 -10 5 -10 10 0 6 5 10 10 10 6 0 10 -4
10 -10z"/>
<path d="M7087 404 c-14 -15 -6 -34 14 -34 14 0 19 5 17 17 -3 18 -20 27 -31
17z"/>
<path d="M7086 353 c-3 -4 -6 -15 -6 -25 0 -24 33 -21 38 3 3 17 -21 33 -32
22z"/>
<path d="M180 365 c-11 -13 -9 -15 15 -15 16 0 25 5 23 12 -7 19 -24 20 -38 3z"/>
<path d="M787 343 c-14 -13 -6 -33 13 -33 13 0 20 7 20 20 0 19 -20 27 -33 13z"/>
<path d="M5579 364 c-9 -11 -10 -20 -2 -32 17 -28 38 -20 41 16 4 36 -16 44
-39 16z"/>
<path d="M2380 144 c-16 -19 -3 -47 24 -52 14 -3 17 3 14 29 -3 37 -19 47 -38
23z"/>
<path d="M1882 118 c2 -12 10 -23 18 -23 22 0 19 39 -3 43 -15 3 -18 -1 -15
-20z"/>
<path d="M2187 150 c-16 -22 -16 -25 -1 -28 21 -5 26 2 22 30 l-3 23 -18 -25z"/>
<path d="M2287 184 c-14 -15 -6 -34 14 -34 14 0 19 5 17 17 -3 18 -20 27 -31
17z"/>
<path d="M2286 133 c-3 -4 -6 -15 -6 -25 0 -24 33 -21 38 3 3 17 -21 33 -32
22z"/>
<path d="M2587 150 c-16 -22 -16 -25 -1 -28 21 -5 26 2 22 30 l-3 23 -18 -25z"/>
<path d="M3087 150 c-16 -22 -16 -25 -1 -28 21 -5 26 2 22 30 l-3 23 -18 -25z"/>
<path d="M3182 118 c2 -12 10 -23 18 -23 22 0 19 39 -3 43 -15 3 -18 -1 -15
-20z"/>
<path d="M4977 184 c-4 -4 -7 -16 -7 -26 0 -14 6 -19 23 -16 14 2 22 10 22 23
0 20 -25 32 -38 19z"/>
<path d="M5980 166 c-6 -17 -6 -35 0 -52 15 -39 35 -24 35 26 0 50 -20 65 -35
26z m30 -26 c0 -5 -4 -10 -10 -10 -5 0 -10 5 -10 10 0 6 5 10 10 10 6 0 10 -4
10 -10z"/>
<path d="M7087 184 c-14 -15 -6 -34 14 -34 14 0 19 5 17 17 -3 18 -20 27 -31
17z"/>
<path d="M7086 133 c-3 -4 -6 -15 -6 -25 0 -24 33 -21 38 3 3 17 -21 33 -32
22z"/>
<path d="M382 128 c4 -43 33 -46 33 -3 0 21 -5 31 -18 33 -15 3 -18 -2 -15
-30z"/>
<path d="M482 128 c4 -43 33 -46 33 -3 0 21 -5 31 -18 33 -15 3 -18 -2 -15
-30z"/>
<path d="M779 144 c-9 -11 -10 -20 -2 -32 17 -28 38 -20 41 16 4 36 -16 44
-39 16z"/>
<path d="M980 145 c-11 -13 -9 -15 15 -15 16 0 25 5 23 12 -7 19 -24 20 -38 3z"/>
<path d="M1480 145 c-11 -13 -9 -15 15 -15 16 0 25 5 23 12 -7 19 -24 20 -38
3z"/>
<path d="M5579 144 c-9 -11 -10 -20 -2 -32 17 -28 38 -20 41 16 4 36 -16 44
-39 16z"/>
</g>
</svg>
