<?xml version="1.0" standalone="no"?>
<!DOCTYPE svg PUBLIC "-//W3C//DTD SVG 20010904//EN"
 "http://www.w3.org/TR/2001/REC-SVG-20010904/DTD/svg10.dtd">
<svg version="1.0" xmlns="http://www.w3.org/2000/svg"
 width="396.000000pt" height="361.000000pt" viewBox="0 0 396.000000 361.000000"
 preserveAspectRatio="xMidYMid meet">

<g transform="translate(0.000000,361.000000) scale(0.100000,-0.100000)"
fill="#000000" stroke="none">
<path d="M532 3368 c-13 -13 2 -38 23 -38 7 0 15 -9 18 -20 3 -11 17 -24 32
-30 28 -11 29 -33 2 -38 -11 -2 -21 6 -27 22 -15 42 -23 30 -16 -24 6 -44 5
-50 -11 -50 -16 0 -18 9 -18 64 0 92 -14 102 -68 48 l-42 -42 63 -62 62 -63
62 62 63 63 -60 60 c-33 33 -62 60 -65 60 -3 0 -11 -5 -18 -12z"/>
<path d="M1010 3285 c0 -30 5 -55 10 -55 6 0 10 25 10 55 0 30 -4 55 -10 55
-5 0 -10 -25 -10 -55z"/>
<path d="M1050 3330 c0 -5 5 -10 10 -10 6 0 10 5 10 10 0 6 -4 10 -10 10 -5 0
-10 -4 -10 -10z"/>
<path d="M1321 3289 c-1 -55 0 -56 27 -55 24 1 27 5 27 36 0 28 -4 35 -20 35
-11 0 -23 9 -27 20 -3 12 -6 -4 -7 -36z m44 -9 c8 -13 -14 -42 -26 -34 -5 3
-9 14 -9 25 0 20 24 26 35 9z"/>
<path d="M1620 3330 c0 -5 5 -10 10 -10 6 0 10 5 10 10 0 6 -4 10 -10 10 -5 0
-10 -4 -10 -10z"/>
<path d="M1568 3318 c-7 -21 6 -81 18 -85 9 -3 10 15 5 90 -1 12 -19 8 -23 -5z"/>
<path d="M850 3295 c-26 -31 13 -82 44 -56 19 16 21 42 4 59 -16 16 -33 15
-48 -3z m40 -25 c0 -11 -7 -20 -15 -20 -8 0 -15 9 -15 20 0 11 7 20 15 20 8 0
15 -9 15 -20z"/>
<path d="M930 3271 c0 -23 2 -41 4 -41 8 0 12 71 4 76 -4 3 -8 -13 -8 -35z"/>
<path d="M963 3296 c4 -10 7 -29 7 -42 0 -13 5 -24 11 -24 15 0 6 73 -10 78
-10 3 -12 0 -8 -12z"/>
<path d="M1050 3270 c0 -22 5 -40 10 -40 6 0 10 18 10 40 0 22 -4 40 -10 40
-5 0 -10 -18 -10 -40z"/>
<path d="M1090 3269 c0 -47 17 -52 22 -6 4 41 21 38 30 -5 6 -31 6 -31 5 7 -2
36 -5 40 -29 42 -26 2 -28 -1 -28 -38z"/>
<path d="M1182 3298 c-28 -28 1 -78 35 -62 16 7 15 8 -4 11 -31 6 -29 23 2 23
14 0 25 4 25 8 0 12 -22 32 -35 32 -6 0 -16 -5 -23 -12z m35 -14 c-3 -3 -12
-4 -19 -1 -8 3 -5 6 6 6 11 1 17 -2 13 -5z"/>
<path d="M1410 3295 c-26 -31 13 -82 44 -56 19 16 21 42 4 59 -16 16 -33 15
-48 -3z m40 -25 c0 -11 -7 -20 -15 -20 -8 0 -15 9 -15 20 0 11 7 20 15 20 8 0
15 -9 15 -20z"/>
<path d="M1493 3275 c2 -36 5 -40 30 -42 25 -2 27 1 27 38 0 47 -17 52 -22 7
-4 -42 -21 -39 -30 4 -6 31 -6 31 -5 -7z"/>
<path d="M1620 3270 c0 -22 5 -40 10 -40 6 0 10 18 10 40 0 22 -4 40 -10 40
-5 0 -10 -18 -10 -40z"/>
<path d="M1673 3303 c-15 -6 -18 -62 -3 -64 6 -1 16 -2 23 -3 6 -1 15 -10 19
-21 3 -12 6 3 7 35 1 57 -8 67 -46 53z m37 -34 c0 -20 -24 -26 -35 -9 -8 13
14 42 26 34 5 -3 9 -14 9 -25z"/>
<path d="M1753 3275 c2 -36 5 -40 30 -42 25 -2 27 1 27 38 0 47 -17 52 -22 7
-4 -42 -21 -39 -30 4 -6 31 -6 31 -5 -7z"/>
<path d="M1843 3303 c-7 -2 -13 -17 -13 -33 0 -32 33 -51 53 -31 8 8 5 11 -10
11 -12 0 -25 5 -28 10 -4 6 5 10 19 10 29 0 36 24 10 34 -9 3 -16 6 -17 5 -1
0 -8 -3 -14 -6z m34 -19 c-3 -3 -12 -4 -19 -1 -8 3 -5 6 6 6 11 1 17 -2 13 -5z"/>
<path d="M1260 3280 c0 -5 7 -10 15 -10 8 0 15 5 15 10 0 6 -7 10 -15 10 -8 0
-15 -4 -15 -10z"/>
<path d="M1442 3023 c-4 -10 -5 -34 -1 -53 6 -35 6 -35 9 -5 1 17 3 40 4 53 3
27 0 28 -12 5z"/>
<path d="M1623 2990 c0 -30 2 -43 4 -27 2 15 2 39 0 55 -2 15 -4 2 -4 -28z"/>
<path d="M431 2983 c1 -27 4 -38 6 -25 3 13 12 22 23 22 10 0 21 4 24 9 3 4
-6 6 -19 3 -19 -3 -25 0 -25 13 0 13 6 16 25 13 13 -3 22 -1 19 3 -3 5 -16 9
-30 9 -22 0 -24 -3 -23 -47z"/>
<path d="M799 3014 c-3 -20 3 -59 9 -66 4 -4 7 9 6 28 -1 31 -12 60 -15 38z"/>
<path d="M513 2975 c0 -22 2 -30 4 -17 2 12 2 30 0 40 -3 9 -5 -1 -4 -23z"/>
<path d="M565 3000 c-3 -6 1 -7 9 -4 18 7 21 14 7 14 -6 0 -13 -4 -16 -10z"/>
<path d="M630 2963 c-3 -29 -1 -48 3 -44 5 5 7 28 5 52 l-3 44 -5 -52z"/>
<path d="M680 3006 c0 -2 7 -7 16 -10 8 -3 12 -2 9 4 -6 10 -25 14 -25 6z"/>
<path d="M737 3003 c-3 -5 5 -8 18 -8 13 0 21 3 18 8 -2 4 -10 7 -18 7 -8 0
-16 -3 -18 -7z"/>
<path d="M1294 2996 c-8 -22 -1 -49 14 -52 7 -1 8 0 2 3 -14 7 -13 50 3 56 9
4 9 6 -1 6 -7 1 -15 -5 -18 -13z"/>
<path d="M1380 3006 c0 -2 7 -7 16 -10 8 -3 12 -2 9 4 -6 10 -25 14 -25 6z"/>
<path d="M1486 3001 c-3 -5 3 -7 14 -4 11 3 20 1 20 -5 0 -5 -9 -12 -21 -15
-22 -6 -22 -29 -1 -33 7 -1 8 0 2 3 -15 7 -12 23 4 23 8 0 17 -8 20 -17 2 -10
4 -2 3 17 -2 34 -27 54 -41 31z"/>
<path d="M1554 2981 c0 -21 7 -36 16 -38 10 -3 11 -2 3 4 -6 4 -13 22 -16 38
-4 27 -5 27 -3 -4z"/>
<path d="M1593 2975 c0 -22 2 -30 4 -17 2 12 2 30 0 40 -3 9 -5 -1 -4 -23z"/>
<path d="M1648 3003 c7 -3 16 -2 19 1 4 3 -2 6 -13 5 -11 0 -14 -3 -6 -6z"/>
<path d="M602 2975 c0 -16 2 -22 5 -12 2 9 2 23 0 30 -3 6 -5 -1 -5 -18z"/>
<path d="M661 2975 c0 -16 3 -25 7 -19 4 7 16 14 27 17 19 4 19 5 -2 6 -12 0
-24 7 -26 14 -3 6 -6 -1 -6 -18z"/>
<path d="M1360 2975 c0 -8 9 -10 25 -7 14 2 25 6 25 7 0 1 -11 5 -25 7 -16 3
-25 1 -25 -7z"/>
<path d="M567 2949 c7 -7 15 -10 18 -7 3 3 -2 9 -12 12 -14 6 -15 5 -6 -5z"/>
<path d="M737 2948 c2 -5 10 -8 18 -8 8 0 16 3 18 8 3 4 -5 7 -18 7 -13 0 -21
-3 -18 -7z"/>
<path d="M573 2750 c0 -30 2 -43 4 -27 2 15 2 39 0 55 -2 15 -4 2 -4 -28z"/>
<path d="M432 2748 c-2 -46 -1 -48 26 -47 22 1 23 2 5 6 -18 3 -23 13 -26 46
l-4 42 -1 -47z"/>
<path d="M506 2761 c-3 -5 3 -7 14 -4 11 3 20 0 20 -6 0 -6 -6 -11 -12 -11 -9
0 -10 -3 -2 -8 6 -4 14 -14 17 -22 4 -8 5 1 4 20 -2 34 -27 54 -41 31z"/>
<path d="M590 2766 c0 -2 7 -7 16 -10 8 -3 12 -2 9 4 -6 10 -25 14 -25 6z"/>
<path d="M655 2760 c-3 -6 1 -7 9 -4 18 7 21 14 7 14 -6 0 -13 -4 -16 -10z"/>
<path d="M760 2766 c0 -2 7 -7 16 -10 8 -3 12 -2 9 4 -6 10 -25 14 -25 6z"/>
<path d="M665 2740 l-30 -8 33 -1 c17 0 32 4 32 9 0 6 -1 9 -2 9 -2 -1 -16 -5
-33 -9z"/>
<path d="M750 2746 c0 -3 9 -10 20 -16 11 -6 20 -8 20 -6 0 3 -9 10 -20 16
-11 6 -20 8 -20 6z"/>
<path d="M500 2721 c0 -10 19 -25 25 -20 1 2 -3 10 -11 17 -8 7 -14 8 -14 3z"/>
<path d="M600 2710 c-9 -6 -10 -10 -3 -10 6 0 15 5 18 10 8 12 4 12 -15 0z"/>
<path d="M658 2708 c5 -5 16 -8 23 -6 8 3 3 7 -10 11 -17 4 -21 3 -13 -5z"/>
<path d="M1763 2510 c0 -30 2 -43 4 -27 2 15 2 39 0 55 -2 15 -4 2 -4 -28z"/>
<path d="M2097 2543 c-3 -5 5 -8 18 -8 13 0 21 3 18 8 -2 4 -10 7 -18 7 -8 0
-16 -3 -18 -7z"/>
<path d="M509 2534 c-3 -20 3 -59 9 -66 4 -4 7 9 6 28 -1 31 -12 60 -15 38z"/>
<path d="M1719 2534 c-3 -20 3 -59 9 -66 4 -4 7 9 6 28 -1 31 -12 60 -15 38z"/>
<path d="M556 2521 c-3 -5 3 -7 14 -4 11 3 20 0 20 -6 0 -6 -6 -11 -12 -11 -9
0 -10 -3 -2 -8 6 -4 14 -14 17 -22 4 -8 5 1 4 20 -2 34 -27 54 -41 31z"/>
<path d="M618 2523 c7 -3 16 -2 19 1 4 3 -2 6 -13 5 -11 0 -14 -3 -6 -6z"/>
<path d="M662 2505 c0 -16 2 -22 5 -12 2 9 2 23 0 30 -3 6 -5 -1 -5 -18z"/>
<path d="M750 2526 c0 -2 7 -7 16 -10 8 -3 12 -2 9 4 -6 10 -25 14 -25 6z"/>
<path d="M1555 2520 c-3 -6 1 -7 9 -4 18 7 21 14 7 14 -6 0 -13 -4 -16 -10z"/>
<path d="M1630 2526 c0 -2 7 -7 16 -10 8 -3 12 -2 9 4 -6 10 -25 14 -25 6z"/>
<path d="M1787 2523 c6 -4 13 -22 16 -38 4 -27 5 -27 3 4 0 21 -7 36 -16 38
-10 3 -11 2 -3 -4z"/>
<path d="M2305 2520 c-3 -6 1 -7 9 -4 18 7 21 14 7 14 -6 0 -13 -4 -16 -10z"/>
<path d="M2375 2520 c-3 -6 1 -7 9 -4 18 7 21 14 7 14 -6 0 -13 -4 -16 -10z"/>
<path d="M2450 2526 c0 -2 7 -7 16 -10 8 -3 12 -2 9 4 -6 10 -25 14 -25 6z"/>
<path d="M740 2506 c0 -3 9 -10 20 -16 11 -6 20 -8 20 -6 0 3 -9 10 -20 16
-11 6 -20 8 -20 6z"/>
<path d="M1473 2503 c9 -2 25 -2 35 0 9 3 1 5 -18 5 -19 0 -27 -2 -17 -5z"/>
<path d="M1565 2500 l-30 -8 33 -1 c17 0 32 4 32 9 0 6 -1 9 -2 9 -2 -1 -16
-5 -33 -9z"/>
<path d="M2110 2506 c0 -2 7 -7 16 -10 8 -3 12 -2 9 4 -6 10 -25 14 -25 6z"/>
<path d="M2272 2485 c0 -16 2 -22 5 -12 2 9 2 23 0 30 -3 6 -5 -1 -5 -18z"/>
<path d="M2385 2500 l-30 -8 33 -1 c17 0 32 4 32 9 0 6 -1 9 -2 9 -2 -1 -16
-5 -33 -9z"/>
<path d="M2431 2494 c0 -11 3 -14 6 -6 3 7 2 16 -1 19 -3 4 -6 -2 -5 -13z"/>
<path d="M480 2487 c0 -8 -8 -18 -17 -20 -17 -4 -17 -5 0 -6 18 -1 35 25 23
36 -3 4 -6 -1 -6 -10z"/>
<path d="M1638 2493 c7 -3 16 -2 19 1 4 3 -2 6 -13 5 -11 0 -14 -3 -6 -6z"/>
<path d="M2170 2495 c0 -5 5 -17 10 -25 5 -8 10 -10 10 -5 0 6 -5 17 -10 25
-5 8 -10 11 -10 5z"/>
<path d="M550 2481 c0 -10 19 -25 25 -20 1 2 -3 10 -11 17 -8 7 -14 8 -14 3z"/>
<path d="M1610 2481 c0 -10 19 -25 25 -20 1 2 -3 10 -11 17 -8 7 -14 8 -14 3z"/>
<path d="M1840 2481 c0 -5 5 -13 10 -16 6 -3 10 -2 10 4 0 5 -4 13 -10 16 -5
3 -10 2 -10 -4z"/>
<path d="M685 2470 c-19 -8 -19 -9 3 -9 12 -1 22 4 22 9 0 6 -1 10 -2 9 -2 0
-12 -4 -23 -9z"/>
<path d="M1558 2468 c5 -5 16 -8 23 -6 8 3 3 7 -10 11 -17 4 -21 3 -13 -5z"/>
<path d="M2097 2468 c2 -5 10 -8 18 -8 8 0 16 3 18 8 3 4 -5 7 -18 7 -13 0
-21 -3 -18 -7z"/>
<path d="M2307 2469 c7 -7 15 -10 18 -7 3 3 -2 9 -12 12 -14 6 -15 5 -6 -5z"/>
<path d="M2378 2468 c5 -5 16 -8 23 -6 8 3 3 7 -10 11 -17 4 -21 3 -13 -5z"/>
<path d="M2460 2470 c-9 -6 -10 -10 -3 -10 6 0 15 5 18 10 8 12 4 12 -15 0z"/>
<path d="M1293 2270 c0 -30 2 -43 4 -27 2 15 2 39 0 55 -2 15 -4 2 -4 -28z"/>
<path d="M1863 2270 c0 -30 2 -43 4 -27 2 15 2 39 0 55 -2 15 -4 2 -4 -28z"/>
<path d="M2003 2270 c0 -30 2 -43 4 -27 2 15 2 39 0 55 -2 15 -4 2 -4 -28z"/>
<path d="M431 2263 c1 -27 4 -37 6 -25 3 18 10 23 23 19 13 -3 21 1 25 14 9
26 -2 39 -31 39 -22 0 -24 -3 -23 -47z m49 22 c0 -8 -9 -15 -20 -15 -11 0 -20
7 -20 15 0 8 9 15 20 15 11 0 20 -7 20 -15z"/>
<path d="M829 2294 c-3 -20 3 -59 9 -66 4 -4 7 9 6 28 -1 31 -12 60 -15 38z"/>
<path d="M1409 2295 c-7 -6 2 -75 10 -75 3 0 6 16 5 35 -1 35 -6 49 -15 40z"/>
<path d="M1819 2294 c-3 -20 3 -59 9 -66 4 -4 7 9 6 28 -1 31 -12 60 -15 38z"/>
<path d="M530 2286 c0 -2 7 -7 16 -10 8 -3 12 -2 9 4 -6 10 -25 14 -25 6z"/>
<path d="M583 2240 c0 -30 2 -43 4 -27 2 15 2 39 0 55 -2 15 -4 2 -4 -28z"/>
<path d="M600 2286 c0 -2 7 -7 16 -10 8 -3 12 -2 9 4 -6 10 -25 14 -25 6z"/>
<path d="M740 2286 c0 -2 7 -7 16 -10 8 -3 12 -2 9 4 -6 10 -25 14 -25 6z"/>
<path d="M1317 2283 c6 -4 13 -22 16 -38 4 -27 5 -27 3 4 0 21 -7 36 -16 38
-10 3 -11 2 -3 -4z"/>
<path d="M1358 2283 c7 -3 16 -2 19 1 4 3 -2 6 -13 5 -11 0 -14 -3 -6 -6z"/>
<path d="M1480 2283 c5 -2 10 -16 10 -30 0 -20 -4 -24 -20 -20 -11 3 -20 1
-20 -5 0 -5 10 -8 23 -6 17 2 22 10 22 32 0 16 -6 30 -13 32 -7 1 -8 0 -2 -3z"/>
<path d="M1525 2279 c-4 -6 -4 -13 -1 -16 3 -4 6 -1 6 6 0 8 8 11 20 8 11 -3
18 -1 14 4 -7 12 -31 11 -39 -2z"/>
<path d="M1714 2276 c-8 -22 -1 -49 14 -52 7 -1 8 0 2 3 -14 7 -13 50 3 56 9
4 9 6 -1 6 -7 1 -15 -5 -18 -13z"/>
<path d="M1887 2283 c6 -4 13 -22 16 -38 4 -27 5 -27 3 4 0 21 -7 36 -16 38
-10 3 -11 2 -3 -4z"/>
<path d="M1934 2261 c0 -21 7 -36 16 -38 10 -3 11 -2 3 4 -6 4 -13 22 -16 38
-4 27 -5 27 -3 -4z"/>
<path d="M1973 2255 c0 -22 2 -30 4 -17 2 12 2 30 0 40 -3 9 -5 -1 -4 -23z"/>
<path d="M2020 2286 c0 -2 7 -7 16 -10 8 -3 12 -2 9 4 -6 10 -25 14 -25 6z"/>
<path d="M2117 2283 c-3 -5 5 -8 18 -8 13 0 21 3 18 8 -2 4 -10 7 -18 7 -8 0
-16 -3 -18 -7z"/>
<path d="M2185 2280 c-3 -6 1 -7 9 -4 18 7 21 14 7 14 -6 0 -13 -4 -16 -10z"/>
<path d="M2253 2255 c0 -22 2 -30 4 -17 2 12 2 30 0 40 -3 9 -5 -1 -4 -23z"/>
<path d="M2277 2283 c6 -4 13 -22 16 -38 4 -27 5 -27 3 4 0 21 -7 36 -16 38
-10 3 -11 2 -3 -4z"/>
<path d="M2310 2286 c0 -2 7 -7 16 -10 8 -3 12 -2 9 4 -6 10 -25 14 -25 6z"/>
<path d="M2427 2283 c-3 -5 5 -8 18 -8 13 0 21 3 18 8 -2 4 -10 7 -18 7 -8 0
-16 -3 -18 -7z"/>
<path d="M2563 2255 c0 -22 2 -30 4 -17 2 12 2 30 0 40 -3 9 -5 -1 -4 -23z"/>
<path d="M2650 2286 c0 -2 7 -7 16 -10 8 -3 12 -2 9 4 -6 10 -25 14 -25 6z"/>
<path d="M2698 2283 c7 -3 16 -2 19 1 4 3 -2 6 -13 5 -11 0 -14 -3 -6 -6z"/>
<path d="M2785 2280 c-3 -6 1 -7 9 -4 18 7 21 14 7 14 -6 0 -13 -4 -16 -10z"/>
<path d="M2928 2283 c7 -3 16 -2 19 1 4 3 -2 6 -13 5 -11 0 -14 -3 -6 -6z"/>
<path d="M2980 2286 c0 -2 7 -7 16 -10 8 -3 12 -2 9 4 -6 10 -25 14 -25 6z"/>
<path d="M3033 2255 c0 -22 2 -30 4 -17 2 12 2 30 0 40 -3 9 -5 -1 -4 -23z"/>
<path d="M3156 2281 c-3 -5 3 -7 14 -4 11 3 20 1 20 -5 0 -5 -9 -12 -21 -15
-22 -6 -22 -29 -1 -33 7 -1 8 0 2 3 -15 7 -12 23 4 23 8 0 17 -8 20 -17 2 -10
4 -2 3 17 -2 34 -27 54 -41 31z"/>
<path d="M3223 2255 c0 -22 2 -30 4 -17 2 12 2 30 0 40 -3 9 -5 -1 -4 -23z"/>
<path d="M3247 2283 c6 -4 13 -22 16 -38 4 -27 5 -27 3 4 0 21 -7 36 -16 38
-10 3 -11 2 -3 -4z"/>
<path d="M3294 2276 c-8 -22 -1 -49 14 -52 7 -1 8 0 2 3 -14 7 -13 50 3 56 9
4 9 6 -1 6 -7 1 -15 -5 -18 -13z"/>
<path d="M3380 2286 c0 -2 7 -7 16 -10 8 -3 12 -2 9 4 -6 10 -25 14 -25 6z"/>
<path d="M511 2255 c0 -16 3 -25 7 -19 4 7 16 14 27 17 19 4 19 5 -2 6 -12 0
-24 7 -26 14 -3 6 -6 -1 -6 -18z"/>
<path d="M2222 2255 c0 -16 2 -22 5 -12 2 9 2 23 0 30 -3 6 -5 -1 -5 -18z"/>
<path d="M651 2254 c0 -11 3 -14 6 -6 3 7 2 16 -1 19 -3 4 -6 -2 -5 -13z"/>
<path d="M701 2254 c0 -11 3 -14 6 -6 3 7 2 16 -1 19 -3 4 -6 -2 -5 -13z"/>
<path d="M730 2266 c0 -3 9 -10 20 -16 11 -6 20 -8 20 -6 0 3 -9 10 -20 16
-11 6 -20 8 -20 6z"/>
<path d="M2532 2245 c0 -16 2 -22 5 -12 2 9 2 23 0 30 -3 6 -5 -1 -5 -18z"/>
<path d="M2892 2245 c0 -16 2 -22 5 -12 2 9 2 23 0 30 -3 6 -5 -1 -5 -18z"/>
<path d="M2960 2255 c0 -8 9 -10 25 -7 14 2 25 6 25 7 0 1 -11 5 -25 7 -16 3
-25 1 -25 -7z"/>
<path d="M3122 2245 c0 -16 2 -22 5 -12 2 9 2 23 0 30 -3 6 -5 -1 -5 -18z"/>
<path d="M3360 2255 c0 -8 9 -10 25 -7 14 2 25 6 25 7 0 1 -11 5 -25 7 -16 3
-25 1 -25 -7z"/>
<path d="M1550 2253 c19 -9 10 -25 -11 -20 -16 4 -19 3 -11 -5 13 -13 45 -2
40 14 -2 6 -10 13 -16 14 -7 1 -8 0 -2 -3z"/>
<path d="M2660 2253 c19 -9 10 -25 -11 -20 -16 4 -19 3 -11 -5 13 -13 45 -2
40 14 -2 6 -10 13 -16 14 -7 1 -8 0 -2 -3z"/>
<path d="M2798 2253 c7 -3 16 -2 19 1 4 3 -2 6 -13 5 -11 0 -14 -3 -6 -6z"/>
<path d="M610 2230 c-9 -6 -10 -10 -3 -10 6 0 15 5 18 10 8 12 4 12 -15 0z"/>
<path d="M2030 2230 c-9 -6 -10 -10 -3 -10 6 0 15 5 18 10 8 12 4 12 -15 0z"/>
<path d="M2117 2228 c2 -5 10 -8 18 -8 8 0 16 3 18 8 3 4 -5 7 -18 7 -13 0
-21 -3 -18 -7z"/>
<path d="M2187 2229 c7 -7 15 -10 18 -7 3 3 -2 9 -12 12 -14 6 -15 5 -6 -5z"/>
<path d="M2427 2228 c2 -5 10 -8 18 -8 8 0 16 3 18 8 3 4 -5 7 -18 7 -13 0
-21 -3 -18 -7z"/>
<path d="M2795 2230 c-16 -7 -17 -9 -3 -9 9 -1 20 4 23 9 7 11 7 11 -20 0z"/>
<path d="M1735 2200 c-16 -7 -17 -9 -3 -9 9 -1 20 4 23 9 7 11 7 11 -20 0z"/>
<path d="M443 2063 c9 -2 25 -2 35 0 9 3 1 5 -18 5 -19 0 -27 -2 -17 -5z"/>
<path d="M1293 2025 c0 -27 2 -40 4 -27 3 15 11 22 28 22 17 0 25 -7 28 -22 2
-13 4 0 4 27 0 28 -2 40 -4 28 -3 -16 -11 -23 -28 -23 -17 0 -25 7 -28 23 -2
12 -4 0 -4 -28z"/>
<path d="M1403 2063 c9 -2 23 -2 30 0 6 3 -1 5 -18 5 -16 0 -22 -2 -12 -5z"/>
<path d="M1480 2061 c0 -5 5 -13 10 -16 6 -3 10 -2 10 4 0 5 -4 13 -10 16 -5
3 -10 2 -10 -4z"/>
<path d="M1540 2025 c0 -40 2 -45 23 -44 16 1 18 2 5 6 -13 3 -18 14 -18 38 0
24 5 35 18 38 13 4 11 5 -5 6 -21 1 -23 -4 -23 -44z"/>
<path d="M759 2054 c-3 -20 3 -59 9 -66 4 -4 7 9 6 28 -1 31 -12 60 -15 38z"/>
<path d="M506 2041 c-3 -5 3 -7 14 -4 11 3 20 1 20 -5 0 -5 -9 -12 -21 -15
-22 -6 -22 -29 -1 -33 7 -1 8 0 2 3 -15 7 -12 23 4 23 8 0 17 -8 20 -17 2 -10
4 -2 3 17 -2 34 -27 54 -41 31z"/>
<path d="M573 2015 c0 -22 2 -30 4 -17 2 12 2 30 0 40 -3 9 -5 -1 -4 -23z"/>
<path d="M695 2040 c-3 -6 1 -7 9 -4 18 7 21 14 7 14 -6 0 -13 -4 -16 -10z"/>
<path d="M611 2014 c0 -11 3 -14 6 -6 3 7 2 16 -1 19 -3 4 -6 -2 -5 -13z"/>
<path d="M705 2020 l-30 -8 33 -1 c17 0 32 4 32 9 0 6 -1 9 -2 9 -2 -1 -16 -5
-33 -9z"/>
<path d="M1398 2023 c6 -2 18 -2 25 0 6 3 1 5 -13 5 -14 0 -19 -2 -12 -5z"/>
<path d="M1460 2009 c0 -4 14 -9 30 -11 17 -3 30 -1 30 3 0 4 -13 9 -30 11
-16 3 -30 1 -30 -3z"/>
<path d="M640 1990 c-9 -6 -10 -10 -3 -10 6 0 15 5 18 10 8 12 4 12 -15 0z"/>
<path d="M698 1988 c5 -5 16 -8 23 -6 8 3 3 7 -10 11 -17 4 -21 3 -13 -5z"/>
<path d="M1403 1983 c9 -2 23 -2 30 0 6 3 -1 5 -18 5 -16 0 -22 -2 -12 -5z"/>
<path d="M640 1960 c-9 -6 -10 -10 -3 -10 6 0 15 5 18 10 8 12 4 12 -15 0z"/>
<path d="M1293 1790 c0 -30 1 -47 4 -37 2 9 7 17 10 17 3 0 12 -8 20 -17 13
-16 13 -16 3 5 -9 18 -8 27 2 40 10 13 8 13 -9 -1 -21 -19 -22 -19 -26 15 -2
20 -4 11 -4 -22z"/>
<path d="M431 1783 c1 -27 4 -38 6 -25 3 13 12 22 23 22 10 0 21 4 24 9 3 4
-6 6 -19 3 -19 -3 -25 0 -25 13 0 13 6 16 25 13 13 -3 22 -1 19 3 -3 5 -16 9
-30 9 -22 0 -24 -3 -23 -47z"/>
<path d="M1365 1820 c-3 -6 1 -7 9 -4 18 7 21 14 7 14 -6 0 -13 -4 -16 -10z"/>
<path d="M589 1815 c-7 -6 2 -75 10 -75 3 0 6 16 5 35 -1 35 -6 49 -15 40z"/>
<path d="M530 1806 c0 -2 7 -7 16 -10 8 -3 12 -2 9 4 -6 10 -25 14 -25 6z"/>
<path d="M1435 1799 c-11 -16 -1 -19 13 -3 7 8 8 14 3 14 -5 0 -13 -5 -16 -11z"/>
<path d="M1363 1785 c0 -7 8 -10 19 -7 12 3 18 -1 18 -13 0 -13 -6 -16 -21
-12 -16 4 -19 3 -11 -5 15 -15 44 -2 40 18 -4 21 -45 38 -45 19z"/>
<path d="M672 1765 c0 -16 2 -22 5 -12 2 9 2 23 0 30 -3 6 -5 -1 -5 -18z"/>
<path d="M538 1773 c7 -3 16 -2 19 1 4 3 -2 6 -13 5 -11 0 -14 -3 -6 -6z"/>
<path d="M510 1761 c0 -10 19 -25 25 -20 1 2 -3 10 -11 17 -8 7 -14 8 -14 3z"/>
<path d="M1438 1748 c5 -5 16 -8 23 -6 8 3 3 7 -10 11 -17 4 -21 3 -13 -5z"/>
<path d="M1503 1550 c0 -30 2 -43 4 -27 2 15 2 39 0 55 -2 15 -4 2 -4 -28z"/>
<path d="M430 1545 c0 -40 2 -45 23 -44 16 1 18 2 5 6 -13 3 -18 14 -18 38 0
24 5 35 18 38 13 4 11 5 -5 6 -21 1 -23 -4 -23 -44z"/>
<path d="M659 1575 c-7 -6 2 -75 10 -75 3 0 6 16 5 35 -1 35 -6 49 -15 40z"/>
<path d="M1669 1574 c-3 -20 3 -59 9 -66 4 -4 7 9 6 28 -1 31 -12 60 -15 38z"/>
<path d="M525 1560 c-3 -6 1 -7 9 -4 18 7 21 14 7 14 -6 0 -13 -4 -16 -10z"/>
<path d="M600 1566 c0 -2 7 -7 16 -10 8 -3 12 -2 9 4 -6 10 -25 14 -25 6z"/>
<path d="M806 1561 c-3 -5 3 -7 14 -4 11 3 20 1 20 -5 0 -5 -9 -12 -21 -15
-22 -6 -22 -29 -1 -33 7 -1 8 0 2 3 -15 7 -12 23 4 23 8 0 17 -8 20 -17 2 -10
4 -2 3 17 -2 34 -27 54 -41 31z"/>
<path d="M1293 1535 c0 -22 2 -30 4 -17 2 12 2 30 0 40 -3 9 -5 -1 -4 -23z"/>
<path d="M1323 1535 c0 -22 2 -30 4 -17 2 12 2 30 0 40 -3 9 -5 -1 -4 -23z"/>
<path d="M1347 1563 c6 -4 13 -22 16 -38 4 -27 5 -27 3 4 0 21 -7 36 -16 38
-10 3 -11 2 -3 -4z"/>
<path d="M1437 1563 c-3 -5 5 -8 18 -8 13 0 21 3 18 8 -2 4 -10 7 -18 7 -8 0
-16 -3 -18 -7z"/>
<path d="M1534 1541 c0 -21 7 -36 16 -38 10 -3 11 -2 3 4 -6 4 -13 22 -16 38
-4 27 -5 27 -3 -4z"/>
<path d="M1573 1535 c0 -22 2 -30 4 -17 2 12 2 30 0 40 -3 9 -5 -1 -4 -23z"/>
<path d="M1605 1559 c-4 -6 -4 -13 -1 -16 3 -4 6 -1 6 6 0 8 8 11 20 8 11 -3
18 -1 14 4 -7 12 -31 11 -39 -2z"/>
<path d="M1730 1566 c0 -2 7 -7 16 -10 8 -3 12 -2 9 4 -6 10 -25 14 -25 6z"/>
<path d="M1783 1535 c0 -22 2 -30 4 -17 2 12 2 30 0 40 -3 9 -5 -1 -4 -23z"/>
<path d="M1711 1535 c0 -16 3 -25 7 -19 4 7 16 14 27 17 19 4 19 5 -2 6 -12 0
-24 7 -26 14 -3 6 -6 -1 -6 -18z"/>
<path d="M535 1540 l-30 -8 33 -1 c17 0 32 4 32 9 0 6 -1 9 -2 9 -2 -1 -16 -5
-33 -9z"/>
<path d="M590 1546 c0 -3 9 -10 20 -16 11 -6 20 -8 20 -6 0 3 -9 10 -20 16
-11 6 -20 8 -20 6z"/>
<path d="M772 1525 c0 -16 2 -22 5 -12 2 9 2 23 0 30 -3 6 -5 -1 -5 -18z"/>
<path d="M1630 1533 c19 -9 10 -25 -11 -20 -16 4 -19 3 -11 -5 13 -13 45 -2
40 14 -2 6 -10 13 -16 14 -7 1 -8 0 -2 -3z"/>
<path d="M528 1508 c5 -5 16 -8 23 -6 8 3 3 7 -10 11 -17 4 -21 3 -13 -5z"/>
<path d="M1437 1508 c2 -5 10 -8 18 -8 8 0 16 3 18 8 3 4 -5 7 -18 7 -13 0
-21 -3 -18 -7z"/>
<path d="M1293 1310 c0 -30 2 -43 4 -27 2 15 2 39 0 55 -2 15 -4 2 -4 -28z"/>
<path d="M432 1303 c1 -44 2 -45 5 -10 3 25 8 35 16 30 7 -4 6 0 -2 10 -20 25
-21 22 -19 -30z"/>
<path d="M488 1309 c-2 -22 0 -43 4 -45 4 -3 8 15 8 40 0 57 -7 60 -12 5z"/>
<path d="M1509 1334 c-3 -20 3 -59 9 -66 4 -4 7 9 6 28 -1 31 -12 60 -15 38z"/>
<path d="M540 1326 c0 -2 7 -7 16 -10 8 -3 12 -2 9 4 -6 10 -25 14 -25 6z"/>
<path d="M593 1295 c0 -22 2 -30 4 -17 2 12 2 30 0 40 -3 9 -5 -1 -4 -23z"/>
<path d="M620 1320 c8 -5 20 -10 25 -10 6 0 3 5 -5 10 -8 5 -19 10 -25 10 -5
0 -3 -5 5 -10z"/>
<path d="M716 1321 c-3 -5 3 -7 14 -4 11 3 20 1 20 -5 0 -6 -10 -13 -22 -15
-19 -4 -18 -5 5 -6 22 -1 28 3 25 16 -4 20 -33 29 -42 14z"/>
<path d="M785 1319 c-11 -16 -1 -19 13 -3 7 8 8 14 3 14 -5 0 -13 -5 -16 -11z"/>
<path d="M1310 1326 c0 -2 7 -7 16 -10 8 -3 12 -2 9 4 -6 10 -25 14 -25 6z"/>
<path d="M1444 1301 c0 -21 7 -36 16 -38 10 -3 11 -2 3 4 -6 4 -13 22 -16 38
-4 27 -5 27 -3 -4z"/>
<path d="M1483 1295 c0 -22 2 -30 4 -17 2 12 2 30 0 40 -3 9 -5 -1 -4 -23z"/>
<path d="M1553 1295 c0 -22 2 -30 4 -17 2 12 2 30 0 40 -3 9 -5 -1 -4 -23z"/>
<path d="M1664 1301 c0 -21 7 -36 16 -38 10 -3 11 -2 3 4 -6 4 -13 22 -16 38
-4 27 -5 27 -3 -4z"/>
<path d="M1703 1295 c0 -22 2 -30 4 -17 2 12 2 30 0 40 -3 9 -5 -1 -4 -23z"/>
<path d="M1736 1321 c-3 -5 3 -7 14 -4 11 3 20 1 20 -5 0 -6 -10 -13 -22 -15
-19 -4 -18 -5 5 -6 22 -1 28 3 25 16 -4 20 -33 29 -42 14z"/>
<path d="M682 1285 c0 -16 2 -22 5 -12 2 9 2 23 0 30 -3 6 -5 -1 -5 -18z"/>
<path d="M1361 1294 c0 -11 3 -14 6 -6 3 7 2 16 -1 19 -3 4 -6 -2 -5 -13z"/>
<path d="M1411 1294 c0 -11 3 -14 6 -6 3 7 2 16 -1 19 -3 4 -6 -2 -5 -13z"/>
<path d="M1581 1294 c0 -11 3 -14 6 -6 3 7 2 16 -1 19 -3 4 -6 -2 -5 -13z"/>
<path d="M548 1293 c7 -3 16 -2 19 1 4 3 -2 6 -13 5 -11 0 -14 -3 -6 -6z"/>
<path d="M520 1281 c0 -10 19 -25 25 -20 1 2 -3 10 -11 17 -8 7 -14 8 -14 3z"/>
<path d="M718 1268 c5 -5 16 -8 23 -6 8 3 3 7 -10 11 -17 4 -21 3 -13 -5z"/>
<path d="M788 1268 c5 -5 16 -8 23 -6 8 3 3 7 -10 11 -17 4 -21 3 -13 -5z"/>
<path d="M1320 1270 c-9 -6 -10 -10 -3 -10 6 0 15 5 18 10 8 12 4 12 -15 0z"/>
<path d="M1610 1270 c-13 -8 -12 -10 3 -10 9 0 17 5 17 10 0 12 -1 12 -20 0z"/>
<path d="M1738 1268 c5 -5 16 -8 23 -6 8 3 3 7 -10 11 -17 4 -21 3 -13 -5z"/>
<path d="M440 1096 c-25 -31 13 -97 40 -70 8 8 4 10 -12 10 -19 -1 -23 4 -23
29 0 24 4 30 22 29 12 0 20 3 17 8 -8 13 -30 9 -44 -6z"/>
<path d="M1380 1106 c0 -2 7 -7 16 -10 8 -3 12 -2 9 4 -6 10 -25 14 -25 6z"/>
<path d="M1497 1103 c-3 -5 5 -8 18 -8 13 0 21 3 18 8 -2 4 -10 7 -18 7 -8 0
-16 -3 -18 -7z"/>
<path d="M1580 1106 c0 -2 7 -7 16 -10 8 -3 12 -2 9 4 -6 10 -25 14 -25 6z"/>
<path d="M1696 1101 c-4 -5 3 -7 14 -4 25 7 26 -13 3 -41 -16 -19 -15 -19 6 1
15 13 21 28 18 37 -7 17 -32 22 -41 7z"/>
<path d="M1780 1106 c0 -2 7 -7 16 -10 8 -3 12 -2 9 4 -6 10 -25 14 -25 6z"/>
<path d="M1928 1103 c6 -2 18 -2 25 0 6 3 1 5 -13 5 -14 0 -19 -2 -12 -5z"/>
<path d="M2043 1065 c0 -27 2 -38 4 -22 2 15 2 37 0 50 -2 12 -4 0 -4 -28z"/>
<path d="M2100 1095 c-6 -8 -10 -20 -7 -27 4 -8 6 -7 6 4 1 9 9 22 19 27 9 6
12 11 6 11 -6 0 -17 -7 -24 -15z"/>
<path d="M2280 1106 c0 -2 7 -7 16 -10 8 -3 12 -2 9 4 -6 10 -25 14 -25 6z"/>
<path d="M2453 1103 c9 -2 25 -2 35 0 9 3 1 5 -18 5 -19 0 -27 -2 -17 -5z"/>
<path d="M2637 1103 c-3 -5 5 -8 18 -8 13 0 21 3 18 8 -2 4 -10 7 -18 7 -8 0
-16 -3 -18 -7z"/>
<path d="M699 1094 c-3 -20 3 -59 9 -66 4 -4 7 9 6 28 -1 31 -12 60 -15 38z"/>
<path d="M1298 1093 c7 -3 16 -2 19 1 4 3 -2 6 -13 5 -11 0 -14 -3 -6 -6z"/>
<path d="M2198 1093 c7 -3 16 -2 19 1 4 3 -2 6 -13 5 -11 0 -14 -3 -6 -6z"/>
<path d="M520 1079 c0 -5 5 -7 10 -4 6 3 10 8 10 11 0 2 -4 4 -10 4 -5 0 -10
-5 -10 -11z"/>
<path d="M566 1081 c-3 -5 3 -7 14 -4 11 3 20 1 20 -5 0 -6 -10 -13 -22 -15
-19 -4 -18 -5 5 -6 22 -1 28 3 25 16 -4 20 -33 29 -42 14z"/>
<path d="M636 1081 c-3 -5 3 -7 14 -4 11 3 20 1 20 -5 0 -5 -9 -12 -21 -15
-22 -6 -22 -29 -1 -33 7 -1 8 0 2 3 -15 7 -12 23 4 23 8 0 17 -8 20 -17 2 -10
4 -2 3 17 -2 34 -27 54 -41 31z"/>
<path d="M760 1086 c0 -2 7 -7 16 -10 8 -3 12 -2 9 4 -6 10 -25 14 -25 6z"/>
<path d="M814 1076 c-8 -22 -1 -49 14 -52 7 -1 8 0 2 3 -14 7 -13 50 3 56 9 4
9 6 -1 6 -7 1 -15 -5 -18 -13z"/>
<path d="M1362 1065 c0 -16 2 -22 5 -12 2 9 2 23 0 30 -3 6 -5 -1 -5 -18z"/>
<path d="M1762 1065 c0 -16 2 -22 5 -12 2 9 2 23 0 30 -3 6 -5 -1 -5 -18z"/>
<path d="M2593 1055 c0 -22 2 -30 4 -17 2 12 2 30 0 40 -3 9 -5 -1 -4 -23z"/>
<path d="M2817 1083 c-3 -5 5 -8 18 -8 13 0 21 3 18 8 -2 4 -10 7 -18 7 -8 0
-16 -3 -18 -7z"/>
<path d="M2882 1065 c0 -16 2 -22 5 -12 2 9 2 23 0 30 -3 6 -5 -1 -5 -18z"/>
<path d="M2953 1055 c0 -22 2 -30 4 -17 2 12 2 30 0 40 -3 9 -5 -1 -4 -23z"/>
<path d="M3005 1079 c-11 -16 -1 -19 13 -3 7 8 8 14 3 14 -5 0 -13 -5 -16 -11z"/>
<path d="M3106 1081 c-3 -5 3 -7 14 -4 11 3 20 1 20 -5 0 -5 -9 -12 -21 -15
-22 -6 -22 -29 -1 -33 7 -1 8 0 2 3 -15 7 -12 23 4 23 8 0 17 -8 20 -17 2 -10
4 -2 3 17 -2 34 -27 54 -41 31z"/>
<path d="M3175 1080 c-3 -6 1 -7 9 -4 18 7 21 14 7 14 -6 0 -13 -4 -16 -10z"/>
<path d="M3212 1048 c-2 -35 -6 -48 -19 -51 -17 -4 -17 -5 0 -6 22 -1 29 17
24 65 -3 38 -4 37 -5 -8z"/>
<path d="M3273 1080 c9 -6 17 -17 17 -25 0 -8 -8 -19 -17 -24 -10 -6 -13 -11
-7 -11 6 0 17 7 25 16 14 18 3 45 -22 51 -8 3 -7 0 4 -7z"/>
<path d="M741 1055 c0 -16 3 -25 7 -19 4 7 16 14 27 17 19 4 19 5 -2 6 -12 0
-24 7 -26 14 -3 6 -6 -1 -6 -18z"/>
<path d="M1411 1064 c0 -11 3 -14 6 -6 3 7 2 16 -1 19 -3 4 -6 -2 -5 -13z"/>
<path d="M1592 1071 c-11 -7 -11 -9 0 -14 9 -3 15 1 15 9 0 8 -1 14 -1 14 -1
0 -7 -4 -14 -9z"/>
<path d="M1811 1064 c0 -11 3 -14 6 -6 3 7 2 16 -1 19 -3 4 -6 -2 -5 -13z"/>
<path d="M1910 1076 c0 -2 11 -6 25 -8 13 -3 22 -1 19 3 -5 9 -44 13 -44 5z"/>
<path d="M2120 1073 c5 -2 10 -14 10 -25 0 -16 -5 -19 -21 -15 -16 4 -19 3
-11 -5 17 -17 44 -1 40 24 -2 12 -9 23 -16 24 -7 1 -8 0 -2 -3z"/>
<path d="M2292 1071 c-11 -7 -11 -9 0 -14 9 -3 15 1 15 9 0 8 -1 14 -1 14 -1
0 -7 -4 -14 -9z"/>
<path d="M3242 1055 c0 -16 2 -22 5 -12 2 9 2 23 0 30 -3 6 -5 -1 -5 -18z"/>
<path d="M3332 1055 c0 -16 2 -22 5 -12 2 9 2 23 0 30 -3 6 -5 -1 -5 -18z"/>
<path d="M1857 1052 c-24 -26 -21 -32 11 -31 24 2 25 2 4 6 -23 4 -23 5 -6 24
9 10 15 19 12 19 -3 0 -12 -8 -21 -18z"/>
<path d="M2782 1045 c0 -16 2 -22 5 -12 2 9 2 23 0 30 -3 6 -5 -1 -5 -18z"/>
<path d="M2364 1049 c-3 -5 9 -9 25 -9 17 0 31 2 31 4 0 8 -51 13 -56 5z"/>
<path d="M568 1028 c5 -5 16 -8 23 -6 8 3 3 7 -10 11 -17 4 -21 3 -13 -5z"/>
<path d="M1390 1030 c-9 -6 -10 -10 -3 -10 6 0 15 5 18 10 8 12 4 12 -15 0z"/>
<path d="M1790 1030 c-9 -6 -10 -10 -3 -10 6 0 15 5 18 10 8 12 4 12 -15 0z"/>
<path d="M1917 1028 c2 -5 10 -8 18 -8 8 0 16 3 18 8 3 4 -5 7 -18 7 -13 0
-21 -3 -18 -7z"/>
<path d="M2817 1028 c2 -5 10 -8 18 -8 8 0 16 3 18 8 3 4 -5 7 -18 7 -13 0
-21 -3 -18 -7z"/>
<path d="M2905 1030 c-19 -8 -19 -9 3 -9 12 -1 22 4 22 9 0 6 -1 10 -2 9 -2 0
-12 -4 -23 -9z"/>
<path d="M3008 1028 c5 -5 16 -8 23 -6 8 3 3 7 -10 11 -17 4 -21 3 -13 -5z"/>
<path d="M3177 1029 c7 -7 15 -10 18 -7 3 3 -2 9 -12 12 -14 6 -15 5 -6 -5z"/>
<path d="M1503 1023 c9 -2 25 -2 35 0 9 3 1 5 -18 5 -19 0 -27 -2 -17 -5z"/>
<path d="M1703 1023 c9 -2 23 -2 30 0 6 3 -1 5 -18 5 -16 0 -22 -2 -12 -5z"/>
<path d="M2643 1023 c9 -2 25 -2 35 0 9 3 1 5 -18 5 -19 0 -27 -2 -17 -5z"/>
<path d="M2742 863 c-4 -10 -5 -34 -1 -53 l6 -35 3 35 c1 19 2 39 1 44 -1 5 4
13 11 17 9 6 10 9 1 9 -7 0 -16 -8 -21 -17z"/>
<path d="M3373 830 c0 -30 2 -43 4 -27 2 15 2 39 0 55 -2 15 -4 2 -4 -28z"/>
<path d="M432 828 c-2 -46 -1 -48 26 -47 22 1 23 2 5 6 -18 3 -23 13 -26 46
l-4 42 -1 -47z"/>
<path d="M730 866 c0 -2 9 -6 20 -9 11 -3 18 -1 14 4 -5 9 -34 13 -34 5z"/>
<path d="M1380 866 c0 -2 7 -7 16 -10 8 -3 12 -2 9 4 -6 10 -25 14 -25 6z"/>
<path d="M1497 863 c-3 -5 5 -8 18 -8 13 0 21 3 18 8 -2 4 -10 7 -18 7 -8 0
-16 -3 -18 -7z"/>
<path d="M1580 866 c0 -2 7 -7 16 -10 8 -3 12 -2 9 4 -6 10 -25 14 -25 6z"/>
<path d="M1696 861 c-4 -5 3 -7 14 -4 25 7 26 -13 3 -41 -16 -19 -15 -19 6 1
15 13 21 28 18 37 -7 17 -32 22 -41 7z"/>
<path d="M1780 866 c0 -2 7 -7 16 -10 8 -3 12 -2 9 4 -6 10 -25 14 -25 6z"/>
<path d="M1928 863 c6 -2 18 -2 25 0 6 3 1 5 -13 5 -14 0 -19 -2 -12 -5z"/>
<path d="M2043 825 c0 -27 2 -38 4 -22 2 15 2 37 0 50 -2 12 -4 0 -4 -28z"/>
<path d="M2095 860 c-3 -6 1 -7 9 -4 18 7 21 14 7 14 -6 0 -13 -4 -16 -10z"/>
<path d="M2197 863 c-3 -5 5 -8 18 -8 13 0 21 3 18 8 -2 4 -10 7 -18 7 -8 0
-16 -3 -18 -7z"/>
<path d="M2290 855 c-9 -11 -10 -16 -2 -11 8 5 12 0 12 -13 0 -12 -7 -21 -16
-21 -9 0 -12 5 -8 12 4 7 3 8 -4 4 -18 -11 -14 -26 7 -26 11 0 21 -5 23 -12 8
-23 14 16 8 51 -5 32 -6 33 -20 16z"/>
<path d="M2460 866 c0 -2 7 -7 16 -10 8 -3 12 -2 9 4 -6 10 -25 14 -25 6z"/>
<path d="M639 854 c-3 -20 3 -59 9 -66 4 -4 7 9 6 28 -1 31 -12 60 -15 38z"/>
<path d="M1298 853 c7 -3 16 -2 19 1 4 3 -2 6 -13 5 -11 0 -14 -3 -6 -6z"/>
<path d="M2443 825 c0 -22 2 -30 4 -17 2 12 2 30 0 40 -3 9 -5 -1 -4 -23z"/>
<path d="M506 841 c-3 -5 3 -7 14 -4 11 3 20 0 20 -6 0 -6 -6 -11 -12 -11 -9
0 -10 -3 -2 -8 6 -4 14 -14 17 -22 4 -8 5 1 4 20 -2 34 -27 54 -41 31z"/>
<path d="M575 839 c-4 -6 -4 -13 -1 -16 3 -4 6 -1 6 6 0 8 8 11 20 8 11 -3 18
-1 14 4 -7 12 -31 11 -39 -2z"/>
<path d="M1362 825 c0 -16 2 -22 5 -12 2 9 2 23 0 30 -3 6 -5 -1 -5 -18z"/>
<path d="M1762 825 c0 -16 2 -22 5 -12 2 9 2 23 0 30 -3 6 -5 -1 -5 -18z"/>
<path d="M2593 815 c0 -22 2 -30 4 -17 2 12 2 30 0 40 -3 9 -5 -1 -4 -23z"/>
<path d="M2636 841 c-3 -5 3 -7 14 -4 11 3 20 0 20 -6 0 -6 -6 -11 -12 -11 -9
0 -10 -3 -2 -8 6 -4 14 -14 17 -22 4 -8 5 1 4 20 -2 34 -27 54 -41 31z"/>
<path d="M2800 846 c0 -2 7 -7 16 -10 8 -3 12 -2 9 4 -6 10 -25 14 -25 6z"/>
<path d="M2880 841 c0 -6 4 -13 10 -16 6 -3 7 1 4 9 -7 18 -14 21 -14 7z"/>
<path d="M2985 839 c-11 -16 -1 -19 13 -3 7 8 8 14 3 14 -5 0 -13 -5 -16 -11z"/>
<path d="M3055 840 c-3 -6 1 -7 9 -4 18 7 21 14 7 14 -6 0 -13 -4 -16 -10z"/>
<path d="M3125 840 c-3 -6 1 -7 9 -4 18 7 21 14 7 14 -6 0 -13 -4 -16 -10z"/>
<path d="M3263 815 c0 -22 2 -30 4 -17 2 12 2 30 0 40 -3 9 -5 -1 -4 -23z"/>
<path d="M3287 843 c6 -4 13 -22 16 -38 4 -27 5 -27 3 4 0 21 -7 36 -16 38
-10 3 -11 2 -3 -4z"/>
<path d="M3335 840 c-3 -6 1 -7 9 -4 18 7 21 14 7 14 -6 0 -13 -4 -16 -10z"/>
<path d="M3420 846 c0 -2 7 -7 16 -10 8 -3 12 -2 9 4 -6 10 -25 14 -25 6z"/>
<path d="M1411 824 c0 -11 3 -14 6 -6 3 7 2 16 -1 19 -3 4 -6 -2 -5 -13z"/>
<path d="M1592 831 c-11 -7 -11 -9 0 -14 9 -3 15 1 15 9 0 8 -1 14 -1 14 -1 0
-7 -4 -14 -9z"/>
<path d="M1811 824 c0 -11 3 -14 6 -6 3 7 2 16 -1 19 -3 4 -6 -2 -5 -13z"/>
<path d="M1910 836 c0 -2 11 -6 25 -8 13 -3 22 -1 19 3 -5 9 -44 13 -44 5z"/>
<path d="M2093 825 c0 -7 8 -10 19 -7 12 3 18 -1 18 -13 0 -13 -6 -16 -21 -12
-16 4 -19 3 -11 -5 15 -15 44 -2 40 18 -4 21 -45 38 -45 19z"/>
<path d="M2781 815 c0 -16 3 -25 7 -19 4 7 16 14 27 17 19 4 19 5 -2 6 -12 0
-24 7 -26 14 -3 6 -6 -1 -6 -18z"/>
<path d="M1857 812 c-24 -26 -21 -32 11 -31 24 2 25 2 4 6 -23 4 -23 5 -6 24
9 10 15 19 12 19 -3 0 -12 -8 -21 -18z"/>
<path d="M3065 820 l-30 -8 33 -1 c17 0 32 4 32 9 0 6 -1 9 -2 9 -2 -1 -16 -5
-33 -9z"/>
<path d="M3181 814 c0 -11 3 -14 6 -6 3 7 2 16 -1 19 -3 4 -6 -2 -5 -13z"/>
<path d="M3231 814 c0 -11 3 -14 6 -6 3 7 2 16 -1 19 -3 4 -6 -2 -5 -13z"/>
<path d="M600 813 c19 -9 10 -25 -11 -20 -16 4 -19 3 -11 -5 13 -13 45 -2 40
14 -2 6 -10 13 -16 14 -7 1 -8 0 -2 -3z"/>
<path d="M3430 813 c19 -9 10 -25 -11 -20 -16 4 -19 3 -11 -5 13 -13 45 -2 40
14 -2 6 -10 13 -16 14 -7 1 -8 0 -2 -3z"/>
<path d="M500 801 c0 -10 19 -25 25 -20 1 2 -3 10 -11 17 -8 7 -14 8 -14 3z"/>
<path d="M800 801 c0 -5 5 -13 10 -16 6 -3 10 -2 10 4 0 5 -4 13 -10 16 -5 3
-10 2 -10 -4z"/>
<path d="M2630 801 c0 -10 19 -25 25 -20 1 2 -3 10 -11 17 -8 7 -14 8 -14 3z"/>
<path d="M2905 799 c-4 -6 -5 -12 -2 -15 2 -3 7 2 10 11 7 17 1 20 -8 4z"/>
<path d="M745 790 c-16 -7 -17 -9 -3 -9 9 -1 20 4 23 9 7 11 7 11 -20 0z"/>
<path d="M1390 790 c-9 -6 -10 -10 -3 -10 6 0 15 5 18 10 8 12 4 12 -15 0z"/>
<path d="M1790 790 c-9 -6 -10 -10 -3 -10 6 0 15 5 18 10 8 12 4 12 -15 0z"/>
<path d="M1917 788 c2 -5 10 -8 18 -8 8 0 16 3 18 8 3 4 -5 7 -18 7 -13 0 -21
-3 -18 -7z"/>
<path d="M2470 790 c-9 -6 -10 -10 -3 -10 6 0 15 5 18 10 8 12 4 12 -15 0z"/>
<path d="M2988 788 c5 -5 16 -8 23 -6 8 3 3 7 -10 11 -17 4 -21 3 -13 -5z"/>
<path d="M3058 788 c5 -5 16 -8 23 -6 8 3 3 7 -10 11 -17 4 -21 3 -13 -5z"/>
<path d="M3127 789 c7 -7 15 -10 18 -7 3 3 -2 9 -12 12 -14 6 -15 5 -6 -5z"/>
<path d="M3337 789 c7 -7 15 -10 18 -7 3 3 -2 9 -12 12 -14 6 -15 5 -6 -5z"/>
<path d="M1503 783 c9 -2 25 -2 35 0 9 3 1 5 -18 5 -19 0 -27 -2 -17 -5z"/>
<path d="M1703 783 c9 -2 23 -2 30 0 6 3 -1 5 -18 5 -16 0 -22 -2 -12 -5z"/>
<path d="M2203 783 c9 -2 25 -2 35 0 9 3 1 5 -18 5 -19 0 -27 -2 -17 -5z"/>
<path d="M551 560 c-137 -33 -170 -218 -52 -297 45 -31 101 -35 396 -31 239 3
263 5 294 23 113 67 113 223 0 290 -32 19 -54 20 -319 22 -157 1 -300 -2 -319
-7z m179 -117 c0 -33 -29 -41 -49 -14 -15 20 -18 20 -36 7 -25 -19 -35 -20
-35 -3 0 25 25 37 72 36 43 -2 48 -4 48 -26z m143 -7 c6 -8 10 -7 14 2 7 18
64 15 79 -5 13 -17 13 -17 14 0 0 9 7 17 15 17 8 0 15 -8 15 -17 1 -17 1 -17
11 0 11 18 64 24 74 7 11 -18 -5 -32 -21 -19 -19 15 -39 -2 -31 -26 5 -11 14
-14 33 -9 20 5 26 3 22 -7 -7 -22 -60 -24 -75 -3 -12 16 -13 16 -13 1 0 -24
-26 -21 -44 5 l-16 22 0 -22 c0 -13 -6 -22 -15 -22 -11 0 -15 11 -15 38 0 27
-3 33 -10 22 -5 -8 -10 -25 -10 -37 0 -34 -24 -28 -38 10 -10 26 -17 32 -43
33 l-32 1 26 -14 c16 -8 27 -22 27 -34 0 -17 -5 -20 -37 -17 -20 2 -39 9 -41
17 -4 11 2 12 24 7 l29 -6 -27 20 c-39 30 -27 50 31 48 25 0 50 -6 54 -12z
m-229 -32 c8 -3 12 -12 9 -20 -7 -19 16 -18 38 2 26 24 43 14 23 -14 -13 -19
-24 -22 -65 -21 -43 2 -49 5 -49 24 0 33 12 41 44 29z"/>
<path d="M1441 560 c-137 -33 -170 -218 -52 -297 47 -32 97 -35 506 -31 349 3
372 4 404 23 113 67 113 223 0 290 -32 19 -54 20 -429 22 -217 1 -410 -2 -429
-7z m177 -119 c-4 -34 -44 -42 -56 -11 -7 18 -10 19 -26 7 -13 -10 -16 -20
-11 -36 6 -20 12 -22 41 -18 42 7 49 -19 8 -29 -59 -15 -103 41 -70 91 15 22
23 25 67 24 48 -2 50 -3 47 -28z m112 -3 c0 -10 2 -10 8 0 11 17 363 16 374
-2 6 -8 8 -8 8 2 0 6 7 12 15 12 8 0 15 -7 15 -15 0 -8 5 -15 10 -15 6 0 10 7
10 15 0 8 7 15 15 15 11 0 15 -12 15 -45 0 -33 -4 -45 -15 -45 -8 0 -15 7 -15
15 0 8 -4 15 -10 15 -5 0 -10 -6 -10 -14 0 -11 -23 -14 -106 -15 -91 -1 -108
1 -120 16 -13 17 -13 17 -14 1 0 -22 -30 -24 -30 -3 0 8 -9 15 -20 15 -11 0
-20 -7 -20 -15 0 -24 -125 -21 -139 3 -10 16 -10 16 -11 0 0 -10 -7 -18 -15
-18 -11 0 -15 12 -15 45 0 45 0 45 35 45 21 0 35 -5 35 -12z"/>
<path d="M1770 426 c0 -2 9 -6 20 -9 11 -3 20 -1 20 4 0 5 -9 9 -20 9 -11 0
-20 -2 -20 -4z"/>
<path d="M1840 426 c0 -2 9 -6 20 -9 11 -3 20 -1 20 4 0 5 -9 9 -20 9 -11 0
-20 -2 -20 -4z"/>
<path d="M2008 420 c12 -5 22 -14 22 -19 0 -5 -10 -11 -22 -13 -13 -2 1 -4 30
-4 50 0 52 1 28 13 -14 8 -26 18 -26 23 0 6 -12 10 -27 9 -27 0 -27 -1 -5 -9z"/>
<path d="M2073 423 c9 -14 47 -24 47 -12 0 5 -4 9 -9 9 -5 0 -17 3 -27 7 -11
4 -15 3 -11 -4z"/>
<path d="M1727 407 c-3 -8 -1 -20 4 -28 6 -10 9 -7 9 14 0 29 -5 35 -13 14z"/>
<path d="M1785 390 c-19 -8 -19 -9 3 -9 12 -1 22 4 22 9 0 6 -1 10 -2 9 -2 0
-12 -4 -23 -9z"/>
<path d="M2551 560 c-137 -33 -170 -218 -52 -297 46 -31 99 -35 456 -31 299 3
322 4 354 23 65 38 97 110 81 182 -11 46 -38 83 -81 108 -32 19 -54 20 -379
22 -190 1 -360 -2 -379 -7z m139 -90 c19 0 40 -33 40 -62 0 -42 -25 -68 -66
-68 -53 0 -88 54 -64 100 13 23 48 41 68 34 8 -2 17 -4 22 -4z m149 -37 c10
-17 10 -17 11 0 0 14 9 17 50 17 l50 0 0 -35 c0 -28 4 -35 20 -35 16 0 20 7
20 35 l0 35 115 0 c70 0 115 -4 115 -10 0 -5 -10 -10 -22 -10 -21 -1 -21 -2
-5 -11 9 -5 17 -14 17 -19 0 -5 -8 -11 -17 -13 -14 -4 -12 -5 5 -6 36 -2 25
-21 -13 -21 -33 0 -35 2 -35 35 0 24 -5 35 -15 35 -10 0 -15 -11 -15 -35 0
-24 -5 -35 -15 -35 -10 0 -15 11 -15 35 0 34 -1 35 -37 34 -33 0 -35 -1 -15
-9 12 -5 22 -14 22 -20 0 -5 -10 -11 -22 -11 l-23 -2 23 -4 c12 -2 22 -9 22
-14 0 -5 -47 -9 -105 -9 -93 0 -105 2 -105 18 -1 16 -1 16 -11 0 -6 -12 -22
-18 -44 -18 -35 0 -35 0 -35 45 0 45 0 45 35 45 22 0 38 -6 44 -17z"/>
<path d="M2790 405 c0 -17 5 -25 13 -22 6 2 12 12 12 22 0 10 -6 20 -12 23 -8
2 -13 -6 -13 -23z"/>
<path d="M2880 426 c0 -2 9 -6 20 -9 11 -3 20 -1 20 4 0 5 -9 9 -20 9 -11 0
-20 -2 -20 -4z"/>
<path d="M2895 390 c-19 -8 -19 -9 3 -9 12 -1 22 4 22 9 0 6 -1 10 -2 9 -2 0
-12 -4 -23 -9z"/>
</g>
</svg>
